<?xml version="1.0" encoding="UTF-8"?>
<svg version="1.1" xmlns="http://www.w3.org/2000/svg" width="180" height="180">
<path d="M0 0 C59.4 0 118.8 0 180 0 C180 59.4 180 118.8 180 180 C120.6 180 61.2 180 0 180 C0 120.6 0 61.2 0 0 Z " fill="#FEFEFE" transform="translate(0,0)"/>
<path d="M0 0 C7.26 0 14.52 0 22 0 C22 9.9 22 19.8 22 30 C23.98 29.67 25.96 29.34 28 29 C32.56060022 28.76116828 37.12122861 28.76905591 41.6875 28.75 C42.90373047 28.729375 44.11996094 28.70875 45.37304688 28.6875 C56.23452297 28.6408592 65.51802223 29.80063887 73.9921875 36.96875 C81.3330539 44.39530745 84.31566382 51.76459325 84.265625 62.02734375 C84.26753845 62.89388077 84.2694519 63.76041779 84.27142334 64.6532135 C84.27278102 66.48129569 84.26911377 68.30938765 84.26074219 70.13745117 C84.25004973 72.92453859 84.26064489 75.71097957 84.2734375 78.49804688 C84.27211558 80.27864725 84.26955251 82.05924722 84.265625 83.83984375 C84.26967346 84.66814194 84.27372192 85.49644012 84.27789307 86.34983826 C84.20471371 95.45312805 81.17469845 102.54645719 74.953125 109.18359375 C65.90975238 117.68124561 58.14769344 118.44043062 46.09375 118.29296875 C44.92231445 118.28994751 43.75087891 118.28692627 42.54394531 118.28381348 C38.19587306 118.26819621 33.84792706 118.2263126 29.5 118.1875 C19.765 118.125625 10.03 118.06375 0 118 C0 79.06 0 40.12 0 0 Z " fill="#14957D" transform="translate(49,33)"/>
<path d="M0 0 C6.93 0 13.86 0 21 0 C22.20949078 32.05150578 21.99671613 63.94603332 21 96 C25.89348249 95.93099179 30.78612117 95.84296256 35.67895508 95.73754883 C37.34227108 95.70436345 39.00569796 95.67631166 40.66918945 95.65356445 C43.06509499 95.61990001 45.45999035 95.5675806 47.85546875 95.51171875 C48.5952446 95.50532883 49.33502045 95.4989389 50.09721375 95.49235535 C54.60159378 95.36504674 57.31264932 94.55821387 61 92 C61.66 92 62.32 92 63 92 C63 100.25 63 108.5 63 117 C59.79652541 118.06782486 57.51812177 118.12058306 54.15161133 118.11352539 C52.93380981 118.11340454 51.7160083 118.11328369 50.46130371 118.11315918 C48.54106384 118.10548523 48.54106384 118.10548523 46.58203125 118.09765625 C45.4055603 118.09664917 44.22908936 118.09564209 43.01696777 118.09460449 C38.61546862 118.08936613 34.21398335 118.0754049 29.8125 118.0625 C19.974375 118.041875 10.13625 118.02125 0 118 C0 79.06 0 40.12 0 0 Z " fill="#142E46" transform="translate(49,33)"/>
<path d="M0 0 C2.10084701 -0.01718633 4.2001085 -0.06106997 6.30053711 -0.10522461 C7.64232244 -0.1153545 8.98412112 -0.12386968 10.32592773 -0.13061523 C12.15281128 -0.15248901 12.15281128 -0.15248901 14.01660156 -0.17480469 C17.91449401 0.38203709 19.53314351 1.55821466 22.30639648 4.29516602 C24.49354039 8.66945383 23.5335027 14.55476736 23.54663086 19.41601562 C23.55631338 21.58901585 23.58732474 23.76106065 23.61889648 25.93383789 C23.62542917 27.32120208 23.6306786 28.70857302 23.63452148 30.09594727 C23.64854004 31.98567261 23.64854004 31.98567261 23.6628418 33.91357422 C23.27541183 37.58911697 22.5944023 39.41771771 20.30639648 42.29516602 C16.75193428 45.03879873 12.55084395 44.54994324 8.25952148 44.49047852 C7.10271881 44.48623367 7.10271881 44.48623367 5.92254639 44.48190308 C3.46700317 44.47073614 1.01182888 44.4456383 -1.44360352 44.42016602 C-3.11156699 44.41013169 -4.77953619 44.40100663 -6.44750977 44.39282227 C-10.52968249 44.37080826 -14.61158051 44.33630268 -18.69360352 44.29516602 C-18.79280901 39.13571729 -18.86522998 33.97682912 -18.91333008 28.81665039 C-18.93339061 27.06297122 -18.96064603 25.30935849 -18.99536133 23.5559082 C-19.04412654 21.02872284 -19.06662743 18.50242511 -19.08422852 15.97485352 C-19.10487366 15.19649139 -19.1255188 14.41812927 -19.14678955 13.61618042 C-19.14892284 8.38885012 -18.15283779 5.4451214 -14.69360352 1.29516602 C-10.41224282 -0.84551433 -4.75223888 0.02709877 0 0 Z " fill="#F9FBFB" transform="translate(88.693603515625,84.704833984375)"/>
<path d="M0 0 C0.33 0 0.66 0 1 0 C1 9.9 1 19.8 1 30 C2.98 29.67 4.96 29.34 7 29 C9.23585359 28.92193483 11.47374504 28.8920814 13.7109375 28.90234375 C14.95488281 28.90556641 16.19882813 28.90878906 17.48046875 28.91210938 C18.76566406 28.92048828 20.05085938 28.92886719 21.375 28.9375 C22.68339844 28.94201172 23.99179688 28.94652344 25.33984375 28.95117188 C28.55994281 28.96292406 31.7799477 28.97935457 35 29 C35 29.33 35 29.66 35 30 C34.22285645 30.02505615 33.44571289 30.0501123 32.64501953 30.07592773 C29.13816931 30.19166796 25.63160255 30.31449352 22.125 30.4375 C20.90167969 30.47681641 19.67835937 30.51613281 18.41796875 30.55664062 C17.25136719 30.59853516 16.08476563 30.64042969 14.8828125 30.68359375 C13.80402832 30.72025146 12.72524414 30.75690918 11.61376953 30.79467773 C9.01930464 30.83376643 9.01930464 30.83376643 7 32 C7.66 32.33 8.32 32.66 9 33 C9 33.66 9 34.32 9 35 C7.35 35 5.7 35 4 35 C4 34.01 4 33.02 4 32 C3.34 32 2.68 32 2 32 C2.33 38.6 2.66 45.2 3 52 C3.99 52.33 4.98 52.66 6 53 C4.35 54.32 2.7 55.64 1 57 C0.07867912 37.98305487 -0.1241411 19.03369547 0 0 Z " fill="#5CA79C" transform="translate(70,33)"/>
<path d="M0 0 C0.33 11.55 0.66 23.1 1 35 C0.34 35 -0.32 35 -1 35 C-1 34.01 -1 33.02 -1 32 C-1.66 32 -2.32 32 -3 32 C-3 21.77 -3 11.54 -3 1 C-1 0 -1 0 0 0 Z " fill="#DEF0EE" transform="translate(136,90)"/>
<path d="M0 0 C0.66163651 0.0028299 1.32327301 0.00565979 2.00495911 0.00857544 C4.11416862 0.01975332 6.2229505 0.04485269 8.33203125 0.0703125 C9.76366573 0.08034543 11.19530689 0.08947074 12.62695312 0.09765625 C16.13295102 0.11968455 19.63869938 0.15419765 23.14453125 0.1953125 C23.14453125 0.5253125 23.14453125 0.8553125 23.14453125 1.1953125 C22.32251221 1.19942139 21.50049316 1.20353027 20.65356445 1.20776367 C16.92066083 1.24070493 13.18938791 1.31135354 9.45703125 1.3828125 C8.16345703 1.38861328 6.86988281 1.39441406 5.53710938 1.40039062 C4.28994141 1.42939453 3.04277344 1.45839844 1.7578125 1.48828125 C0.03751831 1.51184692 0.03751831 1.51184692 -1.7175293 1.53588867 C-5.7235452 2.37773485 -7.16464558 4.2074562 -9.85546875 7.1953125 C-10.51546875 7.1953125 -11.17546875 7.1953125 -11.85546875 7.1953125 C-9.57709473 0.53544997 -6.76150584 -0.05705912 0 0 Z " fill="#EDF7F8" transform="translate(82.85546875,84.8046875)"/>
<path d="M0 0 C0.8971875 0.309375 0.8971875 0.309375 1.8125 0.625 C0.6928014 1.63093243 -0.4334412 2.6295849 -1.5625 3.625 C-2.18898438 4.181875 -2.81546875 4.73875 -3.4609375 5.3125 C-5.1875 6.625 -5.1875 6.625 -7.1875 6.625 C-4.6484375 -0.796875 -4.6484375 -0.796875 0 0 Z " fill="#D8F3F0" transform="translate(78.1875,85.375)"/>
<path d="M0 0 C2.51083114 1.25541557 2.87125446 2.50063488 4 5 C3.01 6.485 3.01 6.485 2 8 C0.02 4.535 0.02 4.535 -2 1 C-1.34 0.67 -0.68 0.34 0 0 Z " fill="#E9F7F5" transform="translate(127,71)"/>
<path d="M0 0 C0 0.66 0 1.32 0 2 C-0.66 2 -1.32 2 -2 2 C-2.33 2.66 -2.66 3.32 -3 4 C-4.98 3.34 -6.96 2.68 -9 2 C-9 1.67 -9 1.34 -9 1 C-5.94152152 0.45627049 -3.11227195 0 0 0 Z " fill="#DCF3F0" transform="translate(119,62)"/>
</svg>
