<svg width="53" height="40" viewBox="0 0 53 40" fill="none" xmlns="http://www.w3.org/2000/svg">
<path d="M0 8C0 3.58172 3.58172 0 8 0H45C49.4183 0 53 3.58172 53 8V32C53 36.4183 49.4183 40 45 40H8C3.58172 40 0 36.4183 0 32V8Z" fill="white"/>
<path d="M4 8C4 5.79086 5.79086 4 8 4C10.2091 4 12 5.79086 12 8C12 10.2091 10.2091 12 8 12C5.79086 12 4 10.2091 4 8Z" fill="#00A6E8"/>
<path d="M16 8C16 5.79086 17.7909 4 20 4C22.2091 4 24 5.79086 24 8C24 10.2091 22.2091 12 20 12C17.7909 12 16 10.2091 16 8Z" fill="#008433"/>
<path d="M28 8C28 5.79086 29.7909 4 32 4C34.2091 4 36 5.79086 36 8C36 10.2091 34.2091 12 32 12C29.7909 12 28 10.2091 28 8Z" fill="#00A6E8"/>
<path d="M40 8C40 5.79086 41.7909 4 44 4C46.2091 4 48 5.79086 48 8C48 10.2091 46.2091 12 44 12C41.7909 12 40 10.2091 40 8Z" fill="#E8AD00"/>
<path d="M4 20C4 17.7909 5.79086 16 8 16C10.2091 16 12 17.7909 12 20C12 22.2091 10.2091 24 8 24C5.79086 24 4 22.2091 4 20Z" fill="#008433"/>
<path d="M16 20C16 17.7909 17.7909 16 20 16C22.2091 16 24 17.7909 24 20C24 22.2091 22.2091 24 20 24C17.7909 24 16 22.2091 16 20Z" fill="#E62E2E"/>
<path d="M28 20C28 17.7909 29.7909 16 32 16C34.2091 16 36 17.7909 36 20C36 22.2091 34.2091 24 32 24C29.7909 24 28 22.2091 28 20Z" fill="#E8AD00"/>
<path d="M40 20C40 17.7909 41.7909 16 44 16C46.2091 16 48 17.7909 48 20C48 22.2091 46.2091 24 44 24C41.7909 24 40 22.2091 40 20Z" fill="#00EBC2"/>
<path d="M4 32C4 29.7909 5.79086 28 8 28C10.2091 28 12 29.7909 12 32C12 34.2091 10.2091 36 8 36C5.79086 36 4 34.2091 4 32Z" fill="#317BBF"/>
<path d="M16 32C16 29.7909 17.7909 28 20 28C22.2091 28 24 29.7909 24 32C24 34.2091 22.2091 36 20 36C17.7909 36 16 34.2091 16 32Z" fill="#E62E2E"/>
<path d="M28 32C28 29.7909 29.7909 28 32 28C34.2091 28 36 29.7909 36 32C36 34.2091 34.2091 36 32 36C29.7909 36 28 34.2091 28 32Z" fill="#00EBC2"/>
<path d="M40 32C40 29.7909 41.7909 28 44 28C46.2091 28 48 29.7909 48 32C48 34.2091 46.2091 36 44 36C41.7909 36 40 34.2091 40 32Z" fill="#317BBF"/>
</svg>
