<svg width="16" height="18" viewBox="0 0 16 18" fill="none" xmlns="http://www.w3.org/2000/svg">
<path d="M13.3812 17.28C12.4012 18.23 11.3312 18.08 10.3012 17.63C9.21122 17.17 8.21122 17.15 7.06122 17.63C5.62122 18.25 4.86122 18.07 4.00122 17.28C-0.878781 12.25 -0.158781 4.59 5.38122 4.31C6.73122 4.38 7.67122 5.05 8.46122 5.11C9.64122 4.87 10.7712 4.18 12.0312 4.27C13.5412 4.39 14.6812 4.99 15.4312 6.07C12.3112 7.94 13.0512 12.05 15.9112 13.2C15.3412 14.7 14.6012 16.19 13.3712 17.29L13.3812 17.28ZM8.36122 4.25C8.21122 2.02 10.0212 0.18 12.1012 0C12.3912 2.58 9.76122 4.5 8.36122 4.25Z" fill="black"/>
</svg>
