<svg width="467" height="200" viewBox="0 0 467 200" fill="none" xmlns="http://www.w3.org/2000/svg">
<g clip-path="url(#clip0_5540_4987)">
<path d="M64.127 93.9645C66.2429 89.7243 69.1283 86.4749 72.7638 84.1963C76.3994 81.9178 80.4581 80.7686 84.9592 80.7686C88.8833 80.7686 92.3073 81.5809 95.2503 83.2056C98.1934 84.8304 100.559 86.891 102.329 89.3677V81.6404H115.717V135.831H102.329V127.905C100.617 130.442 98.2703 132.562 95.2503 134.206C92.2495 135.87 88.7871 136.703 84.8631 136.703C80.4388 136.703 76.3994 135.534 72.7638 133.176C69.1283 130.838 66.2429 127.529 64.127 123.249C62.0111 118.969 60.9531 114.075 60.9531 108.528C60.9531 102.98 62.0111 98.2046 64.127 93.9447V93.9645ZM100.444 100.186C99.1744 97.8083 97.4624 95.9855 95.308 94.7174C93.1536 93.4493 90.8453 92.8153 88.3639 92.8153C85.8825 92.8153 83.6127 93.4295 81.5353 94.6778C79.4386 95.9062 77.7459 97.7291 76.4571 100.107C75.1683 102.484 74.5143 105.318 74.5143 108.567C74.5143 111.817 75.1683 114.69 76.4571 117.127C77.7459 119.564 79.4578 121.446 81.593 122.754C83.7281 124.061 85.9787 124.715 88.3832 124.715C90.7876 124.715 93.1536 124.081 95.3273 122.813C97.4817 121.545 99.1936 119.722 100.463 117.345C101.733 114.967 102.368 112.114 102.368 108.785C102.368 105.456 101.733 102.603 100.463 100.226L100.444 100.186Z" fill="#195B5C"/>
<path d="M148.739 83.306C151.49 81.6813 154.645 80.8491 158.184 80.8491V95.2339H154.664C150.49 95.2339 147.335 96.2444 145.219 98.2654C143.103 100.286 142.026 103.813 142.026 108.826V135.812H128.734V81.6417H142.026V90.0427C143.738 87.1697 145.97 84.9307 148.72 83.306H148.739Z" fill="#195B5C"/>
<path d="M187.107 83.306C189.857 81.6813 193.012 80.8491 196.551 80.8491V95.2339H193.031C188.857 95.2339 185.702 96.2444 183.587 98.2654C181.471 100.286 180.393 103.813 180.393 108.826V135.812H167.102V81.6417H180.393V90.0427C182.105 87.1697 184.337 84.9307 187.087 83.306H187.107Z" fill="#195B5C"/>
<path d="M218.761 81.6401V135.831H205.469V81.6401H218.761Z" fill="#195B5C"/>
<path d="M231.769 94.0239C233.982 89.8234 237.059 86.5542 240.983 84.236C244.907 81.9177 249.409 80.7686 254.468 80.7686C260.988 80.7686 266.374 82.4527 270.664 85.8012C274.934 89.1696 277.8 93.8654 279.262 99.9284H264.932C264.182 97.5706 262.893 95.7477 261.085 94.4004C259.276 93.0531 257.045 92.3992 254.391 92.3992C250.601 92.3992 247.581 93.8258 245.369 96.6591C243.157 99.4925 242.041 103.515 242.041 108.746C242.041 113.976 243.157 117.899 245.369 120.733C247.581 123.566 250.582 124.993 254.391 124.993C259.777 124.993 263.277 122.516 264.932 117.563H279.262C277.8 123.427 274.934 128.084 270.626 131.551C266.317 134.999 260.931 136.742 254.487 136.742C249.428 136.742 244.927 135.593 241.003 133.275C237.079 130.957 234.001 127.707 231.789 123.487C229.577 119.286 228.461 114.373 228.461 108.765C228.461 103.158 229.557 98.2641 231.789 94.0437L231.769 94.0239Z" fill="#195B5C"/>
<path d="M288.799 93.9645C290.915 89.7243 293.8 86.4749 297.436 84.1963C301.071 81.9178 305.13 80.7686 309.631 80.7686C313.555 80.7686 316.979 81.5809 319.922 83.2056C322.865 84.8304 325.231 86.891 327.001 89.3677V81.6404H340.389V135.831H327.001V127.905C325.289 130.442 322.942 132.562 319.922 134.206C316.921 135.87 313.459 136.703 309.535 136.703C305.111 136.703 301.071 135.534 297.436 133.176C293.8 130.838 290.915 127.529 288.799 123.249C286.683 118.969 285.625 114.075 285.625 108.528C285.625 102.98 286.683 98.2046 288.799 93.9447V93.9645ZM325.116 100.186C323.846 97.8083 322.134 95.9855 319.98 94.7174C317.826 93.4493 315.517 92.8153 313.036 92.8153C310.554 92.8153 308.285 93.4295 306.207 94.6778C304.11 95.9062 302.418 97.7291 301.129 100.107C299.84 102.484 299.186 105.318 299.186 108.567C299.186 111.817 299.84 114.69 301.129 117.127C302.418 119.564 304.13 121.446 306.265 122.754C308.4 124.061 310.651 124.715 313.055 124.715C315.46 124.715 317.826 124.081 319.999 122.813C322.154 121.545 323.866 119.722 325.135 117.345C326.405 114.967 327.039 112.114 327.039 108.785C327.039 105.456 326.405 102.603 325.135 100.226L325.116 100.186Z" fill="#195B5C"/>
<path d="M353.194 93.9667C355.31 89.7266 358.214 86.4771 361.888 84.1986C365.562 81.92 369.64 80.7708 374.141 80.7708C377.565 80.7708 380.816 81.5435 383.932 83.0692C387.029 84.5948 389.491 86.6356 391.338 89.1916V63.4536H404.822V135.833H391.338V127.809C389.684 130.483 387.375 132.623 384.413 134.268C381.432 135.893 377.988 136.705 374.064 136.705C369.64 136.705 365.581 135.536 361.907 133.178C358.233 130.84 355.348 127.531 353.213 123.251C351.078 118.972 350.039 114.078 350.039 108.53C350.039 102.982 351.097 98.2069 353.213 93.9469L353.194 93.9667ZM389.511 100.188C388.241 97.8106 386.529 95.9877 384.375 94.7196C382.22 93.4516 379.912 92.8175 377.431 92.8175C374.949 92.8175 372.679 93.4317 370.602 94.68C368.505 95.9085 366.813 97.7313 365.524 100.109C364.235 102.487 363.581 105.32 363.581 108.569C363.581 111.819 364.235 114.692 365.524 117.129C366.813 119.566 368.525 121.448 370.66 122.756C372.795 124.064 375.045 124.718 377.45 124.718C379.854 124.718 382.22 124.084 384.394 122.815C386.548 121.547 388.26 119.725 389.53 117.347C390.799 114.969 391.434 112.116 391.434 108.787C391.434 105.459 390.799 102.605 389.53 100.228L389.511 100.188Z" fill="#195B5C"/>
<path d="M466.335 112.847H427.883C428.19 116.75 429.537 119.821 431.864 122.04C434.192 124.26 437.097 125.369 440.501 125.369C445.445 125.369 448.946 123.19 451.042 118.811H465.373C463.853 124.022 460.949 128.321 456.64 131.67C452.331 135.018 447.041 136.703 440.79 136.703C435.731 136.703 431.191 135.553 427.171 133.235C423.151 130.917 420.015 127.648 417.765 123.408C415.514 119.168 414.398 114.274 414.398 108.726C414.398 103.178 415.495 98.2046 417.726 93.9645C419.938 89.7243 423.035 86.4749 427.036 84.1963C431.018 81.9178 435.615 80.7686 440.809 80.7686C446.003 80.7686 450.292 81.8781 454.255 84.0973C458.198 86.3164 461.276 89.4668 463.469 93.5286C465.642 97.6102 466.739 102.286 466.739 107.557C466.739 109.518 466.604 111.262 466.354 112.847H466.335ZM452.947 103.653C452.889 100.127 451.658 97.313 449.234 95.1929C446.83 93.0729 443.887 92.0227 440.405 92.0227C437.116 92.0227 434.346 93.053 432.095 95.0939C429.845 97.1545 428.479 100.008 427.96 103.653H452.927H452.947Z" fill="#195B5C"/>
<path d="M218.788 70.1306C218.788 73.9151 215.807 76.9664 212.152 76.9664C208.478 76.9664 205.516 73.8953 205.516 70.1306C205.516 66.3462 208.497 63.2949 212.152 63.2949C215.826 63.2949 218.788 66.366 218.788 70.1306Z" fill="#12957D"/>
<path d="M13.2918 82.5738V63.4536H0V101.278C0 92.5599 5.59758 85.11 13.2918 82.5738Z" fill="#195B5C"/>
<path d="M33.552 81.6401H19.0676C17.0478 81.6401 15.1243 81.977 13.2969 82.5714V101.276C13.2969 98.0063 15.8937 95.3314 19.0676 95.3314H33.552C36.7259 95.3314 39.3227 98.0063 39.3227 101.276V134.899C46.9978 132.363 52.6146 124.933 52.6146 116.195V101.276C52.6146 90.477 44.0355 81.6401 33.552 81.6401Z" fill="#12957D"/>
<path d="M33.547 122.14H13.2918V82.5718C5.59758 85.1079 0 92.5579 0 101.276V135.831H13.2918H19.0625H33.547C35.5667 135.831 37.4903 135.494 39.3177 134.9V116.196C39.3177 119.465 36.7209 122.14 33.547 122.14Z" fill="#195B5C"/>
</g>
<defs>
<clipPath id="clip0_5540_4987">
<rect width="466.676" height="73.4098" fill="white" transform="translate(0 63.2949)"/>
</clipPath>
</defs>
</svg>
