<svg width="62" height="16" viewBox="0 0 62 16" fill="none" xmlns="http://www.w3.org/2000/svg">
<path d="M0.5625 4.21194C0.5625 2.40001 2.03136 0.931152 3.84329 0.931152H12.0453C13.8572 0.931152 15.326 2.40001 15.326 4.21194V12.4139C15.326 14.2258 13.8572 15.6947 12.0453 15.6947H3.84329C2.03136 15.6947 0.5625 14.2258 0.5625 12.4139V4.21194Z" fill="#00261F"/>
<path d="M6.10929 5.99208V3.39209H4.25391V8.5355C4.25391 7.35001 5.03526 6.33695 6.10929 5.99208Z" fill="white"/>
<path d="M8.93676 5.86523H6.9149C6.63296 5.86523 6.36446 5.91104 6.10938 5.99187V8.53528C6.10938 8.09072 6.47186 7.72699 6.9149 7.72699H8.93676C9.3798 7.72699 9.74228 8.09072 9.74228 8.53528V13.1075C10.8136 12.7626 11.5977 11.7523 11.5977 10.5641V8.53528C11.5977 7.06689 10.4001 5.86523 8.93676 5.86523Z" fill="#10957D"/>
<path d="M8.93668 11.3722H6.10929V5.9917C5.03526 6.33657 4.25391 7.34962 4.25391 8.53511V13.234H6.10929H6.91482H8.93668C9.21861 13.234 9.48712 13.1882 9.7422 13.1073V10.5639C9.7422 11.0085 9.37972 11.3722 8.93668 11.3722Z" fill="white"/>
<g clip-path="url(#clip0_7001_1494)">
<path d="M25.1751 7.76885C25.3648 7.38985 25.6234 7.09941 25.9493 6.89574C26.2751 6.69207 26.6389 6.58936 27.0424 6.58936C27.3941 6.58936 27.701 6.66197 27.9648 6.80719C28.2286 6.95241 28.4407 7.1366 28.5993 7.35797V6.66728H29.7993V11.511H28.5993V10.8026C28.4459 11.0293 28.2355 11.2188 27.9648 11.3658C27.6958 11.5145 27.3855 11.5889 27.0338 11.5889C26.6372 11.5889 26.2751 11.4844 25.9493 11.2737C25.6234 11.0647 25.3648 10.7689 25.1751 10.3864C24.9855 10.0039 24.8906 9.56642 24.8906 9.07053C24.8906 8.57465 24.9855 8.14784 25.1751 7.76707V7.76885ZM28.4303 8.32494C28.3165 8.11242 28.1631 7.94949 27.97 7.83614C27.7769 7.7228 27.57 7.66613 27.3476 7.66613C27.1251 7.66613 26.9217 7.72103 26.7355 7.8326C26.5476 7.9424 26.3958 8.10534 26.2803 8.31786C26.1648 8.53038 26.1062 8.78363 26.1062 9.07408C26.1062 9.36452 26.1648 9.62132 26.2803 9.83915C26.3958 10.057 26.5493 10.2252 26.7407 10.3421C26.932 10.459 27.1338 10.5174 27.3493 10.5174C27.5648 10.5174 27.7769 10.4608 27.9717 10.3474C28.1648 10.2341 28.3183 10.0712 28.4321 9.85863C28.5459 9.64611 28.6028 9.39109 28.6028 9.09356C28.6028 8.79603 28.5459 8.541 28.4321 8.32848L28.4303 8.32494Z" fill="#005143"/>
<path d="M32.758 6.81628C33.0045 6.67106 33.2873 6.59668 33.6045 6.59668V7.88243H33.289C32.9149 7.88243 32.6321 7.97275 32.4425 8.15339C32.2528 8.33404 32.1562 8.64928 32.1562 9.09734V11.5094H30.9648V6.66752H32.1562V7.41843C32.3097 7.16163 32.5097 6.96151 32.7563 6.81628H32.758Z" fill="#005143"/>
<path d="M36.1955 6.81628C36.442 6.67106 36.7248 6.59668 37.042 6.59668V7.88243H36.7265C36.3524 7.88243 36.0696 7.97275 35.88 8.15339C35.6903 8.33404 35.5937 8.64928 35.5937 9.09734V11.5094H34.4023V6.66752H35.5937V7.41843C35.7472 7.16163 35.9472 6.96151 36.1938 6.81628H36.1955Z" fill="#005143"/>
<path d="M39.0312 6.66748V11.5112H37.8398V6.66748H39.0312Z" fill="#005143"/>
<path d="M40.1989 7.77416C40.3972 7.39871 40.673 7.10649 41.0248 6.89928C41.3765 6.69207 41.78 6.58936 42.2334 6.58936C42.8179 6.58936 43.3007 6.73989 43.6852 7.03919C44.0679 7.34026 44.3248 7.75999 44.4559 8.30192H43.1714C43.1041 8.09117 42.9886 7.92824 42.8265 7.80781C42.6645 7.68738 42.4645 7.62894 42.2265 7.62894C41.8869 7.62894 41.6162 7.75645 41.4179 8.0097C41.2196 8.26296 41.1196 8.62247 41.1196 9.09002C41.1196 9.55756 41.2196 9.90822 41.4179 10.1615C41.6162 10.4147 41.8851 10.5422 42.2265 10.5422C42.7093 10.5422 43.0231 10.3209 43.1714 9.87811H44.4559C44.3248 10.4023 44.0679 10.8185 43.6817 11.1284C43.2955 11.4366 42.8127 11.5924 42.2351 11.5924C41.7817 11.5924 41.3782 11.4897 41.0265 11.2825C40.6748 11.0753 40.3989 10.7849 40.2006 10.4076C40.0023 10.0322 39.9023 9.59298 39.9023 9.09179C39.9023 8.59059 40.0006 8.15315 40.2006 7.77593L40.1989 7.77416Z" fill="#005143"/>
<path d="M45.3079 7.76885C45.4976 7.38985 45.7562 7.09941 46.0821 6.89574C46.4079 6.69207 46.7717 6.58936 47.1752 6.58936C47.5269 6.58936 47.8338 6.66197 48.0976 6.80719C48.3614 6.95241 48.5735 7.1366 48.7321 7.35797V6.66728H49.9321V11.511H48.7321V10.8026C48.5787 11.0293 48.3683 11.2188 48.0976 11.3658C47.8287 11.5145 47.5183 11.5889 47.1666 11.5889C46.77 11.5889 46.4079 11.4844 46.0821 11.2737C45.7562 11.0647 45.4976 10.7689 45.3079 10.3864C45.1183 10.0039 45.0234 9.56642 45.0234 9.07053C45.0234 8.57465 45.1183 8.14784 45.3079 7.76707V7.76885ZM48.5632 8.32494C48.4494 8.11242 48.2959 7.94949 48.1028 7.83614C47.9097 7.7228 47.7028 7.66613 47.4804 7.66613C47.258 7.66613 47.0545 7.72103 46.8683 7.8326C46.6804 7.9424 46.5286 8.10534 46.4131 8.31786C46.2976 8.53038 46.239 8.78363 46.239 9.07408C46.239 9.36452 46.2976 9.62132 46.4131 9.83915C46.5286 10.057 46.6821 10.2252 46.8735 10.3421C47.0649 10.459 47.2666 10.5174 47.4821 10.5174C47.6976 10.5174 47.9097 10.4608 48.1045 10.3474C48.2976 10.2341 48.4511 10.0712 48.5649 9.85863C48.6787 9.64611 48.7356 9.39109 48.7356 9.09356C48.7356 8.79603 48.6787 8.541 48.5649 8.32848L48.5632 8.32494Z" fill="#005143"/>
<path d="M51.0835 7.76885C51.2732 7.38986 51.5336 7.09941 51.8629 6.89575C52.1922 6.69208 52.5577 6.58936 52.9612 6.58936C53.2681 6.58936 53.5594 6.65843 53.8388 6.7948C54.1164 6.93117 54.337 7.11358 54.5026 7.34204V5.0415H55.7112V11.511H54.5026V10.7937C54.3543 11.0328 54.1474 11.2241 53.8819 11.3711C53.6146 11.5163 53.306 11.5889 52.9543 11.5889C52.5577 11.5889 52.1939 11.4844 51.8646 11.2737C51.5353 11.0647 51.2767 10.7689 51.0853 10.3864C50.8939 10.0039 50.8008 9.56642 50.8008 9.07054C50.8008 8.57466 50.8956 8.14785 51.0853 7.76708L51.0835 7.76885ZM54.3388 8.32495C54.225 8.11243 54.0715 7.9495 53.8784 7.83615C53.6853 7.72281 53.4784 7.66613 53.256 7.66613C53.0336 7.66613 52.8301 7.72104 52.6439 7.83261C52.456 7.94241 52.3043 8.10534 52.1887 8.31786C52.0732 8.53039 52.0146 8.78364 52.0146 9.07408C52.0146 9.36453 52.0732 9.62133 52.1887 9.83916C52.3043 10.057 52.4577 10.2252 52.6491 10.3421C52.8405 10.459 53.0422 10.5175 53.2577 10.5175C53.4732 10.5175 53.6853 10.4608 53.8801 10.3474C54.0733 10.2341 54.2267 10.0712 54.3405 9.85864C54.4543 9.64612 54.5112 9.39109 54.5112 9.09357C54.5112 8.79604 54.4543 8.54101 54.3405 8.32849L54.3388 8.32495Z" fill="#005143"/>
<path d="M61.2178 9.45661H57.7711C57.7987 9.8055 57.9194 10.08 58.128 10.2784C58.3367 10.4767 58.597 10.5759 58.9022 10.5759C59.3453 10.5759 59.6591 10.3811 59.847 9.98969H61.1315C60.9953 10.4555 60.735 10.8398 60.3488 11.1391C59.9626 11.4384 59.4884 11.5889 58.9281 11.5889C58.4746 11.5889 58.0677 11.4862 57.7073 11.279C57.347 11.0718 57.066 10.7796 56.8642 10.4006C56.6625 10.0216 56.5625 9.58413 56.5625 9.08824C56.5625 8.59236 56.6608 8.14784 56.8608 7.76885C57.0591 7.38985 57.3367 7.09941 57.6953 6.89574C58.0522 6.69207 58.4643 6.58936 58.9298 6.58936C59.3953 6.58936 59.7798 6.68853 60.135 6.88688C60.4884 7.08524 60.7643 7.36683 60.9609 7.72988C61.1557 8.09471 61.254 8.51267 61.254 8.98376C61.254 9.15908 61.2419 9.31493 61.2195 9.45661H61.2178ZM60.0177 8.63487C60.0126 8.31963 59.9022 8.06815 59.685 7.87865C59.4694 7.68915 59.2056 7.59529 58.8936 7.59529C58.5987 7.59529 58.3505 7.68738 58.1487 7.86979C57.947 8.05398 57.8246 8.309 57.778 8.63487H60.016H60.0177Z" fill="#005143"/>
<path d="M39.0334 5.63834C39.0334 5.9766 38.7662 6.24934 38.4386 6.24934C38.1093 6.24934 37.8438 5.97483 37.8438 5.63834C37.8438 5.30008 38.111 5.02734 38.4386 5.02734C38.7679 5.02734 39.0334 5.30185 39.0334 5.63834Z" fill="#005143"/>
<path d="M20.6172 6.75052V5.0415H19.4258V8.42235C19.4258 7.64311 19.9275 6.97721 20.6172 6.75052Z" fill="#005143"/>
<path d="M22.4327 6.66748H21.1344C20.9534 6.66748 20.781 6.69759 20.6172 6.75072V8.42255C20.6172 8.13033 20.85 7.89125 21.1344 7.89125H22.4327C22.7172 7.89125 22.95 8.13033 22.95 8.42255V11.4279C23.6379 11.2013 24.1414 10.5371 24.1414 9.75611V8.42255C24.1414 7.45735 23.3724 6.66748 22.4327 6.66748Z" fill="#005143"/>
<path d="M22.4327 10.2808H20.6172V6.74414C19.9275 6.97083 19.4258 7.63673 19.4258 8.41597V11.5046H20.6172H21.1344H22.4327C22.6138 11.5046 22.7862 11.4745 22.95 11.4214V9.74954C22.95 10.0418 22.7172 10.2808 22.4327 10.2808Z" fill="#005143"/>
</g>
<defs>
<clipPath id="clip0_7001_1494">
<rect width="41.7715" height="6.57079" fill="white" transform="translate(19.4258 5.02734)"/>
</clipPath>
</defs>
</svg>
