<svg width="70" height="70" viewBox="0 0 70 70" fill="none" xmlns="http://www.w3.org/2000/svg">
<path d="M0 34.6667C0 15.5208 15.5208 0 34.6667 0C53.8126 0 69.3334 15.5208 69.3334 34.6667C69.3334 53.8126 53.8126 69.3334 34.6667 69.3334C15.5208 69.3334 0 53.8126 0 34.6667Z" fill="white"/>
<path d="M47.6691 20.2222H39.0024C38.6193 20.2222 38.2519 20.3744 37.981 20.6452C37.7101 20.9161 37.5579 21.2835 37.5579 21.6666C37.5579 22.0497 37.7101 22.4171 37.981 22.688C38.2519 22.9589 38.6193 23.1111 39.0024 23.1111H46.2246V30.3333C46.2246 30.7164 46.3768 31.0838 46.6477 31.3547C46.9186 31.6255 47.286 31.7777 47.6691 31.7777C48.0522 31.7777 48.4196 31.6255 48.6904 31.3547C48.9613 31.0838 49.1135 30.7164 49.1135 30.3333V21.6666C49.1135 21.2835 48.9613 20.9161 48.6904 20.6452C48.4196 20.3744 48.0522 20.2222 47.6691 20.2222ZM47.6691 37.5555C47.286 37.5555 46.9186 37.7077 46.6477 37.9786C46.3768 38.2495 46.2246 38.6169 46.2246 39V46.2222H39.0024C38.6193 46.2222 38.2519 46.3744 37.981 46.6452C37.7101 46.9161 37.5579 47.2835 37.5579 47.6666C37.5579 48.0497 37.7101 48.4171 37.981 48.688C38.2519 48.9589 38.6193 49.1111 39.0024 49.1111H47.6691C48.0522 49.1111 48.4196 48.9589 48.6904 48.688C48.9613 48.4171 49.1135 48.0497 49.1135 47.6666V39C49.1135 38.6169 48.9613 38.2495 48.6904 37.9786C48.4196 37.7077 48.0522 37.5555 47.6691 37.5555ZM34.6691 25.9999C33.5198 25.9999 32.4176 26.4565 31.6049 27.2692C30.7923 28.0818 30.3357 29.184 30.3357 30.3333V31.7777C29.5695 31.7777 28.8347 32.0821 28.293 32.6239C27.7512 33.1656 27.4468 33.9004 27.4468 34.6666V40.4444C27.4468 41.2106 27.7512 41.9454 28.293 42.4871C28.8347 43.0289 29.5695 43.3333 30.3357 43.3333H39.0024C39.7686 43.3333 40.5034 43.0289 41.0451 42.4871C41.5869 41.9454 41.8913 41.2106 41.8913 40.4444V34.6666C41.8913 33.9004 41.5869 33.1656 41.0451 32.6239C40.5034 32.0821 39.7686 31.7777 39.0024 31.7777V30.3333C39.0024 29.184 38.5458 28.0818 37.7332 27.2692C36.9205 26.4565 35.8183 25.9999 34.6691 25.9999ZM33.2246 30.3333C33.2246 29.9502 33.3768 29.5828 33.6477 29.3119C33.9186 29.041 34.286 28.8888 34.6691 28.8888C35.0521 28.8888 35.4195 29.041 35.6904 29.3119C35.9613 29.5828 36.1135 29.9502 36.1135 30.3333V31.7777H33.2246V30.3333ZM39.0024 40.4444H30.3357V34.6666H39.0024V40.4444ZM21.6691 31.7777C22.0521 31.7777 22.4195 31.6255 22.6904 31.3547C22.9613 31.0838 23.1135 30.7164 23.1135 30.3333V23.1111H30.3357C30.7188 23.1111 31.0862 22.9589 31.3571 22.688C31.628 22.4171 31.7802 22.0497 31.7802 21.6666C31.7802 21.2835 31.628 20.9161 31.3571 20.6452C31.0862 20.3744 30.7188 20.2222 30.3357 20.2222H21.6691C21.286 20.2222 20.9186 20.3744 20.6477 20.6452C20.3768 20.9161 20.2246 21.2835 20.2246 21.6666V30.3333C20.2246 30.7164 20.3768 31.0838 20.6477 31.3547C20.9186 31.6255 21.286 31.7777 21.6691 31.7777ZM30.3357 46.2222H23.1135V39C23.1135 38.6169 22.9613 38.2495 22.6904 37.9786C22.4195 37.7077 22.0521 37.5555 21.6691 37.5555C21.286 37.5555 20.9186 37.7077 20.6477 37.9786C20.3768 38.2495 20.2246 38.6169 20.2246 39V47.6666C20.2246 48.0497 20.3768 48.4171 20.6477 48.688C20.9186 48.9589 21.286 49.1111 21.6691 49.1111H30.3357C30.7188 49.1111 31.0862 48.9589 31.3571 48.688C31.628 48.4171 31.7802 48.0497 31.7802 47.6666C31.7802 47.2835 31.628 46.9161 31.3571 46.6452C31.0862 46.3744 30.7188 46.2222 30.3357 46.2222Z" fill="#005143"/>
</svg>
