<svg width="70" height="70" viewBox="0 0 70 70" fill="none" xmlns="http://www.w3.org/2000/svg">
<path d="M0 34.6667C0 15.5208 15.5208 0 34.6667 0C53.8126 0 69.3334 15.5208 69.3334 34.6667C69.3334 53.8126 53.8126 69.3334 34.6667 69.3334C15.5208 69.3334 0 53.8126 0 34.6667Z" fill="white"/>
<path d="M47.5458 31.1479C47.6991 30.7975 47.7072 30.4006 47.5683 30.0442C47.4294 29.6879 47.1548 29.4011 46.8048 29.247L27.9187 20.9327C26.4814 20.3001 24.712 21.0064 24.0981 22.4378L20.9059 29.8825C20.6052 30.5867 20.5963 31.3814 20.8812 32.0921C21.1662 32.8028 21.7216 33.3713 22.4254 33.6727L31.147 37.411L29.3559 41.8887H23.1115V37.5554H20.2227V49.111H23.1115V44.7776H29.3559C30.5447 44.7776 31.5977 44.0641 32.0368 42.9605L33.8019 38.5492L41.3202 41.7703C41.6704 41.9205 42.0657 41.9264 42.4201 41.7865C42.7745 41.6466 43.0593 41.3724 43.2124 41.0235L43.6631 39.998L46.1201 40.9802L49.009 33.758L46.7903 32.8725L47.5458 31.1479ZM41.1411 38.5521L23.5637 31.0193L26.753 23.5775L44.3203 31.3111L41.1411 38.5521Z" fill="#005143"/>
</svg>
