<svg width="70" height="70" viewBox="0 0 70 70" fill="none" xmlns="http://www.w3.org/2000/svg">
<path d="M0 34.6667C0 15.5208 15.5208 0 34.6667 0C53.8126 0 69.3334 15.5208 69.3334 34.6667C69.3334 53.8126 53.8126 69.3334 34.6667 69.3334C15.5208 69.3334 0 53.8126 0 34.6667Z" fill="white"/>
<path fill-rule="evenodd" clip-rule="evenodd" d="M32.1436 19.3367L33.9636 20.4287C36.2719 21.7932 38.0453 23.9049 38.9902 26.4144C39.3109 25.6922 39.6922 24.9917 40.0461 24.2839L41.4631 25.7009C44.6438 28.8816 47.6641 33.6482 47.6641 38.2777C47.6641 44.4859 43.8363 48.422 37.7119 49.1023L35.7041 49.3248L36.1432 47.3531C36.4856 45.8105 36.5477 44.8022 36.4754 44.0959C36.3888 43.2076 35.967 42.5099 35.4412 41.8166C34.9386 41.1521 34.4402 40.4862 34.0416 39.751C32.4021 41.0467 31.7666 42.2167 31.5629 43.1801C31.3029 44.4137 31.6712 45.6747 32.3443 47.0209L33.5317 49.3956L30.8941 49.1023C27.1732 48.6892 23.5072 46.2033 22.0628 42.5763C20.5533 38.7818 21.6208 34.1899 26.4972 29.9635C29.7328 27.1598 31.4459 23.5241 32.1436 19.3367ZM34.0676 24.1033C32.9669 27.1944 30.8537 30.0111 28.388 32.1474C24.1832 35.7918 23.8062 39.1443 24.748 41.5075C25.4485 43.2697 26.9609 44.7185 28.7534 45.5403C28.544 44.567 28.5381 43.5608 28.7361 42.585C29.207 40.3519 30.8132 38.2589 33.8986 36.3306L35.4542 35.3585L36.0349 37.099C36.5433 38.6243 37.5978 39.7033 38.4226 41.0423C39.3297 42.5157 39.503 44.2057 39.3181 45.8928C43.1026 44.9467 44.7752 42.0766 44.7752 38.2777C44.7752 35.0681 42.8397 31.9192 40.9186 29.4579C40.127 31.2317 38.4587 31.8557 36.8308 32.6703V30.3332C36.8308 28.3558 36.0262 25.945 34.0676 24.1048V24.1033Z" fill="#005143"/>
</svg>
