<svg width="103" height="99" viewBox="0 0 103 99" fill="none" xmlns="http://www.w3.org/2000/svg">
<path d="M50.5211 25.1958L43.937 18.6117L49.2695 16.7119C49.3061 16.6992 49.3412 16.6852 49.3764 16.6697C49.8957 16.4403 50.3335 16.0591 50.6321 15.5762C50.9307 15.0934 51.0762 14.5314 51.0495 13.9643C51.0227 13.3972 50.8249 12.8514 50.4821 12.3988C50.1393 11.9463 49.6676 11.608 49.1289 11.4286L26.6162 4.07813C26.1239 3.9199 25.5975 3.90049 25.0948 4.02203C24.5921 4.14356 24.1327 4.40134 23.767 4.76702C23.4013 5.1327 23.1436 5.59212 23.022 6.09479C22.9005 6.59746 22.9199 7.1239 23.0781 7.61625L30.4286 30.1275C30.608 30.6662 30.9463 31.1379 31.3988 31.4807C31.8514 31.8235 32.3972 32.0213 32.9643 32.0481C33.5314 32.0748 34.0934 31.9294 34.5762 31.6307C35.0591 31.3321 35.4403 30.8944 35.6697 30.375C35.6852 30.3398 35.6992 30.3047 35.7119 30.2681L37.6117 24.9356L44.1972 31.5197C44.7246 32.047 45.4398 32.3432 46.1856 32.3432C46.9314 32.3432 47.6466 32.047 48.1741 31.5197L50.5211 29.1741C50.7824 28.9129 50.9896 28.6028 51.1311 28.2615C51.2725 27.9202 51.3453 27.5544 51.3453 27.1849C51.3453 26.8155 51.2725 26.4497 51.1311 26.1084C50.9896 25.7671 50.7824 25.457 50.5211 25.1958ZM46.1856 28.7353L39.3681 21.9178C38.8408 21.3903 38.1255 21.0939 37.3797 21.0938C37.2037 21.0941 37.0281 21.1106 36.8552 21.143C36.4049 21.2279 35.9823 21.4216 35.624 21.7071C35.2657 21.9926 34.9825 22.3614 34.7992 22.7813C34.7837 22.8164 34.7711 22.8516 34.757 22.8881L33.1187 27.4922L26.6345 7.63453L46.4922 14.1188L41.8923 15.757C41.8572 15.7697 41.8206 15.7838 41.7855 15.7992C41.3653 15.9821 40.9961 16.2649 40.7102 16.623C40.4242 16.9811 40.2301 17.4037 40.1447 17.8539C40.0593 18.3042 40.0853 18.7685 40.2202 19.2064C40.3552 19.6444 40.5952 20.0427 40.9192 20.3667L47.7367 27.1842L46.1856 28.7353ZM30.8125 2.25V1.6875C30.8125 1.23995 30.9903 0.810725 31.3068 0.494257C31.6232 0.17779 32.0524 0 32.5 0C32.9475 0 33.3768 0.17779 33.6932 0.494257C34.0097 0.810725 34.1875 1.23995 34.1875 1.6875V2.25C34.1875 2.69755 34.0097 3.12678 33.6932 3.44324C33.3768 3.75971 32.9475 3.9375 32.5 3.9375C32.0524 3.9375 31.6232 3.75971 31.3068 3.44324C30.9903 3.12678 30.8125 2.69755 30.8125 2.25ZM20.6875 15.1875C20.2399 15.1875 19.8107 15.0097 19.4943 14.6932C19.1778 14.3768 19 13.9476 19 13.5C19 13.0524 19.1778 12.6232 19.4943 12.3068C19.8107 11.9903 20.2399 11.8125 20.6875 11.8125H21.25C21.6976 11.8125 22.1268 11.9903 22.4432 12.3068C22.7597 12.6232 22.9375 13.0524 22.9375 13.5C22.9375 13.9476 22.7597 14.3768 22.4432 14.6932C22.1268 15.0097 21.6976 15.1875 21.25 15.1875H20.6875ZM35.9622 3.40453L36.5247 1.71703C36.6697 1.29704 36.9745 0.951187 37.3729 0.754531C37.7713 0.557874 38.2312 0.526287 38.6528 0.666625C39.0744 0.806963 39.4236 1.1079 39.6246 1.50412C39.8257 1.90034 39.8624 2.35987 39.7267 2.78297L39.1642 4.47047C39.0192 4.89046 38.7144 5.23631 38.316 5.43297C37.9176 5.62963 37.4577 5.66121 37.0361 5.52088C36.6145 5.38054 36.2653 5.0796 36.0643 4.68338C35.8632 4.28716 35.8265 3.82763 35.9622 3.40453ZM24.5392 18.0295C24.6804 18.454 24.6472 18.9171 24.4471 19.3171C24.2469 19.7171 23.8962 20.0213 23.4719 20.1628L21.7844 20.7253C21.5726 20.802 21.3476 20.8355 21.1227 20.8239C20.8978 20.8122 20.6775 20.7557 20.4747 20.6576C20.272 20.5594 20.091 20.4217 19.9423 20.2525C19.7936 20.0833 19.6803 19.8861 19.6091 19.6725C19.5378 19.4588 19.5101 19.233 19.5274 19.0085C19.5448 18.7839 19.6069 18.5651 19.7102 18.365C19.8134 18.1648 19.9557 17.9873 20.1286 17.843C20.3016 17.6987 20.5016 17.5905 20.717 17.5247L22.4045 16.9622C22.6148 16.8921 22.8368 16.8641 23.0578 16.8798C23.2789 16.8955 23.4947 16.9546 23.693 17.0537C23.8912 17.1528 24.0679 17.29 24.2131 17.4574C24.3583 17.6249 24.4691 17.8193 24.5392 18.0295Z" fill="#3E4958"/>
<path d="M0 47.2429C0 44.3473 2.34732 42 5.24289 42H97.4303C100.326 42 102.673 44.3473 102.673 47.2429V93.4763C102.673 96.3718 100.326 98.7192 97.4303 98.7192H5.24289C2.34732 98.7192 0 96.3718 0 93.4763V47.2429Z" fill="#327A6D"/>
<path d="M6.99219 53.7379C6.99219 51.1158 9.11777 48.9902 11.7398 48.9902H60.2351C62.8571 48.9902 64.9827 51.1158 64.9827 53.7379C64.9827 56.3599 62.8571 58.4855 60.2351 58.4855H11.7398C9.11777 58.4855 6.99219 56.3599 6.99219 53.7379Z" fill="white"/>
<path d="M12.7218 51.2513C13.5239 51.2513 13.8437 51.7703 13.8437 52.4047C13.8437 53.081 13.5239 53.6001 12.7218 53.6001H11.7046V54.7378H10.7714V51.2513H12.7218ZM12.4124 52.8871C12.748 52.8871 12.879 52.6826 12.879 52.41C12.879 52.1426 12.7532 51.9591 12.4229 51.9591H11.7046V52.8871H12.4124ZM15.8573 52.0744H16.0775V52.95H15.7577C15.3225 52.95 15.139 53.1597 15.139 53.6892V54.7378H14.2373V52.1164H15.1128V52.6511C15.2177 52.2789 15.4326 52.0744 15.8573 52.0744ZM17.7203 54.2187C17.9877 54.2187 18.1503 54.1034 18.2237 53.9461H19.0992C19.0101 54.397 18.6536 54.8217 17.6994 54.8217C16.6298 54.8217 16.2523 54.1401 16.2523 53.4218C16.2523 52.6616 16.6927 52.0325 17.6994 52.0325C18.7689 52.0325 19.1097 52.7088 19.1097 53.4376C19.1097 53.5214 19.1045 53.6001 19.094 53.6578H17.1279C17.1803 54.0772 17.3848 54.2187 17.7203 54.2187ZM17.7099 52.6249C17.3848 52.6249 17.1961 52.756 17.1384 53.1335H18.2551C18.2237 52.8032 18.0611 52.6249 17.7099 52.6249ZM23.0714 52.0325C23.7582 52.0325 24.0728 52.4571 24.0728 53.144V54.7378H23.171V53.2803C23.171 52.9447 23.04 52.7612 22.7411 52.7612C22.3846 52.7612 22.2221 52.9919 22.2221 53.5057V54.7378H21.336V53.2803C21.336 52.9447 21.2049 52.7612 20.9061 52.7612C20.5548 52.7612 20.3871 52.9919 20.3871 53.5057V54.7378H19.4853V52.1164H20.3871V52.562C20.5496 52.2369 20.8275 52.0325 21.2783 52.0325C21.7292 52.0325 22.0123 52.2474 22.1434 52.6144C22.3059 52.2632 22.5943 52.0325 23.0714 52.0325ZM24.5435 51.7965V51.2513H25.4767V51.7965H24.5435ZM24.5592 54.7378V52.1164H25.461V54.7378H24.5592ZM27.9062 52.1164H28.808V54.7378H27.9062V54.2607C27.7384 54.6015 27.4396 54.8217 26.9782 54.8217C26.2914 54.8217 25.9821 54.397 25.9821 53.7102V52.1164H26.8838V53.5529C26.8838 53.9042 27.0254 54.0929 27.3452 54.0929C27.6965 54.0929 27.9062 53.8517 27.9062 53.3484V52.1164ZM32.9121 52.0325C33.5989 52.0325 33.9135 52.4571 33.9135 53.144V54.7378H33.0117V53.2803C33.0117 52.9447 32.8806 52.7612 32.5818 52.7612C32.2252 52.7612 32.0627 52.9919 32.0627 53.5057V54.7378H31.1767V53.2803C31.1767 52.9447 31.0456 52.7612 30.7467 52.7612C30.3955 52.7612 30.2277 52.9919 30.2277 53.5057V54.7378H29.3259V52.1164H30.2277V52.562C30.3902 52.2369 30.6681 52.0325 31.119 52.0325C31.5699 52.0325 31.853 52.2474 31.9841 52.6144C32.1466 52.2632 32.435 52.0325 32.9121 52.0325ZM35.683 53.6053H36.5795C36.6058 53.8937 36.7945 54.1558 37.2821 54.1558C37.7277 54.1558 37.8955 53.9985 37.8955 53.7574C37.8955 53.5267 37.7592 53.4113 37.497 53.3746L36.7368 53.2908C36.1077 53.2174 35.7459 52.8608 35.7459 52.2684C35.7459 51.613 36.2388 51.1621 37.2454 51.1621C38.3202 51.1621 38.7501 51.6759 38.7973 52.2946H37.885C37.8483 52.0167 37.6386 51.8332 37.2454 51.8332C36.8889 51.8332 36.6792 51.9748 36.6792 52.2055C36.6792 52.3837 36.784 52.5148 37.0514 52.5463L37.7172 52.6144C38.4827 52.6878 38.8287 53.0496 38.8287 53.6787C38.8287 54.3655 38.3988 54.8269 37.2664 54.8269C36.1182 54.8269 35.7197 54.2292 35.683 53.6053ZM40.6119 54.2187C40.8793 54.2187 41.0418 54.1034 41.1152 53.9461H41.9908C41.9016 54.397 41.5451 54.8217 40.5909 54.8217C39.5214 54.8217 39.1439 54.1401 39.1439 53.4218C39.1439 52.6616 39.5843 52.0325 40.5909 52.0325C41.6605 52.0325 42.0013 52.7088 42.0013 53.4376C42.0013 53.5214 41.996 53.6001 41.9855 53.6578H40.0194C40.0719 54.0772 40.2763 54.2187 40.6119 54.2187ZM40.6014 52.6249C40.2763 52.6249 40.0876 52.756 40.0299 53.1335H41.1467C41.1152 52.8032 40.9527 52.6249 40.6014 52.6249ZM42.2773 53.4271C42.2773 52.7193 42.6758 52.0325 43.7611 52.0325C44.71 52.0325 45.1714 52.5672 45.1924 53.2226H44.3063C44.2801 52.9133 44.1228 52.735 43.7716 52.735C43.3941 52.735 43.1791 52.9028 43.1791 53.4271C43.1791 53.9514 43.3836 54.1191 43.7558 54.1191C44.1281 54.1191 44.2854 53.9147 44.3168 53.6263H45.2029C45.1819 54.2502 44.7467 54.8217 43.7716 54.8217C42.6863 54.8217 42.2773 54.1349 42.2773 53.4271ZM47.4697 52.1164H48.3715V54.7378H47.4697V54.2607C47.302 54.6015 47.0031 54.8217 46.5418 54.8217C45.8549 54.8217 45.5456 54.397 45.5456 53.7102V52.1164H46.4474V53.5529C46.4474 53.9042 46.5889 54.0929 46.9088 54.0929C47.26 54.0929 47.4697 53.8517 47.4697 53.3484V52.1164ZM50.5095 52.0744H50.7297V52.95H50.4099C49.9747 52.95 49.7912 53.1597 49.7912 53.6892V54.7378H48.8895V52.1164H49.765V52.6511C49.8699 52.2789 50.0848 52.0744 50.5095 52.0744ZM51.0497 51.7965V51.2513H51.983V51.7965H51.0497ZM51.0655 54.7378V52.1164H51.9672V54.7378H51.0655ZM53.7837 54.7378C52.9815 54.7378 52.7299 54.3813 52.7299 53.7049V52.7927H52.2685V52.3733L52.8033 52.1373L53.1755 51.482H53.6317V52.1164H54.3447V52.7927H53.6317V54.0248H54.2608V54.7378H53.7837ZM56.7434 52.1164H57.598L56.7644 54.743C56.5547 55.4246 56.2821 55.7864 55.4589 55.7864H54.7039V55.0733H55.8312L55.9675 54.6644H55.396L54.5467 52.1164H55.4642L55.9727 53.6368L56.1248 54.1244L56.2611 53.6368L56.7434 52.1164ZM60.3078 53.0758V53.6735H59.5004V54.5019H58.8607V53.6735H58.0533V53.0758H58.8607V52.2422H59.5004V53.0758H60.3078Z" fill="#122D46"/>
<path d="M7.46405 70.7285V69.5314H8.75729V66.1148H7.58638V64.9177H8.78351C9.86704 64.9177 10.2865 65.4507 10.2865 66.1934V69.5314H11.4049V70.7285H7.46405ZM16.3838 68.343H17.3014V69.5401H16.3838V70.7285H14.8459V69.5401H11.674V68.343L14.1207 64.9177H16.3838V68.343ZM12.9235 68.343H14.8459V65.7478L12.9235 68.343ZM18.0212 70.7285V69.5314L20.9572 67.5653C21.4029 67.2682 21.5689 66.9711 21.5689 66.6303C21.5689 66.2458 21.3242 65.9313 20.7038 65.9313C19.7863 65.9313 19.5067 66.5342 19.4805 67.2507H17.9338C17.9601 66.0099 18.729 64.7691 20.7737 64.7691C22.5476 64.7691 23.133 65.5468 23.133 66.4818C23.133 67.2595 22.6524 67.9498 21.1844 68.8149L20.0659 69.5314H23.2554V70.7285H18.0212ZM7.68337 79.7285V75.4468H8.05649V79.7285H7.68337ZM9.37837 79.7285V76.5662H9.67809L9.70867 77.1779C9.95946 76.7252 10.3999 76.4867 10.9075 76.4867C11.7333 76.4867 12.241 77.0678 12.241 77.9791V79.7285H11.8862V78.0097C11.8862 77.2818 11.4947 76.8292 10.8647 76.8292C10.198 76.8292 9.73314 77.3369 9.73314 78.0892V79.7285H9.37837ZM14.2081 79.7285L12.7952 76.5662H13.1805L13.731 77.7895L14.3855 79.2636L15.0339 77.7895L15.5905 76.5662H15.9697L14.5568 79.7285H14.2081ZM17.9946 79.808C17.0159 79.808 16.3309 79.123 16.3309 78.1443C16.3309 77.1717 17.0159 76.4867 17.9946 76.4867C18.9672 76.4867 19.6522 77.1717 19.6522 78.1443C19.6522 79.123 18.9672 79.808 17.9946 79.808ZM16.6856 78.1443C16.6856 78.9272 17.2178 79.4655 17.9946 79.4655C18.7653 79.4655 19.2975 78.9272 19.2975 78.1443C19.2975 77.3675 18.7653 76.8292 17.9946 76.8292C17.2178 76.8292 16.6856 77.3675 16.6856 78.1443ZM20.6381 79.7285V76.5662H20.9929V79.7285H20.6381ZM20.4913 75.667C20.4913 75.4896 20.6198 75.349 20.8155 75.349C21.0112 75.349 21.1397 75.4896 21.1397 75.667C21.1397 75.8505 21.0112 75.9912 20.8155 75.9912C20.6198 75.9912 20.4913 75.8505 20.4913 75.667ZM23.5905 79.808C22.6424 79.808 21.9757 79.1168 21.9757 78.1443C21.9757 77.1717 22.6424 76.4867 23.5905 76.4867C24.3428 76.4867 24.9606 76.9332 25.1441 77.6183H24.7832C24.5753 77.1167 24.1349 76.8292 23.5905 76.8292C22.8442 76.8292 22.3304 77.3675 22.3304 78.1443C22.3304 78.9272 22.8442 79.4655 23.5905 79.4655C24.1716 79.4655 24.6242 79.1413 24.8016 78.6214H25.1747C24.9606 79.3615 24.3673 79.808 23.5905 79.808ZM27.4791 79.808C26.5188 79.808 25.8643 79.1291 25.8643 78.1443C25.8643 77.1656 26.5249 76.4867 27.4852 76.4867C28.4823 76.4867 29.1245 77.2207 29.1 78.2911H26.2252C26.2864 79.0067 26.7757 79.4716 27.4791 79.4716C27.9929 79.4716 28.4027 79.2331 28.6107 78.8232L29.0083 78.8294C28.7636 79.4349 28.1887 79.808 27.4791 79.808ZM26.2252 77.9791H28.7514C28.6658 77.2635 28.1764 76.8231 27.4852 76.8231C26.7818 76.8231 26.2864 77.2818 26.2252 77.9791ZM31.1588 79.808C30.3575 79.808 29.8498 79.4043 29.8253 78.7743H30.174C30.2107 79.2208 30.5594 79.4838 31.1649 79.4838C31.7215 79.4838 32.0579 79.2698 32.0579 78.9211C32.0579 78.5908 31.7582 78.389 31.0854 78.2727C30.2596 78.1321 29.8865 77.8385 29.8865 77.3552C29.8865 76.817 30.3453 76.4867 31.0854 76.4867C31.8316 76.4867 32.3026 76.8414 32.3515 77.447H31.9968C31.9601 77.0311 31.6359 76.8047 31.0854 76.8047C30.5594 76.8047 30.2413 77.0188 30.2413 77.3614C30.2413 77.6733 30.5043 77.8446 31.2077 77.9791C32.009 78.1321 32.4066 78.4501 32.4066 78.9272C32.4066 79.4594 31.9234 79.808 31.1588 79.808ZM36.6918 79.808C35.4257 79.808 34.5265 78.8844 34.5265 77.5877C34.5265 76.2909 35.4257 75.3673 36.6796 75.3673C37.6705 75.3673 38.4473 75.9362 38.7226 76.768H38.3189C38.0497 76.1319 37.4625 75.7404 36.6979 75.7404C35.6336 75.7404 34.9057 76.4928 34.9057 77.5877C34.9057 78.6826 35.6397 79.4349 36.6979 79.4349C37.695 79.4349 38.3739 78.7682 38.4534 77.8323H36.5573V77.4776H38.851C38.8632 78.8355 37.9947 79.808 36.6918 79.808ZM41.1521 79.808C40.1918 79.808 39.5373 79.1291 39.5373 78.1443C39.5373 77.1656 40.1979 76.4867 41.1582 76.4867C42.1552 76.4867 42.7975 77.2207 42.773 78.2911H39.8982C39.9593 79.0067 40.4487 79.4716 41.1521 79.4716C41.6659 79.4716 42.0757 79.2331 42.2837 78.8232L42.6813 78.8294C42.4366 79.4349 41.8616 79.808 41.1521 79.808ZM39.8982 77.9791H42.4244C42.3387 77.2635 41.8494 76.8231 41.1582 76.8231C40.4548 76.8231 39.9593 77.2818 39.8982 77.9791ZM43.743 79.7285V76.5662H44.0427L44.0733 77.1779C44.3241 76.7252 44.7645 76.4867 45.2722 76.4867C46.0979 76.4867 46.6056 77.0678 46.6056 77.9791V79.7285H46.2508V78.0097C46.2508 77.2818 45.8594 76.8292 45.2293 76.8292C44.5626 76.8292 44.0978 77.3369 44.0978 78.0892V79.7285H43.743ZM49.1384 79.808C48.1781 79.808 47.5236 79.1291 47.5236 78.1443C47.5236 77.1656 48.1842 76.4867 49.1446 76.4867C50.1416 76.4867 50.7838 77.2207 50.7594 78.2911H47.8845C47.9457 79.0067 48.435 79.4716 49.1384 79.4716C49.6522 79.4716 50.0621 79.2331 50.27 78.8232L50.6676 78.8294C50.4229 79.4349 49.848 79.808 49.1384 79.808ZM47.8845 77.9791H50.4107C50.3251 77.2635 49.8357 76.8231 49.1446 76.8231C48.4411 76.8231 47.9457 77.2818 47.8845 77.9791ZM51.7293 79.7285V76.5662H52.0291L52.0658 77.2757C52.2798 76.7986 52.6407 76.5662 53.2279 76.5662H53.491V76.8965H53.2157C52.5367 76.8965 52.0841 77.3124 52.0841 78.2727V79.7285H51.7293ZM55.1156 79.7774C54.3816 79.7774 53.9228 79.4166 53.9228 78.8355C53.9228 78.2727 54.351 77.918 54.9993 77.918H56.3939V77.6917C56.3939 77.1656 56.0086 76.817 55.4214 76.817C54.9443 76.817 54.5712 77.0616 54.4427 77.4409H54.0818C54.2348 76.8537 54.7424 76.4867 55.4153 76.4867C56.2043 76.4867 56.7487 76.9699 56.7487 77.6733V79.7285H56.4551L56.4184 79.1841C56.1432 79.5634 55.6783 79.7774 55.1156 79.7774ZM54.2776 78.8294C54.2776 79.2147 54.6018 79.4594 55.1278 79.4594C55.8618 79.4594 56.4001 79.0006 56.4001 78.3645V78.2299H55.0116C54.5773 78.2299 54.2776 78.4685 54.2776 78.8294ZM59.1246 79.7285C58.4517 79.7285 58.0909 79.3493 58.0909 78.6336V76.8904H57.3997V76.5662H57.8034C58.0419 76.5662 58.1092 76.505 58.1337 76.2726L58.1643 75.7894H58.4456V76.5662H59.5405V76.8904H58.4456V78.6214C58.4456 79.1413 58.6597 79.386 59.1368 79.386H59.5833V79.7285H59.1246ZM61.7183 79.808C60.758 79.808 60.1035 79.1291 60.1035 78.1443C60.1035 77.1656 60.7641 76.4867 61.7244 76.4867C62.7214 76.4867 63.3637 77.2207 63.3392 78.2911H60.4644C60.5255 79.0067 61.0149 79.4716 61.7183 79.4716C62.2321 79.4716 62.6419 79.2331 62.8499 78.8232L63.2475 78.8294C63.0028 79.4349 62.4278 79.808 61.7183 79.808ZM60.4644 77.9791H62.9906C62.9049 77.2635 62.4156 76.8231 61.7244 76.8231C61.021 76.8231 60.5255 77.2818 60.4644 77.9791ZM65.6549 79.808C64.7007 79.808 64.0339 79.1046 64.0339 78.1443C64.0339 77.184 64.7007 76.4867 65.6549 76.4867C66.236 76.4867 66.7069 76.7436 66.9883 77.1534V75.2022H67.3431V79.7285H67.0495L67.0067 79.1046C66.7314 79.5389 66.2482 79.808 65.6549 79.808ZM64.3887 78.1443C64.3887 78.9211 64.9209 79.4655 65.6977 79.4655C66.4684 79.4655 67.0005 78.9211 67.0005 78.1443C67.0005 77.3736 66.4684 76.8292 65.6977 76.8292C64.9209 76.8292 64.3887 77.3736 64.3887 78.1443ZM71.3723 80.6521C70.7178 79.7407 70.4303 78.8171 70.4303 77.8996C70.4303 76.976 70.7178 76.0585 71.3723 75.141H71.8005C71.1276 76.0585 70.8035 76.9821 70.8035 77.8996C70.8035 78.8049 71.1276 79.7407 71.8005 80.6521H71.3723ZM73.838 79.7285V75.8016H72.3639V75.4468H75.6852V75.8016H74.205V79.7285H73.838ZM76.459 79.7285V75.2022H76.8137V77.1412C77.0645 76.7069 77.5049 76.4867 78.0004 76.4867C78.82 76.4867 79.3216 77.0555 79.3216 77.9669V79.7285H78.9668V77.9975C78.9668 77.2696 78.5815 76.8292 77.9514 76.8292C77.2847 76.8292 76.8137 77.3247 76.8137 78.0831V79.7285H76.459ZM80.5149 79.7285V76.5662H80.8696V79.7285H80.5149ZM80.3681 75.667C80.3681 75.4896 80.4965 75.349 80.6922 75.349C80.888 75.349 81.0164 75.4896 81.0164 75.667C81.0164 75.8505 80.888 75.9912 80.6922 75.9912C80.4965 75.9912 80.3681 75.8505 80.3681 75.667ZM83.2164 79.808C82.4151 79.808 81.9075 79.4043 81.883 78.7743H82.2316C82.2683 79.2208 82.617 79.4838 83.2226 79.4838C83.7792 79.4838 84.1156 79.2698 84.1156 78.9211C84.1156 78.5908 83.8159 78.389 83.143 78.2727C82.3173 78.1321 81.9442 77.8385 81.9442 77.3552C81.9442 76.817 82.4029 76.4867 83.143 76.4867C83.8893 76.4867 84.3603 76.8414 84.4092 77.447H84.0544C84.0177 77.0311 83.6935 76.8047 83.143 76.8047C82.617 76.8047 82.2989 77.0188 82.2989 77.3614C82.2989 77.6733 82.5619 77.8446 83.2654 77.9791C84.0667 78.1321 84.4642 78.4501 84.4642 78.9272C84.4642 79.4594 83.981 79.808 83.2164 79.808ZM7.68337 88.7285V84.4468H8.03203L9.81199 87.1259L11.5919 84.4468H11.9345V88.7285H11.5675V85.1319L9.9649 87.5358H9.65907L8.05649 85.1319V88.7285H7.68337ZM14.6436 88.808C13.6649 88.808 12.9798 88.123 12.9798 87.1443C12.9798 86.1717 13.6649 85.4867 14.6436 85.4867C15.6161 85.4867 16.3012 86.1717 16.3012 87.1443C16.3012 88.123 15.6161 88.808 14.6436 88.808ZM13.3346 87.1443C13.3346 87.9272 13.8667 88.4655 14.6436 88.4655C15.4143 88.4655 15.9464 87.9272 15.9464 87.1443C15.9464 86.3675 15.4143 85.8292 14.6436 85.8292C13.8667 85.8292 13.3346 86.3675 13.3346 87.1443ZM17.2871 88.7285V85.5662H17.5868L17.6174 86.1779C17.8682 85.7252 18.3086 85.4867 18.8162 85.4867C19.642 85.4867 20.1497 86.0678 20.1497 86.9791V88.7285H19.7949V87.0097C19.7949 86.2818 19.4034 85.8292 18.7734 85.8292C18.1067 85.8292 17.6418 86.3369 17.6418 87.0892V88.7285H17.2871ZM22.5259 88.7285C21.8531 88.7285 21.4922 88.3493 21.4922 87.6336V85.8904H20.801V85.5662H21.2047C21.4433 85.5662 21.5106 85.505 21.535 85.2726L21.5656 84.7894H21.847V85.5662H22.9419V85.8904H21.847V87.6214C21.847 88.1413 22.0611 88.386 22.5382 88.386H22.9847V88.7285H22.5259ZM23.9354 88.7285V84.2022H24.2902V86.1412C24.5409 85.7069 24.9814 85.4867 25.4768 85.4867C26.2964 85.4867 26.798 86.0555 26.798 86.9669V88.7285H26.4432V86.9975C26.4432 86.2696 26.0579 85.8292 25.4279 85.8292C24.7612 85.8292 24.2902 86.3247 24.2902 87.0831V88.7285H23.9354ZM28.1197 84.141C28.7742 85.0524 29.0617 85.976 29.0617 86.8935C29.0617 87.8171 28.7742 88.7346 28.1197 89.6521H27.6916C28.3644 88.7346 28.6886 87.811 28.6886 86.8935C28.6886 85.9882 28.3644 85.0524 27.6916 84.141H28.1197Z" fill="white"/>
<path d="M51 35L55.3301 42.5H46.6699L51 35Z" fill="#327A6D"/>
</svg>
