<svg width="85" height="91" viewBox="0 0 85 91" fill="none" xmlns="http://www.w3.org/2000/svg">
<path d="M57.4344 52.6261C55.6025 48.0524 51.9837 44.7212 47.6074 43.0659C52.599 34.4935 62.5837 29.4518 72.878 31.1191C75.5659 31.5545 76.3726 27.3873 73.6666 26.9492C61.205 24.9307 48.9346 31.3449 43.3061 42.0186C42.5365 41.9279 41.7559 41.8812 40.9678 41.8875C34.3082 41.9392 28.3978 45.3847 24.325 50.4332C24.0988 50.3551 23.8708 50.2814 23.6408 50.214C16.0223 47.9719 7.61189 51.757 2.99567 57.9101C1.3658 60.0825 4.53318 62.9092 6.1724 60.7241C9.20953 56.6758 13.8673 53.8585 19.0213 53.8206C19.9767 53.8135 20.9142 53.9261 21.8211 54.14C18.5321 60.0014 16.1312 69.0041 21.5543 74.0557C27.3957 79.4969 34.59 73.6029 35.3158 67.0342C35.9577 61.226 32.8872 55.6084 28.179 52.3854C30.7817 49.3917 34.2065 47.1746 38.2009 46.4089C39.3111 46.1963 40.4333 46.1115 41.544 46.1414C40.9269 47.987 40.4946 49.9259 40.276 51.943C39.5612 58.5358 41.6555 67.1167 49.5285 67.8923C57.8347 68.7111 59.8982 58.7772 57.4344 52.6261ZM30.3018 61.3437C31.1613 63.3956 31.4722 65.7375 30.8461 67.9015C30.2113 70.0953 28.2013 72.769 25.6121 71.7267C20.0875 69.5028 23.346 60.4821 25.1543 56.9032C25.3366 56.542 25.5311 56.187 25.7327 55.8359C27.7288 57.1575 29.3451 59.0601 30.3018 61.3437ZM50.2874 63.7099C44.2677 63.5707 43.9306 55.595 44.6419 51.2999C44.8957 49.7681 45.2946 48.2967 45.8114 46.89C48.2054 47.7092 50.3505 49.1931 51.9256 51.3591C54.0379 54.2634 56.5121 63.854 50.2874 63.7099Z" fill="#005143"/>
<path d="M82.0286 27.0766C77.2372 24.1001 72.4456 21.1239 67.6542 18.1474C65.5627 16.8482 63.7742 20.2229 65.8551 21.5154C69.945 24.0562 74.0353 26.5968 78.1253 29.1373C74.7139 32.6084 71.0224 35.9031 68.3489 39.9791C66.9999 42.0362 70.3777 43.8203 71.717 41.7782C74.6156 37.3588 78.9607 33.9122 82.5303 30.0579C83.4088 29.1093 83.0621 27.7184 82.0286 27.0766Z" fill="#005143"/>
</svg>
