<svg width="92" height="51" viewBox="0 0 92 51" fill="none" xmlns="http://www.w3.org/2000/svg">
<path d="M91.1736 12.884C87.6908 9.10783 84.2083 5.33126 80.726 1.55543C77.8172 -1.59867 72.5929 2.64964 75.5269 5.83067C77.454 7.92017 79.3815 10.01 81.3091 12.0998C71.6957 8.81844 60.7442 9.01932 51.6848 14.004C47.4679 16.3243 43.3105 19.876 40.1775 24.114C38.3527 23.608 36.525 23.2878 34.8002 23.1729C22.5885 22.3614 10.973 28.2571 1.51486 35.5338C-1.91889 38.1756 2.31966 43.3662 5.75616 40.7224C12.9616 35.1784 21.5173 30.4496 30.7448 29.8536C32.6732 29.7289 34.7001 29.8062 36.6872 30.1308C35.144 33.7437 34.4468 37.6161 35.0258 41.5112C35.7416 46.3259 39.0786 50.5866 44.1998 50.8027C48.8909 51.0005 53.2223 47.6949 54.5725 43.2475C56.8239 35.829 52.5529 30.1704 46.6071 26.77C48.4582 24.4667 50.6897 22.4601 53.1586 20.8777C60.5401 16.1474 69.572 15.6212 77.7502 18.032C76.5244 19.1382 75.3576 20.3265 74.26 21.6189C71.4499 24.9261 76.8874 28.8398 79.6801 25.5527C82.5142 22.2168 85.9492 19.7946 89.955 18.0783C91.8649 17.2611 92.6281 14.4614 91.1736 12.884ZM48.3684 39.0551C48.5836 41.2203 47.4853 43.9204 44.9624 44.0641C39.5236 44.3741 41.8727 35.5637 43.1973 32.3426C43.5543 32.5462 43.9063 32.7583 44.2447 32.9896C46.3146 34.4029 48.1103 36.4553 48.3684 39.0551Z" fill="#005143"/>
</svg>
