<svg width="89" height="35" viewBox="0 0 89 35" fill="none" xmlns="http://www.w3.org/2000/svg">
<path d="M5.76014 1.53595C12.2425 5.88791 19.5461 8.95967 27.2036 10.4037C30.7628 11.0748 48.3336 13.6778 49.7778 8.15395C49.7797 7.60156 49.7997 7.0469 49.8622 6.48814C50.2284 3.20646 55.6993 2.83533 55.8315 6.36475C55.8418 6.63546 55.834 6.8921 55.8284 7.1505C55.8363 7.15056 55.8445 7.14997 55.8524 7.15003C54.5743 18.6039 67.9569 21.1574 77.0052 21.934C74.6731 20.0367 72.3405 18.1394 70.0084 16.2421C66.9971 13.7926 70.5806 8.94146 73.6139 11.4093C78.0533 15.0205 82.4926 18.6316 86.9315 22.2429C88.282 23.3413 88.7428 25.9923 86.996 27.0461C83.3665 29.2362 79.7365 31.4264 76.107 33.6165C72.8372 35.5897 69.0555 30.8444 72.372 28.8428C72.9578 28.4891 73.5437 28.1359 74.1298 27.7821C68.5366 27.2466 62.9593 26.1516 58.1926 22.9839C55.1993 20.9946 52.7628 18.2053 51.2926 15C45.974 18.1474 37.2026 17.7148 31.7202 17.1654C21.1376 16.1049 11.0031 12.3087 2.1545 6.36829C-1.07529 4.20056 2.53208 -0.631398 5.76014 1.53595Z" fill="#005143"/>
</svg>
