<svg width="501" height="372" viewBox="0 0 501 372" fill="none" xmlns="http://www.w3.org/2000/svg">
<g filter="url(#filter0_d_5309_4469)">
<rect x="188.434" y="22.5" width="281.567" height="110" rx="12.3134" fill="white" shape-rendering="crispEdges"/>
<mask id="path-2-inside-1_5309_4469" fill="white">
<path d="M201.566 35.6343H456.865V66.8283H201.566V35.6343Z"/>
</mask>
<path d="M456.865 66.8283V66.0074H201.566V66.8283V67.6492H456.865V66.8283Z" fill="#CBCFDD" mask="url(#path-2-inside-1_5309_4469)"/>
<path d="M208.627 44.7715V46.2722H203.753V44.7715H208.627ZM204.324 40.9685V50.3062H202.4V40.9685H204.324ZM210 40.9685V50.3062H208.082V40.9685H210ZM211.263 46.9071V46.7725C211.263 46.2637 211.336 45.7955 211.481 45.368C211.627 44.9361 211.838 44.562 212.116 44.2456C212.394 43.9292 212.736 43.6834 213.142 43.5081C213.548 43.3285 214.015 43.2388 214.54 43.2388C215.066 43.2388 215.534 43.3285 215.945 43.5081C216.355 43.6834 216.7 43.9292 216.977 44.2456C217.26 44.562 217.473 44.9361 217.619 45.368C217.764 45.7955 217.837 46.2637 217.837 46.7725V46.9071C217.837 47.4116 217.764 47.8798 217.619 48.3116C217.473 48.7392 217.26 49.1133 216.977 49.434C216.7 49.7503 216.357 49.9962 215.951 50.1715C215.545 50.3468 215.079 50.4344 214.553 50.4344C214.027 50.4344 213.559 50.3468 213.149 50.1715C212.743 49.9962 212.398 49.7503 212.116 49.434C211.838 49.1133 211.627 48.7392 211.481 48.3116C211.336 47.8798 211.263 47.4116 211.263 46.9071ZM213.11 46.7725V46.9071C213.11 47.1979 213.136 47.4694 213.187 47.7216C213.239 47.9739 213.32 48.1962 213.431 48.3886C213.546 48.5767 213.696 48.7242 213.88 48.8311C214.064 48.938 214.288 48.9914 214.553 48.9914C214.81 48.9914 215.03 48.938 215.214 48.8311C215.398 48.7242 215.545 48.5767 215.656 48.3886C215.767 48.1962 215.849 47.9739 215.9 47.7216C215.956 47.4694 215.983 47.1979 215.983 46.9071V46.7725C215.983 46.4903 215.956 46.2252 215.9 45.9772C215.849 45.725 215.765 45.5026 215.65 45.3102C215.539 45.1136 215.391 44.9596 215.207 44.8485C215.024 44.7373 214.801 44.6817 214.54 44.6817C214.28 44.6817 214.057 44.7373 213.873 44.8485C213.694 44.9596 213.546 45.1136 213.431 45.3102C213.32 45.5026 213.239 45.725 213.187 45.9772C213.136 46.2252 213.11 46.4903 213.11 46.7725ZM220.819 44.8036V50.3062H218.966V43.367H220.704L220.819 44.8036ZM220.562 46.5929H220.049C220.049 46.1098 220.107 45.6651 220.223 45.2589C220.342 44.8485 220.515 44.4936 220.742 44.1943C220.973 43.8908 221.257 43.6556 221.595 43.4889C221.933 43.3221 222.324 43.2388 222.769 43.2388C223.076 43.2388 223.359 43.2858 223.615 43.3798C223.872 43.4696 224.092 43.6129 224.276 43.8095C224.464 44.0019 224.609 44.2542 224.712 44.5663C224.814 44.8741 224.866 45.244 224.866 45.6758V50.3062H223.019V45.881C223.019 45.5646 222.976 45.3209 222.89 45.1499C222.805 44.9789 222.683 44.8592 222.525 44.7908C222.371 44.7224 222.185 44.6881 221.967 44.6881C221.728 44.6881 221.518 44.7373 221.338 44.8357C221.163 44.934 221.018 45.0708 220.902 45.2461C220.787 45.4171 220.701 45.6181 220.646 45.8489C220.59 46.0798 220.562 46.3278 220.562 46.5929ZM224.693 46.3812L224.032 46.4646C224.032 46.0114 224.088 45.5903 224.199 45.2012C224.314 44.8121 224.483 44.4701 224.705 44.1751C224.932 43.8801 225.212 43.6513 225.546 43.4889C225.879 43.3221 226.264 43.2388 226.7 43.2388C227.033 43.2388 227.337 43.2879 227.611 43.3863C227.884 43.4803 228.117 43.6321 228.31 43.8416C228.506 44.0468 228.656 44.3162 228.759 44.6497C228.865 44.9832 228.919 45.3915 228.919 45.8746V50.3062H227.065V45.8746C227.065 45.5539 227.023 45.3102 226.937 45.1435C226.856 44.9725 226.736 44.8549 226.578 44.7908C226.424 44.7224 226.24 44.6881 226.027 44.6881C225.804 44.6881 225.61 44.733 225.443 44.8228C225.276 44.9083 225.137 45.0281 225.026 45.182C224.915 45.3359 224.832 45.5155 224.776 45.7207C224.72 45.9216 224.693 46.1418 224.693 46.3812ZM233.543 50.4344C233.004 50.4344 232.521 50.3489 232.093 50.1779C231.666 50.0026 231.302 49.761 231.003 49.4532C230.708 49.1454 230.482 48.7884 230.323 48.3822C230.165 47.9717 230.086 47.5356 230.086 47.0739V46.8173C230.086 46.2915 230.161 45.8105 230.311 45.3744C230.46 44.9383 230.674 44.5599 230.952 44.2392C231.234 43.9186 231.576 43.6727 231.978 43.5017C232.38 43.3264 232.833 43.2388 233.338 43.2388C233.829 43.2388 234.265 43.32 234.646 43.4825C235.026 43.6449 235.345 43.8758 235.602 44.1751C235.862 44.4744 236.059 44.8335 236.192 45.2525C236.324 45.6672 236.39 46.129 236.39 46.6378V47.4074H230.875V46.176H234.575V46.0349C234.575 45.7784 234.528 45.5497 234.434 45.3487C234.345 45.1435 234.208 44.981 234.024 44.8613C233.84 44.7416 233.605 44.6817 233.318 44.6817C233.075 44.6817 232.865 44.7352 232.69 44.8421C232.515 44.949 232.371 45.0986 232.26 45.291C232.153 45.4834 232.072 45.71 232.016 45.9708C231.965 46.2273 231.94 46.5095 231.94 46.8173V47.0739C231.94 47.3518 231.978 47.6083 232.055 47.8435C232.136 48.0786 232.25 48.2817 232.395 48.4527C232.545 48.6237 232.724 48.7563 232.934 48.8503C233.147 48.9444 233.389 48.9914 233.658 48.9914C233.992 48.9914 234.302 48.9273 234.588 48.799C234.879 48.6665 235.129 48.4677 235.339 48.2026L236.236 49.1774C236.091 49.3869 235.892 49.5879 235.64 49.7803C235.392 49.9727 235.093 50.1309 234.742 50.2548C234.392 50.3746 233.992 50.4344 233.543 50.4344ZM240.418 46.9071V46.7725C240.418 46.2637 240.491 45.7955 240.636 45.368C240.781 44.9361 240.993 44.562 241.271 44.2456C241.549 43.9292 241.891 43.6834 242.297 43.5081C242.703 43.3285 243.169 43.2388 243.695 43.2388C244.221 43.2388 244.689 43.3285 245.1 43.5081C245.51 43.6834 245.854 43.9292 246.132 44.2456C246.414 44.562 246.628 44.9361 246.773 45.368C246.919 45.7955 246.991 46.2637 246.991 46.7725V46.9071C246.991 47.4116 246.919 47.8798 246.773 48.3116C246.628 48.7392 246.414 49.1133 246.132 49.434C245.854 49.7503 245.512 49.9962 245.106 50.1715C244.7 50.3468 244.234 50.4344 243.708 50.4344C243.182 50.4344 242.714 50.3468 242.303 50.1715C241.897 49.9962 241.553 49.7503 241.271 49.434C240.993 49.1133 240.781 48.7392 240.636 48.3116C240.491 47.8798 240.418 47.4116 240.418 46.9071ZM242.265 46.7725V46.9071C242.265 47.1979 242.291 47.4694 242.342 47.7216C242.393 47.9739 242.474 48.1962 242.586 48.3886C242.701 48.5767 242.851 48.7242 243.034 48.8311C243.218 48.938 243.443 48.9914 243.708 48.9914C243.964 48.9914 244.185 48.938 244.368 48.8311C244.552 48.7242 244.7 48.5767 244.811 48.3886C244.922 48.1962 245.003 47.9739 245.055 47.7216C245.11 47.4694 245.138 47.1979 245.138 46.9071V46.7725C245.138 46.4903 245.11 46.2252 245.055 45.9772C245.003 45.725 244.92 45.5026 244.805 45.3102C244.693 45.1136 244.546 44.9596 244.362 44.8485C244.178 44.7373 243.956 44.6817 243.695 44.6817C243.434 44.6817 243.212 44.7373 243.028 44.8485C242.848 44.9596 242.701 45.1136 242.586 45.3102C242.474 45.5026 242.393 45.725 242.342 45.9772C242.291 46.2252 242.265 46.4903 242.265 46.7725ZM250.48 50.3062H248.62V42.7513C248.62 42.2255 248.723 41.7829 248.928 41.4238C249.138 41.0604 249.431 40.7868 249.807 40.6029C250.187 40.4148 250.638 40.3207 251.16 40.3207C251.331 40.3207 251.496 40.3336 251.654 40.3592C251.812 40.3806 251.966 40.4084 252.116 40.4426L252.096 41.8343C252.015 41.8129 251.93 41.7979 251.84 41.7894C251.75 41.7808 251.645 41.7765 251.526 41.7765C251.303 41.7765 251.113 41.815 250.955 41.892C250.801 41.9647 250.683 42.0737 250.602 42.219C250.521 42.3644 250.48 42.5418 250.48 42.7513V50.3062ZM251.865 43.367V44.6753H247.588V43.367H251.865ZM255.188 50.3062H253.328V42.7513C253.328 42.2255 253.43 41.7829 253.636 41.4238C253.845 41.0604 254.138 40.7868 254.514 40.6029C254.895 40.4148 255.346 40.3207 255.867 40.3207C256.038 40.3207 256.203 40.3336 256.361 40.3592C256.519 40.3806 256.673 40.4084 256.823 40.4426L256.804 41.8343C256.722 41.8129 256.637 41.7979 256.547 41.7894C256.457 41.7808 256.353 41.7765 256.233 41.7765C256.011 41.7765 255.82 41.815 255.662 41.892C255.508 41.9647 255.391 42.0737 255.309 42.219C255.228 42.3644 255.188 42.5418 255.188 42.7513V50.3062ZM256.573 43.367V44.6753H252.295V43.367H256.573ZM259.491 43.367V50.3062H257.637V43.367H259.491ZM257.522 41.5585C257.522 41.2891 257.616 41.0668 257.804 40.8915C257.992 40.7162 258.245 40.6286 258.561 40.6286C258.873 40.6286 259.123 40.7162 259.311 40.8915C259.504 41.0668 259.6 41.2891 259.6 41.5585C259.6 41.8278 259.504 42.0502 259.311 42.2255C259.123 42.4008 258.873 42.4884 258.561 42.4884C258.245 42.4884 257.992 42.4008 257.804 42.2255C257.616 42.0502 257.522 41.8278 257.522 41.5585ZM263.884 48.9914C264.111 48.9914 264.311 48.9487 264.487 48.8632C264.662 48.7734 264.799 48.6494 264.897 48.4912C265 48.3287 265.053 48.1385 265.058 47.9204H266.796C266.791 48.4078 266.661 48.8418 266.404 49.2223C266.148 49.5986 265.804 49.8957 265.372 50.1138C264.94 50.3275 264.457 50.4344 263.922 50.4344C263.384 50.4344 262.913 50.3446 262.511 50.1651C262.114 49.9855 261.783 49.7375 261.517 49.4211C261.252 49.1005 261.054 48.7285 260.921 48.3052C260.788 47.8777 260.722 47.4202 260.722 46.9328V46.7468C260.722 46.2551 260.788 45.7976 260.921 45.3744C261.054 44.9468 261.252 44.5748 261.517 44.2585C261.783 43.9378 262.114 43.6877 262.511 43.5081C262.909 43.3285 263.375 43.2388 263.91 43.2388C264.478 43.2388 264.976 43.3478 265.404 43.5658C265.836 43.7839 266.173 44.096 266.417 44.5022C266.665 44.9041 266.791 45.3808 266.796 45.9323H265.058C265.053 45.7014 265.004 45.4919 264.91 45.3038C264.82 45.1157 264.688 44.9661 264.512 44.8549C264.341 44.7395 264.13 44.6817 263.878 44.6817C263.608 44.6817 263.388 44.7395 263.217 44.8549C263.046 44.9661 262.913 45.12 262.819 45.3166C262.725 45.509 262.659 45.7292 262.621 45.9772C262.586 46.2209 262.569 46.4774 262.569 46.7468V46.9328C262.569 47.2021 262.586 47.4608 262.621 47.7088C262.655 47.9568 262.719 48.177 262.813 48.3694C262.911 48.5617 263.046 48.7135 263.217 48.8247C263.388 48.9359 263.61 48.9914 263.884 48.9914ZM271.06 50.4344C270.522 50.4344 270.038 50.3489 269.611 50.1779C269.183 50.0026 268.82 49.761 268.521 49.4532C268.226 49.1454 267.999 48.7884 267.841 48.3822C267.683 47.9717 267.604 47.5356 267.604 47.0739V46.8173C267.604 46.2915 267.678 45.8105 267.828 45.3744C267.978 44.9383 268.191 44.5599 268.469 44.2392C268.752 43.9186 269.094 43.6727 269.496 43.5017C269.897 43.3264 270.351 43.2388 270.855 43.2388C271.347 43.2388 271.783 43.32 272.163 43.4825C272.544 43.6449 272.862 43.8758 273.119 44.1751C273.38 44.4744 273.576 44.8335 273.709 45.2525C273.842 45.6672 273.908 46.129 273.908 46.6378V47.4074H268.392V46.176H272.093V46.0349C272.093 45.7784 272.046 45.5497 271.952 45.3487C271.862 45.1435 271.725 44.981 271.541 44.8613C271.357 44.7416 271.122 44.6817 270.836 44.6817C270.592 44.6817 270.383 44.7352 270.207 44.8421C270.032 44.949 269.889 45.0986 269.778 45.291C269.671 45.4834 269.59 45.71 269.534 45.9708C269.483 46.2273 269.457 46.5095 269.457 46.8173V47.0739C269.457 47.3518 269.496 47.6083 269.572 47.8435C269.654 48.0786 269.767 48.2817 269.912 48.4527C270.062 48.6237 270.242 48.7563 270.451 48.8503C270.665 48.9444 270.906 48.9914 271.176 48.9914C271.509 48.9914 271.819 48.9273 272.106 48.799C272.396 48.6665 272.647 48.4677 272.856 48.2026L273.754 49.1774C273.609 49.3869 273.41 49.5879 273.157 49.7803C272.909 49.9727 272.61 50.1309 272.26 50.2548C271.909 50.3746 271.509 50.4344 271.06 50.4344ZM282.328 48.7926V40.4554H284.188V50.3062H282.514L282.328 48.7926ZM277.942 46.92V46.7853C277.942 46.2551 278.002 45.7741 278.121 45.3423C278.241 44.9062 278.416 44.5321 278.647 44.22C278.878 43.9079 279.162 43.6663 279.5 43.4953C279.838 43.3243 280.223 43.2388 280.655 43.2388C281.061 43.2388 281.416 43.3243 281.719 43.4953C282.027 43.6663 282.288 43.91 282.502 44.2264C282.72 44.5385 282.895 44.9083 283.027 45.3359C283.16 45.7592 283.256 46.2231 283.316 46.7276V47.0226C283.256 47.5057 283.16 47.9546 283.027 48.3694C282.895 48.7841 282.72 49.1475 282.502 49.4596C282.288 49.7674 282.027 50.0069 281.719 50.1779C281.411 50.3489 281.052 50.4344 280.642 50.4344C280.21 50.4344 279.825 50.3468 279.487 50.1715C279.154 49.9962 278.872 49.7503 278.641 49.434C278.414 49.1176 278.241 48.7456 278.121 48.318C278.002 47.8905 277.942 47.4245 277.942 46.92ZM279.789 46.7853V46.92C279.789 47.2064 279.81 47.4736 279.853 47.7216C279.9 47.9696 279.975 48.1898 280.077 48.3822C280.184 48.5703 280.321 48.7178 280.488 48.8247C280.659 48.9273 280.866 48.9786 281.11 48.9786C281.426 48.9786 281.687 48.9081 281.892 48.767C282.098 48.6216 282.254 48.4228 282.36 48.1705C282.472 47.9183 282.536 47.6276 282.553 47.2983V46.4582C282.54 46.1888 282.502 45.9473 282.437 45.7335C282.378 45.5155 282.288 45.3295 282.168 45.1756C282.053 45.0216 281.907 44.9019 281.732 44.8164C281.561 44.7309 281.358 44.6881 281.123 44.6881C280.883 44.6881 280.678 44.7437 280.507 44.8549C280.336 44.9618 280.197 45.1093 280.09 45.2974C279.988 45.4855 279.911 45.7079 279.859 45.9644C279.812 46.2166 279.789 46.4903 279.789 46.7853ZM289.377 48.7413V45.6501C289.377 45.4278 289.34 45.2376 289.268 45.0794C289.195 44.9169 289.082 44.7908 288.928 44.701C288.778 44.6112 288.583 44.5663 288.344 44.5663C288.139 44.5663 287.961 44.6026 287.812 44.6753C287.662 44.7437 287.547 44.8442 287.465 44.9767C287.384 45.105 287.344 45.2568 287.344 45.4321H285.497C285.497 45.1371 285.565 44.857 285.702 44.592C285.839 44.3269 286.037 44.0939 286.298 43.8929C286.559 43.6877 286.869 43.5274 287.228 43.4119C287.592 43.2965 287.998 43.2388 288.447 43.2388C288.985 43.2388 289.464 43.3285 289.883 43.5081C290.302 43.6877 290.631 43.957 290.871 44.3162C291.115 44.6753 291.236 45.1242 291.236 45.663V48.6323C291.236 49.0128 291.26 49.3249 291.307 49.5686C291.354 49.8081 291.422 50.0176 291.512 50.1971V50.3062H289.646C289.556 50.118 289.488 49.8829 289.441 49.6007C289.398 49.3142 289.377 49.0278 289.377 48.7413ZM289.62 46.0798L289.633 47.1252H288.601C288.357 47.1252 288.145 47.153 287.966 47.2086C287.786 47.2641 287.639 47.3432 287.523 47.4458C287.408 47.5442 287.322 47.6596 287.267 47.7922C287.215 47.9247 287.19 48.0701 287.19 48.2283C287.19 48.3865 287.226 48.5297 287.299 48.6579C287.371 48.7819 287.476 48.8803 287.613 48.953C287.75 49.0214 287.91 49.0556 288.094 49.0556C288.372 49.0556 288.613 49 288.819 48.8888C289.024 48.7777 289.182 48.6408 289.293 48.4784C289.409 48.3159 289.468 48.162 289.473 48.0166L289.96 48.799C289.892 48.9743 289.798 49.156 289.678 49.3442C289.563 49.5323 289.415 49.7097 289.235 49.8765C289.056 50.0389 288.84 50.1736 288.588 50.2805C288.335 50.3831 288.036 50.4344 287.69 50.4344C287.25 50.4344 286.85 50.3468 286.491 50.1715C286.136 49.9919 285.854 49.7461 285.644 49.434C285.439 49.1176 285.336 48.7584 285.336 48.3565C285.336 47.9931 285.405 47.6703 285.541 47.3881C285.678 47.1059 285.879 46.8687 286.144 46.6763C286.414 46.4796 286.749 46.3321 287.151 46.2337C287.553 46.1311 288.019 46.0798 288.549 46.0798H289.62ZM294.616 49.5237L296.457 43.367H298.438L295.649 51.3515C295.589 51.5268 295.508 51.7149 295.405 51.9159C295.307 52.1168 295.172 52.3071 295.001 52.4867C294.834 52.6705 294.623 52.8201 294.366 52.9356C294.114 53.051 293.804 53.1087 293.436 53.1087C293.261 53.1087 293.118 53.0981 293.006 53.0767C292.895 53.0553 292.763 53.0254 292.609 52.9869V51.6337C292.656 51.6337 292.705 51.6337 292.756 51.6337C292.808 51.638 292.857 51.6401 292.904 51.6401C293.148 51.6401 293.346 51.6123 293.5 51.5567C293.654 51.5012 293.778 51.4156 293.872 51.3002C293.966 51.189 294.041 51.0437 294.097 50.8641L294.616 49.5237ZM293.847 43.367L295.354 48.395L295.617 50.351L294.36 50.4857L291.865 43.367H293.847ZM302.928 48.3886C302.928 48.2561 302.889 48.1363 302.812 48.0294C302.735 47.9226 302.592 47.8242 302.383 47.7344C302.177 47.6404 301.88 47.5549 301.491 47.4779C301.141 47.401 300.814 47.3048 300.51 47.1893C300.211 47.0696 299.95 46.9264 299.728 46.7596C299.509 46.5929 299.338 46.3962 299.214 46.1696C299.09 45.9387 299.029 45.6758 299.029 45.3808C299.029 45.09 299.09 44.8164 299.214 44.5599C299.343 44.3034 299.524 44.0768 299.76 43.8801C299.999 43.6791 300.29 43.5231 300.632 43.4119C300.978 43.2965 301.367 43.2388 301.799 43.2388C302.402 43.2388 302.919 43.335 303.351 43.5274C303.787 43.7197 304.121 43.9848 304.351 44.3226C304.587 44.6561 304.704 45.0366 304.704 45.4642H302.857C302.857 45.2846 302.819 45.1242 302.742 44.9832C302.669 44.8378 302.554 44.7245 302.395 44.6433C302.242 44.5577 302.041 44.515 301.793 44.515C301.587 44.515 301.41 44.5513 301.26 44.624C301.111 44.6924 300.995 44.7865 300.914 44.9062C300.837 45.0216 300.799 45.1499 300.799 45.291C300.799 45.3979 300.82 45.4941 300.863 45.5796C300.91 45.6608 300.985 45.7356 301.087 45.8041C301.19 45.8725 301.322 45.9366 301.485 45.9965C301.652 46.052 301.857 46.1033 302.1 46.1504C302.601 46.253 303.047 46.3877 303.441 46.5544C303.834 46.7169 304.146 46.9392 304.377 47.2214C304.608 47.4993 304.723 47.8648 304.723 48.318C304.723 48.6259 304.655 48.9081 304.518 49.1646C304.381 49.4211 304.185 49.6456 303.928 49.838C303.672 50.0261 303.364 50.1736 303.005 50.2805C302.65 50.3831 302.25 50.4344 301.805 50.4344C301.16 50.4344 300.613 50.319 300.164 50.0881C299.719 49.8572 299.381 49.5644 299.15 49.2095C298.924 48.8503 298.81 48.4827 298.81 48.1064H300.561C300.57 48.3587 300.634 48.5617 300.754 48.7157C300.878 48.8696 301.034 48.9807 301.222 49.0492C301.414 49.1176 301.622 49.1518 301.844 49.1518C302.083 49.1518 302.282 49.1197 302.44 49.0556C302.599 48.9872 302.718 48.8974 302.799 48.7862C302.885 48.6708 302.928 48.5382 302.928 48.3886Z" fill="#3E4958"/>
<rect x="419.516" y="35.6343" width="37.3507" height="21.3433" rx="10.6716" fill="#30C06A"/>
<path fill-rule="evenodd" clip-rule="evenodd" d="M446.193 55.6436C451.35 55.6436 455.531 51.463 455.531 46.3059C455.531 41.1489 451.35 36.9683 446.193 36.9683C441.036 36.9683 436.855 41.1489 436.855 46.3059C436.855 51.463 441.036 55.6436 446.193 55.6436Z" fill="white"/>
<mask id="mask0_5309_4469" style="mask-type:alpha" maskUnits="userSpaceOnUse" x="201" y="73" width="21" height="21">
<rect x="201.566" y="73.3955" width="19.7015" height="19.7015" fill="#D9D9D9"/>
</mask>
<g mask="url(#mask0_5309_4469)">
<path d="M211.415 86.5296C211.647 86.5296 211.842 86.451 212 86.2936C212.157 86.1363 212.236 85.9413 212.236 85.7088C212.236 85.4762 212.157 85.2812 212 85.1239C211.842 84.9665 211.647 84.8879 211.415 84.8879C211.182 84.8879 210.987 84.9665 210.83 85.1239C210.673 85.2812 210.594 85.4762 210.594 85.7088C210.594 85.9413 210.673 86.1363 210.83 86.2936C210.987 86.451 211.182 86.5296 211.415 86.5296ZM210.594 83.2461H212.236V79.1416H210.594V83.2461ZM211.415 91.455C209.513 90.9762 207.943 89.8851 206.705 88.1817C205.467 86.4783 204.848 84.5869 204.848 82.5073V77.4998L211.415 75.0371L217.982 77.4998V82.5073C217.982 84.5869 217.363 86.4783 216.125 88.1817C214.887 89.8851 213.317 90.9762 211.415 91.455ZM211.415 89.7311C212.838 89.2796 214.014 88.3767 214.945 87.0222C215.875 85.6677 216.34 84.1627 216.34 82.5073V78.6285L211.415 76.7815L206.489 78.6285V82.5073C206.489 84.1627 206.955 85.6677 207.885 87.0222C208.815 88.3767 209.992 89.2796 211.415 89.7311Z" fill="#F2B924"/>
</g>
<path d="M227.893 84.6081C227.893 84.4622 227.871 84.3312 227.826 84.2153C227.785 84.0956 227.706 83.9871 227.59 83.8898C227.474 83.7888 227.312 83.6896 227.102 83.5924C226.893 83.4951 226.621 83.3941 226.288 83.2894C225.918 83.1696 225.566 83.035 225.233 82.8853C224.904 82.7357 224.612 82.5617 224.358 82.3634C224.107 82.1614 223.909 81.9276 223.763 81.662C223.621 81.3964 223.55 81.0877 223.55 80.7361C223.55 80.3956 223.625 80.087 223.774 79.8102C223.924 79.5296 224.133 79.2902 224.403 79.0919C224.672 78.8899 224.99 78.7346 225.357 78.6261C225.727 78.5176 226.133 78.4634 226.575 78.4634C227.177 78.4634 227.702 78.5719 228.151 78.7889C228.6 79.0058 228.948 79.3033 229.195 79.6811C229.446 80.0589 229.571 80.491 229.571 80.9774H227.899C227.899 80.738 227.848 80.5285 227.747 80.3489C227.65 80.1656 227.5 80.0215 227.298 79.9168C227.1 79.812 226.849 79.7597 226.546 79.7597C226.255 79.7597 226.011 79.8046 225.817 79.8943C225.622 79.9804 225.477 80.0982 225.379 80.2479C225.282 80.3938 225.233 80.5584 225.233 80.7417C225.233 80.8801 225.267 81.0054 225.334 81.1177C225.405 81.2299 225.51 81.3347 225.649 81.4319C225.787 81.5292 225.957 81.6208 226.159 81.7069C226.361 81.7929 226.595 81.8771 226.861 81.9594C227.306 82.0941 227.697 82.2456 228.034 82.4139C228.374 82.5823 228.658 82.7712 228.886 82.9807C229.115 83.1902 229.287 83.4278 229.403 83.6934C229.519 83.959 229.577 84.2602 229.577 84.5969C229.577 84.9523 229.508 85.2702 229.369 85.5508C229.231 85.8314 229.031 86.069 228.769 86.2635C228.507 86.458 228.194 86.6058 227.832 86.7068C227.469 86.8078 227.063 86.8583 226.614 86.8583C226.21 86.8583 225.811 86.806 225.419 86.7012C225.026 86.5927 224.668 86.43 224.347 86.213C224.029 85.996 223.774 85.7192 223.584 85.3825C223.393 85.0458 223.297 84.6474 223.297 84.1872H224.986C224.986 84.4416 225.026 84.6567 225.104 84.8325C225.183 85.0084 225.293 85.1505 225.435 85.259C225.581 85.3675 225.753 85.4461 225.952 85.4947C226.154 85.5433 226.374 85.5677 226.614 85.5677C226.906 85.5677 227.145 85.5265 227.332 85.4442C227.523 85.3619 227.663 85.2478 227.753 85.1019C227.846 84.956 227.893 84.7914 227.893 84.6081ZM233.595 80.6744V81.8191H230.059V80.6744H233.595ZM230.935 79.1761H232.551V84.9167C232.551 85.0925 232.573 85.2272 232.618 85.3207C232.667 85.4143 232.738 85.4797 232.831 85.5172C232.925 85.5508 233.043 85.5677 233.185 85.5677C233.286 85.5677 233.376 85.5639 233.454 85.5564C233.537 85.5452 233.606 85.534 233.662 85.5228L233.668 86.7124C233.529 86.7573 233.38 86.7929 233.219 86.819C233.058 86.8452 232.88 86.8583 232.686 86.8583C232.33 86.8583 232.02 86.8003 231.754 86.6844C231.492 86.5647 231.29 86.3739 231.148 86.112C231.006 85.8501 230.935 85.5059 230.935 85.0795V79.1761ZM237.792 85.3769V82.6721C237.792 82.4775 237.76 82.3111 237.697 82.1726C237.633 82.0305 237.534 81.9201 237.399 81.8416C237.268 81.763 237.098 81.7237 236.889 81.7237C236.709 81.7237 236.554 81.7555 236.423 81.8191C236.292 81.879 236.191 81.9669 236.12 82.0829C236.049 82.1951 236.013 82.3279 236.013 82.4813H234.397C234.397 82.2232 234.457 81.9781 234.577 81.7462C234.696 81.5142 234.87 81.3103 235.099 81.1345C235.327 80.9549 235.598 80.8146 235.912 80.7136C236.23 80.6126 236.586 80.5621 236.978 80.5621C237.45 80.5621 237.869 80.6407 238.235 80.7978C238.602 80.9549 238.89 81.1906 239.1 81.5049C239.313 81.8191 239.419 82.2119 239.419 82.6833V85.2815C239.419 85.6144 239.44 85.8875 239.481 86.1008C239.522 86.3103 239.582 86.4936 239.661 86.6507V86.7461H238.028C237.949 86.5815 237.889 86.3757 237.848 86.1288C237.811 85.8782 237.792 85.6275 237.792 85.3769ZM238.005 83.0481L238.017 83.9627H237.113C236.9 83.9627 236.715 83.9871 236.558 84.0357C236.4 84.0843 236.271 84.1535 236.17 84.2433C236.069 84.3294 235.995 84.4304 235.946 84.5464C235.901 84.6623 235.879 84.7895 235.879 84.9279C235.879 85.0664 235.91 85.1917 235.974 85.3039C236.038 85.4124 236.129 85.4985 236.249 85.562C236.369 85.6219 236.509 85.6518 236.67 85.6518C236.913 85.6518 237.124 85.6032 237.304 85.5059C237.483 85.4087 237.622 85.289 237.719 85.1468C237.82 85.0046 237.873 84.87 237.876 84.7428L238.303 85.4274C238.243 85.5808 238.161 85.7397 238.056 85.9044C237.955 86.069 237.826 86.2242 237.669 86.3701C237.512 86.5123 237.323 86.6301 237.102 86.7236C236.881 86.8134 236.619 86.8583 236.316 86.8583C235.931 86.8583 235.581 86.7816 235.267 86.6283C234.956 86.4711 234.709 86.256 234.526 85.9829C234.347 85.7061 234.257 85.3918 234.257 85.0402C234.257 84.7222 234.317 84.4397 234.436 84.1928C234.556 83.9459 234.732 83.7383 234.964 83.5699C235.2 83.3978 235.493 83.2688 235.845 83.1827C236.197 83.0929 236.604 83.0481 237.068 83.0481H238.005ZM242.377 86.0615L243.987 80.6744H245.721L243.28 87.6608C243.228 87.8142 243.157 87.9788 243.067 88.1546C242.981 88.3304 242.863 88.4969 242.713 88.654C242.568 88.8149 242.382 88.9458 242.158 89.0468C241.937 89.1479 241.666 89.1984 241.344 89.1984C241.191 89.1984 241.066 89.189 240.968 89.1703C240.871 89.1516 240.755 89.1254 240.62 89.0917V87.9077C240.661 87.9077 240.705 87.9077 240.749 87.9077C240.794 87.9114 240.837 87.9133 240.878 87.9133C241.092 87.9133 241.266 87.889 241.4 87.8404C241.535 87.7917 241.644 87.7169 241.726 87.6159C241.808 87.5186 241.874 87.3914 241.922 87.2343L242.377 86.0615ZM241.703 80.6744L243.022 85.0738L243.252 86.7854L242.152 86.9032L239.969 80.6744H241.703ZM250.845 81.9313V86.7461H249.223V80.6744H250.744L250.845 81.9313ZM250.62 83.497H250.171C250.171 83.0742 250.222 82.6852 250.323 82.3298C250.428 81.9706 250.579 81.6601 250.777 81.3982C250.979 81.1326 251.228 80.9269 251.524 80.781C251.819 80.6351 252.162 80.5621 252.551 80.5621C252.82 80.5621 253.067 80.6033 253.291 80.6856C253.516 80.7641 253.708 80.8895 253.869 81.0616C254.034 81.2299 254.161 81.4506 254.251 81.7237C254.341 81.9931 254.386 82.3167 254.386 82.6945V86.7461H252.769V82.8741C252.769 82.5973 252.732 82.384 252.657 82.2344C252.582 82.0847 252.476 81.98 252.337 81.9201C252.203 81.8603 252.04 81.8303 251.849 81.8303C251.64 81.8303 251.456 81.8734 251.299 81.9594C251.146 82.0455 251.019 82.1652 250.918 82.3185C250.817 82.4682 250.742 82.644 250.693 82.846C250.645 83.0481 250.62 83.265 250.62 83.497ZM254.234 83.3118L253.656 83.3848C253.656 82.9882 253.705 82.6197 253.802 82.2793C253.903 81.9388 254.051 81.6395 254.245 81.3814C254.444 81.1233 254.689 80.9231 254.98 80.781C255.272 80.6351 255.609 80.5621 255.99 80.5621C256.282 80.5621 256.548 80.6051 256.787 80.6912C257.027 80.7735 257.231 80.9063 257.399 81.0896C257.571 81.2692 257.702 81.5049 257.792 81.7967C257.885 82.0885 257.932 82.4457 257.932 82.8685V86.7461H256.31V82.8685C256.31 82.5879 256.273 82.3747 256.198 82.2288C256.127 82.0791 256.022 81.9762 255.884 81.9201C255.749 81.8603 255.588 81.8303 255.401 81.8303C255.207 81.8303 255.037 81.8696 254.891 81.9482C254.745 82.023 254.623 82.1278 254.526 82.2624C254.429 82.3971 254.356 82.5542 254.307 82.7338C254.258 82.9096 254.234 83.1023 254.234 83.3118ZM258.925 83.772V83.6541C258.925 83.2089 258.989 82.7993 259.116 82.4252C259.243 82.0473 259.429 81.72 259.672 81.4431C259.915 81.1663 260.214 80.9512 260.57 80.7978C260.925 80.6407 261.333 80.5621 261.793 80.5621C262.253 80.5621 262.663 80.6407 263.022 80.7978C263.381 80.9512 263.682 81.1663 263.925 81.4431C264.172 81.72 264.359 82.0473 264.486 82.4252C264.614 82.7993 264.677 83.2089 264.677 83.6541V83.772C264.677 84.2134 264.614 84.623 264.486 85.0009C264.359 85.375 264.172 85.7023 263.925 85.9829C263.682 86.2598 263.383 86.4749 263.027 86.6283C262.672 86.7816 262.264 86.8583 261.804 86.8583C261.344 86.8583 260.934 86.7816 260.575 86.6283C260.22 86.4749 259.919 86.2598 259.672 85.9829C259.429 85.7023 259.243 85.375 259.116 85.0009C258.989 84.623 258.925 84.2134 258.925 83.772ZM260.541 83.6541V83.772C260.541 84.0263 260.564 84.2639 260.609 84.4846C260.654 84.7053 260.725 84.8999 260.822 85.0682C260.923 85.2328 261.054 85.3619 261.215 85.4554C261.376 85.549 261.572 85.5957 261.804 85.5957C262.029 85.5957 262.221 85.549 262.382 85.4554C262.543 85.3619 262.672 85.2328 262.769 85.0682C262.867 84.8999 262.938 84.7053 262.983 84.4846C263.031 84.2639 263.055 84.0263 263.055 83.772V83.6541C263.055 83.4072 263.031 83.1753 262.983 82.9583C262.938 82.7375 262.865 82.543 262.764 82.3747C262.666 82.2026 262.537 82.0679 262.376 81.9706C262.216 81.8734 262.021 81.8247 261.793 81.8247C261.565 81.8247 261.37 81.8734 261.209 81.9706C261.052 82.0679 260.923 82.2026 260.822 82.3747C260.725 82.543 260.654 82.7375 260.609 82.9583C260.564 83.1753 260.541 83.4072 260.541 83.6541ZM269.256 85.4218V78.1267H270.884V86.7461H269.419L269.256 85.4218ZM265.418 83.7832V83.6653C265.418 83.2014 265.47 82.7806 265.575 82.4027C265.68 82.0211 265.833 81.6938 266.035 81.4207C266.237 81.1476 266.486 80.9362 266.782 80.7866C267.077 80.6369 267.414 80.5621 267.792 80.5621C268.147 80.5621 268.458 80.6369 268.723 80.7866C268.993 80.9362 269.221 81.1495 269.408 81.4263C269.599 81.6994 269.752 82.023 269.868 82.3971C269.984 82.7675 270.068 83.1734 270.12 83.6148V83.873C270.068 84.2957 269.984 84.6885 269.868 85.0514C269.752 85.4143 269.599 85.7323 269.408 86.0054C269.221 86.2747 268.993 86.4842 268.723 86.6339C268.454 86.7835 268.14 86.8583 267.78 86.8583C267.403 86.8583 267.066 86.7816 266.77 86.6283C266.479 86.4749 266.232 86.2598 266.03 85.9829C265.831 85.7061 265.68 85.3806 265.575 85.0065C265.47 84.6324 265.418 84.2246 265.418 83.7832ZM267.034 83.6653V83.7832C267.034 84.0338 267.053 84.2676 267.09 84.4846C267.131 84.7016 267.197 84.8943 267.287 85.0626C267.38 85.2272 267.5 85.3563 267.646 85.4498C267.795 85.5396 267.977 85.5845 268.19 85.5845C268.467 85.5845 268.695 85.5228 268.875 85.3993C269.054 85.2721 269.191 85.0982 269.284 84.8774C269.382 84.6567 269.438 84.4023 269.453 84.1143V83.3791C269.441 83.1435 269.408 82.9321 269.352 82.745C269.299 82.5542 269.221 82.3915 269.116 82.2568C269.015 82.1221 268.888 82.0174 268.734 81.9426C268.585 81.8678 268.407 81.8303 268.201 81.8303C267.992 81.8303 267.812 81.879 267.663 81.9762C267.513 82.0698 267.391 82.1988 267.298 82.3634C267.208 82.528 267.141 82.7226 267.096 82.947C267.055 83.1678 267.034 83.4072 267.034 83.6653ZM274.941 86.8583C274.469 86.8583 274.047 86.7835 273.673 86.6339C273.298 86.4805 272.981 86.2691 272.719 85.9998C272.46 85.7304 272.262 85.418 272.124 85.0626C271.985 84.7035 271.916 84.3219 271.916 83.9179V83.6934C271.916 83.2332 271.982 82.8124 272.113 82.4308C272.244 82.0492 272.431 81.7181 272.674 81.4375C272.921 81.157 273.22 80.9418 273.572 80.7922C273.923 80.6388 274.32 80.5621 274.761 80.5621C275.191 80.5621 275.573 80.6332 275.906 80.7754C276.239 80.9175 276.518 81.1195 276.742 81.3814C276.97 81.6433 277.142 81.9575 277.258 82.3242C277.374 82.687 277.432 83.0911 277.432 83.5363V84.2097H272.606V83.1322H275.844V83.0088C275.844 82.7843 275.803 82.5842 275.721 82.4083C275.642 82.2288 275.523 82.0866 275.362 81.9819C275.201 81.8771 274.995 81.8247 274.744 81.8247C274.531 81.8247 274.348 81.8715 274.194 81.965C274.041 82.0585 273.916 82.1895 273.819 82.3578C273.725 82.5262 273.654 82.7245 273.605 82.9527C273.56 83.1771 273.538 83.424 273.538 83.6934V83.9179C273.538 84.161 273.572 84.3855 273.639 84.5912C273.71 84.797 273.809 84.9747 273.936 85.1243C274.067 85.274 274.224 85.39 274.408 85.4723C274.595 85.5546 274.806 85.5957 275.042 85.5957C275.334 85.5957 275.605 85.5396 275.856 85.4274C276.11 85.3114 276.329 85.1374 276.512 84.9055L277.298 85.7585C277.17 85.9418 276.997 86.1176 276.776 86.2859C276.559 86.4543 276.297 86.5927 275.99 86.7012C275.683 86.806 275.334 86.8583 274.941 86.8583Z" fill="#F2B924"/>
<mask id="mask1_5309_4469" style="mask-type:alpha" maskUnits="userSpaceOnUse" x="284" y="73" width="21" height="21">
<rect x="284.477" y="73.3955" width="19.7015" height="19.7015" fill="#D9D9D9"/>
</mask>
<g mask="url(#mask1_5309_4469)">
<path d="M295.147 82.9177V79.9625C295.147 79.7299 295.068 79.5349 294.911 79.3776C294.754 79.2203 294.559 79.1416 294.326 79.1416C294.094 79.1416 293.899 79.2203 293.741 79.3776C293.584 79.5349 293.505 79.7299 293.505 79.9625V83.2255C293.505 83.335 293.526 83.441 293.567 83.5436C293.608 83.6463 293.669 83.7386 293.752 83.8207L296.46 86.5296C296.611 86.6801 296.803 86.7554 297.035 86.7554C297.268 86.7554 297.459 86.6801 297.61 86.5296C297.76 86.3791 297.835 86.1876 297.835 85.955C297.835 85.7224 297.76 85.5309 297.61 85.3804L295.147 82.9177ZM294.326 91.455C293.191 91.455 292.123 91.2395 291.125 90.8086C290.126 90.3776 289.257 89.7927 288.518 89.0539C287.78 88.3151 287.195 87.4463 286.764 86.4476C286.333 85.4488 286.117 84.3816 286.117 83.2461C286.117 82.1105 286.333 81.0433 286.764 80.0446C287.195 79.0458 287.78 78.177 288.518 77.4382C289.257 76.6994 290.126 76.1145 291.125 75.6836C292.123 75.2526 293.191 75.0371 294.326 75.0371C295.462 75.0371 296.529 75.2526 297.528 75.6836C298.526 76.1145 299.395 76.6994 300.134 77.4382C300.873 78.177 301.458 79.0458 301.889 80.0446C302.32 81.0433 302.535 82.1105 302.535 83.2461C302.535 84.3816 302.32 85.4488 301.889 86.4476C301.458 87.4463 300.873 88.3151 300.134 89.0539C299.395 89.7927 298.526 90.3776 297.528 90.8086C296.529 91.2395 295.462 91.455 294.326 91.455ZM294.326 89.8132C296.146 89.8132 297.695 89.1736 298.974 87.8944C300.254 86.6152 300.893 85.0657 300.893 83.2461C300.893 81.4264 300.254 79.877 298.974 78.5977C297.695 77.3185 296.146 76.6789 294.326 76.6789C292.506 76.6789 290.957 77.3185 289.678 78.5977C288.399 79.877 287.759 81.4264 287.759 83.2461C287.759 85.0657 288.399 86.6152 289.678 87.8944C290.957 89.1736 292.506 89.8132 294.326 89.8132Z" fill="#95A1B1"/>
</g>
<path d="M316.577 85.1845C316.577 85.6821 316.461 86.1048 316.229 86.4528C316 86.7969 315.69 87.0588 315.297 87.2384C314.908 87.418 314.468 87.5077 313.978 87.5077C313.488 87.5077 313.047 87.418 312.654 87.2384C312.261 87.0588 311.951 86.7969 311.723 86.4528C311.494 86.1048 311.38 85.6821 311.38 85.1845C311.38 84.8591 311.442 84.5617 311.565 84.2923C311.693 84.0192 311.87 83.7816 312.098 83.5796C312.33 83.3776 312.604 83.2224 312.918 83.1139C313.236 83.0016 313.586 82.9455 313.967 82.9455C314.468 82.9455 314.916 83.0428 315.308 83.2373C315.701 83.4281 316.01 83.6919 316.234 84.0286C316.462 84.3652 316.577 84.7506 316.577 85.1845ZM315.533 85.1621C315.533 84.8591 315.467 84.5916 315.336 84.3596C315.205 84.124 315.022 83.9406 314.786 83.8097C314.551 83.6788 314.278 83.6133 313.967 83.6133C313.649 83.6133 313.374 83.6788 313.142 83.8097C312.914 83.9406 312.736 84.124 312.609 84.3596C312.482 84.5916 312.418 84.8591 312.418 85.1621C312.418 85.4763 312.48 85.7457 312.604 85.9702C312.731 86.1909 312.91 86.3611 313.142 86.4808C313.378 86.5968 313.657 86.6548 313.978 86.6548C314.3 86.6548 314.577 86.5968 314.809 86.4808C315.041 86.3611 315.219 86.1909 315.342 85.9702C315.469 85.7457 315.533 85.4763 315.533 85.1621ZM316.386 81.3518C316.386 81.7484 316.281 82.1056 316.071 82.4236C315.862 82.7416 315.576 82.9923 315.213 83.1756C314.85 83.3589 314.439 83.4506 313.978 83.4506C313.511 83.4506 313.094 83.3589 312.727 83.1756C312.364 82.9923 312.08 82.7416 311.874 82.4236C311.668 82.1056 311.565 81.7484 311.565 81.3518C311.565 80.8767 311.668 80.4727 311.874 80.1397C312.084 79.8068 312.37 79.5524 312.733 79.3765C313.095 79.2007 313.509 79.1128 313.973 79.1128C314.44 79.1128 314.856 79.2007 315.219 79.3765C315.581 79.5524 315.866 79.8068 316.071 80.1397C316.281 80.4727 316.386 80.8767 316.386 81.3518ZM315.348 81.3687C315.348 81.0956 315.29 80.8543 315.174 80.6448C315.058 80.4353 314.897 80.2707 314.691 80.1509C314.485 80.0275 314.246 79.9658 313.973 79.9658C313.7 79.9658 313.46 80.0237 313.254 80.1397C313.052 80.252 312.893 80.4128 312.777 80.6223C312.665 80.8318 312.609 81.0806 312.609 81.3687C312.609 81.6492 312.665 81.8943 312.777 82.1038C312.893 82.3133 313.054 82.476 313.26 82.592C313.466 82.708 313.705 82.7659 313.978 82.7659C314.251 82.7659 314.489 82.708 314.691 82.592C314.897 82.476 315.058 82.3133 315.174 82.1038C315.29 81.8943 315.348 81.6492 315.348 81.3687ZM317.957 86.8456C317.957 86.6697 318.011 86.522 318.12 86.4023C318.232 86.2788 318.393 86.2171 318.602 86.2171C318.812 86.2171 318.971 86.2788 319.079 86.4023C319.192 86.522 319.248 86.6697 319.248 86.8456C319.248 87.0177 319.192 87.1636 319.079 87.2833C318.971 87.403 318.812 87.4628 318.602 87.4628C318.393 87.4628 318.232 87.403 318.12 87.2833C318.011 87.1636 317.957 87.0177 317.957 86.8456ZM317.963 81.8905C317.963 81.7147 318.017 81.5669 318.125 81.4472C318.238 81.3238 318.398 81.262 318.608 81.262C318.817 81.262 318.976 81.3238 319.085 81.4472C319.197 81.5669 319.253 81.7147 319.253 81.8905C319.253 82.0626 319.197 82.2085 319.085 82.3282C318.976 82.448 318.817 82.5078 318.608 82.5078C318.398 82.5078 318.238 82.448 318.125 82.3282C318.017 82.2085 317.963 82.0626 317.963 81.8905ZM326.195 84.6458V85.4988H320.291V84.8871L323.95 79.225H324.798L323.888 80.8636L321.47 84.6458H326.195ZM325.056 79.225V87.3955H324.018V79.225H325.056ZM328.451 83.5067L327.62 83.2934L328.03 79.225H332.222V80.1846H328.911L328.664 82.4068C328.814 82.3208 329.002 82.2403 329.231 82.1655C329.463 82.0907 329.728 82.0533 330.028 82.0533C330.405 82.0533 330.744 82.1187 331.043 82.2497C331.343 82.3769 331.597 82.5602 331.806 82.7996C332.02 83.039 332.182 83.3271 332.295 83.6638C332.407 84.0005 332.463 84.3765 332.463 84.7917C332.463 85.1845 332.409 85.5456 332.3 85.8748C332.195 86.204 332.036 86.492 331.823 86.739C331.61 86.9821 331.341 87.171 331.015 87.3057C330.693 87.4404 330.314 87.5077 329.876 87.5077C329.547 87.5077 329.234 87.4628 328.939 87.3731C328.647 87.2795 328.385 87.1392 328.153 86.9522C327.925 86.7614 327.738 86.5257 327.592 86.2451C327.45 85.9608 327.36 85.6279 327.323 85.2463H328.31C328.355 85.553 328.445 85.8112 328.58 86.0207C328.714 86.2302 328.89 86.3892 329.107 86.4977C329.328 86.6024 329.584 86.6548 329.876 86.6548C330.123 86.6548 330.342 86.6118 330.533 86.5257C330.723 86.4397 330.884 86.3162 331.015 86.1553C331.146 85.9945 331.245 85.7999 331.313 85.5717C331.384 85.3435 331.419 85.0873 331.419 84.803C331.419 84.5448 331.384 84.3054 331.313 84.0847C331.241 83.8639 331.135 83.6713 330.993 83.5067C330.854 83.3421 330.684 83.2149 330.482 83.1251C330.28 83.0316 330.048 82.9848 329.786 82.9848C329.438 82.9848 329.175 83.0316 328.995 83.1251C328.819 83.2186 328.638 83.3458 328.451 83.5067Z" fill="#95A1B1"/>
<mask id="mask2_5309_4469" style="mask-type:alpha" maskUnits="userSpaceOnUse" x="201" y="99" width="21" height="21">
<rect x="201.566" y="99.6641" width="19.7015" height="19.7015" fill="#D9D9D9"/>
</mask>
<g mask="url(#mask2_5309_4469)">
<path d="M205.669 117.724C205.218 117.724 204.831 117.563 204.51 117.242C204.188 116.92 204.027 116.534 204.027 116.082V104.59C204.027 104.138 204.188 103.752 204.51 103.43C204.831 103.109 205.218 102.948 205.669 102.948H206.49V102.127C206.49 101.894 206.569 101.699 206.726 101.542C206.883 101.385 207.078 101.306 207.311 101.306C207.544 101.306 207.738 101.385 207.896 101.542C208.053 101.699 208.132 101.894 208.132 102.127V102.948H214.699V102.127C214.699 101.894 214.778 101.699 214.935 101.542C215.092 101.385 215.287 101.306 215.52 101.306C215.752 101.306 215.947 101.385 216.105 101.542C216.262 101.699 216.341 101.894 216.341 102.127V102.948H217.162C217.613 102.948 218 103.109 218.321 103.43C218.643 103.752 218.803 104.138 218.803 104.59V108.694C218.803 108.927 218.725 109.122 218.567 109.279C218.41 109.436 218.215 109.515 217.983 109.515C217.75 109.515 217.555 109.436 217.398 109.279C217.24 109.122 217.162 108.927 217.162 108.694V107.873H205.669V116.082H210.595C210.827 116.082 211.022 116.161 211.179 116.318C211.337 116.476 211.415 116.671 211.415 116.903C211.415 117.136 211.337 117.331 211.179 117.488C211.022 117.645 210.827 117.724 210.595 117.724H205.669ZM217.162 119.366C216.286 119.366 215.503 119.123 214.812 118.637C214.121 118.152 213.625 117.519 213.324 116.739C213.256 116.588 213.273 116.441 213.375 116.298C213.478 116.154 213.611 116.082 213.775 116.082C213.967 116.082 214.141 116.14 214.299 116.257C214.456 116.373 214.583 116.52 214.678 116.698C214.925 117.136 215.267 117.485 215.705 117.745C216.142 118.005 216.628 118.135 217.162 118.135C217.955 118.135 218.632 117.854 219.193 117.293C219.754 116.732 220.035 116.055 220.035 115.261C220.035 114.468 219.754 113.791 219.193 113.23C218.632 112.669 217.955 112.388 217.162 112.388C216.765 112.388 216.396 112.46 216.053 112.604C215.711 112.747 215.41 112.949 215.15 113.209H215.725C215.903 113.209 216.05 113.267 216.166 113.384C216.283 113.5 216.341 113.647 216.341 113.825C216.341 114.003 216.283 114.15 216.166 114.266C216.05 114.382 215.903 114.44 215.725 114.44H213.878C213.646 114.44 213.451 114.362 213.293 114.204C213.136 114.047 213.057 113.852 213.057 113.62V111.773C213.057 111.595 213.115 111.448 213.232 111.331C213.348 111.215 213.495 111.157 213.673 111.157C213.851 111.157 213.998 111.215 214.114 111.331C214.23 111.448 214.289 111.595 214.289 111.773V112.327C214.658 111.971 215.089 111.687 215.581 111.475C216.074 111.263 216.601 111.157 217.162 111.157C218.297 111.157 219.265 111.557 220.066 112.357C220.866 113.158 221.266 114.126 221.266 115.261C221.266 116.397 220.866 117.365 220.066 118.165C219.265 118.966 218.297 119.366 217.162 119.366ZM205.669 106.232H217.162V104.59H205.669V106.232Z" fill="#95A1B1"/>
</g>
<path d="M233.975 112.783V113.664H229.648V112.783H233.975ZM229.867 105.494V113.664H228.784V105.494H229.867ZM233.403 109.006V109.887H229.648V109.006H233.403ZM233.919 105.494V106.38H229.648V105.494H233.919ZM236.859 112.727L238.52 107.592H239.581L237.398 113.664H236.702L236.859 112.727ZM235.473 107.592L237.185 112.755L237.303 113.664H236.607L234.407 107.592H235.473ZM243.021 113.776C242.598 113.776 242.215 113.705 241.871 113.563C241.53 113.417 241.236 113.213 240.99 112.951C240.746 112.69 240.559 112.379 240.428 112.02C240.297 111.661 240.232 111.268 240.232 110.841V110.606C240.232 110.112 240.305 109.672 240.451 109.287C240.597 108.898 240.795 108.569 241.046 108.299C241.296 108.03 241.581 107.826 241.899 107.688C242.217 107.549 242.546 107.48 242.886 107.48C243.32 107.48 243.694 107.555 244.009 107.705C244.327 107.854 244.587 108.064 244.789 108.333C244.991 108.599 245.14 108.913 245.237 109.276C245.335 109.635 245.383 110.028 245.383 110.454V110.92H240.849V110.073H244.345V109.994C244.33 109.725 244.274 109.463 244.177 109.208C244.083 108.954 243.934 108.745 243.728 108.58C243.522 108.415 243.242 108.333 242.886 108.333C242.651 108.333 242.434 108.384 242.235 108.485C242.037 108.582 241.867 108.728 241.725 108.922C241.582 109.117 241.472 109.354 241.394 109.635C241.315 109.916 241.276 110.239 241.276 110.606V110.841C241.276 111.129 241.315 111.401 241.394 111.655C241.476 111.906 241.594 112.126 241.747 112.317C241.904 112.508 242.093 112.658 242.314 112.766C242.538 112.875 242.793 112.929 243.077 112.929C243.444 112.929 243.754 112.854 244.009 112.704C244.263 112.555 244.486 112.355 244.676 112.104L245.305 112.603C245.174 112.802 245.007 112.991 244.805 113.17C244.603 113.35 244.355 113.496 244.059 113.608C243.767 113.72 243.421 113.776 243.021 113.776ZM247.634 108.546V113.664H246.595V107.592H247.606L247.634 108.546ZM249.53 107.559L249.525 108.524C249.439 108.505 249.356 108.494 249.278 108.49C249.203 108.483 249.117 108.479 249.02 108.479C248.78 108.479 248.569 108.516 248.386 108.591C248.202 108.666 248.047 108.771 247.92 108.905C247.793 109.04 247.692 109.201 247.617 109.388C247.546 109.571 247.499 109.773 247.477 109.994L247.185 110.162C247.185 109.796 247.22 109.452 247.291 109.13C247.366 108.808 247.48 108.524 247.634 108.277C247.787 108.026 247.982 107.832 248.217 107.693C248.457 107.551 248.741 107.48 249.07 107.48C249.145 107.48 249.231 107.489 249.328 107.508C249.426 107.523 249.493 107.54 249.53 107.559ZM252.297 113.036L253.986 107.592H255.097L252.662 114.601C252.605 114.751 252.531 114.912 252.437 115.084C252.347 115.26 252.231 115.426 252.089 115.583C251.947 115.74 251.775 115.868 251.573 115.965C251.375 116.066 251.137 116.116 250.86 116.116C250.778 116.116 250.673 116.105 250.546 116.083C250.419 116.06 250.329 116.042 250.277 116.027L250.271 115.185C250.301 115.189 250.348 115.192 250.411 115.196C250.479 115.204 250.525 115.207 250.552 115.207C250.787 115.207 250.987 115.175 251.152 115.112C251.317 115.052 251.455 114.949 251.567 114.803C251.683 114.661 251.782 114.465 251.865 114.214L252.297 113.036ZM251.057 107.592L252.634 112.306L252.903 113.4L252.157 113.782L249.923 107.592H251.057ZM259.384 105.494H260.434L263.11 112.155L265.782 105.494H266.836L263.514 113.664H262.695L259.384 105.494ZM259.042 105.494H259.968L260.119 110.477V113.664H259.042V105.494ZM266.247 105.494H267.173V113.664H266.096V110.477L266.247 105.494ZM268.643 110.696V110.566C268.643 110.129 268.707 109.723 268.834 109.349C268.961 108.971 269.145 108.644 269.384 108.367C269.624 108.086 269.914 107.869 270.254 107.716C270.594 107.559 270.976 107.48 271.399 107.48C271.825 107.48 272.209 107.559 272.549 107.716C272.893 107.869 273.185 108.086 273.424 108.367C273.668 108.644 273.853 108.971 273.98 109.349C274.107 109.723 274.171 110.129 274.171 110.566V110.696C274.171 111.133 274.107 111.539 273.98 111.913C273.853 112.287 273.668 112.615 273.424 112.895C273.185 113.172 272.895 113.389 272.555 113.546C272.218 113.7 271.836 113.776 271.41 113.776C270.983 113.776 270.6 113.7 270.26 113.546C269.919 113.389 269.627 113.172 269.384 112.895C269.145 112.615 268.961 112.287 268.834 111.913C268.707 111.539 268.643 111.133 268.643 110.696ZM269.682 110.566V110.696C269.682 110.999 269.717 111.285 269.788 111.554C269.859 111.82 269.966 112.055 270.108 112.261C270.254 112.467 270.435 112.63 270.652 112.749C270.869 112.865 271.122 112.923 271.41 112.923C271.694 112.923 271.943 112.865 272.156 112.749C272.373 112.63 272.553 112.467 272.695 112.261C272.837 112.055 272.944 111.82 273.015 111.554C273.09 111.285 273.127 110.999 273.127 110.696V110.566C273.127 110.267 273.09 109.985 273.015 109.719C272.944 109.45 272.835 109.212 272.689 109.006C272.547 108.797 272.368 108.632 272.151 108.513C271.937 108.393 271.687 108.333 271.399 108.333C271.114 108.333 270.864 108.393 270.647 108.513C270.434 108.632 270.254 108.797 270.108 109.006C269.966 109.212 269.859 109.45 269.788 109.719C269.717 109.985 269.682 110.267 269.682 110.566ZM276.511 108.889V113.664H275.473V107.592H276.455L276.511 108.889ZM276.264 110.398L275.832 110.381C275.836 109.966 275.897 109.583 276.017 109.231C276.137 108.876 276.305 108.567 276.522 108.305C276.739 108.043 276.997 107.841 277.296 107.699C277.6 107.553 277.934 107.48 278.301 107.48C278.6 107.48 278.87 107.521 279.109 107.604C279.348 107.682 279.552 107.809 279.721 107.985C279.893 108.161 280.024 108.389 280.114 108.67C280.203 108.947 280.248 109.285 280.248 109.685V113.664H279.204V109.674C279.204 109.356 279.158 109.102 279.064 108.911C278.971 108.717 278.834 108.576 278.654 108.49C278.475 108.4 278.254 108.355 277.992 108.355C277.734 108.355 277.499 108.41 277.285 108.518C277.076 108.627 276.894 108.776 276.741 108.967C276.591 109.158 276.473 109.377 276.387 109.624C276.305 109.867 276.264 110.125 276.264 110.398ZM282.768 112.43V113.266C282.768 113.606 282.682 113.965 282.51 114.343C282.338 114.725 282.096 115.043 281.786 115.297L281.197 114.887C281.316 114.723 281.417 114.554 281.5 114.382C281.582 114.214 281.644 114.038 281.685 113.855C281.73 113.675 281.752 113.484 281.752 113.282V112.43H282.768ZM289.895 105.494V113.664H288.828V105.494H289.895ZM292.521 105.494V106.38H286.208V105.494H292.521ZM296.752 112.261V107.592H297.796V113.664H296.802L296.752 112.261ZM296.948 110.982L297.38 110.97C297.38 111.375 297.337 111.749 297.251 112.093C297.169 112.433 297.034 112.729 296.847 112.979C296.66 113.23 296.415 113.427 296.112 113.569C295.809 113.707 295.441 113.776 295.007 113.776C294.711 113.776 294.44 113.733 294.193 113.647C293.95 113.561 293.74 113.428 293.564 113.249C293.389 113.069 293.252 112.835 293.155 112.547C293.061 112.259 293.015 111.913 293.015 111.509V107.592H294.053V111.52C294.053 111.794 294.083 112.02 294.142 112.199C294.206 112.375 294.29 112.516 294.395 112.62C294.504 112.721 294.623 112.792 294.754 112.834C294.889 112.875 295.027 112.895 295.169 112.895C295.611 112.895 295.961 112.811 296.219 112.643C296.477 112.471 296.662 112.241 296.774 111.953C296.89 111.661 296.948 111.337 296.948 110.982ZM301.898 113.776C301.475 113.776 301.092 113.705 300.747 113.563C300.407 113.417 300.113 113.213 299.866 112.951C299.623 112.69 299.436 112.379 299.305 112.02C299.174 111.661 299.109 111.268 299.109 110.841V110.606C299.109 110.112 299.182 109.672 299.328 109.287C299.473 108.898 299.672 108.569 299.922 108.299C300.173 108.03 300.457 107.826 300.775 107.688C301.093 107.549 301.423 107.48 301.763 107.48C302.197 107.48 302.571 107.555 302.885 107.705C303.203 107.854 303.463 108.064 303.665 108.333C303.867 108.599 304.017 108.913 304.114 109.276C304.212 109.635 304.26 110.028 304.26 110.454V110.92H299.726V110.073H303.222V109.994C303.207 109.725 303.151 109.463 303.054 109.208C302.96 108.954 302.811 108.745 302.605 108.58C302.399 108.415 302.118 108.333 301.763 108.333C301.527 108.333 301.31 108.384 301.112 108.485C300.914 108.582 300.744 108.728 300.601 108.922C300.459 109.117 300.349 109.354 300.27 109.635C300.192 109.916 300.153 110.239 300.153 110.606V110.841C300.153 111.129 300.192 111.401 300.27 111.655C300.353 111.906 300.47 112.126 300.624 112.317C300.781 112.508 300.97 112.658 301.191 112.766C301.415 112.875 301.67 112.929 301.954 112.929C302.32 112.929 302.631 112.854 302.885 112.704C303.14 112.555 303.362 112.355 303.553 112.104L304.182 112.603C304.051 112.802 303.884 112.991 303.682 113.17C303.48 113.35 303.231 113.496 302.936 113.608C302.644 113.72 302.298 113.776 301.898 113.776ZM306.415 112.43V113.266C306.415 113.606 306.329 113.965 306.157 114.343C305.985 114.725 305.744 115.043 305.433 115.297L304.844 114.887C304.964 114.723 305.065 114.554 305.147 114.382C305.229 114.214 305.291 114.038 305.332 113.855C305.377 113.675 305.399 113.484 305.399 113.282V112.43H306.415ZM312.896 111.195L314.518 105.494H315.304L314.849 107.71L313.104 113.664H312.324L312.896 111.195ZM311.219 105.494L312.509 111.083L312.896 113.664H312.122L310.141 105.494H311.219ZM317.403 111.077L318.665 105.494H319.748L317.773 113.664H316.998L317.403 111.077ZM315.422 105.494L316.998 111.195L317.571 113.664H316.791L315.107 107.71L314.647 105.494H315.422ZM323.132 113.776C322.709 113.776 322.326 113.705 321.982 113.563C321.641 113.417 321.347 113.213 321.101 112.951C320.857 112.69 320.67 112.379 320.539 112.02C320.408 111.661 320.343 111.268 320.343 110.841V110.606C320.343 110.112 320.416 109.672 320.562 109.287C320.708 108.898 320.906 108.569 321.157 108.299C321.407 108.03 321.692 107.826 322.01 107.688C322.328 107.549 322.657 107.48 322.997 107.48C323.431 107.48 323.805 107.555 324.12 107.705C324.438 107.854 324.698 108.064 324.9 108.333C325.102 108.599 325.251 108.913 325.349 109.276C325.446 109.635 325.494 110.028 325.494 110.454V110.92H320.96V110.073H324.456V109.994C324.441 109.725 324.385 109.463 324.288 109.208C324.194 108.954 324.045 108.745 323.839 108.58C323.633 108.415 323.353 108.333 322.997 108.333C322.762 108.333 322.545 108.384 322.346 108.485C322.148 108.582 321.978 108.728 321.836 108.922C321.694 109.117 321.583 109.354 321.505 109.635C321.426 109.916 321.387 110.239 321.387 110.606V110.841C321.387 111.129 321.426 111.401 321.505 111.655C321.587 111.906 321.705 112.126 321.858 112.317C322.015 112.508 322.204 112.658 322.425 112.766C322.649 112.875 322.904 112.929 323.188 112.929C323.555 112.929 323.865 112.854 324.12 112.704C324.374 112.555 324.597 112.355 324.787 112.104L325.416 112.603C325.285 112.802 325.118 112.991 324.916 113.17C324.714 113.35 324.466 113.496 324.17 113.608C323.878 113.72 323.532 113.776 323.132 113.776ZM330.534 112.486V105.045H331.577V113.664H330.623L330.534 112.486ZM326.448 110.696V110.578C326.448 110.114 326.505 109.693 326.617 109.315C326.733 108.933 326.895 108.606 327.105 108.333C327.318 108.06 327.571 107.85 327.863 107.705C328.158 107.555 328.487 107.48 328.85 107.48C329.232 107.48 329.565 107.547 329.849 107.682C330.137 107.813 330.38 108.006 330.579 108.26C330.781 108.511 330.94 108.814 331.056 109.169C331.172 109.525 331.252 109.927 331.297 110.376V110.892C331.256 111.337 331.175 111.737 331.056 112.093C330.94 112.448 330.781 112.751 330.579 113.002C330.38 113.253 330.137 113.445 329.849 113.58C329.561 113.711 329.224 113.776 328.839 113.776C328.484 113.776 328.158 113.7 327.863 113.546C327.571 113.393 327.318 113.178 327.105 112.901C326.895 112.624 326.733 112.299 326.617 111.924C326.505 111.547 326.448 111.137 326.448 110.696ZM327.492 110.578V110.696C327.492 110.999 327.522 111.283 327.582 111.548C327.646 111.814 327.743 112.048 327.874 112.25C328.005 112.452 328.171 112.611 328.373 112.727C328.575 112.839 328.817 112.895 329.097 112.895C329.441 112.895 329.724 112.822 329.944 112.676C330.169 112.531 330.348 112.338 330.483 112.098C330.618 111.859 330.723 111.599 330.797 111.318V109.966C330.753 109.76 330.687 109.562 330.601 109.371C330.519 109.177 330.41 109.005 330.276 108.855C330.145 108.702 329.982 108.58 329.787 108.49C329.597 108.4 329.37 108.355 329.108 108.355C328.824 108.355 328.579 108.415 328.373 108.535C328.171 108.651 328.005 108.812 327.874 109.018C327.743 109.22 327.646 109.455 327.582 109.725C327.522 109.99 327.492 110.275 327.492 110.578Z" fill="#95A1B1"/>
<mask id="mask3_5309_4469" style="mask-type:alpha" maskUnits="userSpaceOnUse" x="440" y="88" width="17" height="17">
<rect x="456.863" y="104.589" width="16.4179" height="16.4179" transform="rotate(-180 456.863 104.589)" fill="#D9D9D9"/>
</mask>
<g mask="url(#mask3_5309_4469)">
<path d="M450.433 96.3808L445.611 91.5581C445.451 91.3985 445.371 91.2046 445.371 90.9766C445.371 90.7486 445.451 90.5548 445.611 90.3951C445.77 90.2355 445.964 90.1557 446.192 90.1557C446.42 90.1557 446.614 90.2355 446.773 90.3951L451.887 95.5086C452.012 95.634 452.104 95.7709 452.161 95.9191C452.218 96.0673 452.246 96.2212 452.246 96.3808C452.246 96.5405 452.218 96.6944 452.161 96.8426C452.104 96.9908 452.012 97.1276 451.887 97.253L446.773 102.367C446.614 102.526 446.42 102.606 446.192 102.606C445.964 102.606 445.77 102.526 445.611 102.367C445.451 102.207 445.371 102.013 445.371 101.785C445.371 101.557 445.451 101.363 445.611 101.204L450.433 96.3808Z" fill="#95A1B1"/>
</g>
</g>
<g filter="url(#filter1_d_5309_4469)">
<rect x="41.4336" y="168.5" width="383.955" height="150" rx="16.791" fill="white" shape-rendering="crispEdges"/>
<mask id="path-19-inside-2_5309_4469" fill="white">
<path d="M59.3438 186.411H407.478V228.948H59.3438V186.411Z"/>
</mask>
<path d="M407.478 228.948V227.829H59.3438V228.948V230.067H407.478V228.948Z" fill="#CBCFDD" mask="url(#path-19-inside-2_5309_4469)"/>
<path d="M70.9401 200.799V201.402C70.9401 202.37 70.8089 203.239 70.5465 204.008C70.2842 204.778 69.9139 205.434 69.4359 205.976C68.9578 206.513 68.3864 206.924 67.7218 207.209C67.063 207.495 66.3313 207.638 65.5267 207.638C64.728 207.638 63.9963 207.495 63.3316 207.209C62.6728 206.924 62.1014 206.513 61.6175 205.976C61.1336 205.434 60.7576 204.778 60.4894 204.008C60.227 203.239 60.0958 202.37 60.0958 201.402V200.799C60.0958 199.825 60.227 198.957 60.4894 198.193C60.7517 197.423 61.122 196.767 61.6 196.225C62.084 195.683 62.6553 195.269 63.3141 194.983C63.9788 194.698 64.7105 194.555 65.5092 194.555C66.3138 194.555 67.0455 194.698 67.7043 194.983C68.3689 195.269 68.9403 195.683 69.4184 196.225C69.9023 196.767 70.2754 197.423 70.5378 198.193C70.806 198.957 70.9401 199.825 70.9401 200.799ZM68.2902 201.402V200.781C68.2902 200.105 68.229 199.51 68.1066 198.997C67.9841 198.484 67.8034 198.053 67.5644 197.703C67.3253 197.353 67.0338 197.091 66.6898 196.916C66.3458 196.735 65.9523 196.645 65.5092 196.645C65.0661 196.645 64.6726 196.735 64.3286 196.916C63.9904 197.091 63.7018 197.353 63.4628 197.703C63.2296 198.053 63.0518 198.484 62.9293 198.997C62.8069 199.51 62.7457 200.105 62.7457 200.781V201.402C62.7457 202.073 62.8069 202.668 62.9293 203.186C63.0518 203.699 63.2325 204.134 63.4715 204.489C63.7106 204.839 64.0021 205.105 64.3461 205.285C64.6901 205.466 65.0836 205.556 65.5267 205.556C65.9698 205.556 66.3633 205.466 66.7073 205.285C67.0513 205.105 67.3399 204.839 67.5731 204.489C67.8063 204.134 67.9841 203.699 68.1066 203.186C68.229 202.668 68.2902 202.073 68.2902 201.402ZM75.8812 207.463H73.345V197.161C73.345 196.444 73.485 195.84 73.7648 195.351C74.0505 194.855 74.4499 194.482 74.9629 194.231C75.4818 193.975 76.0969 193.846 76.8082 193.846C77.0414 193.846 77.2659 193.864 77.4816 193.899C77.6973 193.928 77.9072 193.966 78.1112 194.013L78.085 195.91C77.9742 195.881 77.8576 195.861 77.7352 195.849C77.6128 195.837 77.4699 195.832 77.3067 195.832C77.0035 195.832 76.7441 195.884 76.5283 195.989C76.3184 196.088 76.1581 196.237 76.0473 196.435C75.9366 196.633 75.8812 196.875 75.8812 197.161V207.463ZM77.7702 198V199.784H71.937V198H77.7702ZM82.3003 207.463H79.7641V197.161C79.7641 196.444 79.904 195.84 80.1839 195.351C80.4696 194.855 80.8689 194.482 81.382 194.231C81.9009 193.975 82.516 193.846 83.2273 193.846C83.4605 193.846 83.6849 193.864 83.9007 193.899C84.1164 193.928 84.3263 193.966 84.5303 194.013L84.5041 195.91C84.3933 195.881 84.2767 195.861 84.1543 195.849C84.0318 195.837 83.889 195.832 83.7257 195.832C83.4226 195.832 83.1631 195.884 82.9474 195.989C82.7375 196.088 82.5772 196.237 82.4664 196.435C82.3556 196.633 82.3003 196.875 82.3003 197.161V207.463ZM84.1892 198V199.784H78.3561V198H84.1892ZM88.1684 198V207.463H85.641V198H88.1684ZM85.4836 195.534C85.4836 195.167 85.6118 194.864 85.8684 194.625C86.1249 194.386 86.4689 194.266 86.9003 194.266C87.3259 194.266 87.667 194.386 87.9235 194.625C88.1859 194.864 88.317 195.167 88.317 195.534C88.317 195.902 88.1859 196.205 87.9235 196.444C87.667 196.683 87.3259 196.802 86.9003 196.802C86.4689 196.802 86.1249 196.683 85.8684 196.444C85.6118 196.205 85.4836 195.902 85.4836 195.534ZM94.1589 205.67C94.4679 205.67 94.742 205.612 94.981 205.495C95.22 205.373 95.4066 205.204 95.5407 204.988C95.6806 204.766 95.7535 204.507 95.7593 204.21H98.1293C98.1235 204.874 97.9457 205.466 97.5958 205.985C97.246 206.498 96.7767 206.903 96.1878 207.201C95.599 207.492 94.9402 207.638 94.2114 207.638C93.4768 207.638 92.8355 207.515 92.2874 207.27C91.7452 207.026 91.2934 206.687 90.9319 206.256C90.5704 205.819 90.2993 205.312 90.1186 204.734C89.9378 204.151 89.8475 203.527 89.8475 202.863V202.609C89.8475 201.939 89.9378 201.315 90.1186 200.738C90.2993 200.155 90.5704 199.647 90.9319 199.216C91.2934 198.779 91.7452 198.438 92.2874 198.193C92.8296 197.948 93.4651 197.826 94.1939 197.826C94.9693 197.826 95.6486 197.974 96.2316 198.272C96.8204 198.569 97.281 198.994 97.6133 199.548C97.9515 200.096 98.1235 200.746 98.1293 201.499H95.7593C95.7535 201.184 95.6864 200.898 95.5582 200.642C95.4357 200.385 95.255 200.181 95.016 200.029C94.7828 199.872 94.4942 199.793 94.1502 199.793C93.7829 199.793 93.4826 199.872 93.2494 200.029C93.0162 200.181 92.8355 200.391 92.7072 200.659C92.5789 200.921 92.4886 201.222 92.4361 201.56C92.3895 201.892 92.3661 202.242 92.3661 202.609V202.863C92.3661 203.23 92.3895 203.583 92.4361 203.921C92.4827 204.259 92.5702 204.559 92.6985 204.822C92.8326 205.084 93.0162 205.291 93.2494 205.443C93.4826 205.594 93.7858 205.67 94.1589 205.67ZM103.945 207.638C103.21 207.638 102.552 207.521 101.969 207.288C101.385 207.049 100.89 206.72 100.482 206.3C100.08 205.88 99.7705 205.393 99.5548 204.839C99.3391 204.28 99.2312 203.685 99.2312 203.055V202.705C99.2312 201.988 99.3333 201.332 99.5373 200.738C99.7414 200.143 100.033 199.627 100.412 199.19C100.797 198.753 101.263 198.417 101.811 198.184C102.359 197.945 102.977 197.826 103.665 197.826C104.336 197.826 104.93 197.936 105.449 198.158C105.968 198.379 106.402 198.694 106.752 199.102C107.108 199.51 107.376 200 107.557 200.572C107.738 201.137 107.828 201.767 107.828 202.461V203.51H100.307V201.831H105.353V201.638C105.353 201.289 105.289 200.977 105.161 200.703C105.038 200.423 104.852 200.201 104.601 200.038C104.35 199.875 104.029 199.793 103.639 199.793C103.307 199.793 103.021 199.866 102.782 200.012C102.543 200.158 102.347 200.362 102.196 200.624C102.05 200.886 101.939 201.195 101.864 201.551C101.794 201.901 101.759 202.286 101.759 202.705V203.055C101.759 203.434 101.811 203.784 101.916 204.105C102.027 204.425 102.181 204.702 102.38 204.935C102.584 205.169 102.828 205.349 103.114 205.478C103.406 205.606 103.735 205.67 104.102 205.67C104.557 205.67 104.98 205.583 105.37 205.408C105.767 205.227 106.108 204.956 106.394 204.594L107.618 205.924C107.42 206.209 107.149 206.483 106.805 206.746C106.467 207.008 106.058 207.224 105.58 207.393C105.102 207.556 104.557 207.638 103.945 207.638ZM119.311 205.399V194.03H121.847V207.463H119.564L119.311 205.399ZM113.329 202.845V202.662C113.329 201.939 113.41 201.283 113.574 200.694C113.737 200.099 113.976 199.589 114.291 199.164C114.606 198.738 114.993 198.409 115.454 198.175C115.914 197.942 116.439 197.826 117.028 197.826C117.582 197.826 118.066 197.942 118.48 198.175C118.899 198.409 119.255 198.741 119.547 199.172C119.844 199.598 120.083 200.102 120.264 200.685C120.444 201.262 120.576 201.895 120.657 202.583V202.985C120.576 203.644 120.444 204.256 120.264 204.822C120.083 205.387 119.844 205.883 119.547 206.309C119.255 206.728 118.899 207.055 118.48 207.288C118.06 207.521 117.57 207.638 117.01 207.638C116.422 207.638 115.897 207.518 115.436 207.279C114.982 207.04 114.597 206.705 114.282 206.274C113.973 205.842 113.737 205.335 113.574 204.752C113.41 204.169 113.329 203.533 113.329 202.845ZM115.847 202.662V202.845C115.847 203.236 115.877 203.6 115.935 203.939C115.999 204.277 116.101 204.577 116.241 204.839C116.387 205.096 116.573 205.297 116.801 205.443C117.034 205.583 117.317 205.653 117.649 205.653C118.08 205.653 118.436 205.556 118.716 205.364C118.996 205.166 119.208 204.895 119.354 204.551C119.506 204.207 119.593 203.81 119.617 203.361V202.216C119.599 201.848 119.547 201.519 119.459 201.227C119.378 200.93 119.255 200.677 119.092 200.467C118.934 200.257 118.736 200.093 118.497 199.977C118.264 199.86 117.987 199.802 117.666 199.802C117.34 199.802 117.06 199.878 116.827 200.029C116.594 200.175 116.404 200.376 116.258 200.633C116.118 200.889 116.014 201.192 115.944 201.542C115.879 201.886 115.847 202.259 115.847 202.662ZM128.922 205.329V201.114C128.922 200.811 128.872 200.551 128.773 200.335C128.674 200.114 128.519 199.942 128.309 199.819C128.105 199.697 127.84 199.636 127.514 199.636C127.234 199.636 126.992 199.685 126.788 199.784C126.584 199.878 126.426 200.015 126.316 200.196C126.205 200.37 126.149 200.577 126.149 200.816H123.631C123.631 200.414 123.724 200.032 123.911 199.671C124.097 199.309 124.368 198.992 124.724 198.718C125.08 198.438 125.502 198.219 125.992 198.062C126.488 197.904 127.041 197.826 127.654 197.826C128.388 197.826 129.041 197.948 129.613 198.193C130.184 198.438 130.633 198.805 130.959 199.295C131.292 199.784 131.458 200.397 131.458 201.131V205.18C131.458 205.699 131.49 206.125 131.554 206.457C131.618 206.784 131.711 207.069 131.834 207.314V207.463H129.289C129.167 207.206 129.073 206.886 129.009 206.501C128.951 206.11 128.922 205.72 128.922 205.329ZM129.254 201.7L129.271 203.125H127.863C127.531 203.125 127.243 203.163 126.998 203.239C126.753 203.315 126.552 203.423 126.394 203.562C126.237 203.697 126.12 203.854 126.044 204.035C125.974 204.215 125.939 204.414 125.939 204.629C125.939 204.845 125.989 205.04 126.088 205.215C126.187 205.384 126.33 205.519 126.517 205.618C126.703 205.711 126.922 205.758 127.173 205.758C127.552 205.758 127.881 205.682 128.161 205.53C128.441 205.379 128.656 205.192 128.808 204.97C128.965 204.749 129.047 204.539 129.053 204.341L129.717 205.408C129.624 205.647 129.496 205.895 129.333 206.151C129.175 206.408 128.974 206.65 128.729 206.877C128.484 207.099 128.19 207.282 127.846 207.428C127.502 207.568 127.094 207.638 126.622 207.638C126.021 207.638 125.476 207.518 124.986 207.279C124.502 207.034 124.118 206.699 123.832 206.274C123.552 205.842 123.412 205.352 123.412 204.804C123.412 204.309 123.505 203.869 123.692 203.484C123.878 203.099 124.153 202.775 124.514 202.513C124.881 202.245 125.339 202.044 125.887 201.91C126.435 201.77 127.071 201.7 127.793 201.7H129.254ZM136.067 206.396L138.576 198H141.279L137.475 208.888C137.393 209.127 137.282 209.384 137.142 209.658C137.008 209.932 136.825 210.191 136.591 210.436C136.364 210.687 136.075 210.891 135.726 211.048C135.382 211.206 134.959 211.285 134.457 211.285C134.218 211.285 134.023 211.27 133.871 211.241C133.72 211.212 133.539 211.171 133.329 211.118V209.273C133.393 209.273 133.46 209.273 133.53 209.273C133.6 209.279 133.667 209.282 133.732 209.282C134.064 209.282 134.335 209.244 134.545 209.168C134.755 209.092 134.924 208.976 135.052 208.818C135.18 208.667 135.282 208.469 135.358 208.224L136.067 206.396ZM135.017 198L137.072 204.857L137.431 207.524L135.717 207.708L132.315 198H135.017ZM147.401 204.848C147.401 204.667 147.348 204.504 147.243 204.358C147.138 204.213 146.943 204.078 146.657 203.956C146.377 203.828 145.972 203.711 145.442 203.606C144.963 203.501 144.517 203.37 144.104 203.213C143.695 203.049 143.34 202.854 143.037 202.627C142.739 202.399 142.506 202.131 142.337 201.822C142.168 201.507 142.083 201.149 142.083 200.746C142.083 200.35 142.168 199.977 142.337 199.627C142.512 199.277 142.76 198.968 143.08 198.7C143.407 198.426 143.803 198.213 144.27 198.062C144.742 197.904 145.272 197.826 145.861 197.826C146.683 197.826 147.389 197.957 147.978 198.219C148.572 198.481 149.027 198.843 149.342 199.303C149.663 199.758 149.823 200.277 149.823 200.86H147.304C147.304 200.615 147.252 200.397 147.147 200.204C147.048 200.006 146.89 199.852 146.675 199.741C146.465 199.624 146.191 199.566 145.853 199.566C145.573 199.566 145.331 199.615 145.127 199.715C144.923 199.808 144.765 199.936 144.654 200.099C144.55 200.257 144.497 200.432 144.497 200.624C144.497 200.77 144.526 200.901 144.585 201.018C144.649 201.128 144.751 201.23 144.891 201.324C145.031 201.417 145.211 201.504 145.433 201.586C145.66 201.662 145.94 201.732 146.272 201.796C146.955 201.936 147.564 202.119 148.1 202.347C148.637 202.568 149.062 202.872 149.377 203.256C149.692 203.635 149.849 204.134 149.849 204.752C149.849 205.172 149.756 205.556 149.569 205.906C149.383 206.256 149.115 206.562 148.765 206.824C148.415 207.081 147.995 207.282 147.505 207.428C147.022 207.568 146.476 207.638 145.87 207.638C144.99 207.638 144.243 207.48 143.631 207.166C143.025 206.851 142.564 206.451 142.25 205.967C141.941 205.478 141.786 204.976 141.786 204.463H144.174C144.185 204.807 144.273 205.084 144.436 205.294C144.605 205.504 144.818 205.656 145.074 205.749C145.337 205.842 145.619 205.889 145.923 205.889C146.249 205.889 146.52 205.845 146.736 205.758C146.952 205.664 147.115 205.542 147.226 205.39C147.342 205.233 147.401 205.052 147.401 204.848Z" fill="#3E4958"/>
<rect x="356.547" y="186.411" width="50.9328" height="29.1045" rx="14.5522" fill="#95A1B1"/>
<path fill-rule="evenodd" clip-rule="evenodd" d="M371.1 213.696C378.133 213.696 383.834 207.995 383.834 200.963C383.834 193.93 378.133 188.229 371.1 188.229C364.068 188.229 358.367 193.93 358.367 200.963C358.367 207.995 364.068 213.696 371.1 213.696Z" fill="white"/>
<mask id="mask4_5309_4469" style="mask-type:alpha" maskUnits="userSpaceOnUse" x="59" y="237" width="28" height="28">
<rect x="59.3438" y="237.902" width="26.8657" height="26.8657" fill="#D9D9D9"/>
</mask>
<g mask="url(#mask4_5309_4469)">
<path d="M70.4248 255.254L72.7755 252.903L75.1263 255.254L76.6934 253.686L74.3427 251.336L76.6934 248.985L75.1263 247.418L72.7755 249.768L70.4248 247.418L68.8576 248.985L71.2084 251.336L68.8576 253.686L70.4248 255.254ZM72.7755 262.53C70.1823 261.877 68.0414 260.389 66.353 258.066C64.6645 255.743 63.8203 253.164 63.8203 250.328V243.5L72.7755 240.142L81.7308 243.5V250.328C81.7308 253.164 80.8865 255.743 79.1981 258.066C77.5097 260.389 75.3688 261.877 72.7755 262.53ZM72.7755 260.179C74.7158 259.563 76.3203 258.332 77.589 256.485C78.8576 254.638 79.492 252.586 79.492 250.328V245.039L72.7755 242.52L66.0591 245.039V250.328C66.0591 252.586 66.6934 254.638 67.9621 256.485C69.2308 258.332 70.8352 259.563 72.7755 260.179Z" fill="#D94337"/>
</g>
<path d="M92.8645 256.335H90.4388L90.4541 254.545H92.8645C93.4665 254.545 93.9741 254.41 94.3873 254.139C94.8005 253.864 95.1117 253.463 95.3209 252.938C95.5351 252.412 95.6423 251.777 95.6423 251.032V250.489C95.6423 249.918 95.581 249.415 95.4586 248.982C95.3413 248.548 95.1653 248.183 94.9306 247.887C94.6959 247.592 94.4077 247.37 94.0659 247.222C93.7241 247.069 93.3313 246.992 92.8875 246.992H90.3929V245.194H92.8875C93.6323 245.194 94.3133 245.321 94.9306 245.577C95.553 245.826 96.0912 246.186 96.5452 246.655C96.9992 247.125 97.3487 247.686 97.5936 248.339C97.8435 248.987 97.9685 249.709 97.9685 250.504V251.032C97.9685 251.823 97.8435 252.545 97.5936 253.198C97.3487 253.851 96.9992 254.412 96.5452 254.882C96.0963 255.346 95.5581 255.705 94.9306 255.96C94.3082 256.21 93.6195 256.335 92.8645 256.335ZM91.7397 245.194V256.335H89.444V245.194H91.7397ZM101.825 248.056V256.335H99.6137V248.056H101.825ZM99.476 245.898C99.476 245.577 99.5882 245.311 99.8127 245.102C100.037 244.893 100.338 244.788 100.716 244.788C101.088 244.788 101.386 244.893 101.611 245.102C101.841 245.311 101.955 245.577 101.955 245.898C101.955 246.219 101.841 246.485 101.611 246.694C101.386 246.903 101.088 247.007 100.716 247.007C100.338 247.007 100.037 246.903 99.8127 246.694C99.5882 246.485 99.476 246.219 99.476 245.898ZM108.123 254.047C108.123 253.889 108.077 253.746 107.985 253.619C107.893 253.491 107.722 253.374 107.473 253.267C107.228 253.155 106.873 253.053 106.409 252.961C105.991 252.869 105.6 252.754 105.238 252.616C104.881 252.474 104.57 252.303 104.305 252.104C104.044 251.905 103.84 251.67 103.692 251.4C103.544 251.124 103.47 250.811 103.47 250.459C103.47 250.112 103.544 249.785 103.692 249.479C103.845 249.173 104.062 248.903 104.343 248.668C104.628 248.428 104.975 248.242 105.383 248.109C105.797 247.972 106.261 247.903 106.776 247.903C107.495 247.903 108.113 248.018 108.628 248.247C109.148 248.477 109.546 248.793 109.822 249.196C110.102 249.594 110.243 250.048 110.243 250.558H108.039C108.039 250.344 107.993 250.152 107.901 249.984C107.814 249.811 107.677 249.676 107.488 249.579C107.304 249.477 107.064 249.426 106.769 249.426C106.524 249.426 106.312 249.469 106.133 249.556C105.955 249.637 105.817 249.749 105.72 249.892C105.628 250.03 105.582 250.183 105.582 250.351C105.582 250.479 105.608 250.594 105.659 250.696C105.715 250.793 105.804 250.882 105.927 250.964C106.049 251.045 106.207 251.122 106.401 251.193C106.6 251.26 106.845 251.321 107.136 251.377C107.733 251.499 108.266 251.66 108.735 251.859C109.204 252.053 109.577 252.318 109.852 252.655C110.128 252.986 110.266 253.423 110.266 253.963C110.266 254.331 110.184 254.667 110.021 254.973C109.857 255.279 109.623 255.547 109.317 255.777C109.011 256.001 108.643 256.177 108.215 256.305C107.791 256.427 107.314 256.488 106.784 256.488C106.013 256.488 105.361 256.351 104.825 256.075C104.294 255.8 103.891 255.45 103.616 255.027C103.345 254.598 103.21 254.16 103.21 253.711H105.299C105.309 254.012 105.386 254.254 105.529 254.438C105.677 254.621 105.863 254.754 106.087 254.836C106.317 254.917 106.564 254.958 106.83 254.958C107.115 254.958 107.353 254.92 107.541 254.843C107.73 254.762 107.873 254.655 107.97 254.522C108.072 254.384 108.123 254.226 108.123 254.047ZM116.165 254.468V250.78C116.165 250.515 116.122 250.288 116.035 250.099C115.949 249.905 115.813 249.755 115.63 249.647C115.451 249.54 115.219 249.487 114.933 249.487C114.689 249.487 114.477 249.53 114.298 249.617C114.12 249.698 113.982 249.818 113.885 249.976C113.788 250.13 113.74 250.311 113.74 250.52H111.536C111.536 250.168 111.617 249.834 111.781 249.517C111.944 249.201 112.181 248.923 112.492 248.683C112.804 248.438 113.173 248.247 113.602 248.109C114.036 247.972 114.52 247.903 115.056 247.903C115.699 247.903 116.27 248.01 116.77 248.224C117.27 248.438 117.663 248.76 117.948 249.188C118.239 249.617 118.385 250.152 118.385 250.795V254.338C118.385 254.792 118.413 255.165 118.469 255.455C118.525 255.741 118.606 255.991 118.714 256.205V256.335H116.487C116.38 256.111 116.298 255.83 116.242 255.494C116.191 255.152 116.165 254.81 116.165 254.468ZM116.456 251.293L116.471 252.54H115.239C114.949 252.54 114.696 252.573 114.482 252.639C114.268 252.706 114.092 252.8 113.954 252.923C113.816 253.04 113.714 253.178 113.648 253.336C113.587 253.494 113.556 253.667 113.556 253.856C113.556 254.045 113.599 254.216 113.686 254.369C113.773 254.517 113.898 254.634 114.061 254.721C114.224 254.802 114.416 254.843 114.635 254.843C114.967 254.843 115.255 254.777 115.5 254.644C115.745 254.512 115.933 254.348 116.066 254.155C116.204 253.961 116.275 253.777 116.28 253.604L116.862 254.537C116.78 254.746 116.668 254.963 116.525 255.188C116.387 255.412 116.211 255.624 115.997 255.823C115.783 256.017 115.525 256.177 115.224 256.305C114.923 256.427 114.566 256.488 114.153 256.488C113.627 256.488 113.15 256.384 112.722 256.175C112.298 255.96 111.962 255.667 111.712 255.295C111.467 254.917 111.345 254.489 111.345 254.009C111.345 253.576 111.426 253.19 111.589 252.854C111.753 252.517 111.992 252.234 112.309 252.004C112.63 251.77 113.031 251.594 113.51 251.476C113.99 251.354 114.546 251.293 115.178 251.293H116.456ZM122.287 249.862V256.335H120.083V248.056H122.157L122.287 249.862ZM124.782 248.002L124.743 250.045C124.636 250.03 124.506 250.017 124.353 250.007C124.205 249.992 124.07 249.984 123.948 249.984C123.636 249.984 123.366 250.025 123.136 250.107C122.912 250.183 122.723 250.298 122.57 250.451C122.422 250.604 122.31 250.79 122.234 251.01C122.162 251.229 122.121 251.479 122.111 251.759L121.667 251.622C121.667 251.086 121.721 250.594 121.828 250.145C121.935 249.691 122.091 249.295 122.295 248.959C122.504 248.622 122.759 248.362 123.06 248.178C123.361 247.995 123.705 247.903 124.093 247.903C124.215 247.903 124.34 247.913 124.468 247.933C124.596 247.949 124.7 247.972 124.782 248.002ZM128.026 249.77V256.335H125.815V248.056H127.888L128.026 249.77ZM127.72 251.905H127.108C127.108 251.328 127.177 250.798 127.315 250.313C127.457 249.823 127.664 249.4 127.934 249.043C128.21 248.681 128.549 248.4 128.952 248.201C129.355 248.002 129.822 247.903 130.352 247.903C130.72 247.903 131.056 247.959 131.363 248.071C131.669 248.178 131.931 248.349 132.151 248.584C132.375 248.813 132.549 249.114 132.671 249.487C132.794 249.854 132.855 250.295 132.855 250.811V256.335H130.651V251.055C130.651 250.678 130.6 250.387 130.498 250.183C130.396 249.979 130.25 249.836 130.062 249.755C129.878 249.673 129.656 249.632 129.396 249.632C129.11 249.632 128.86 249.691 128.646 249.808C128.437 249.925 128.263 250.089 128.126 250.298C127.988 250.502 127.886 250.742 127.82 251.017C127.753 251.293 127.72 251.589 127.72 251.905ZM132.648 251.652L131.86 251.752C131.86 251.211 131.926 250.709 132.059 250.244C132.197 249.78 132.398 249.372 132.663 249.02C132.934 248.668 133.268 248.395 133.666 248.201C134.064 248.002 134.523 247.903 135.043 247.903C135.441 247.903 135.803 247.961 136.13 248.079C136.456 248.191 136.734 248.372 136.964 248.622C137.199 248.867 137.377 249.188 137.5 249.586C137.627 249.984 137.691 250.471 137.691 251.048V256.335H135.479V251.048C135.479 250.665 135.428 250.374 135.326 250.175C135.229 249.971 135.087 249.831 134.898 249.755C134.714 249.673 134.495 249.632 134.24 249.632C133.975 249.632 133.742 249.686 133.543 249.793C133.344 249.895 133.179 250.038 133.046 250.221C132.913 250.405 132.814 250.619 132.748 250.864C132.681 251.104 132.648 251.367 132.648 251.652ZM143.208 256.488C142.565 256.488 141.989 256.386 141.479 256.182C140.969 255.973 140.535 255.685 140.178 255.318C139.826 254.95 139.556 254.524 139.367 254.04C139.178 253.55 139.084 253.03 139.084 252.479V252.173C139.084 251.545 139.173 250.971 139.351 250.451C139.53 249.931 139.785 249.479 140.117 249.096C140.453 248.714 140.861 248.421 141.341 248.216C141.821 248.007 142.361 247.903 142.963 247.903C143.55 247.903 144.07 248 144.524 248.194C144.978 248.387 145.358 248.663 145.664 249.02C145.976 249.377 146.21 249.806 146.368 250.306C146.527 250.8 146.606 251.351 146.606 251.958V252.877H140.025V251.407H144.44V251.239C144.44 250.933 144.384 250.66 144.272 250.42C144.165 250.175 144.001 249.982 143.782 249.839C143.563 249.696 143.282 249.624 142.94 249.624C142.65 249.624 142.4 249.688 142.19 249.816C141.981 249.943 141.81 250.122 141.678 250.351C141.55 250.581 141.453 250.851 141.387 251.163C141.326 251.469 141.295 251.805 141.295 252.173V252.479C141.295 252.81 141.341 253.116 141.433 253.397C141.53 253.678 141.665 253.92 141.838 254.124C142.017 254.328 142.231 254.486 142.481 254.598C142.736 254.711 143.024 254.767 143.346 254.767C143.744 254.767 144.114 254.69 144.455 254.537C144.802 254.379 145.101 254.142 145.351 253.826L146.422 254.989C146.249 255.239 146.011 255.478 145.71 255.708C145.415 255.938 145.057 256.126 144.639 256.274C144.221 256.417 143.744 256.488 143.208 256.488ZM152.75 254.53V244.582H154.97V256.335H152.972L152.75 254.53ZM147.516 252.295V252.134C147.516 251.502 147.588 250.928 147.731 250.413C147.873 249.892 148.083 249.446 148.358 249.074C148.634 248.701 148.973 248.413 149.376 248.209C149.779 248.005 150.238 247.903 150.753 247.903C151.238 247.903 151.661 248.005 152.023 248.209C152.391 248.413 152.702 248.704 152.957 249.081C153.217 249.454 153.426 249.895 153.584 250.405C153.743 250.91 153.857 251.464 153.929 252.066V252.418C153.857 252.994 153.743 253.53 153.584 254.024C153.426 254.519 153.217 254.953 152.957 255.325C152.702 255.693 152.391 255.978 152.023 256.182C151.656 256.386 151.228 256.488 150.738 256.488C150.223 256.488 149.763 256.384 149.36 256.175C148.963 255.966 148.626 255.672 148.35 255.295C148.08 254.917 147.873 254.473 147.731 253.963C147.588 253.453 147.516 252.897 147.516 252.295ZM149.72 252.134V252.295C149.72 252.637 149.746 252.956 149.797 253.252C149.853 253.548 149.942 253.81 150.064 254.04C150.192 254.264 150.355 254.44 150.554 254.568C150.758 254.69 151.006 254.751 151.296 254.751C151.674 254.751 151.985 254.667 152.23 254.499C152.475 254.325 152.661 254.088 152.789 253.787C152.921 253.486 152.998 253.139 153.018 252.747V251.744C153.003 251.423 152.957 251.135 152.88 250.879C152.809 250.619 152.702 250.397 152.559 250.214C152.421 250.03 152.248 249.887 152.039 249.785C151.835 249.683 151.592 249.632 151.312 249.632C151.026 249.632 150.781 249.698 150.577 249.831C150.373 249.959 150.207 250.135 150.08 250.359C149.957 250.584 149.866 250.849 149.804 251.155C149.748 251.456 149.72 251.782 149.72 252.134Z" fill="#D94337"/>
<mask id="mask5_5309_4469" style="mask-type:alpha" maskUnits="userSpaceOnUse" x="165" y="237" width="28" height="28">
<rect x="165.402" y="237.902" width="26.8657" height="26.8657" fill="#D9D9D9"/>
</mask>
<g mask="url(#mask5_5309_4469)">
<path d="M179.954 250.888V246.858C179.954 246.541 179.847 246.275 179.632 246.06C179.418 245.846 179.152 245.739 178.835 245.739C178.517 245.739 178.252 245.846 178.037 246.06C177.823 246.275 177.715 246.541 177.715 246.858V251.308C177.715 251.457 177.743 251.601 177.799 251.741C177.855 251.881 177.939 252.007 178.051 252.119L181.745 255.813C181.95 256.018 182.212 256.121 182.529 256.121C182.846 256.121 183.107 256.018 183.312 255.813C183.517 255.608 183.62 255.347 183.62 255.03C183.62 254.712 183.517 254.451 183.312 254.246L179.954 250.888ZM178.835 262.53C177.286 262.53 175.831 262.236 174.469 261.648C173.107 261.06 171.922 260.263 170.915 259.255C169.907 258.248 169.11 257.063 168.522 255.701C167.934 254.339 167.641 252.884 167.641 251.336C167.641 249.787 167.934 248.332 168.522 246.97C169.11 245.608 169.907 244.423 170.915 243.416C171.922 242.408 173.107 241.611 174.469 241.023C175.831 240.435 177.286 240.142 178.835 240.142C180.383 240.142 181.838 240.435 183.2 241.023C184.562 241.611 185.747 242.408 186.754 243.416C187.762 244.423 188.559 245.608 189.147 246.97C189.735 248.332 190.029 249.787 190.029 251.336C190.029 252.884 189.735 254.339 189.147 255.701C188.559 257.063 187.762 258.248 186.754 259.255C185.747 260.263 184.562 261.06 183.2 261.648C181.838 262.236 180.383 262.53 178.835 262.53ZM178.835 260.291C181.316 260.291 183.429 259.419 185.173 257.674C186.918 255.93 187.79 253.817 187.79 251.336C187.79 248.854 186.918 246.741 185.173 244.997C183.429 243.253 181.316 242.38 178.835 242.38C176.353 242.38 174.24 243.253 172.496 244.997C170.752 246.741 169.879 248.854 169.879 251.336C169.879 253.817 170.752 255.93 172.496 257.674C174.24 259.419 176.353 260.291 178.835 260.291Z" fill="#95A1B1"/>
</g>
<path d="M209.173 253.888C209.173 254.566 209.015 255.143 208.699 255.617C208.388 256.087 207.964 256.444 207.429 256.689C206.898 256.933 206.299 257.056 205.63 257.056C204.962 257.056 204.36 256.933 203.824 256.689C203.289 256.444 202.865 256.087 202.554 255.617C202.243 255.143 202.087 254.566 202.087 253.888C202.087 253.444 202.172 253.038 202.34 252.671C202.513 252.299 202.756 251.975 203.067 251.699C203.383 251.424 203.756 251.212 204.184 251.064C204.618 250.911 205.095 250.835 205.615 250.835C206.299 250.835 206.908 250.967 207.444 251.233C207.98 251.493 208.4 251.852 208.706 252.312C209.018 252.771 209.173 253.296 209.173 253.888ZM207.75 253.857C207.75 253.444 207.661 253.079 207.482 252.763C207.304 252.442 207.054 252.192 206.732 252.013C206.411 251.835 206.038 251.745 205.615 251.745C205.181 251.745 204.806 251.835 204.49 252.013C204.179 252.192 203.937 252.442 203.763 252.763C203.59 253.079 203.503 253.444 203.503 253.857C203.503 254.286 203.587 254.653 203.756 254.959C203.929 255.26 204.174 255.492 204.49 255.656C204.812 255.814 205.192 255.893 205.63 255.893C206.069 255.893 206.447 255.814 206.763 255.656C207.079 255.492 207.321 255.26 207.49 254.959C207.663 254.653 207.75 254.286 207.75 253.857ZM208.913 248.661C208.913 249.202 208.77 249.689 208.485 250.123C208.199 250.557 207.809 250.898 207.314 251.148C206.819 251.398 206.258 251.523 205.63 251.523C204.993 251.523 204.424 251.398 203.924 251.148C203.429 250.898 203.041 250.557 202.761 250.123C202.48 249.689 202.34 249.202 202.34 248.661C202.34 248.014 202.48 247.463 202.761 247.009C203.046 246.555 203.437 246.208 203.932 245.968C204.426 245.728 204.99 245.608 205.623 245.608C206.26 245.608 206.827 245.728 207.321 245.968C207.816 246.208 208.204 246.555 208.485 247.009C208.77 247.463 208.913 248.014 208.913 248.661ZM207.497 248.684C207.497 248.312 207.418 247.983 207.26 247.697C207.102 247.412 206.883 247.187 206.602 247.024C206.322 246.856 205.995 246.771 205.623 246.771C205.25 246.771 204.924 246.85 204.643 247.009C204.368 247.162 204.151 247.381 203.993 247.667C203.84 247.952 203.763 248.292 203.763 248.684C203.763 249.067 203.84 249.401 203.993 249.687C204.151 249.973 204.37 250.194 204.651 250.353C204.931 250.511 205.258 250.59 205.63 250.59C206.003 250.59 206.327 250.511 206.602 250.353C206.883 250.194 207.102 249.973 207.26 249.687C207.418 249.401 207.497 249.067 207.497 248.684ZM211.056 256.153C211.056 255.913 211.13 255.712 211.278 255.548C211.431 255.38 211.65 255.296 211.936 255.296C212.221 255.296 212.438 255.38 212.586 255.548C212.739 255.712 212.816 255.913 212.816 256.153C212.816 256.388 212.739 256.587 212.586 256.75C212.438 256.913 212.221 256.995 211.936 256.995C211.65 256.995 211.431 256.913 211.278 256.75C211.13 256.587 211.056 256.388 211.056 256.153ZM211.063 249.396C211.063 249.156 211.137 248.955 211.285 248.792C211.438 248.623 211.658 248.539 211.943 248.539C212.229 248.539 212.446 248.623 212.594 248.792C212.747 248.955 212.823 249.156 212.823 249.396C212.823 249.631 212.747 249.83 212.594 249.993C212.446 250.156 212.229 250.238 211.943 250.238C211.658 250.238 211.438 250.156 211.285 249.993C211.137 249.83 211.063 249.631 211.063 249.396ZM222.289 253.153V254.316H214.239V253.482L219.228 245.761H220.384L219.144 247.996L215.846 253.153H222.289ZM220.736 245.761V256.903H219.32V245.761H220.736ZM225.365 251.6L224.233 251.309L224.791 245.761H230.508V247.07H225.993L225.656 250.1C225.86 249.983 226.118 249.873 226.429 249.771C226.745 249.669 227.107 249.618 227.516 249.618C228.031 249.618 228.492 249.707 228.901 249.886C229.309 250.059 229.656 250.309 229.941 250.636C230.232 250.962 230.454 251.355 230.607 251.814C230.76 252.273 230.837 252.786 230.837 253.352C230.837 253.888 230.763 254.38 230.615 254.829C230.472 255.278 230.255 255.671 229.964 256.008C229.673 256.339 229.306 256.597 228.862 256.78C228.424 256.964 227.906 257.056 227.309 257.056C226.86 257.056 226.434 256.995 226.031 256.872C225.633 256.745 225.276 256.553 224.96 256.298C224.648 256.038 224.393 255.717 224.194 255.334C224.001 254.946 223.878 254.492 223.827 253.972H225.174C225.235 254.39 225.358 254.742 225.541 255.028C225.725 255.314 225.965 255.531 226.261 255.678C226.562 255.821 226.911 255.893 227.309 255.893C227.646 255.893 227.944 255.834 228.204 255.717C228.464 255.599 228.684 255.431 228.862 255.212C229.041 254.992 229.176 254.727 229.268 254.416C229.365 254.105 229.413 253.755 229.413 253.368C229.413 253.016 229.365 252.689 229.268 252.388C229.171 252.087 229.026 251.824 228.832 251.6C228.643 251.375 228.411 251.202 228.135 251.08C227.86 250.952 227.544 250.888 227.186 250.888C226.712 250.888 226.352 250.952 226.108 251.08C225.868 251.207 225.62 251.381 225.365 251.6Z" fill="#95A1B1"/>
<mask id="mask6_5309_4469" style="mask-type:alpha" maskUnits="userSpaceOnUse" x="59" y="273" width="28" height="28">
<rect x="59.3438" y="273.724" width="26.8657" height="26.8657" fill="#D9D9D9"/>
</mask>
<g mask="url(#mask6_5309_4469)">
<path d="M64.938 298.35C64.3224 298.35 63.7953 298.131 63.3569 297.693C62.9184 297.254 62.6992 296.727 62.6992 296.112V280.44C62.6992 279.824 62.9184 279.297 63.3569 278.859C63.7953 278.42 64.3224 278.201 64.938 278.201H66.0574V277.082C66.0574 276.765 66.1647 276.499 66.3793 276.284C66.5938 276.07 66.8597 275.962 67.1768 275.962C67.494 275.962 67.7599 276.07 67.9744 276.284C68.189 276.499 68.2962 276.765 68.2962 277.082V278.201H77.2515V277.082C77.2515 276.765 77.3587 276.499 77.5733 276.284C77.7878 276.07 78.0537 275.962 78.3709 275.962C78.688 275.962 78.9539 276.07 79.1684 276.284C79.383 276.499 79.4903 276.765 79.4903 277.082V278.201H80.6097C81.2253 278.201 81.7524 278.42 82.1908 278.859C82.6293 279.297 82.8485 279.824 82.8485 280.44V286.037C82.8485 286.354 82.7412 286.62 82.5266 286.835C82.3121 287.049 82.0462 287.156 81.7291 287.156C81.4119 287.156 81.146 287.049 80.9315 286.835C80.7169 286.62 80.6097 286.354 80.6097 286.037V284.918H64.938V296.112H71.6544C71.9716 296.112 72.2375 296.219 72.452 296.433C72.6666 296.648 72.7738 296.914 72.7738 297.231C72.7738 297.548 72.6666 297.814 72.452 298.029C72.2375 298.243 71.9716 298.35 71.6544 298.35H64.938ZM80.6097 300.589C79.4156 300.589 78.3475 300.258 77.4054 299.596C76.4632 298.933 75.7869 298.071 75.3765 297.007C75.2832 296.802 75.3065 296.601 75.4464 296.405C75.5863 296.21 75.7682 296.112 75.9921 296.112C76.2533 296.112 76.4912 296.191 76.7057 296.35C76.9203 296.508 77.0929 296.709 77.2235 296.951C77.5593 297.548 78.0257 298.024 78.6227 298.378C79.2197 298.733 79.8821 298.91 80.6097 298.91C81.6918 298.91 82.6153 298.528 83.3802 297.763C84.1451 296.998 84.5276 296.074 84.5276 294.992C84.5276 293.91 84.1451 292.987 83.3802 292.222C82.6153 291.457 81.6918 291.074 80.6097 291.074C80.0686 291.074 79.5649 291.172 79.0985 291.368C78.6321 291.564 78.2216 291.839 77.8671 292.194H78.6507C78.8932 292.194 79.0938 292.273 79.2524 292.432C79.411 292.59 79.4903 292.791 79.4903 293.033C79.4903 293.276 79.411 293.476 79.2524 293.635C79.0938 293.794 78.8932 293.873 78.6507 293.873H76.1321C75.8149 293.873 75.549 293.766 75.3345 293.551C75.1199 293.336 75.0127 293.071 75.0127 292.753V290.235C75.0127 289.992 75.0919 289.792 75.2505 289.633C75.4091 289.475 75.6097 289.395 75.8522 289.395C76.0947 289.395 76.2953 289.475 76.4539 289.633C76.6125 289.792 76.6918 289.992 76.6918 290.235V290.99C77.1955 290.505 77.7832 290.118 78.4548 289.829C79.1265 289.54 79.8447 289.395 80.6097 289.395C82.1582 289.395 83.4781 289.941 84.5696 291.032C85.661 292.124 86.2067 293.444 86.2067 294.992C86.2067 296.541 85.661 297.861 84.5696 298.952C83.4781 300.044 82.1582 300.589 80.6097 300.589ZM64.938 282.679H80.6097V280.44H64.938V282.679Z" fill="#95A1B1"/>
</g>
<path d="M103.536 291.522V292.724H97.6357V291.522H103.536ZM97.9341 281.582V292.724H96.4573V281.582H97.9341ZM102.755 286.372V287.574H97.6357V286.372H102.755ZM103.459 281.582V282.791H97.6357V281.582H103.459ZM107.469 291.446L109.734 284.444H111.18L108.203 292.724H107.254L107.469 291.446ZM105.579 284.444L107.913 291.484L108.073 292.724H107.124L104.125 284.444H105.579ZM115.871 292.877C115.294 292.877 114.771 292.78 114.302 292.586C113.838 292.387 113.437 292.109 113.101 291.752C112.769 291.395 112.514 290.971 112.336 290.482C112.157 289.992 112.068 289.456 112.068 288.875V288.553C112.068 287.88 112.167 287.28 112.366 286.755C112.565 286.224 112.835 285.775 113.177 285.408C113.519 285.041 113.907 284.763 114.34 284.574C114.774 284.385 115.223 284.291 115.687 284.291C116.279 284.291 116.789 284.393 117.218 284.597C117.651 284.801 118.006 285.087 118.281 285.454C118.557 285.816 118.761 286.245 118.893 286.74C119.026 287.229 119.092 287.765 119.092 288.347V288.982H112.909V287.826H117.677V287.719C117.656 287.352 117.58 286.995 117.447 286.648C117.32 286.301 117.116 286.015 116.835 285.791C116.554 285.566 116.172 285.454 115.687 285.454C115.366 285.454 115.07 285.523 114.8 285.661C114.529 285.793 114.297 285.992 114.103 286.258C113.909 286.523 113.759 286.847 113.652 287.229C113.545 287.612 113.491 288.053 113.491 288.553V288.875C113.491 289.267 113.545 289.637 113.652 289.984C113.764 290.326 113.925 290.627 114.134 290.887C114.348 291.147 114.606 291.351 114.907 291.499C115.213 291.647 115.56 291.721 115.947 291.721C116.447 291.721 116.871 291.619 117.218 291.415C117.565 291.211 117.868 290.938 118.128 290.596L118.985 291.277C118.807 291.548 118.58 291.805 118.304 292.05C118.029 292.295 117.689 292.494 117.286 292.647C116.889 292.8 116.417 292.877 115.871 292.877ZM122.161 285.745V292.724H120.745V284.444H122.123L122.161 285.745ZM124.747 284.398L124.74 285.714C124.622 285.689 124.51 285.673 124.403 285.668C124.301 285.658 124.184 285.653 124.051 285.653C123.725 285.653 123.436 285.704 123.186 285.806C122.936 285.908 122.725 286.051 122.551 286.235C122.378 286.418 122.24 286.638 122.138 286.893C122.041 287.143 121.977 287.418 121.947 287.719L121.549 287.949C121.549 287.449 121.597 286.979 121.694 286.541C121.796 286.102 121.952 285.714 122.161 285.378C122.37 285.036 122.635 284.77 122.957 284.582C123.283 284.388 123.671 284.291 124.12 284.291C124.222 284.291 124.339 284.304 124.472 284.329C124.605 284.35 124.696 284.373 124.747 284.398ZM128.52 291.867L130.823 284.444H132.338L129.017 294.002C128.941 294.206 128.839 294.425 128.711 294.66C128.589 294.899 128.431 295.126 128.237 295.341C128.043 295.555 127.808 295.728 127.533 295.861C127.262 295.999 126.938 296.068 126.561 296.068C126.449 296.068 126.306 296.052 126.132 296.022C125.959 295.991 125.837 295.966 125.765 295.945L125.757 294.797C125.798 294.802 125.862 294.808 125.949 294.813C126.041 294.823 126.104 294.828 126.14 294.828C126.461 294.828 126.734 294.785 126.959 294.698C127.183 294.616 127.372 294.476 127.525 294.277C127.683 294.083 127.818 293.815 127.931 293.474L128.52 291.867ZM126.829 284.444L128.979 290.872L129.346 292.364L128.329 292.884L125.283 284.444H126.829ZM138.185 281.582H139.616L143.266 290.665L146.908 281.582H148.347L143.817 292.724H142.699L138.185 281.582ZM137.718 281.582H138.98L139.187 288.377V292.724H137.718V281.582ZM147.543 281.582H148.806V292.724H147.337V288.377L147.543 281.582ZM150.811 288.676V288.5C150.811 287.903 150.897 287.349 151.071 286.839C151.244 286.324 151.494 285.877 151.821 285.5C152.147 285.117 152.543 284.821 153.007 284.612C153.471 284.398 153.991 284.291 154.568 284.291C155.149 284.291 155.672 284.398 156.137 284.612C156.606 284.821 157.004 285.117 157.33 285.5C157.662 285.877 157.914 286.324 158.088 286.839C158.261 287.349 158.348 287.903 158.348 288.5V288.676C158.348 289.273 158.261 289.826 158.088 290.336C157.914 290.846 157.662 291.293 157.33 291.675C157.004 292.053 156.608 292.349 156.144 292.563C155.685 292.772 155.165 292.877 154.583 292.877C154.002 292.877 153.479 292.772 153.014 292.563C152.55 292.349 152.152 292.053 151.821 291.675C151.494 291.293 151.244 290.846 151.071 290.336C150.897 289.826 150.811 289.273 150.811 288.676ZM152.226 288.5V288.676C152.226 289.089 152.275 289.479 152.372 289.846C152.469 290.209 152.614 290.53 152.808 290.811C153.007 291.091 153.254 291.313 153.55 291.476C153.846 291.634 154.19 291.714 154.583 291.714C154.971 291.714 155.31 291.634 155.601 291.476C155.897 291.313 156.142 291.091 156.335 290.811C156.529 290.53 156.675 290.209 156.772 289.846C156.874 289.479 156.925 289.089 156.925 288.676V288.5C156.925 288.092 156.874 287.706 156.772 287.344C156.675 286.977 156.527 286.653 156.328 286.372C156.134 286.087 155.889 285.862 155.593 285.699C155.302 285.536 154.961 285.454 154.568 285.454C154.18 285.454 153.838 285.536 153.542 285.699C153.252 285.862 153.007 286.087 152.808 286.372C152.614 286.653 152.469 286.977 152.372 287.344C152.275 287.706 152.226 288.092 152.226 288.5ZM161.539 286.212V292.724H160.123V284.444H161.462L161.539 286.212ZM161.202 288.27L160.613 288.247C160.618 287.681 160.702 287.158 160.866 286.678C161.029 286.194 161.258 285.773 161.554 285.416C161.85 285.059 162.202 284.783 162.61 284.589C163.023 284.39 163.48 284.291 163.98 284.291C164.388 284.291 164.755 284.347 165.082 284.459C165.408 284.566 165.686 284.74 165.916 284.98C166.151 285.219 166.329 285.531 166.452 285.913C166.574 286.291 166.635 286.752 166.635 287.298V292.724H165.212V287.283C165.212 286.849 165.148 286.502 165.021 286.242C164.893 285.977 164.707 285.786 164.462 285.668C164.217 285.546 163.916 285.485 163.559 285.485C163.207 285.485 162.886 285.559 162.595 285.707C162.309 285.855 162.062 286.059 161.853 286.319C161.649 286.579 161.488 286.877 161.371 287.214C161.258 287.546 161.202 287.898 161.202 288.27ZM170.071 291.04V292.18C170.071 292.645 169.954 293.134 169.719 293.65C169.484 294.17 169.155 294.604 168.732 294.95L167.929 294.392C168.092 294.167 168.23 293.938 168.342 293.703C168.454 293.474 168.538 293.234 168.594 292.984C168.655 292.739 168.686 292.479 168.686 292.203V291.04H170.071ZM179.789 281.582V292.724H178.335V281.582H179.789ZM183.371 281.582V282.791H174.762V281.582H183.371ZM189.14 290.811V284.444H190.564V292.724H189.209L189.14 290.811ZM189.408 289.066L189.997 289.051C189.997 289.602 189.939 290.112 189.821 290.581C189.709 291.045 189.526 291.448 189.27 291.79C189.015 292.132 188.681 292.4 188.268 292.594C187.855 292.782 187.352 292.877 186.761 292.877C186.358 292.877 185.988 292.818 185.651 292.701C185.319 292.583 185.034 292.402 184.794 292.157C184.554 291.913 184.368 291.594 184.235 291.201C184.108 290.808 184.044 290.336 184.044 289.785V284.444H185.46V289.801C185.46 290.173 185.5 290.482 185.582 290.726C185.669 290.966 185.784 291.157 185.926 291.3C186.074 291.438 186.238 291.535 186.416 291.591C186.6 291.647 186.789 291.675 186.982 291.675C187.584 291.675 188.061 291.561 188.413 291.331C188.765 291.096 189.018 290.783 189.171 290.39C189.329 289.992 189.408 289.551 189.408 289.066ZM196.157 292.877C195.581 292.877 195.058 292.78 194.589 292.586C194.124 292.387 193.724 292.109 193.387 291.752C193.056 291.395 192.801 290.971 192.622 290.482C192.444 289.992 192.354 289.456 192.354 288.875V288.553C192.354 287.88 192.454 287.28 192.653 286.755C192.852 286.224 193.122 285.775 193.464 285.408C193.806 285.041 194.193 284.763 194.627 284.574C195.061 284.385 195.509 284.291 195.974 284.291C196.565 284.291 197.076 284.393 197.504 284.597C197.938 284.801 198.292 285.087 198.568 285.454C198.843 285.816 199.047 286.245 199.18 286.74C199.313 287.229 199.379 287.765 199.379 288.347V288.982H193.196V287.826H197.963V287.719C197.943 287.352 197.866 286.995 197.734 286.648C197.606 286.301 197.402 286.015 197.122 285.791C196.841 285.566 196.458 285.454 195.974 285.454C195.652 285.454 195.356 285.523 195.086 285.661C194.816 285.793 194.584 285.992 194.39 286.258C194.196 286.523 194.045 286.847 193.938 287.229C193.831 287.612 193.778 288.053 193.778 288.553V288.875C193.778 289.267 193.831 289.637 193.938 289.984C194.05 290.326 194.211 290.627 194.42 290.887C194.635 291.147 194.892 291.351 195.193 291.499C195.499 291.647 195.846 291.721 196.234 291.721C196.734 291.721 197.157 291.619 197.504 291.415C197.851 291.211 198.155 290.938 198.415 290.596L199.272 291.277C199.093 291.548 198.866 291.805 198.591 292.05C198.315 292.295 197.976 292.494 197.573 292.647C197.175 292.8 196.703 292.877 196.157 292.877Z" fill="#95A1B1"/>
<mask id="mask7_5309_4469" style="mask-type:alpha" maskUnits="userSpaceOnUse" x="385" y="258" width="23" height="23">
<rect x="407.477" y="280.44" width="22.3881" height="22.3881" transform="rotate(-180 407.477 280.44)" fill="#D9D9D9"/>
</mask>
<g mask="url(#mask7_5309_4469)">
<path d="M398.704 269.246L392.127 262.67C391.91 262.452 391.801 262.188 391.801 261.877C391.801 261.566 391.91 261.301 392.127 261.084C392.345 260.866 392.609 260.757 392.92 260.757C393.231 260.757 393.495 260.866 393.713 261.084L400.686 268.057C400.857 268.228 400.981 268.414 401.059 268.616C401.137 268.819 401.176 269.028 401.176 269.246C401.176 269.464 401.137 269.674 401.059 269.876C400.981 270.078 400.857 270.264 400.686 270.435L393.713 277.408C393.495 277.626 393.231 277.735 392.92 277.735C392.609 277.735 392.345 277.626 392.127 277.408C391.91 277.191 391.801 276.926 391.801 276.615C391.801 276.305 391.91 276.04 392.127 275.823L398.704 269.246Z" fill="#95A1B1"/>
</g>
</g>
<defs>
<filter id="filter0_d_5309_4469" x="158.06" y="0.335822" width="342.313" height="170.746" filterUnits="userSpaceOnUse" color-interpolation-filters="sRGB">
<feFlood flood-opacity="0" result="BackgroundImageFix"/>
<feColorMatrix in="SourceAlpha" type="matrix" values="0 0 0 0 0 0 0 0 0 0 0 0 0 0 0 0 0 0 127 0" result="hardAlpha"/>
<feOffset dy="8.20895"/>
<feGaussianBlur stdDeviation="15.1866"/>
<feComposite in2="hardAlpha" operator="out"/>
<feColorMatrix type="matrix" values="0 0 0 0 0.611765 0 0 0 0 0.658824 0 0 0 0 0.780392 0 0 0 0.25 0"/>
<feBlend mode="normal" in2="BackgroundImageFix" result="effect1_dropShadow_5309_4469"/>
<feBlend mode="normal" in="SourceGraphic" in2="effect1_dropShadow_5309_4469" result="shape"/>
</filter>
<filter id="filter1_d_5309_4469" x="0.015686" y="138.276" width="466.793" height="232.836" filterUnits="userSpaceOnUse" color-interpolation-filters="sRGB">
<feFlood flood-opacity="0" result="BackgroundImageFix"/>
<feColorMatrix in="SourceAlpha" type="matrix" values="0 0 0 0 0 0 0 0 0 0 0 0 0 0 0 0 0 0 127 0" result="hardAlpha"/>
<feOffset dy="11.194"/>
<feGaussianBlur stdDeviation="20.709"/>
<feComposite in2="hardAlpha" operator="out"/>
<feColorMatrix type="matrix" values="0 0 0 0 0.611765 0 0 0 0 0.658824 0 0 0 0 0.780392 0 0 0 0.25 0"/>
<feBlend mode="normal" in2="BackgroundImageFix" result="effect1_dropShadow_5309_4469"/>
<feBlend mode="normal" in="SourceGraphic" in2="effect1_dropShadow_5309_4469" result="shape"/>
</filter>
</defs>
</svg>
