<svg width="539" height="377" viewBox="0 0 539 377" fill="none" xmlns="http://www.w3.org/2000/svg">
<circle cx="63.7617" cy="75.9404" r="1" transform="rotate(180 63.7617 75.9404)" fill="#4BC4AE"/>
<path d="M63.7583 71.9703V45.5003C63.7583 20.9303 83.6783 1.00027 108.248 1.00027C132.818 1.00027 152.738 20.9203 152.738 45.5003V83.7603" stroke="#4BC4AE" stroke-width="2" stroke-linecap="round" stroke-linejoin="round"/>
<circle cx="152.75" cy="85.7402" r="1" transform="rotate(180 152.75 85.7402)" fill="#4BC4AE"/>
<path d="M67.5195 75.7503C67.5195 77.8303 65.8395 79.5103 63.7595 79.5103C61.6795 79.5103 59.9995 77.8303 59.9995 75.7503C59.9995 73.6703 61.6795 71.9903 63.7595 71.9903C65.8395 71.9903 67.5195 73.6703 67.5195 75.7503Z" fill="#4BC4AE"/>
<path d="M142.859 85.7402V45.4102C142.859 26.3002 127.369 10.8102 108.259 10.8102C89.1494 10.8102 73.6594 26.3002 73.6594 45.4102V85.7402" stroke="#4BC4AE" stroke-width="2" stroke-linecap="round" stroke-linejoin="round"/>
<g style="mix-blend-mode:overlay" opacity="0.5">
<path d="M490.5 61.52C490.5 57.37 487.13 54 482.98 54H246.52C242.37 54 239 57.37 239 61.52C239 65.67 242.37 69.04 246.52 69.04H420.49C424.64 69.04 428.01 72.41 428.01 76.56C428.01 80.71 424.64 84.08 420.49 84.08H306.17C302.02 84.08 298.65 87.45 298.65 91.6C298.65 95.75 302.02 99.12 306.17 99.12H369.04C373.19 99.12 376.56 102.49 376.56 106.64C376.56 110.79 373.19 114.16 369.04 114.16H346.06C341.91 114.16 338.54 117.53 338.54 121.68C338.54 125.83 341.91 129.2 346.06 129.2H470.7C474.85 129.2 478.22 125.83 478.22 121.68C478.22 117.53 474.85 114.16 470.7 114.16H429.82C425.67 114.16 422.3 110.79 422.3 106.64C422.3 102.49 425.67 99.12 429.82 99.12H531.38C535.53 99.12 538.9 95.75 538.9 91.6C538.9 87.45 535.53 84.08 531.38 84.08H459.09C454.94 84.08 451.57 80.71 451.57 76.56C451.57 72.41 454.94 69.04 459.09 69.04H482.98C487.13 69.04 490.5 65.67 490.5 61.52Z" fill="white"/>
</g>
<path d="M311.004 312.408H214.926L228.427 246.354H297.493L311.004 312.408Z" fill="#3CB097"/>
<g style="mix-blend-mode:multiply" opacity="0.6">
<path d="M303.762 276.519H222.156L228.426 246.354H297.492L303.762 276.519Z" fill="#3CB097"/>
</g>
<path d="M345.336 322H180.598C180.598 313.722 187.306 307.014 195.584 307.014H330.35C338.628 307.014 345.336 313.722 345.336 322Z" fill="url(#paint0_linear_4164_5524)"/>
<path d="M409.52 58H116.413C107.901 58 101 64.9007 101 73.4132V254.291C101 262.803 107.901 269.704 116.413 269.704H409.52C418.032 269.704 424.933 262.803 424.933 254.291V73.4132C424.933 64.9007 418.032 58 409.52 58Z" fill="url(#paint1_linear_4164_5524)"/>
<path d="M416.176 73.125H109.75V234.691H416.176V73.125Z" fill="#0078C0"/>
<path d="M416.176 73.125H109.75V234.691H416.176V73.125Z" fill="url(#paint2_linear_4164_5524)"/>
<g style="mix-blend-mode:multiply" opacity="0.6">
<path d="M416.176 73.125H109.75V84.0093H416.176V73.125Z" fill="#3CB097"/>
</g>
<path d="M262.959 259.012C266.723 259.012 269.774 255.961 269.774 252.198C269.774 248.434 266.723 245.383 262.959 245.383C259.196 245.383 256.145 248.434 256.145 252.198C256.145 255.961 259.196 259.012 262.959 259.012Z" fill="#EAEEF1"/>
<g style="mix-blend-mode:overlay" opacity="0.2">
<path d="M416.174 73.125H201.629L363.195 234.68H416.174V73.125Z" fill="white"/>
</g>
<path d="M218.962 180.469L235.068 143.982H245.233L261.391 180.469H250.654L238.039 149.038H242.105L229.491 180.469H218.962ZM227.771 173.38L230.429 165.77H248.256L250.914 173.38H227.771ZM264.317 180.469V143.982H280.997C284.333 143.982 287.2 144.52 289.598 145.598C292.03 146.675 293.907 148.239 295.227 150.289C296.548 152.304 297.208 154.702 297.208 157.482C297.208 160.227 296.548 162.608 295.227 164.623C293.907 166.639 292.03 168.203 289.598 169.314C287.2 170.392 284.333 170.93 280.997 170.93H270.051L274.638 166.448V180.469H264.317ZM274.638 167.542L270.051 162.799H280.372C282.526 162.799 284.125 162.33 285.167 161.392C286.245 160.453 286.783 159.15 286.783 157.482C286.783 155.779 286.245 154.459 285.167 153.521C284.125 152.582 282.526 152.113 280.372 152.113H270.051L274.638 147.37V167.542ZM302.24 180.469V143.982H312.561V180.469H302.24Z" fill="white"/>
<path d="M76.506 266.497V263.01L70.4084 261.729C70.1694 260.099 69.7465 258.53 69.1582 257.047L73.7912 252.892L72.0446 249.87L66.1247 251.807C65.1197 250.538 63.9676 249.386 62.699 248.381L64.6355 242.461L61.6143 240.715L57.4593 245.348C55.9763 244.759 54.4074 244.331 52.7773 244.098L51.4965 238H48.0095L46.7287 244.098C45.0986 244.337 43.5297 244.759 42.0467 245.348L37.8917 240.715L34.8705 242.461L36.807 248.381C35.5385 249.386 34.3863 250.538 33.3813 251.807L27.4614 249.87L25.7148 252.892L30.3478 257.047C29.7595 258.53 29.3305 260.099 29.0976 261.729L23 263.01V266.497L29.0976 267.777C29.3367 269.407 29.7595 270.976 30.3478 272.459L25.7148 276.614L27.4614 279.636L33.3813 277.699C34.3863 278.968 35.5385 280.12 36.807 281.125L34.8705 287.045L37.8917 288.791L42.0467 284.158C43.5297 284.747 45.0986 285.176 46.7287 285.408L48.0095 291.506H51.4965L52.7773 285.408C54.4074 285.169 55.9763 284.747 57.4593 284.158L61.6143 288.791L64.6355 287.045L62.699 281.125C63.9676 280.12 65.1197 278.968 66.1247 277.699L72.0446 279.636L73.7912 276.614L69.1582 272.459C69.7465 270.976 70.1755 269.407 70.4084 267.777L76.506 266.497ZM64.9665 264.75C64.9665 273.152 58.158 279.96 49.7561 279.96C41.3542 279.96 34.5457 273.152 34.5457 264.75C34.5457 256.348 41.3542 249.54 49.7561 249.54C58.158 249.54 64.9665 256.348 64.9665 264.75Z" fill="white"/>
<path fill-rule="evenodd" clip-rule="evenodd" d="M50.0002 258C46.1302 258 43 261.129 43 264.999C43 268.87 46.1302 272 50.0002 272C53.8698 272 57 268.87 57 264.999C57 261.129 53.8698 258 50.0002 258Z" fill="white"/>
<path d="M101.002 292.389V290.617L97.9073 289.968C97.7847 289.141 97.5702 288.344 97.27 287.59L99.6232 285.482L98.7407 283.95L95.7379 284.93C95.2292 284.287 94.6409 283.705 93.9974 283.19L94.978 280.187L93.4459 279.305L91.3378 281.658C90.584 281.358 89.7873 281.143 88.96 281.021L88.3104 277.926H86.5393L85.8897 281.021C85.0624 281.143 84.2657 281.358 83.512 281.658L81.4038 279.305L79.8718 280.187L80.8523 283.19C80.2088 283.699 79.6266 284.287 79.1118 284.93L76.109 283.95L75.2265 285.482L77.5798 287.59C77.2795 288.344 77.065 289.141 76.9424 289.968L73.8477 290.617V292.389L76.9424 293.038C77.065 293.865 77.2795 294.662 77.5798 295.416L75.2265 297.524L76.109 299.056L79.1118 298.076C79.6205 298.719 80.2088 299.301 80.8523 299.816L79.8718 302.819L81.4038 303.701L83.512 301.348C84.2657 301.648 85.0624 301.863 85.8897 301.985L86.5393 305.08H88.3104L88.96 301.985C89.7873 301.863 90.584 301.648 91.3378 301.348L93.4459 303.701L94.978 302.819L93.9974 299.816C94.6409 299.307 95.2231 298.719 95.7379 298.076L98.7407 299.056L99.6232 297.524L97.27 295.416C97.5702 294.662 97.7847 293.865 97.9073 293.038L101.002 292.389ZM95.1434 291.506C95.1434 295.771 91.6871 299.228 87.4218 299.228C83.1565 299.228 79.7002 295.771 79.7002 291.506C79.7002 287.241 83.1565 283.784 87.4218 283.784C91.6871 283.784 95.1434 287.241 95.1434 291.506Z" fill="white"/>
<circle cx="482.988" cy="279.8" r="1" fill="#4BC4AE"/>
<path d="M482.992 283.77V310.24C482.992 334.81 463.072 354.74 438.502 354.74C413.932 354.74 394.012 334.82 394.012 310.24V271.98" stroke="#4BC4AE" stroke-width="2" stroke-linecap="round" stroke-linejoin="round"/>
<circle cx="394" cy="270" r="1" fill="#4BC4AE"/>
<path d="M479.23 279.99C479.23 277.91 480.91 276.23 482.99 276.23C485.07 276.23 486.75 277.91 486.75 279.99C486.75 282.07 485.07 283.75 482.99 283.75C480.91 283.75 479.23 282.07 479.23 279.99Z" fill="#4BC4AE"/>
<path d="M403.891 270V310.33C403.891 329.44 419.381 344.93 438.491 344.93C457.601 344.93 473.091 329.44 473.091 310.33V270" stroke="#4BC4AE" stroke-width="2" stroke-linecap="round" stroke-linejoin="round"/>
<path d="M503.64 182H443.29C441.473 182 440 183.473 440 185.29V204.87C440 206.687 441.473 208.16 443.29 208.16H503.64C505.457 208.16 506.93 206.687 506.93 204.87V185.29C506.93 183.473 505.457 182 503.64 182Z" fill="#F3F3F5"/>
<path d="M501.77 208.15H445.16V211.95H501.77V208.15Z" fill="#12957D"/>
<path d="M446.158 186H500.758C501.588 186 502.268 186.68 502.268 187.51V194.92C502.268 195.75 501.588 196.43 500.758 196.43H446.158C445.328 196.43 444.648 195.75 444.648 194.92V187.51C444.648 186.68 445.328 186 446.158 186Z" fill="#327A6D"/>
<path d="M502.271 199.32H483.871V202.35H502.271V199.32Z" fill="#32EA9F"/>
<path d="M473.559 202.36H479.789V199.33H473.559V202.36Z" fill="#00B898"/>
<path d="M503.64 211.95H443.29C441.473 211.95 440 213.423 440 215.24V234.82C440 236.637 441.473 238.11 443.29 238.11H503.64C505.457 238.11 506.93 236.637 506.93 234.82V215.24C506.93 213.423 505.457 211.95 503.64 211.95Z" fill="#F3F3F5"/>
<path d="M501.77 238.11H445.16V241.91H501.77V238.11Z" fill="#12957D"/>
<path d="M500.76 215.96H446.17C445.336 215.96 444.66 216.636 444.66 217.47V224.87C444.66 225.704 445.336 226.38 446.17 226.38H500.76C501.594 226.38 502.27 225.704 502.27 224.87V217.47C502.27 216.636 501.594 215.96 500.76 215.96Z" fill="#327A6D"/>
<path d="M502.271 229.28H483.871V232.32H502.271V229.28Z" fill="#32EA9F"/>
<path d="M473.559 232.31H479.789V229.27H473.559V232.31Z" fill="#00B898"/>
<path d="M503.64 241.9H443.29C441.473 241.9 440 243.373 440 245.19V264.77C440 266.587 441.473 268.06 443.29 268.06H503.64C505.457 268.06 506.93 266.587 506.93 264.77V245.19C506.93 243.373 505.457 241.9 503.64 241.9Z" fill="#F3F3F5"/>
<path d="M501.77 268.06H445.16V271.86H501.77V268.06Z" fill="#12957D"/>
<path d="M446.158 245.91H500.758C501.588 245.91 502.268 246.59 502.268 247.42V254.83C502.268 255.66 501.588 256.34 500.758 256.34H446.158C445.328 256.34 444.648 255.66 444.648 254.83V247.42C444.648 246.59 445.328 245.91 446.158 245.91Z" fill="#327A6D"/>
<path d="M502.271 259.23H483.871V262.27H502.271V259.23Z" fill="#32EA9F"/>
<path d="M473.559 262.26H479.789V259.22H473.559V262.26Z" fill="#00B898"/>
<path d="M234.781 25V32.56" stroke="#3CB097" stroke-width="2" stroke-linecap="round" stroke-linejoin="round"/>
<path d="M238.56 28.7798H231" stroke="#3CB097" stroke-width="2" stroke-linecap="round" stroke-linejoin="round"/>
<path d="M394.781 17V24.56" stroke="#3CB097" stroke-width="2" stroke-linecap="round" stroke-linejoin="round"/>
<path d="M398.56 20.7798H391" stroke="#3CB097" stroke-width="2" stroke-linecap="round" stroke-linejoin="round"/>
<path d="M98.44 163.7H95.77C96.12 162.28 96.33 160.78 96.33 159.24C96.33 149.56 88.48 141.71 78.8 141.71C77.76 141.71 76.76 141.79 75.78 141.98V141.71C75.78 127.67 64.41 116.3 50.37 116.3C37.08 116.3 26.19 126.48 25.07 139.48C13.76 140.77 5 150.35 5 161.99C5 162.57 5.02 163.14 5.06 163.7H2.89001C1.29001 163.7 0 164.99 0 166.59C0 168.19 1.29001 169.48 2.89001 169.48H98.43C100.03 169.48 101.32 168.19 101.32 166.59C101.32 164.99 100.03 163.7 98.43 163.7H98.44Z" fill="#3CB097"/>
<path d="M48.9297 74C34.5697 74 22.9297 85.64 22.9297 100C22.9297 114.36 34.5697 126 48.9297 126C63.2897 126 74.9297 114.36 74.9297 100C74.9297 85.64 63.2897 74 48.9297 74ZM42.2397 76.47C41.0597 77.72 39.9697 79.31 38.9997 81.22C38.3997 82.4 37.8697 83.68 37.3997 85.03C37.1897 84.91 36.9797 84.8 36.7697 84.67C36.6097 84.58 36.4597 84.48 36.2997 84.39C35.0297 83.6 33.8297 82.7 32.7197 81.7C35.4797 79.25 38.7197 77.48 42.2297 76.48L42.2397 76.47ZM31.4397 82.92C32.6897 84.06 34.0297 85.07 35.4497 85.95C35.6197 86.06 35.7797 86.15 35.9397 86.25C36.2397 86.43 36.5397 86.6 36.8497 86.76C35.7497 90.5 35.1397 94.64 35.0597 99.11H24.4797C24.6997 92.98 27.1497 87.3 31.4297 82.92H31.4397ZM24.4897 100.93H35.0597C35.1397 105.4 35.7597 109.51 36.8497 113.22C36.5397 113.38 36.2397 113.57 35.9397 113.75C35.7797 113.84 35.6197 113.95 35.4497 114.06C34.0197 114.94 32.6697 115.93 31.4197 117.08C27.3097 112.87 24.7397 107.23 24.4997 100.94L24.4897 100.93ZM32.7097 118.34C33.8297 117.33 35.0297 116.42 36.3097 115.62C36.4697 115.52 36.6197 115.43 36.7797 115.34C36.9897 115.22 37.1997 115.1 37.4097 114.98C37.8797 116.33 38.4097 117.6 39.0097 118.79C39.9797 120.7 41.0697 122.29 42.2497 123.54C38.6397 122.52 35.3997 120.72 32.7097 118.34ZM47.9797 124.45C47.8097 124.45 47.8497 124.45 47.7897 124.45C47.1597 124.42 46.5297 124.37 45.9097 124.29C43.8097 123.21 41.8597 121.01 40.2697 117.83C39.7197 116.73 39.2197 115.54 38.7897 114.29C40.5097 113.47 42.3197 112.85 44.1897 112.45C44.3597 112.41 44.5397 112.38 44.7197 112.34C45.7997 112.13 46.8297 112 47.9897 111.93V124.46L47.9797 124.45ZM47.9797 110.15C46.6497 110.22 45.5897 110.36 44.4297 110.58C44.2597 110.61 44.0797 110.65 43.8697 110.69C41.9197 111.1 40.0397 111.7 38.2397 112.53C37.2297 109.03 36.6497 105.07 36.5697 100.93H47.9797V110.15ZM47.9797 99.11H36.5597C36.6297 94.97 37.2097 90.97 38.2297 87.45C40.0297 88.28 41.9097 88.91 43.8597 89.32C44.0697 89.36 44.2497 89.4 44.4197 89.43C45.5897 89.65 46.6497 89.8 47.9797 89.86V99.11ZM47.9797 88.09C46.8197 88.02 45.7797 87.89 44.7097 87.68C44.5197 87.64 44.3497 87.61 44.1797 87.57C42.3097 87.17 40.5097 86.55 38.7797 85.73C39.2197 84.48 39.7097 83.29 40.2597 82.19C41.8597 79.01 43.7997 76.81 45.8997 75.73C46.5197 75.65 47.1597 75.6 47.7897 75.57C47.8497 75.57 47.8097 75.57 47.9797 75.57V88.1V88.09ZM73.3897 99.11H62.8097C62.7397 94.97 62.1697 90.86 61.1597 87.25C61.4797 87.1 61.7897 86.93 62.1097 86.77C62.2897 86.67 62.4497 86.58 62.6097 86.49C64.1397 85.63 65.5897 84.61 66.9297 83.45C70.8997 87.76 73.1697 93.31 73.3797 99.11H73.3897ZM65.6797 82.18C64.4797 83.2 63.1797 84.11 61.8097 84.89C61.6397 84.99 61.4797 85.07 61.3297 85.15C61.0997 85.27 60.8697 85.39 60.6397 85.51C60.1297 83.98 59.5397 82.54 58.8697 81.21C57.8997 79.3 56.8097 77.71 55.6297 76.46C59.3797 77.52 62.7997 79.47 65.6797 82.18ZM49.7997 75.56C49.7997 75.56 49.9797 75.56 50.0597 75.56C50.6897 75.59 51.3297 75.64 51.9597 75.72C54.0597 76.8 56.0197 79 57.6197 82.18C58.2397 83.41 58.7797 84.74 59.2497 86.15C57.4897 86.9 55.6497 87.44 53.7497 87.77C53.5797 87.8 53.3797 87.83 53.1897 87.86C52.0897 88.03 50.9697 88.11 49.8097 88.13V75.56H49.7997ZM49.7997 89.9C50.9597 89.88 52.2397 89.79 53.4097 89.62C53.6297 89.59 53.8197 89.56 53.9797 89.53C55.9597 89.2 57.8997 88.64 59.7497 87.88C60.6997 91.3 61.2397 95.14 61.3097 99.12H49.7997V89.91V89.9ZM49.7997 100.93H61.3097C61.2297 104.91 60.6997 108.71 59.7597 112.1C57.9097 111.33 55.9897 110.8 54.0097 110.46C53.8497 110.43 53.6297 110.41 53.4197 110.38C52.2397 110.21 50.9597 110.12 49.7997 110.11V100.93ZM51.9497 124.28C51.3297 124.36 50.6797 124.41 50.0497 124.44C49.9797 124.44 49.7997 124.44 49.7997 124.44V111.87C50.9597 111.89 52.0797 111.97 53.1797 112.14C53.3697 112.17 53.5597 112.2 53.7297 112.23C55.6197 112.56 57.4697 113.1 59.2397 113.85C58.7697 115.26 58.2297 116.59 57.6197 117.82C56.0197 121 54.0697 123.2 51.9597 124.28H51.9497ZM55.6197 123.54C56.7997 122.29 57.8897 120.7 58.8597 118.79C59.5297 117.46 60.1197 116.02 60.6297 114.49C60.8597 114.61 61.0897 114.72 61.3197 114.85C61.4697 114.93 61.6197 115.02 61.7997 115.11C63.1797 115.89 64.4897 116.81 65.6997 117.85C62.8997 120.48 59.4697 122.46 55.6197 123.54ZM66.9597 116.54C65.6097 115.38 64.1497 114.38 62.6097 113.52C62.4497 113.43 62.2897 113.34 62.1097 113.24C61.7997 113.07 61.4797 112.88 61.1597 112.72C62.1597 109.13 62.7297 105.23 62.7997 100.92H73.3697C73.1297 107.05 70.7597 112.39 66.9497 116.54H66.9597Z" fill="white"/>
<path d="M49.5312 158.08V192.18" stroke="white" stroke-width="2" stroke-linecap="round" stroke-linejoin="round"/>
<path d="M41.3203 155V180.95" stroke="white" stroke-width="2" stroke-linecap="round" stroke-linejoin="round"/>
<path d="M56.5391 151V187.1" stroke="white" stroke-width="2" stroke-linecap="round" stroke-linejoin="round"/>
<defs>
<linearGradient id="paint0_linear_4164_5524" x1="262.967" y1="337.5" x2="262.967" y2="303.5" gradientUnits="userSpaceOnUse">
<stop stop-color="#0A4138"/>
<stop offset="1" stop-color="#0B8772"/>
</linearGradient>
<linearGradient id="paint1_linear_4164_5524" x1="262.961" y1="269.704" x2="262.961" y2="58" gradientUnits="userSpaceOnUse">
<stop stop-color="#CCD1EC"/>
<stop offset="1" stop-color="white"/>
</linearGradient>
<linearGradient id="paint2_linear_4164_5524" x1="262.963" y1="234.68" x2="262.963" y2="73.125" gradientUnits="userSpaceOnUse">
<stop stop-color="#12957D"/>
<stop offset="1" stop-color="#00B898"/>
</linearGradient>
</defs>
</svg>
