<svg width="447" height="262" viewBox="0 0 447 262" fill="none" xmlns="http://www.w3.org/2000/svg">
<path fill-rule="evenodd" clip-rule="evenodd" d="M223.167 239.542C346.419 239.542 446.336 244.569 446.336 250.772C446.336 256.972 346.419 261.999 223.167 261.999C99.914 261.999 0 256.972 0 250.772C0 244.568 99.914 239.542 223.167 239.542Z" fill="#E7FFFB" fill-opacity="0.3"/>
<path fill-rule="evenodd" clip-rule="evenodd" d="M321.755 198.218C325.407 203.755 323.876 211.207 318.338 214.86C312.798 218.511 305.347 216.98 301.696 211.443C298.045 205.903 299.573 198.452 305.111 194.801C310.651 191.15 318.102 192.678 321.755 198.218ZM346.305 201.488C348.534 204.872 347.602 209.423 344.217 211.654C340.834 213.885 336.284 212.951 334.052 209.567C331.822 206.185 332.757 201.633 336.139 199.403C339.522 197.172 344.074 198.107 346.305 201.488Z" fill="#F6F1F7"/>
<path fill-rule="evenodd" clip-rule="evenodd" d="M46.4232 203.128C46.0617 209.753 40.3987 214.833 33.7737 214.471C27.1502 214.111 22.0707 208.448 22.4322 201.823C22.7923 195.198 28.4552 190.12 35.0803 190.48C41.7061 190.842 46.7833 196.505 46.4232 203.128ZM64.2051 220.367C63.986 224.413 60.5267 227.516 56.4802 227.295C52.4337 227.075 49.3322 223.616 49.5521 219.57C49.774 215.523 53.2326 212.422 57.2793 212.642C61.3235 212.863 64.4273 216.322 64.2051 220.367Z" fill="#F6F1F7"/>
<path fill-rule="evenodd" clip-rule="evenodd" d="M209.75 228.769C236.7 228.769 258.548 229.478 258.548 230.354C258.548 231.228 236.7 231.939 209.75 231.939C182.8 231.939 160.953 231.228 160.953 230.354C160.953 229.478 182.8 228.769 209.75 228.769Z" fill="#EFE5F0" fill-opacity="0.1"/>
<path fill-rule="evenodd" clip-rule="evenodd" d="M91.742 115.779C94.1429 116.297 96.3854 117.242 98.384 118.532C98.3994 118.514 98.4158 118.496 98.433 118.479L101.758 115.155C102.15 114.763 102.79 114.763 103.182 115.155L107.796 119.769C108.188 120.16 108.188 120.802 107.796 121.194L104.472 124.518L104.419 124.567C105.709 126.567 106.654 128.807 107.172 131.208L107.242 131.205H111.944C112.498 131.205 112.952 131.659 112.952 132.213V138.738C112.952 139.292 112.498 139.746 111.944 139.746H107.242C107.219 139.746 107.194 139.744 107.171 139.743C106.654 142.143 105.709 144.386 104.419 146.384C104.438 146.4 104.455 146.417 104.472 146.433L107.796 149.759C108.188 150.15 108.188 150.791 107.796 151.184L103.182 155.797C102.79 156.189 102.15 156.189 101.758 155.797L98.4339 152.472L98.384 152.419C96.3854 153.71 94.1439 154.655 91.743 155.173L91.7454 155.243V159.944C91.7454 160.498 91.2919 160.952 90.7381 160.952H84.2135C83.6587 160.952 83.2059 160.498 83.2059 159.944V155.243C83.2059 155.219 83.2068 155.196 83.2086 155.172C80.8077 154.655 78.5653 153.709 76.5667 152.419C76.5512 152.438 76.5349 152.455 76.5177 152.472L73.1933 155.797C72.8016 156.189 72.16 156.189 71.7682 155.797L67.1543 151.184C66.7622 150.791 66.7622 150.15 67.1543 149.759L70.4793 146.434L70.5316 146.384C69.2421 144.386 68.2962 142.144 67.7783 139.743L67.709 139.746H63.0073C62.4525 139.746 62 139.293 62 138.738V132.214C62 131.659 62.4526 131.206 63.0073 131.206H67.709C67.7319 131.206 67.7553 131.207 67.7783 131.209C68.2962 128.808 69.2421 126.566 70.5316 124.568C70.5129 124.551 70.4956 124.535 70.4787 124.518L67.1543 121.194C66.7623 120.802 66.7623 120.16 67.1543 119.769L71.7683 115.154C72.16 114.762 72.8007 114.762 73.1924 115.154L76.5178 118.48C76.5351 118.497 76.5514 118.514 76.5668 118.532C78.5653 117.242 80.8069 116.297 83.2078 115.779C83.2068 115.756 83.2051 115.733 83.2051 115.709V111.008C83.2051 110.453 83.6588 110 84.2127 110H90.7372C91.292 110 91.7455 110.453 91.7455 111.008V115.709C91.7453 115.733 91.7438 115.756 91.742 115.779ZM87.4753 122.653C80.3935 122.653 74.6527 128.394 74.6527 135.476C74.6527 142.557 80.3935 148.298 87.4753 148.298C94.557 148.298 100.298 142.557 100.298 135.476C100.298 128.394 94.557 122.653 87.4753 122.653Z" fill="white"/>
<path fill-rule="evenodd" clip-rule="evenodd" d="M87.4748 130.774C84.8749 130.774 82.7734 132.877 82.7734 135.476C82.7734 138.076 84.8749 140.178 87.4748 140.178C90.0748 140.178 92.1762 138.076 92.1762 135.476C92.1762 132.877 90.0749 130.774 87.4748 130.774Z" fill="white"/>
<path fill-rule="evenodd" clip-rule="evenodd" d="M346.125 88.868C350.792 89.8743 355.153 91.7119 359.04 94.2196C359.07 94.1842 359.103 94.151 359.137 94.1171L365.6 87.653C366.364 86.8901 367.609 86.8901 368.371 87.653L377.345 96.6247C378.107 97.3861 378.107 98.6321 377.345 99.3958L370.879 105.86L370.776 105.956C373.284 109.844 375.124 114.202 376.133 118.872L376.266 118.867H385.409C386.488 118.867 387.368 119.748 387.368 120.827V133.515C387.368 134.594 386.488 135.474 385.409 135.474H376.266C376.22 135.474 376.174 135.472 376.13 135.468C375.122 140.137 373.284 144.498 370.776 148.383C370.812 148.415 370.846 148.446 370.879 148.48L377.345 154.946C378.106 155.707 378.106 156.954 377.345 157.716L368.371 166.688C367.61 167.452 366.364 167.452 365.6 166.688L359.137 160.222L359.04 160.119C355.153 162.629 350.794 164.468 346.125 165.475L346.131 165.611V174.754C346.131 175.831 345.249 176.714 344.172 176.714H331.482C330.405 176.714 329.522 175.831 329.522 174.754V165.611C329.522 165.565 329.527 165.519 329.529 165.473C324.859 164.468 320.5 162.629 316.613 160.119C316.582 160.155 316.55 160.191 316.517 160.224L310.053 166.688C309.29 167.452 308.043 167.452 307.28 166.688L298.308 157.716C297.547 156.954 297.547 155.707 298.308 154.946L304.775 148.48L304.877 148.383C302.367 144.498 300.53 140.14 299.521 135.47L299.388 135.474H290.245C289.165 135.474 288.285 134.594 288.285 133.515V120.827C288.285 119.748 289.165 118.867 290.245 118.867H299.388C299.431 118.867 299.478 118.869 299.523 118.872C300.53 114.204 302.367 109.844 304.877 105.958C304.842 105.926 304.806 105.895 304.775 105.862L298.308 99.3956C297.547 98.6342 297.547 97.3883 298.308 96.6245L307.28 87.6528C308.043 86.89 309.29 86.89 310.051 87.6528L316.517 94.1169C316.551 94.1508 316.582 94.1841 316.613 94.2194C320.499 91.7118 324.859 89.8741 329.529 88.8678C329.525 88.8221 329.523 88.7756 329.523 88.7299V79.587C329.523 78.5099 330.405 77.6274 331.482 77.6274H344.17C345.249 77.6274 346.129 78.5097 346.129 79.587V88.7299C346.129 88.7759 346.127 88.8223 346.125 88.868ZM337.827 102.235C324.054 102.235 312.891 113.399 312.891 127.17C312.891 140.943 324.054 152.106 337.827 152.106C351.598 152.106 362.763 140.943 362.763 127.17C362.763 113.399 351.598 102.235 337.827 102.235Z" fill="white"/>
<path fill-rule="evenodd" clip-rule="evenodd" d="M337.827 118.027C332.772 118.027 328.684 122.115 328.684 127.17C328.684 132.227 332.772 136.315 337.827 136.315C342.881 136.315 346.97 132.227 346.97 127.17C346.97 122.115 342.881 118.027 337.827 118.027Z" fill="white"/>
<path fill-rule="evenodd" clip-rule="evenodd" d="M306.612 82.9122V187.272C306.612 191.904 302.842 195.67 298.21 195.67H114.528C109.907 195.67 106.141 191.904 106.141 187.272V82.9122C106.141 78.2798 109.907 74.5181 114.528 74.5181H298.212C300.19 74.5181 302.11 75.2182 303.622 76.4879C305.521 78.0895 306.612 80.4363 306.612 82.9122Z" fill="url(#paint0_linear_4179_5725)"/>
<path fill-rule="evenodd" clip-rule="evenodd" d="M236.521 227.169H176.227L179.367 213.327L184.746 189.594L185.377 186.814H227.37L227.997 189.594L233.381 213.327L236.521 227.169Z" fill="#3CB097"/>
<path fill-rule="evenodd" clip-rule="evenodd" d="M233.385 213.327H179.371L181.921 202.074H230.835L233.385 213.327Z" fill="#3CB097"/>
<path fill-rule="evenodd" clip-rule="evenodd" d="M106.142 82.9124C106.142 78.28 109.908 74.5138 114.529 74.5138H298.209C300.191 74.5138 302.111 75.2184 303.621 76.4881C305.522 78.0897 306.61 80.432 306.61 82.9124V187.272C306.61 190.18 305.123 192.749 302.87 194.257C301.536 195.152 299.935 195.671 298.209 195.671H114.529C114.138 195.671 113.75 195.644 113.371 195.589C109.297 195.023 106.142 191.508 106.142 187.272V82.9124ZM307.748 71.5924C305.621 69.8026 303.03 68.6503 300.298 68.2614C299.607 68.1612 298.911 68.1123 298.209 68.1123H114.529C106.374 68.1123 99.7383 74.7543 99.7383 82.9124L99.7406 187.272C99.7406 191.561 101.572 195.432 104.496 198.136C106.27 199.779 108.44 200.991 110.849 201.613C112.029 201.916 113.261 202.074 114.529 202.074H298.209C298.366 202.074 298.521 202.07 298.671 202.069C299.125 202.056 299.575 202.016 300.018 201.966C300.758 201.874 301.484 201.728 302.191 201.533C302.619 201.412 303.035 201.276 303.443 201.119C303.989 200.916 304.516 200.676 305.029 200.41C305.305 200.266 305.578 200.113 305.846 199.954V199.95C306.65 199.469 307.4 198.91 308.09 198.286C310.027 196.547 311.501 194.31 312.308 191.775C312.471 191.281 312.601 190.772 312.709 190.257C312.799 189.83 312.869 189.397 312.915 188.955C312.977 188.404 313.013 187.84 313.013 187.272V82.9127C313.013 78.5418 311.095 74.4201 307.748 71.5924Z" fill="url(#paint1_linear_4179_5725)"/>
<path fill-rule="evenodd" clip-rule="evenodd" d="M309.808 181.244V187.272C309.808 193.676 304.612 198.875 298.206 198.875H114.529C108.124 198.875 102.938 193.676 102.938 187.272V181.244H309.808Z" fill="#CCD1EC"/>
<path fill-rule="evenodd" clip-rule="evenodd" d="M246.196 230.126H166.553C165.637 230.126 164.895 229.386 164.895 228.468C164.895 227.552 165.634 226.809 166.553 226.809H246.196C247.112 226.809 247.854 227.552 247.854 228.468C247.854 228.748 247.788 229.014 247.664 229.241C247.386 229.766 246.832 230.126 246.196 230.126Z" fill="url(#paint2_linear_4179_5725)"/>
<path fill-rule="evenodd" clip-rule="evenodd" d="M163.351 141.182L164.449 140.864L165.225 143.556L163.365 143.095C163.402 142.458 163.398 141.819 163.351 141.182ZM261.366 135.86H248.147V134.485H261.366V135.86ZM271.492 131.395H248.147V130.022H271.492V131.395ZM283.683 127.361H248.147V125.99H283.683V127.361ZM142.28 92.1781H129.062V90.8027H142.28V92.1781ZM152.408 87.7136H129.062V86.3425H152.408V87.7136H152.408ZM164.593 83.6792H129.062V82.3081H164.592L164.593 83.6792ZM162.499 98.4581L173.487 109.444L171.491 111.517C171.166 111.858 171.023 112.324 171.093 112.789C171.146 113.132 171.298 113.436 171.534 113.657L175.313 117.294C174.289 118.755 173.4 120.306 172.674 121.919L167.404 120.617L167.1 120.584C166.663 120.584 166.245 120.779 165.936 121.136C165.832 121.261 165.684 121.465 165.627 121.734L164.092 127.941C163.988 128.365 164.073 128.807 164.339 129.184C164.549 129.481 164.844 129.684 165.197 129.771L170.284 131.035C170.132 132.793 170.144 134.58 170.321 136.353L166.014 137.597L165.523 135.897C165.365 135.357 164.864 134.982 164.304 134.982L161.838 135.645C161.552 135.073 161.225 134.518 160.869 133.988L162.452 132.339C162.824 131.955 162.893 131.398 162.637 130.858L160.097 128.329C159.627 127.878 158.749 127.901 158.313 128.363L156.781 129.957C156.256 129.607 155.698 129.29 155.118 129.004L155.668 126.791C155.834 126.126 155.424 125.436 154.741 125.256L151.578 124.479L151.321 124.448C151 124.448 150.692 124.572 150.456 124.795L150.366 124.88L149.581 127.556C148.935 127.519 148.29 127.526 147.647 127.568L147.017 125.378C146.874 124.874 146.453 124.535 145.856 124.459L145.767 124.446L142.361 125.393C141.702 125.59 141.315 126.288 141.499 126.962L142.11 129.079C141.544 129.361 140.992 129.687 140.457 130.049L138.797 128.455L138.095 128.146L137.929 128.114C137.592 128.114 137.272 128.25 137.022 128.501L134.775 130.834C134.517 131.124 134.401 131.514 134.462 131.86C134.495 132.149 134.629 132.414 134.829 132.605L136.424 134.132C136.071 134.667 135.752 135.221 135.472 135.802L133.21 135.243L132.953 135.215C132.582 135.215 132.231 135.376 131.973 135.684L131.827 135.884L130.951 139.304C130.866 139.659 130.941 140.031 131.14 140.313C131.314 140.56 131.556 140.735 131.88 140.826L134.022 141.343C133.985 141.982 133.988 142.625 134.03 143.266L131.832 143.903C131.369 144.041 131.014 144.441 130.941 144.927L130.913 145.258L131.86 148.548C131.963 148.909 132.225 149.212 132.544 149.343L133.091 149.467L135.543 148.806C135.833 149.38 136.16 149.936 136.515 150.463L134.933 152.11C134.584 152.473 134.478 153.021 134.69 153.491L134.79 153.686L137.296 156.136C137.536 156.357 137.84 156.469 138.225 156.469H138.227C138.551 156.452 138.85 156.321 139.072 156.09L140.604 154.493C141.133 154.844 141.689 155.163 142.265 155.443L141.72 157.66C141.594 158.155 141.785 158.69 142.199 158.98L142.383 159.102L145.825 159.976L146.057 160.002C146.333 160.002 146.608 159.909 146.827 159.74C147.055 159.564 147.223 159.314 147.292 159.04L147.819 156.896C148.462 156.935 149.105 156.935 149.736 156.882L150.365 159.069C150.497 159.536 150.876 159.883 151.462 159.99L151.558 160.004L155.049 159.049C155.42 158.931 155.714 158.643 155.856 158.266L155.887 157.487L155.272 155.369C155.838 155.088 156.395 154.761 156.925 154.402L158.578 155.988C158.959 156.345 159.503 156.434 159.978 156.219L162.592 153.63C162.942 153.263 163.037 152.726 162.838 152.256L160.957 150.324C161.311 149.793 161.631 149.233 161.911 148.649L164.189 149.211L164.43 149.235C165.02 149.235 165.526 148.837 165.659 148.273L166.144 146.319L166.745 146.825L167.363 146.951L172.795 145.44C173.546 147.048 174.45 148.598 175.489 150.045L171.765 153.905C171.341 154.351 171.223 154.992 171.465 155.544L171.808 156.047L176.408 160.479C176.696 160.755 177.065 160.896 177.552 160.896H177.558C177.942 160.874 178.297 160.708 178.554 160.444L182.193 156.661C183.645 157.686 185.195 158.566 186.812 159.298L185.52 164.517C185.381 165.108 185.602 165.726 186.1 166.097L186.627 166.343L192.883 167.889L193.191 167.923C193.53 167.923 193.846 167.813 194.15 167.58C194.416 167.358 194.597 167.077 194.67 166.773L195.928 161.686C197.694 161.842 199.489 161.834 201.25 161.654L202.739 166.814C202.893 167.359 203.353 167.777 203.974 167.893L204.201 167.909L204.221 167.905V168H246.325V166.769H243.844V165.625L246.325 158.41H243.844V109.097H246.325L243.844 101.884V100.734H246.325V99.513H205.303L203.994 99.1902L203.672 99.1523L203.217 99.2268L203.166 99.0142L202.447 99.7748L202.201 100.302L200.937 105.394C199.171 105.245 197.369 105.251 195.617 105.424L194.128 100.263C194.015 99.8641 193.749 99.5392 193.388 99.3445L193.272 99.1678H192.68L192.254 99.2264L186.106 100.995C185.321 101.229 184.856 102.071 185.077 102.874L186.53 107.902C184.915 108.653 183.373 109.554 181.932 110.594L178.055 106.866L177.791 106.675L177.385 106.5C176.86 106.363 176.277 106.527 175.925 106.91L174.325 108.575L163.178 97.4316L162.752 97.8552V97.2548H129.062V98.4577H162.499V98.4581ZM242.638 158.41H240.157L242.638 165.631V166.769H208.299L210.76 166.083C211.224 165.946 211.581 165.601 211.752 165.14C211.861 164.83 211.877 164.517 211.794 164.203L210.338 159.178C211.942 158.432 213.488 157.528 214.932 156.485L218.81 160.213C219.234 160.615 219.964 160.726 220.429 160.515L220.944 160.167L225.374 155.566L225.469 155.455C225.812 155.024 225.893 154.426 225.68 153.929L225.333 153.42L221.555 149.783C222.575 148.329 223.461 146.779 224.192 145.16L229.459 146.458L229.773 146.495C230.47 146.495 231.076 146.018 231.238 145.345L232.776 139.142C232.979 138.335 232.482 137.512 231.672 137.311L226.581 136.045C226.737 134.286 226.721 132.497 226.547 130.724L231.699 129.235C232.09 129.128 232.417 128.876 232.614 128.52C232.81 128.163 232.859 127.752 232.747 127.361L230.973 121.209C230.743 120.432 229.839 119.968 229.1 120.184L224.072 121.635C223.317 120.026 222.416 118.479 221.376 117.032L225.102 113.172C225.551 112.706 225.632 112.04 225.321 111.391L220.451 106.588C219.879 106.057 218.863 106.075 218.313 106.635L214.676 110.42C213.222 109.396 211.668 108.509 210.053 107.781L211.348 102.562C211.443 102.168 211.378 101.756 211.169 101.418C210.964 101.073 210.634 100.833 210.24 100.734H242.638V101.878L240.157 109.097H242.638V158.41ZM148.694 138.913C149.556 138.913 150.373 139.242 150.994 139.836C151.631 140.451 151.99 141.274 152.008 142.159C152.026 143.047 151.696 143.887 151.077 144.526C149.909 145.751 147.617 145.787 146.394 144.617C145.753 143.998 145.392 143.17 145.377 142.286C145.362 141.402 145.69 140.564 146.305 139.927C146.931 139.272 147.783 138.913 148.694 138.913ZM148.694 136.878C150.086 136.878 151.399 137.41 152.4 138.373C153.428 139.363 154.011 140.692 154.035 142.12C154.065 143.549 153.532 144.905 152.541 145.935C151.523 146.992 150.154 147.572 148.689 147.572C147.301 147.572 145.984 147.041 144.984 146.077C143.955 145.085 143.374 143.751 143.347 142.319C143.323 140.898 143.852 139.548 144.84 138.515C145.862 137.459 147.229 136.878 148.694 136.878ZM160.726 146.268L163.871 147.044L164.278 145.412L161.161 144.641L161.27 143.749C161.396 142.698 161.388 141.633 161.249 140.576L161.136 139.706L164.195 138.825L164.233 138.747L163.779 137.185L160.704 138.088L160.351 137.255C159.931 136.278 159.394 135.357 158.743 134.515L158.209 133.826L160.452 131.495L159.244 130.324L157.017 132.645L156.296 132.095C155.45 131.458 154.524 130.927 153.542 130.52L152.736 130.185L153.513 127.047L151.887 126.641L151.11 129.76L150.217 129.651C149.179 129.523 148.096 129.531 147.039 129.667L146.174 129.777L145.278 126.663L143.659 127.136L144.554 130.217L143.72 130.572C142.752 130.982 141.831 131.519 140.98 132.175L140.288 132.7L137.957 130.46L136.787 131.672L139.106 133.906L138.562 134.623C137.927 135.463 137.395 136.387 136.99 137.376L136.657 138.185L133.511 137.403L133.106 139.034L136.227 139.807L136.115 140.702C135.99 141.753 135.994 142.82 136.138 143.872L136.248 144.74L133.113 145.647L133.596 147.262L136.679 146.361L137.034 147.195C137.456 148.178 137.996 149.102 138.641 149.937L139.172 150.631L136.929 152.964L138.138 154.132L140.371 151.805L141.089 152.355C141.929 152.992 142.856 153.521 143.842 153.929L144.653 154.262L143.868 157.424L145.505 157.815L146.276 154.689L147.168 154.801C148.213 154.93 149.3 154.925 150.339 154.781L151.209 154.665L152.105 157.783L153.722 157.316L152.838 154.229L153.661 153.882C154.643 153.462 155.564 152.92 156.404 152.276L157.098 151.75L159.438 154.004L160.615 152.769L158.278 150.551L158.821 149.829C159.465 148.975 159.992 148.052 160.394 147.077L160.726 146.268ZM204.56 165.813L202.721 159.428L201.854 159.54C199.67 159.82 197.416 159.834 195.276 159.576L194.383 159.467L192.83 165.791L187.605 164.55L189.197 158.108L188.392 157.771C186.36 156.929 184.438 155.827 182.686 154.509L181.968 153.96L177.485 158.702L173.55 154.986L178.154 150.201L177.621 149.511C176.278 147.761 175.16 145.846 174.297 143.828L173.946 142.998L167.71 144.858L166.254 139.984L166.303 139.943L166.341 139.612L172.546 137.823L172.435 136.96C172.148 134.771 172.134 132.557 172.396 130.381L172.501 129.487L166.169 127.976L167.418 122.705L173.866 124.306L174.201 123.497C175.041 121.47 176.142 119.55 177.465 117.789L178.01 117.074L173.274 112.596L174.917 110.876L175.623 111.582L178.97 118.438L180.727 116.683L191.207 127.164C189.605 128.975 188.753 131.29 188.796 133.722C188.846 136.292 189.893 138.696 191.751 140.482C193.552 142.221 195.928 143.177 198.432 143.177C200.814 143.177 203.051 142.327 204.812 140.769L215.597 151.554L213.84 153.308L215.013 153.88L214.398 154.353C212.646 155.702 210.733 156.82 208.719 157.678L207.887 158.033L209.751 164.264L204.56 165.813ZM175.753 110.004L177.014 108.684L181.777 113.256L182.469 112.726C184.222 111.377 186.13 110.266 188.147 109.409L188.978 109.054L187.116 102.819L192.323 101.32L194.15 107.657L195.017 107.545C197.185 107.249 199.435 107.235 201.589 107.501L202.485 107.61L203.993 101.275L208.104 102.298L209.263 102.539L207.67 108.978L208.476 109.308C210.51 110.15 212.431 111.249 214.182 112.572L214.904 113.118L219.383 108.381L223.281 112.134L218.713 116.879L219.247 117.57C220.583 119.31 221.701 121.222 222.569 123.252L222.922 124.081L229.157 122.221L230.709 127.412L224.319 129.252L224.433 130.122C224.723 132.311 224.735 134.519 224.472 136.694L224.36 137.592L230.703 139.099L229.449 144.373L222.997 142.773L222.666 143.583C221.828 145.609 220.727 147.53 219.4 149.289L218.859 150.012L223.602 154.485L221.964 156.216L221.553 155.804L218.204 148.948L216.452 150.7L205.664 139.915C207.266 138.098 208.116 135.787 208.07 133.355C208.021 130.783 206.972 128.382 205.118 126.596C203.313 124.858 200.94 123.901 198.437 123.901C196.055 123.901 193.819 124.753 192.06 126.311L181.578 115.832L183.333 114.077L176.475 110.726L175.753 110.004ZM221.135 157.091L219.875 158.424L215.297 154.021L220.702 156.66L221.135 157.091ZM198.432 141.15C196.459 141.15 194.585 140.394 193.156 139.022C191.692 137.613 190.866 135.718 190.826 133.688C190.789 131.808 191.433 130.018 192.648 128.605L203.372 139.329C201.995 140.505 200.268 141.15 198.432 141.15ZM193.501 127.752C194.873 126.576 196.601 125.935 198.437 125.935C200.414 125.935 202.284 126.688 203.708 128.057C205.173 129.466 206 131.363 206.039 133.393C206.077 135.274 205.433 137.061 204.223 138.475L193.501 127.752Z" fill="white"/>
<path fill-rule="evenodd" clip-rule="evenodd" d="M286.082 90.5112H249.445V89.0977H286.082V90.5112ZM263.074 99.2736H249.445V97.8563H263.074V99.2736ZM273.514 94.6707H249.445V93.2572H273.514V94.6707Z" fill="#CAA3D0"/>
<path d="M102.307 95.0266C121.16 95.0266 136.443 79.7435 136.443 60.891C136.443 42.0384 121.16 26.7554 102.307 26.7554C83.4549 26.7554 68.1719 42.0384 68.1719 60.891C68.1719 79.7435 83.4549 95.0266 102.307 95.0266Z" fill="#12957D"/>
<path fill-rule="evenodd" clip-rule="evenodd" d="M75.0838 66.7785C74.6242 65.6342 74.3711 64.386 74.3711 63.0787C74.3711 57.7189 78.608 53.3523 83.9153 53.1414C84.4251 48.7083 88.192 45.268 92.7609 45.268C94.2084 45.268 95.5739 45.6125 96.7823 46.2257C98.3258 42.022 102.362 39.0215 107.101 39.0215C113.17 39.0215 118.089 43.94 118.089 50.0088C118.089 50.9118 117.979 51.7904 117.773 52.6307C118.398 52.5038 119.046 52.439 119.709 52.439C125.074 52.439 129.423 56.7887 129.423 62.1529C129.423 63.8276 129.001 65.4042 128.254 66.7787H112.248V61.0862H115.546L108.952 49.3796L102.36 61.0862H105.656V66.7787H93.5118V71.8419H96.8074L90.2164 83.5507L83.6224 71.8419H86.9201V66.7787L75.0838 66.7785Z" fill="white"/>
<path d="M352.547 3H248V100.579H352.547V3Z" fill="#12957D"/>
<path d="M352.547 3H248V13.3189H352.547V3Z" fill="#3CB097"/>
<path fill-rule="evenodd" clip-rule="evenodd" d="M329.947 8.27588C329.947 9.32045 329.1 10.1692 328.055 10.1692C327.009 10.1692 326.164 9.32166 326.164 8.27588C326.164 7.2313 327.009 6.38575 328.055 6.38575C329.1 6.38393 329.947 7.2313 329.947 8.27588ZM345.179 8.4749C345.179 9.52129 344.334 10.3664 343.29 10.3664C342.243 10.3664 341.398 9.52144 341.398 8.4749C341.398 7.43032 342.243 6.58357 343.29 6.58357C344.334 6.58341 345.179 7.43032 345.179 8.4749ZM337.846 8.27588C337.846 9.32045 336.999 10.1692 335.955 10.1692C334.91 10.1692 334.063 9.32166 334.063 8.27588C334.063 7.2313 334.91 6.38575 335.955 6.38575C336.999 6.38393 337.846 7.2313 337.846 8.27588Z" fill="white"/>
<path fill-rule="evenodd" clip-rule="evenodd" d="M281.397 24.1573H266.59V22.9131H281.397V24.1573ZM284.842 57.6939H267.317V58.94H284.842L284.842 57.6939ZM308.978 57.6939H291.452V58.94H308.978V57.6939ZM329.134 64.3989H316.636V65.6431H329.134V64.3989ZM308.599 64.3989H296.1V65.6431H308.599V64.3989ZM289.464 64.3989H276.966V65.6431H289.464V64.3989ZM324.466 71.1019H315.227V72.3461H324.466V71.1019ZM312.332 71.1019H279.133V72.3461H312.332V71.1019ZM343.294 77.8069H309.841V79.0511H343.294V77.8069ZM304.624 77.8069H271.168V79.0511H304.624V77.8069ZM329.312 84.5119H312.193V85.7561H329.312V84.5119ZM306.821 84.5119H289.703V85.7561H306.821V84.5119ZM283.708 84.5119H266.59V85.7561H283.708V84.5119ZM305.976 50.9732H294.208V49.7296H305.976V50.9732ZM289.174 50.9732H277.407V49.7296H289.174V50.9732ZM325.201 44.2702H286.966V43.0248H325.201V44.2702ZM328.502 37.5671H295.047V36.3217H328.502V37.5671ZM289.219 37.5671H279.133V36.3217H289.219V37.5671ZM309.599 30.8623H297.928V29.6181H309.599V30.8623ZM294.13 30.8623H271.168V29.6181H294.13V30.8623ZM298.776 24.1573H283.968V22.9131H298.776V24.1573Z" fill="white"/>
<path fill-rule="evenodd" clip-rule="evenodd" d="M258.495 31.4337H256.902V28.1846H258.495V31.4337ZM258.495 86.6351H256.902V85.0424H258.495V86.6351ZM258.495 39.5548H256.902V36.3075H258.495V39.5548ZM258.495 47.6779H256.902V44.4286H258.495V47.6779ZM258.495 55.8009H256.902V52.5516H258.495V55.8009ZM258.495 63.9227H256.902V60.6748H258.495V63.9227ZM258.495 72.0457H256.902V68.7984H258.495V72.0457ZM258.495 80.1688H256.902V76.9195H258.495V80.1688Z" fill="white"/>
<path d="M355.18 198H310V209.825H355.18V198Z" fill="#10957D"/>
<path fill-rule="evenodd" clip-rule="evenodd" d="M313.055 209.827H317.717V211.533H313.055V209.827ZM347.47 209.827H352.132V211.533H347.47V209.827Z" fill="#12957D"/>
<path d="M325.579 199.591H311.555V206.718H325.579V199.591Z" fill="#3CB097"/>
<path fill-rule="evenodd" clip-rule="evenodd" d="M314.207 201.017C314.65 201.017 315.011 201.377 315.011 201.822C315.011 202.264 314.65 202.625 314.207 202.625C313.763 202.625 313.402 202.264 313.402 201.822C313.402 201.377 313.763 201.017 314.207 201.017ZM314.207 203.684C314.65 203.684 315.011 204.045 315.011 204.489C315.011 204.932 314.65 205.292 314.207 205.292C313.763 205.292 313.402 204.932 313.402 204.489C313.402 204.045 313.763 203.684 314.207 203.684ZM322.928 203.684C323.373 203.684 323.733 204.045 323.733 204.489C323.733 204.932 323.373 205.292 322.928 205.292C322.483 205.292 322.125 204.932 322.125 204.489C322.125 204.045 322.483 203.684 322.928 203.684ZM320.02 203.684C320.465 203.684 320.825 204.045 320.825 204.489C320.825 204.932 320.465 205.292 320.02 205.292C319.577 205.292 319.218 204.932 319.218 204.489C319.218 204.045 319.577 203.684 320.02 203.684ZM317.113 203.684C317.558 203.684 317.918 204.045 317.918 204.489C317.918 204.932 317.558 205.292 317.113 205.292C316.67 205.292 316.31 204.932 316.31 204.489C316.31 204.045 316.67 203.684 317.113 203.684ZM322.928 201.017C323.373 201.017 323.733 201.377 323.733 201.822C323.733 202.264 323.373 202.625 322.928 202.625C322.483 202.625 322.125 202.264 322.125 201.822C322.125 201.377 322.483 201.017 322.928 201.017ZM320.02 201.017C320.465 201.017 320.825 201.377 320.825 201.822C320.825 202.264 320.465 202.625 320.02 202.625C319.577 202.625 319.218 202.264 319.218 201.822C319.218 201.377 319.577 201.017 320.02 201.017ZM317.113 201.017C317.558 201.017 317.918 201.377 317.918 201.822C317.918 202.264 317.558 202.625 317.113 202.625C316.67 202.625 316.31 202.264 316.31 201.822C316.31 201.377 316.67 201.017 317.113 201.017Z" fill="white"/>
<path fill-rule="evenodd" clip-rule="evenodd" d="M328.152 199.591H329.65V206.718H328.152V199.591ZM352.125 199.591H353.622V206.718H352.125V199.591ZM349.128 199.591H350.626V206.718H349.128V199.591ZM346.132 199.591H347.629V206.718H346.132V199.591ZM343.134 199.591H344.633V206.718H343.134V199.591ZM340.138 199.591H341.637V206.718H340.138V199.591ZM337.141 199.591H338.64V206.718H337.141V199.591ZM334.145 199.591H335.644V206.718H334.145V199.591ZM331.148 199.591H332.646V206.718H331.148V199.591Z" fill="white"/>
<path d="M355.18 211.532H310V223.356H355.18V211.532Z" fill="#10957D"/>
<path fill-rule="evenodd" clip-rule="evenodd" d="M313.055 223.358H317.717V225.064H313.055V223.358ZM347.47 223.358H352.132V225.064H347.47V223.358Z" fill="#12957D"/>
<path d="M325.579 213.123H311.555V220.249H325.579V213.123Z" fill="#3CB097"/>
<path fill-rule="evenodd" clip-rule="evenodd" d="M314.207 214.548C314.65 214.548 315.011 214.909 315.011 215.352C315.011 215.796 314.65 216.157 314.207 216.157C313.763 216.157 313.402 215.796 313.402 215.352C313.402 214.909 313.763 214.548 314.207 214.548ZM314.207 217.215C314.65 217.215 315.011 217.576 315.011 218.021C315.011 218.464 314.65 218.824 314.207 218.824C313.763 218.824 313.402 218.463 313.402 218.021C313.402 217.576 313.763 217.215 314.207 217.215ZM322.928 217.215C323.373 217.215 323.733 217.576 323.733 218.021C323.733 218.464 323.373 218.824 322.928 218.824C322.483 218.824 322.125 218.463 322.125 218.021C322.125 217.576 322.483 217.215 322.928 217.215ZM320.02 217.215C320.465 217.215 320.825 217.576 320.825 218.021C320.825 218.464 320.465 218.824 320.02 218.824C319.577 218.824 319.218 218.463 319.218 218.021C319.218 217.576 319.577 217.215 320.02 217.215ZM317.113 217.215C317.558 217.215 317.918 217.576 317.918 218.021C317.918 218.464 317.558 218.824 317.113 218.824C316.67 218.824 316.31 218.463 316.31 218.021C316.31 217.576 316.67 217.215 317.113 217.215ZM322.928 214.548C323.373 214.548 323.733 214.909 323.733 215.352C323.733 215.796 323.373 216.157 322.928 216.157C322.483 216.157 322.125 215.796 322.125 215.352C322.125 214.909 322.483 214.548 322.928 214.548ZM320.02 214.548C320.465 214.548 320.825 214.909 320.825 215.352C320.825 215.796 320.465 216.157 320.02 216.157C319.577 216.157 319.218 215.796 319.218 215.352C319.218 214.909 319.577 214.548 320.02 214.548ZM317.113 214.548C317.558 214.548 317.918 214.909 317.918 215.352C317.918 215.796 317.558 216.157 317.113 216.157C316.67 216.157 316.31 215.796 316.31 215.352C316.31 214.909 316.67 214.548 317.113 214.548Z" fill="white"/>
<path fill-rule="evenodd" clip-rule="evenodd" d="M328.152 213.123H329.65V220.249H328.152V213.123ZM352.125 213.123H353.622V220.249H352.125V213.123ZM349.128 213.123H350.626V220.249H349.128V213.123ZM346.132 213.123H347.629V220.249H346.132V213.123ZM343.134 213.123H344.633V220.249H343.134V213.123ZM340.138 213.123H341.637V220.249H340.138V213.123ZM337.141 213.123H338.64V220.249H337.141V213.123ZM334.145 213.123H335.644V220.249H334.145V213.123ZM331.148 213.123H332.646V220.249H331.148V213.123Z" fill="white"/>
<path d="M355.18 225.062H310V236.888H355.18V225.062Z" fill="#10957D"/>
<path fill-rule="evenodd" clip-rule="evenodd" d="M313.055 236.89H317.717V238.596H313.055V236.89ZM347.47 236.89H352.132V238.596H347.47V236.89Z" fill="#12957D"/>
<path d="M325.579 226.654H311.555V233.78H325.579V226.654Z" fill="#3CB097"/>
<path fill-rule="evenodd" clip-rule="evenodd" d="M314.207 228.08C314.65 228.08 315.011 228.44 315.011 228.883C315.011 229.327 314.65 229.687 314.207 229.687C313.763 229.687 313.402 229.327 313.402 228.883C313.402 228.44 313.763 228.08 314.207 228.08ZM314.207 230.747C314.65 230.747 315.011 231.107 315.011 231.552C315.011 231.995 314.65 232.355 314.207 232.355C313.763 232.355 313.402 231.995 313.402 231.552C313.402 231.107 313.763 230.747 314.207 230.747ZM322.928 230.747C323.373 230.747 323.733 231.107 323.733 231.552C323.733 231.995 323.373 232.355 322.928 232.355C322.483 232.355 322.125 231.995 322.125 231.552C322.125 231.107 322.483 230.747 322.928 230.747ZM320.02 230.747C320.465 230.747 320.825 231.107 320.825 231.552C320.825 231.995 320.465 232.355 320.02 232.355C319.577 232.355 319.218 231.995 319.218 231.552C319.218 231.107 319.577 230.747 320.02 230.747ZM317.113 230.747C317.558 230.747 317.918 231.107 317.918 231.552C317.918 231.995 317.558 232.355 317.113 232.355C316.67 232.355 316.31 231.995 316.31 231.552C316.31 231.107 316.67 230.747 317.113 230.747ZM322.928 228.08C323.373 228.08 323.733 228.44 323.733 228.883C323.733 229.327 323.373 229.687 322.928 229.687C322.483 229.687 322.125 229.327 322.125 228.883C322.125 228.44 322.483 228.08 322.928 228.08ZM320.02 228.08C320.465 228.08 320.825 228.44 320.825 228.883C320.825 229.327 320.465 229.687 320.02 229.687C319.577 229.687 319.218 229.327 319.218 228.883C319.218 228.44 319.577 228.08 320.02 228.08ZM317.113 228.08C317.558 228.08 317.918 228.44 317.918 228.883C317.918 229.327 317.558 229.687 317.113 229.687C316.67 229.687 316.31 229.327 316.31 228.883C316.31 228.44 316.67 228.08 317.113 228.08Z" fill="white"/>
<path fill-rule="evenodd" clip-rule="evenodd" d="M328.152 226.654H329.65V233.78H328.152V226.654ZM352.125 226.654H353.622V233.78H352.125V226.654ZM349.128 226.654H350.626V233.78H349.128V226.654ZM346.132 226.654H347.629V233.78H346.132V226.654ZM343.134 226.654H344.633V233.78H343.134V226.654ZM340.138 226.654H341.637V233.78H340.138V226.654ZM337.141 226.654H338.64V233.78H337.141V226.654ZM334.145 226.654H335.644V233.78H334.145V226.654ZM331.148 226.654H332.646V233.78H331.148V226.654Z" fill="white"/>
<path d="M355.18 238.594H310V250.418H355.18V238.594Z" fill="#10957D"/>
<path fill-rule="evenodd" clip-rule="evenodd" d="M313.055 250.42H317.717V252.126H313.055V250.42ZM347.47 250.42H352.132V252.126H347.47V250.42Z" fill="#12957D"/>
<path d="M325.579 240.185H311.555V247.311H325.579V240.185Z" fill="#3CB097"/>
<path fill-rule="evenodd" clip-rule="evenodd" d="M314.207 241.61C314.65 241.61 315.011 241.97 315.011 242.413C315.011 242.858 314.65 243.218 314.207 243.218C313.763 243.218 313.402 242.858 313.402 242.413C313.402 241.97 313.763 241.61 314.207 241.61ZM314.207 244.277C314.65 244.277 315.011 244.637 315.011 245.08C315.011 245.525 314.65 245.885 314.207 245.885C313.763 245.885 313.402 245.525 313.402 245.08C313.402 244.637 313.763 244.277 314.207 244.277ZM322.928 244.277C323.373 244.277 323.733 244.637 323.733 245.08C323.733 245.525 323.373 245.885 322.928 245.885C322.483 245.885 322.125 245.525 322.125 245.08C322.125 244.637 322.483 244.277 322.928 244.277ZM320.02 244.277C320.465 244.277 320.825 244.637 320.825 245.08C320.825 245.525 320.465 245.885 320.02 245.885C319.577 245.885 319.218 245.525 319.218 245.08C319.218 244.637 319.577 244.277 320.02 244.277ZM317.113 244.277C317.558 244.277 317.918 244.637 317.918 245.08C317.918 245.525 317.558 245.885 317.113 245.885C316.67 245.885 316.31 245.525 316.31 245.08C316.31 244.637 316.67 244.277 317.113 244.277ZM322.928 241.61C323.373 241.61 323.733 241.97 323.733 242.413C323.733 242.858 323.373 243.218 322.928 243.218C322.483 243.218 322.125 242.858 322.125 242.413C322.125 241.97 322.483 241.61 322.928 241.61ZM320.02 241.61C320.465 241.61 320.825 241.97 320.825 242.413C320.825 242.858 320.465 243.218 320.02 243.218C319.577 243.218 319.218 242.858 319.218 242.413C319.218 241.97 319.577 241.61 320.02 241.61ZM317.113 241.61C317.558 241.61 317.918 241.97 317.918 242.413C317.918 242.858 317.558 243.218 317.113 243.218C316.67 243.218 316.31 242.858 316.31 242.413C316.31 241.97 316.67 241.61 317.113 241.61Z" fill="white"/>
<path fill-rule="evenodd" clip-rule="evenodd" d="M328.152 240.185H329.65V247.311H328.152V240.185ZM352.125 240.185H353.622V247.311H352.125V240.185ZM349.128 240.185H350.626V247.311H349.128V240.185ZM346.132 240.185H347.629V247.311H346.132V240.185ZM343.134 240.185H344.633V247.311H343.134V240.185ZM340.138 240.185H341.637V247.311H340.138V240.185ZM337.141 240.185H338.64V247.311H337.141V240.185ZM334.145 240.185H335.644V247.311H334.145V240.185ZM331.148 240.185H332.646V247.311H331.148V240.185Z" fill="white"/>
<path fill-rule="evenodd" clip-rule="evenodd" d="M151.281 141.271C154.423 144.487 155.516 147.028 154.561 148.891C149.874 149.858 144.366 148.17 138.035 143.822C144.349 140.991 148.763 140.139 151.281 141.271Z" fill="#890022"/>
<path fill-rule="evenodd" clip-rule="evenodd" d="M113.582 248.147C113.209 250.201 111.525 252.254 113.206 253.563C115.812 255.117 119.183 254.04 121.377 252.208C122.495 251.278 126.651 250.201 127.59 248.891C129.144 247.586 129.74 244.957 128.052 244.642C125.722 244.211 123.67 246.07 117.571 244.681L113.582 248.147Z" fill="#400010"/>
<path fill-rule="evenodd" clip-rule="evenodd" d="M133.659 247.182C132.105 249.863 130.969 251.219 131.452 253.243C131.944 255.257 134.42 255.667 137.195 255.019C138.841 254.636 140.771 253.496 142.515 253.824C148.447 253.693 151.648 249.279 148.666 248.362C145.688 247.44 143.438 248.249 142.311 246.808C141.189 245.372 133.659 247.182 133.659 247.182Z" fill="#400010"/>
<path fill-rule="evenodd" clip-rule="evenodd" d="M135.368 157.708C136.654 163.704 135.527 168.656 135.096 172.086C134.669 175.513 129.175 202.423 129.012 203.963C128.586 208.035 128.153 210.628 126.869 214.482C125.583 218.342 124.533 244.015 124.961 247.016C124.715 250.06 115.221 255.124 111.657 251.895C111.657 251.895 111.513 225.827 115.913 210.352C117.134 194.923 116.676 184.587 117.586 180.311C117.887 178.882 115.124 165.962 120.164 158.848C124.136 153.238 135.368 157.708 135.368 157.708Z" fill="#005143"/>
<path fill-rule="evenodd" clip-rule="evenodd" d="M145.69 160.523C146.974 166.518 147.144 173.083 147.022 176.535C146.798 182.981 145.629 204.95 145.464 206.481C145.037 210.552 144.974 211.523 143.689 215.379C142.404 219.233 143.188 244.395 143.617 247.396C145.01 251.501 132.536 254.165 130.417 252.721C130.417 252.721 127.836 232.136 131.693 211.567C131.795 202.967 132.379 196.005 131.423 190.483C130.204 183.437 125.9 175.469 126.143 171.533C126.574 164.681 145.69 160.523 145.69 160.523Z" fill="#005143"/>
<path fill-rule="evenodd" clip-rule="evenodd" d="M129.468 107.355C125.652 106.868 124.778 100.853 126.971 101.613C124.535 89.9496 138.463 88.2181 141.823 97.1477C142.221 99.0445 142.405 100.611 142.294 101.466C142.147 102.599 141.666 102.357 141.913 103.292C142.424 105.241 142.501 105.715 141.077 108.693C140.633 109.618 140.704 110.736 140.027 111.598C139.163 112.691 136.923 112.585 134.928 111.968C130.273 110.525 131.3 109.898 129.468 107.355Z" fill="#FBAA8C"/>
<path fill-rule="evenodd" clip-rule="evenodd" d="M128.002 102.493C128.483 104.057 128.446 109.817 127.844 112.242C127.256 114.668 124.332 117.95 124.332 117.95L137.917 120.508C137.917 120.508 136.734 111.32 139.26 109.572C140.824 108.497 128.002 102.493 128.002 102.493Z" fill="#FBAA8C"/>
<path fill-rule="evenodd" clip-rule="evenodd" d="M141.964 97.8505C141.692 92.6766 133.606 86.357 126.399 91.7294C125.845 92.2799 126.006 91.9345 125.583 92.4237C123.766 92.6745 120.79 98.0977 124.448 104.005C126.177 106.049 127.457 109.453 127.196 110.328C127.71 111.235 134.308 111.379 135.368 110.559L136.924 106.546C136.067 104.066 135.858 102.088 137.121 101.245L138.574 103.233L139.476 103.738C140.111 103.771 140.262 103.384 140.223 102.577C140.223 102.577 139.683 99.1744 139.744 97.8928C139.825 96.1122 141.964 97.8505 141.964 97.8505Z" fill="#400010"/>
<path fill-rule="evenodd" clip-rule="evenodd" d="M126.277 113.042C124.125 114.252 122.17 115.559 117.728 118.763C117.728 118.763 116.087 119.303 115.804 119.985C112.011 129.082 116.461 131.758 117.072 135.311C118.283 142.319 118.914 148.33 118.017 153.367C116.499 161.866 114.686 173.245 114.999 174.418C115.123 174.897 128.511 178.199 136.66 176.986C143.98 175.899 149.441 174.493 149.896 174.115C149.16 167.535 147.088 155.891 146.86 151.43C146.514 144.752 147.82 140.646 148.116 137.654C148.418 134.661 147.328 130.528 147.665 129.907C148.577 128.23 147.529 119.462 147.529 119.462C147.529 119.462 143.746 117.536 138.348 114.501C137.031 113.754 133.721 114.832 133.721 114.832L126.277 113.042Z" fill="#00856E"/>
<path fill-rule="evenodd" clip-rule="evenodd" d="M125.905 111.933L123.852 114.582C123.852 114.582 128.467 114.375 131.115 114.624C135.345 115.021 139.758 115.572 139.758 115.572L138.802 112.891C138.802 112.891 137.085 112.159 130.91 111.772C129.201 111.665 125.905 111.933 125.905 111.933Z" fill="#10957D"/>
<path fill-rule="evenodd" clip-rule="evenodd" d="M127.66 92.7513C128.71 92.0549 131.857 92.5823 132.47 94.0232C133.148 95.6271 132.295 92.7513 132.295 92.7513C132.295 92.7513 133.556 93.3245 133.556 95.0745C135.132 94.0232 134.037 93.1903 134.037 93.1903L135.089 95.1122L136.312 94.2402C136.312 94.2402 139.108 95.5542 137.886 97.1241C141.293 95.4619 138.758 93.8035 138.758 93.8035C138.758 93.8035 141.381 95.0245 141.964 97.85C143.19 95.5792 141.554 92.7388 137.886 91.1785C135.001 89.9575 134.036 90.5683 134.036 90.5683C134.036 90.5683 129.492 90.0453 126.608 92.6679C125.512 93.6654 125.059 94.4872 125.059 94.4872L127.66 92.7513Z" fill="#400010"/>
<path fill-rule="evenodd" clip-rule="evenodd" d="M138.374 101.585C137.253 100.107 135.973 102.041 137.023 104.312C138.213 106.451 137.354 106.874 138.226 106.175C139.103 105.469 139.294 102.867 138.374 101.585Z" fill="#FBAA8C"/>
<path fill-rule="evenodd" clip-rule="evenodd" d="M126.905 162.541C126.905 163.758 123.996 176.523 123.996 176.523L125.703 176.763L126.905 162.541Z" fill="#10957D"/>
<path fill-rule="evenodd" clip-rule="evenodd" d="M145.598 118.456C149.795 118.476 151.221 123.455 152.719 129.209C153.712 133.011 155.168 135.459 155.678 136.549C160.414 145.246 157.32 147.409 155.693 148.367C149.544 152.003 146.033 141.489 144.893 136.769C142.767 127.964 145.598 118.456 145.598 118.456Z" fill="#10957D"/>
<path fill-rule="evenodd" clip-rule="evenodd" d="M137.268 102.631C137.241 102.378 137.27 102.152 137.333 101.977C137.396 101.801 137.494 101.676 137.605 101.627C137.753 101.577 137.916 101.623 138.075 101.742C138.234 101.859 138.391 102.052 138.522 102.296C138.656 102.558 138.736 102.796 138.788 103.055C138.838 103.315 138.859 103.597 138.851 103.946C138.807 104.45 138.997 104.748 139.198 104.773C139.198 104.773 139.365 104.913 139.242 105.155C139.148 105.398 139.002 105.057 138.834 105.105C138.75 105.128 138.648 105.203 138.519 105.214C138.384 105.226 138.219 105.174 138.01 104.942C137.795 104.71 137.655 104.37 137.542 104.013C137.427 103.651 137.347 103.269 137.301 102.941C137.291 102.836 137.281 102.733 137.268 102.631Z" fill="#FF947B"/>
<path fill-rule="evenodd" clip-rule="evenodd" d="M138.533 104.743C138.481 104.51 138.527 104.134 138.587 103.883C138.64 103.607 138.763 103.434 138.602 103.141C138.497 102.953 138.324 103.032 138.259 103.207C138.188 103.398 138.173 103.64 138.188 103.896C138.192 104.021 138.201 104.146 138.209 104.268C138.213 104.324 138.236 104.448 138.217 104.502C138.182 104.611 138.163 104.42 138.157 104.362C138.132 104.166 138.117 103.929 138.121 103.72C138.109 103.36 138.236 103.13 138.188 102.773C138.134 102.367 137.983 102.132 137.818 102.051C137.655 101.972 137.475 102.047 137.364 102.265C137.314 102.495 137.304 102.789 137.312 103.076C137.307 103.053 137.306 103.03 137.302 103.009C137.291 102.901 137.279 102.791 137.268 102.683C137.241 102.419 137.27 102.183 137.335 101.997C137.4 101.813 137.5 101.681 137.613 101.633C137.766 101.579 137.933 101.627 138.098 101.752C138.261 101.876 138.422 102.079 138.558 102.333C138.697 102.608 138.776 102.858 138.83 103.13C138.883 103.402 138.897 103.697 138.876 104.065C138.836 104.45 138.926 104.72 139.058 104.85C138.872 105.119 138.627 105.14 138.533 104.743Z" fill="#FF8B72"/>
<path fill-rule="evenodd" clip-rule="evenodd" d="M137.996 105.078C137.793 104.858 137.655 104.547 137.542 104.212C137.429 103.876 137.343 103.513 137.289 103.185C137.542 104.091 137.843 104.615 138.094 104.921C138.343 105.222 138.573 105.308 138.663 105.331C138.588 105.36 138.495 105.379 138.385 105.35C138.276 105.32 138.146 105.241 137.996 105.078Z" fill="#FF7760"/>
<path fill-rule="evenodd" clip-rule="evenodd" d="M137.27 102.752C137.242 102.497 137.264 102.269 137.319 102.087C137.375 101.905 137.467 101.767 137.578 101.694C137.708 101.611 137.858 101.634 138.004 101.719C138.151 101.805 138.297 101.954 138.419 102.115C138.55 102.292 138.657 102.508 138.741 102.751C138.824 102.992 138.885 103.265 138.916 103.551C138.927 103.877 138.862 104.21 138.916 104.497C138.961 104.76 139.096 104.883 139.222 104.919C139.234 104.923 139.226 104.973 139.212 104.973C139.042 104.963 138.858 104.768 138.837 104.373C138.818 104.132 138.86 103.863 138.858 103.61C138.833 103.321 138.778 103.043 138.686 102.786C138.592 102.516 138.465 102.29 138.323 102.121C138.182 101.949 138.026 101.832 137.876 101.78C137.708 101.721 137.545 101.786 137.428 101.955C137.313 102.123 137.246 102.395 137.271 102.751C137.272 102.754 137.27 102.754 137.27 102.752Z" fill="#FF7760"/>
<path fill-rule="evenodd" clip-rule="evenodd" d="M136.784 107.104C137.681 107.504 139.305 106.224 138.669 106.322C138.032 106.424 137.864 106.228 137.699 106.05C137.392 105.715 137.371 105.433 137.022 104.312C136.391 102.942 136.604 101.694 137.12 101.245C135.857 102.087 136.066 104.066 136.923 106.545L136.784 107.104Z" fill="#EC9A7D"/>
<path fill-rule="evenodd" clip-rule="evenodd" d="M217.617 118.574C218.303 116.295 219.33 114.676 220.7 113.718C224.497 112.84 228.298 113.016 232.099 114.247C234.326 115.968 234.939 117.784 233.938 119.695C224.966 120.716 219.525 120.343 217.617 118.574Z" fill="#00856E"/>
<path fill-rule="evenodd" clip-rule="evenodd" d="M239.638 248.424C243.29 249.631 246.564 249.69 245.874 246.791C245.681 245.147 245.6 243.828 245.585 240.58C242.959 239.206 241.008 239.127 239.031 240.802C239.627 244.897 239.573 246.156 239.638 248.424Z" fill="#FBAA8C"/>
<path fill-rule="evenodd" clip-rule="evenodd" d="M238.496 252.183C238.521 252.607 238.506 253.063 238.592 253.531C238.985 254.337 239.91 254.859 241.008 255.301C243.517 256.307 247.003 256.064 248.651 254.699C249.331 254.134 249.77 253.494 249.632 252.622C249.6 252.461 249.351 252.088 249.299 251.905C249.109 252.378 248.845 252.819 248.54 253.151C247.576 254.201 246.267 254.642 244.709 254.724C243.429 254.776 242.116 254.473 240.918 253.965C240.003 253.578 239.146 252.869 238.496 252.183Z" fill="#400010"/>
<path fill-rule="evenodd" clip-rule="evenodd" d="M239.024 248.334C238.804 249.483 238.537 250.643 238.508 252.002C239.139 252.872 240.072 253.546 241.132 253.996C242.255 254.472 243.52 254.698 244.723 254.65C245.913 254.6 247.036 254.28 247.889 253.665C248.508 253.217 248.989 252.609 249.246 251.831C248.698 250.283 247.764 248.429 247.03 247.628C246.76 246.854 246.387 246.247 245.955 245.785C243.656 243.345 239.164 245.039 239.024 248.334Z" fill="#400010"/>
<path fill-rule="evenodd" clip-rule="evenodd" d="M238.509 252.002C238.465 252.059 238.461 252.117 238.497 252.182C239.147 252.868 240.004 253.577 240.918 253.964C242.116 254.472 243.429 254.775 244.709 254.723C246.268 254.642 247.577 254.2 248.54 253.15C248.846 252.818 249.109 252.377 249.3 251.904C249.297 251.866 249.279 251.843 249.247 251.831C248.991 252.609 248.509 253.217 247.891 253.665C247.037 254.28 245.914 254.6 244.724 254.65C243.522 254.698 242.256 254.472 241.134 253.996C240.074 253.546 239.141 252.872 238.509 252.002Z" fill="white"/>
<path fill-rule="evenodd" clip-rule="evenodd" d="M238.28 157.762C241.177 162.534 243.494 206.181 243.793 210.696C244.129 215.941 245.462 227.51 246.779 235.53C247.344 238.968 247.96 245.99 247.96 245.754C245.353 249.09 242.179 245.361 238.655 247.812C237.682 248.492 237.088 244.445 236.804 242.839C233.427 223.557 232.653 211.217 233.086 213.473L223.288 177.334L221.852 156.25L238.28 157.762Z" fill="#005143"/>
<path fill-rule="evenodd" clip-rule="evenodd" d="M191.114 147.538C190.765 147.971 190.437 148.342 189.213 148.773C187.99 149.203 186.806 149.766 185.771 150.299C185.409 150.485 185.095 150.728 184.746 150.84C184.371 151.121 183.286 151.945 183.04 152.181C182.74 152.467 182.456 152.505 181.866 152.955C181.274 153.404 180.559 154 180.323 153.892C180.087 153.783 180.151 153.31 180.362 152.963C180.573 152.616 181.676 151.872 182.191 151.267C182.5 150.905 182.77 150.545 182.937 150.316C182.194 149.925 181.429 149.507 181.429 149.507L180.823 148.532L181.402 148.25C181.996 147.984 181.887 148.193 182.324 147.51C182.765 146.827 182.979 146.742 182.724 146.284C182.467 145.826 181.525 145.466 180.875 144.79C180.225 144.115 179.813 143.394 180.118 143.136C180.422 142.88 180.534 142.829 181.251 143.291C181.969 143.755 183.153 144.82 183.738 144.987C184.321 145.153 184.827 144.827 185.67 145.22C186.511 145.612 187.052 145.88 187.052 145.88C187.052 145.88 187.471 146.062 188.014 145.684C188.556 145.303 189.117 145.015 189.117 145.015C189.117 145.015 189.631 144.977 190.206 145.423C191.045 146.068 191.461 147.104 191.114 147.538Z" fill="#FBAA8C"/>
<path fill-rule="evenodd" clip-rule="evenodd" d="M176.455 147.636C176.281 147.445 176.7 147.249 177.003 147.287C177.768 147.385 179.567 148.753 179.567 148.753C180.133 148.908 179.726 150.075 179.726 150.075C179.726 150.075 177.141 148.391 176.455 147.636Z" fill="#FBAA8C"/>
<path fill-rule="evenodd" clip-rule="evenodd" d="M179.107 148.981C178.862 148.722 178.113 147.941 177.825 147.228C177.536 146.515 177.254 145.676 177.522 145.626C177.789 145.576 178.213 145.635 178.536 146.034C178.855 146.434 179.41 147.742 179.41 147.742C179.981 148.156 181.054 148.474 181.054 148.474C181.054 148.474 181.626 149.228 181.635 149.441C181.646 149.654 181.562 149.7 181.242 149.792C180.922 149.882 179.916 149.842 179.107 148.981Z" fill="#FBAA8C"/>
<path fill-rule="evenodd" clip-rule="evenodd" d="M181.505 149.305C181.405 149.117 180.873 148.683 180.873 148.683C180.873 148.683 179.801 148.421 179.23 148.007C179.23 148.007 179.288 147.631 178.462 146.284C178.222 145.89 177.705 145.774 177.438 145.797C177.439 145.74 177.446 145.627 177.533 145.611C177.799 145.561 178.226 145.617 178.546 146.018C178.867 146.418 179.422 147.724 179.422 147.724C179.992 148.139 181.066 148.458 181.066 148.458C181.066 148.458 181.636 149.209 181.647 149.423C181.653 149.582 181.568 149.427 181.505 149.305Z" fill="#EC9A7D"/>
<path fill-rule="evenodd" clip-rule="evenodd" d="M176.958 148.678C176.799 148.511 176.975 148.199 177.295 148.184C177.613 148.17 178.272 148.567 178.972 148.941C179.673 149.316 179.838 149.454 180.281 149.447C180.825 149.439 181.375 149.267 181.703 149.332C182.548 149.495 183.163 150.483 183.163 150.483C183.228 150.657 181.241 151.108 180.344 150.755C179.448 150.404 177.496 149.254 176.958 148.678Z" fill="#FBAA8C"/>
<path fill-rule="evenodd" clip-rule="evenodd" d="M181.596 149.628C181.27 149.565 180.432 149.849 180.342 149.851C180.081 149.854 179.588 149.517 178.888 149.142C178.187 148.768 177.588 148.388 177.267 148.402C177.144 148.408 176.964 148.457 176.894 148.526C176.855 148.383 176.979 148.18 177.267 148.166C177.588 148.154 178.246 148.551 178.947 148.925C179.647 149.299 179.811 149.437 180.254 149.429C180.797 149.42 181.347 149.252 181.676 149.314C182.521 149.477 182.913 150.132 182.913 150.132C182.926 150.169 182.947 150.213 182.912 150.209C182.69 149.916 182.215 149.747 181.596 149.628Z" fill="#EC9A7D"/>
<path fill-rule="evenodd" clip-rule="evenodd" d="M177.551 147.703C177.309 147.557 177.003 147.503 176.717 147.482C176.602 147.471 176.537 147.53 176.437 147.563L176.428 147.578C176.367 147.457 176.522 147.346 176.62 147.313C177.135 147.139 178.007 147.57 178.061 147.683C178.118 147.798 178.4 148.315 178.465 148.425C178.409 148.407 178.161 148.072 177.551 147.703Z" fill="#EC9A7D"/>
<path fill-rule="evenodd" clip-rule="evenodd" d="M189.245 148.755C188.021 149.186 186.837 149.747 185.802 150.279C185.441 150.466 185.127 150.71 184.777 150.822C184.403 151.104 183.318 151.928 183.071 152.164C182.993 152.239 182.916 152.296 182.833 152.35C182.83 152.336 182.828 152.325 182.828 152.321L182.891 152.285C182.998 152.07 183.263 151.903 183.429 151.723C183.644 151.491 183.857 151.267 184.026 150.988C184.085 150.895 184.15 150.71 184.225 150.64C184.307 150.562 184.449 150.547 184.557 150.502C184.825 150.391 185.083 150.242 185.342 150.104C185.986 149.761 186.666 149.479 187.291 149.094C187.774 148.795 188.167 148.488 188.41 147.976C188.627 147.85 188.377 148.655 188.64 148.711C188.866 148.76 189.232 148.502 189.455 148.458C189.579 148.435 189.987 148.295 190.016 148.437C189.807 148.54 189.554 148.645 189.245 148.755Z" fill="#EC9A7D"/>
<path fill-rule="evenodd" clip-rule="evenodd" d="M183.822 149.337C183.596 149.184 183.529 148.896 183.278 148.791C182.891 148.632 182.404 148.53 182.145 148.212L182.184 148.239C182.527 148.471 182.929 148.43 183.276 148.618C183.489 148.733 183.655 148.929 183.858 149.071C184.026 149.191 184.211 149.214 184.384 149.297C184.288 149.525 183.976 149.444 183.822 149.337Z" fill="#EC9A7D"/>
<path fill-rule="evenodd" clip-rule="evenodd" d="M185.797 145.269C185.805 145.277 185.816 145.283 185.826 145.289C185.817 145.287 185.807 145.283 185.799 145.281C185.795 145.275 185.78 145.27 185.797 145.269Z" fill="#E7A778"/>
<path fill-rule="evenodd" clip-rule="evenodd" d="M187.836 146.71C187.777 146.664 187.767 146.56 187.712 146.498C187.653 146.434 187.568 146.38 187.497 146.327C187.3 146.179 187.087 146.072 186.874 145.964C186.705 145.876 186.537 145.789 186.372 145.7C186.211 145.612 186.097 145.493 185.966 145.386C185.924 145.351 185.874 145.321 185.828 145.29C185.987 145.336 186.106 145.416 186.252 145.516C186.43 145.638 186.629 145.679 186.826 145.752C187.204 145.894 187.645 145.991 187.821 146.415C187.855 146.495 187.896 146.636 187.836 146.71Z" fill="#EC9A7D"/>
<path fill-rule="evenodd" clip-rule="evenodd" d="M185.797 145.28C185.798 145.282 185.8 145.282 185.805 145.282C185.805 145.283 185.805 145.283 185.805 145.285L185.797 145.28Z" fill="#E7A778"/>
<path fill-rule="evenodd" clip-rule="evenodd" d="M189.784 143.749C188.967 144.376 187.617 145.092 187.199 145.493C187.304 146.223 189.872 149.101 190.424 149.619C191.398 149.295 192.825 148.628 193.187 148.22C192.461 146.664 190.945 145.713 190.075 144.421C189.799 144.008 189.826 143.943 189.784 143.749Z" fill="#EFE5F0"/>
<path fill-rule="evenodd" clip-rule="evenodd" d="M206.754 130.821C207.178 132.093 207.805 133.274 208.274 134.522C208.318 134.637 210.453 131.973 210.535 132.054C211.547 133.104 209.824 137.143 209.566 138.58C209.523 138.831 209.414 139.18 209.285 139.397C208.017 141.518 196.397 147.145 193.773 148.475C193.508 148.61 193.368 148.561 193.182 148.327C192.638 147.639 189.542 144.134 189.486 143.942C189.301 143.437 189.484 143.352 189.719 143.197C191.985 141.717 193.606 140.583 195.879 139.109C197.866 137.822 199.842 136.519 201.812 135.206C202.49 134.752 202.734 134.169 202.939 133.499C203.36 132.126 203.746 130.741 204.146 129.361C204.673 127.548 205.162 125.722 205.74 123.923C206.047 122.966 206.333 122 206.754 121.073C207.203 120.076 207.611 119.471 208.751 118.842C209.042 119.005 208.764 119.605 208.705 119.673C207.659 120.846 206.752 121.4 206.336 122.933C206.208 123.405 205.982 123.861 206.041 124.373C205.903 124.605 206.068 124.877 205.94 125.11C205.94 127.285 206.03 128.652 206.754 130.821Z" fill="#00856E"/>
<path fill-rule="evenodd" clip-rule="evenodd" d="M219.93 240.073C221.017 238.682 223.313 238.562 226.814 239.715C226.783 243.08 227.061 245.28 227.648 246.315C222.46 247.72 219.76 247.3 219.547 245.052C220.051 243.253 220.178 241.72 219.93 240.073Z" fill="#FBAA8C"/>
<path fill-rule="evenodd" clip-rule="evenodd" d="M222.082 253.439L222.838 253.606L228.417 252.13V250.536C223.546 252.144 219.258 253.167 215.585 253.522C212.09 253.861 209.15 253.598 206.785 252.663C206.813 252.966 206.86 253.286 206.933 253.621C210.294 255.049 215.355 254.934 222.082 253.439Z" fill="#400010"/>
<path fill-rule="evenodd" clip-rule="evenodd" d="M222.504 244.26C223.945 246.425 225.626 246.718 227.548 245.139C228.341 246.726 228.667 248.439 228.494 250.43C223.554 252.074 219.227 253.096 215.536 253.454C212.016 253.795 209.081 253.535 206.766 252.556C206.918 250.528 209.549 249.997 213.012 249.251C217.249 248.284 218.134 245.066 219.372 243.886C220.856 243.621 221.9 243.746 222.504 244.26Z" fill="#400010"/>
<path fill-rule="evenodd" clip-rule="evenodd" d="M206.788 252.664C206.74 252.629 206.734 252.593 206.766 252.557C209.081 253.536 212.016 253.796 215.536 253.454C219.227 253.097 223.554 252.074 228.494 250.431C228.504 250.481 228.479 250.516 228.42 250.537C223.549 252.145 219.261 253.168 215.588 253.523C212.094 253.862 209.154 253.599 206.788 252.664Z" fill="white"/>
<path fill-rule="evenodd" clip-rule="evenodd" d="M214.496 157.574C212.261 162.679 210.59 163.954 211.604 172.221C211.604 180.651 214.668 201.447 215.245 207.768C215.415 209.64 217.633 241.996 217.633 244.528C217.633 247.053 226.973 247.013 228.52 245.754C229.277 245.127 228.046 233.382 228.079 232.341C228.32 224.729 228.422 215.454 227.619 209.117C227.082 204.933 228.012 185.392 228.012 182.019C228.012 178.647 226.854 158.419 226.854 158.419L214.496 157.574Z" fill="#005143"/>
<path fill-rule="evenodd" clip-rule="evenodd" d="M230.097 106.641C230.145 113.412 229.709 113.206 234.983 117.112C234.983 117.112 229.822 128.906 226.748 130.015C223.672 131.14 215.414 121.01 215.493 118.888C215.51 118.062 221.453 115.872 221.976 113.462C222.549 110.815 222.191 107.037 222.191 107.037L230.097 106.641Z" fill="#FBAA8C"/>
<path fill-rule="evenodd" clip-rule="evenodd" d="M236.204 151.837L235.911 116.263C235.911 116.263 234.215 115.742 233.774 115.253C224.573 122.344 218.432 116.295 217.901 115.604L213.934 117.702L212.422 160.799C214.423 162.856 227.527 165.851 236.957 163.252C236.957 163.252 237.344 152.646 236.204 151.837Z" fill="#EFE5F0"/>
<path fill-rule="evenodd" clip-rule="evenodd" d="M243.775 119.82C245.492 120.161 246.853 122.405 248.081 127.089C249.589 132.834 252.232 140.91 252.306 147.412C252.314 147.923 248.25 152.132 240.299 153.876C239.562 152.49 240.08 146.498 239.668 145.378C243.2 144.798 245.43 143.876 245.43 143.876C245.028 142.851 239.773 133.365 240.452 130.234C241.132 127.094 243.775 119.82 243.775 119.82Z" fill="#00856E"/>
<path fill-rule="evenodd" clip-rule="evenodd" d="M244.319 172.024C244.319 162.906 241.128 152.105 241.011 147.933C240.923 144.706 240.722 136.866 241.189 135.481C241.653 134.091 245.203 119.994 243.897 119.736C240.176 119.011 238.491 117.671 234.003 115.751C234.003 115.749 235.007 123.214 233.89 125.456C232.75 127.734 230.31 140.699 229.534 143.02C229.2 143.991 229.609 149.086 230.22 154.778C230.28 158.442 230.728 167.9 231.475 170.458C232.28 173.219 231.243 173.678 235.155 173.219C236.782 173.026 238.48 172.765 239.954 172.528C242.316 172.44 244.319 172.29 244.319 172.024Z" fill="#00856E"/>
<path fill-rule="evenodd" clip-rule="evenodd" d="M232.089 114.256C232.062 114.089 236.381 116.556 236.381 116.556L237.562 119.758L234.469 120.624L238.719 123.037L230.555 141.733C230.555 141.733 232.505 121.302 233.02 118.696C233.645 115.494 232.089 114.256 232.089 114.256Z" fill="#10957D"/>
<path fill-rule="evenodd" clip-rule="evenodd" d="M238.041 150.888C238.02 151.141 237.69 151.342 237.315 151.342L222.896 151.242C222.517 151.24 222.187 151.035 222.156 150.778L219.856 132.147C219.809 131.739 220.157 131.413 220.633 131.417L239.095 131.54C239.574 131.54 239.931 131.883 239.896 132.287L238.041 150.888Z" fill="#AB6EB6"/>
<path fill-rule="evenodd" clip-rule="evenodd" d="M234.475 145.002C234.011 143.918 233.428 144.09 232.641 143.627C231.855 143.168 231.2 141.685 230.924 141.66C230.481 141.63 230.356 142.639 230.924 143.59C231.414 144.424 231.29 144.297 231.29 144.297C231.29 144.297 229.764 144.193 229.059 144.044C228.356 143.887 227.259 143.399 226.878 143.111C226.491 142.825 225.343 141.938 225.036 142.159C224.477 142.567 225.711 143.538 226.359 144.102C227.011 144.663 228.262 144.939 228.262 144.939C228.262 144.939 226.257 144.611 225.933 144.328C225.605 144.046 223.676 142.845 223.455 143.256C223.145 143.858 225.073 144.943 225.556 145.363C226.046 145.79 227.614 146.423 227.777 146.566C227.942 146.708 225.974 145.827 225.347 145.461C224.301 144.845 223.841 144.027 223.443 144.458C223.203 144.73 224.492 146.192 225.276 146.654C226.062 147.116 226.936 147.823 226.936 147.823C226.936 147.823 224.515 146.336 224.015 146.46C223.521 146.574 224.82 147.568 225.625 148.024C226.637 148.595 227.562 149.13 228.018 149.307C228.473 149.483 232.558 149.575 234.155 149.354C235.751 149.136 237.459 149.406 237.934 148.444C238.421 147.48 238.708 145.1 237.499 145.077C235.276 145.042 234.475 145.002 234.475 145.002Z" fill="#FBAA8C"/>
<path fill-rule="evenodd" clip-rule="evenodd" d="M236.234 144.601L239.235 144.024C239.235 144.024 242.4 147.96 241.834 149.566C239.581 150.256 237.274 150.604 237.274 150.604C237.274 150.604 236.343 144.842 236.234 144.601Z" fill="#EFE5F0"/>
<path fill-rule="evenodd" clip-rule="evenodd" d="M246.523 141.427C245.022 141.815 237.684 144.255 237.684 144.255C237.684 144.255 238.953 146.622 240.107 151.7C240.803 154.772 249.815 143.93 249.815 143.93L246.523 141.427Z" fill="#00856E"/>
<path fill-rule="evenodd" clip-rule="evenodd" d="M218.832 141.858C218.832 141.858 218.378 134.997 218.037 120.82L218.554 115.178C212.782 117.952 212.234 117.641 208.434 118.931C207.198 119.352 208.631 123.647 208.631 123.647C208.631 123.647 210.521 133.836 210.984 135.212C211.445 136.607 211.46 143.581 211.373 146.806C211.318 148.715 206.734 155.319 206.734 161.882L212.839 161.371L213.37 159.657C214.338 158.12 214.52 156.033 216.864 151.135C218.937 146.818 218.956 144.539 218.709 142.266L218.832 141.858Z" fill="#00856E"/>
<path fill-rule="evenodd" clip-rule="evenodd" d="M208.884 118.785C207.143 118.984 206.198 122.246 204.988 128.273C206.563 135 200.723 138.317 200.323 141.539C200.091 143.403 206.183 142.599 209.286 139.397C210.056 137.912 210.202 138.397 211.011 135.982C211.816 133.571 209.433 118.706 208.884 118.785Z" fill="#00856E"/>
<path fill-rule="evenodd" clip-rule="evenodd" d="M220.699 113.718C220.297 113.85 215.56 116.556 215.56 116.556L214.364 120.239L217.459 120.624L214.266 122.267L218.808 141.953C218.808 141.953 219.369 120.992 219.061 118.357C218.74 115.717 220.699 113.718 220.699 113.718Z" fill="#10957D"/>
<path fill-rule="evenodd" clip-rule="evenodd" d="M230.336 108.15C234.11 107.666 234.974 101.717 232.806 102.468C235.217 90.9321 221.437 89.2191 218.114 98.0527C217.721 99.9289 217.54 101.476 217.648 102.323C217.793 103.447 218.267 103.206 218.024 104.13C217.521 106.056 217.443 106.526 218.853 109.475C219.29 110.389 219.219 111.493 219.89 112.347C220.745 113.43 222.96 113.323 224.932 112.713C229.539 111.287 228.522 110.665 230.336 108.15Z" fill="#FBAA8C"/>
<path fill-rule="evenodd" clip-rule="evenodd" d="M218.033 104.144C218.064 104.46 218.15 104.791 218.15 104.791C218.15 104.791 218.504 104.901 219.116 104.803C219.323 104.768 219.561 104.709 219.825 104.613C219.938 103.936 219.967 103.618 219.967 103.618L219.837 103.357C219.837 103.357 219.687 103.32 219.499 103.281L219.137 103.231C218.767 103.208 218.397 103.265 218.051 103.405L218.043 103.41C218.043 103.41 217.998 103.775 218.033 104.144Z" fill="white"/>
<path fill-rule="evenodd" clip-rule="evenodd" d="M221.902 104.458C221.902 104.458 222.174 104.545 222.567 104.651C222.9 104.739 223.318 104.841 223.728 104.916C224.054 104.977 224.376 105.021 224.642 105.025C225.671 104.841 226.319 104.497 226.319 104.497C225.717 103.678 224.805 103.137 223.933 103.016C223.427 102.944 222.965 102.984 222.661 103.112L222.388 103.411C222.048 103.869 221.9 104.458 221.902 104.458Z" fill="white"/>
<path fill-rule="evenodd" clip-rule="evenodd" d="M222.325 103.881C222.334 104.174 222.424 104.444 222.566 104.651C222.898 104.739 223.317 104.841 223.727 104.916C224.021 104.707 224.216 104.294 224.203 103.825C224.195 103.511 224.09 103.227 223.931 103.016C223.425 102.944 222.963 102.984 222.66 103.112L222.386 103.411C222.342 103.555 222.319 103.714 222.325 103.881Z" fill="#001612"/>
<path fill-rule="evenodd" clip-rule="evenodd" d="M218.033 104.144C218.064 104.46 218.15 104.791 218.15 104.791C218.15 104.791 218.504 104.901 219.116 104.803C219.229 104.563 219.294 104.264 219.283 103.94C219.277 103.678 219.223 103.436 219.137 103.231C218.767 103.208 218.397 103.265 218.051 103.405L218.043 103.41C218.043 103.41 217.998 103.775 218.033 104.144Z" fill="#001612"/>
<path fill-rule="evenodd" clip-rule="evenodd" d="M226.318 104.496C226.056 104.268 225.783 104.061 225.499 103.876C225.212 103.69 224.919 103.522 224.616 103.383C224.463 103.314 224.309 103.254 224.154 103.206L223.919 103.153L223.673 103.117C223.507 103.101 223.34 103.092 223.175 103.097L222.926 103.116L222.681 103.164L222.696 103.156L222.387 103.41L222.625 103.067L222.627 103.066L222.64 103.059L222.891 102.954L223.154 102.892C223.332 102.861 223.512 102.852 223.691 102.858L223.957 102.879L224.231 102.938C224.407 102.986 224.574 103.057 224.733 103.132C225.053 103.292 225.347 103.49 225.617 103.716C225.883 103.944 226.132 104.201 226.318 104.496Z" fill="#400010"/>
<path fill-rule="evenodd" clip-rule="evenodd" d="M227.236 101.445C226.777 101.355 226.231 101.255 225.88 101.213C225.418 101.232 222.181 102.38 222.181 102.38C221.944 102.372 221.681 102.36 221.48 102.347C221.347 102.338 221.235 102.227 221.2 102.089L221.188 101.954C221.215 101.719 221.393 101.556 221.601 101.581L222.22 101.654C222.22 101.654 224.023 100.874 225.32 100.648C226.24 100.732 226.945 100.97 227.236 101.445Z" fill="#400010"/>
<path fill-rule="evenodd" clip-rule="evenodd" d="M218.842 101.67L218.35 101.373C218.103 101.242 217.821 101.175 217.585 101.223C217.302 101.279 217.265 101.447 217.336 101.626C217.425 101.853 217.673 102.045 217.948 102.131C218.151 102.191 218.386 102.247 218.618 102.297C219.084 102.392 219.243 101.942 218.842 101.67Z" fill="#400010"/>
<path fill-rule="evenodd" clip-rule="evenodd" d="M219.189 101.572C218.87 101.503 218.615 101.53 218.272 101.641C218.106 101.802 218.127 101.971 218.219 102.111C218.336 102.285 218.545 102.369 218.742 102.339C218.888 102.319 219.051 102.281 219.213 102.237C219.535 102.147 219.516 101.668 219.189 101.572Z" fill="#400010"/>
<path fill-rule="evenodd" clip-rule="evenodd" d="M224.346 104.024C224.346 104.212 224.194 104.365 224.003 104.365C223.815 104.365 223.66 104.212 223.66 104.024C223.662 103.833 223.815 103.681 224.003 103.681C224.194 103.681 224.344 103.833 224.346 104.024Z" fill="white"/>
<path fill-rule="evenodd" clip-rule="evenodd" d="M219.503 104.006C219.503 104.167 219.372 104.299 219.209 104.299C219.048 104.299 218.914 104.167 218.914 104.006C218.916 103.841 219.048 103.712 219.209 103.712C219.372 103.712 219.503 103.841 219.503 104.006Z" fill="white"/>
<path fill-rule="evenodd" clip-rule="evenodd" d="M219.832 103.356C219.673 103.372 219.516 103.36 219.37 103.352C219.221 103.344 219.077 103.344 218.93 103.345C218.786 103.35 218.639 103.354 218.493 103.367C218.345 103.379 218.196 103.395 218.035 103.41C218.158 103.306 218.303 103.232 218.456 103.184C218.606 103.136 218.767 103.107 218.926 103.107C219.085 103.103 219.246 103.124 219.401 103.168C219.556 103.212 219.691 103.277 219.832 103.356Z" fill="#400010"/>
<path fill-rule="evenodd" clip-rule="evenodd" d="M233.549 104.18C233.635 103.601 233.371 103.136 233.026 103.026C232.56 102.908 232.001 103.235 231.587 103.795C231.169 104.399 231.096 104.889 231.008 105.694C230.924 106.273 230.485 106.606 230.119 106.631C230.119 106.631 229.764 106.789 229.904 107.065C230.044 107.344 230.372 106.959 230.665 107.022C230.956 107.085 231.366 107.378 232.196 106.842C233.028 106.306 233.357 105.293 233.497 104.537L233.549 104.18Z" fill="#FF947B"/>
<path fill-rule="evenodd" clip-rule="evenodd" d="M231.363 106.441C231.515 106.186 231.539 105.774 231.499 105.498C231.452 105.192 231.274 105.003 231.517 104.685C231.677 104.475 231.94 104.563 232.04 104.755C232.147 104.964 232.161 105.23 232.116 105.51C232.09 105.648 232.055 105.784 232.02 105.918C232 105.981 231.935 106.116 231.955 106.178C231.994 106.296 232.063 106.088 232.086 106.023C232.164 105.807 232.22 105.547 232.237 105.318C232.266 104.925 232.074 104.672 232.147 104.278C232.31 103.389 233.063 103.241 233.401 103.72C233.477 103.973 233.491 104.297 233.479 104.61C233.485 104.588 233.489 104.56 233.494 104.537L233.546 104.18C233.632 103.601 233.368 103.136 233.023 103.026C232.557 102.908 231.998 103.235 231.584 103.795C231.166 104.399 231.093 104.889 231.005 105.694C230.945 106.116 230.693 106.407 230.422 106.543C230.668 106.845 231.103 106.876 231.363 106.441Z" fill="#FF8B72"/>
<path fill-rule="evenodd" clip-rule="evenodd" d="M232.196 106.842C232.949 106.357 233.29 105.481 233.451 104.757C232.652 106.757 231.322 107.07 230.996 107.118C231.265 107.187 231.633 107.204 232.196 106.842Z" fill="#FF7760"/>
<path fill-rule="evenodd" clip-rule="evenodd" d="M233.55 104.179C233.636 103.607 233.418 103.155 233.08 102.99C232.686 102.8 232.17 103.096 231.799 103.464C231.4 103.86 231.147 104.434 231.038 105.077C230.975 105.445 230.988 105.819 230.798 106.14C230.626 106.43 230.351 106.561 230.116 106.599C230.093 106.604 230.091 106.662 230.114 106.66C230.417 106.654 230.798 106.444 230.973 106.001C231.08 105.731 231.082 105.43 231.125 105.146C231.173 104.819 231.254 104.506 231.392 104.217C231.682 103.612 232.168 103.203 232.63 103.084C233.136 102.956 233.628 103.376 233.546 104.179C233.546 104.181 233.55 104.181 233.55 104.179Z" fill="#FF7760"/>
<path fill-rule="evenodd" clip-rule="evenodd" d="M219.599 106.574C220.038 106.263 220.384 105.748 220.511 105.334C220.063 105.842 219.587 106.321 219.056 106.301C218.846 106.731 219.584 107.202 220.414 107.356C219.89 107.113 219.461 106.721 219.599 106.574Z" fill="#FF7760"/>
<path fill-rule="evenodd" clip-rule="evenodd" d="M220.512 105.334C220.062 105.843 219.586 106.322 219.056 106.301C219.022 106.368 219.014 106.434 219.022 106.502C219.478 106.5 219.903 106.267 220.297 105.803C220.392 105.644 220.465 105.483 220.512 105.334Z" fill="#FF8B72"/>
<path fill-rule="evenodd" clip-rule="evenodd" d="M229.11 97.0848C227.953 97.1284 227.537 98.7175 225.504 98.128C225.504 98.128 226.659 98.0357 227.123 97.492C227.123 97.492 226.196 97.4463 225.55 97.8542C224.902 98.2637 224.302 98.7616 223.053 98.3537L222.729 98.2179C222.729 98.2179 222.083 98.3078 221.666 98.1256C221.666 98.1256 222.729 98.0357 223.099 97.4462C223.099 97.4462 221.297 98.2614 220.418 98.3078C219.54 98.3514 220.234 98.3514 220.234 98.3514C220.234 98.3514 218.938 99.0772 219.494 99.759C219.494 99.759 219.032 99.1231 219.356 98.3979C219.356 98.3979 218.609 99.4876 217.917 99.5312C217.917 99.5312 218.01 99.962 217.872 100.552C217.731 101.142 217.639 102.005 217.823 102.595C218.007 103.185 217.99 103.728 217.85 104.274C217.85 104.274 217.823 103.275 217.407 103.026L217.083 103.003C217.083 103.003 217.154 102.867 217.2 102.639C217.246 102.413 217.223 101.89 217.131 101.528C217.037 101.165 216.807 100.485 216.784 99.644C216.784 99.644 216.229 99.4855 216.046 98.7824C216.046 98.7824 216.738 99.4855 217.432 99.0104C217.432 99.0104 216.351 98.7824 216.164 98.0108C216.164 98.0108 215.126 97.58 215.286 96.106C215.286 96.106 215.427 96.7626 215.935 96.9677C215.935 96.9677 215.217 96.196 215.289 95.1521C215.357 94.109 215.82 93.6323 215.82 93.6323C215.82 93.6323 215.149 95.5165 216.259 96.3547C216.259 96.3547 216.119 95.3115 216.905 94.7906C217.692 94.2675 217.622 93.7704 217.809 93.3602C217.993 92.9523 218.779 92.9294 218.779 92.9294C218.779 92.9294 219.103 91.7497 220.582 91.6598C220.582 91.6598 219.864 91.9321 219.772 92.7266C219.772 92.7266 220.605 92.022 221.414 91.842C222.223 91.6598 222.686 91.3189 223.194 91.1161C223.702 90.9117 224.651 91.3884 224.651 91.3884C224.651 91.3884 224.535 90.3446 223.403 90.5038C223.403 90.5038 224.766 89.9601 225.783 91.5242C225.783 91.5242 226.615 91.0934 225.39 90.1631C225.39 90.1631 226.432 90.1652 226.871 91.1856C226.871 91.1856 226.963 90.7318 226.662 90.301C226.662 90.301 227.287 90.3909 227.563 91.0955C227.563 91.0955 227.425 90.7318 227.585 90.4139C227.585 90.4139 227.703 90.8218 228.142 91.1163C228.581 91.4113 229.712 92.0245 230.591 92.3881C230.591 92.3881 231.076 92.5703 231.285 92.9342C231.285 92.9342 231.699 92.8878 231.977 93.3421C231.977 93.3421 232.948 93.4336 233.226 94.3182C233.226 94.3182 232.879 93.7958 232.209 93.9087C232.209 93.9087 233.111 94.3182 233.596 95.0211C234.081 95.7235 234.01 96.7461 234.01 96.7461C234.01 96.7461 233.849 96.0415 233.41 95.7465C233.41 95.7465 233.987 96.7676 233.987 97.4721C233.987 98.1745 233.663 98.8798 233.663 98.8798C233.663 98.8798 233.778 99.5136 233.433 99.9901C233.433 99.9901 232.946 101.146 232.969 101.829C232.991 102.508 233.161 102.23 233.192 102.403C232.826 102.163 231.16 102.878 231.281 103.416C231.281 103.416 231.373 104.551 232.831 104.12C232.831 104.12 232.113 104.71 231.12 104.029C231.12 104.029 230.704 104.551 230.448 105.615C230.448 105.615 230.38 105.843 229.639 105.888C229.639 105.888 230.31 104.21 229.917 101.531C229.917 101.531 229.271 101.055 229.087 100.464C229.087 100.464 228.995 99.6721 229.087 98.9004C229.178 98.1281 229.11 97.0848 229.11 97.0848Z" fill="#400010"/>
<path fill-rule="evenodd" clip-rule="evenodd" d="M233.66 98.8793C233.66 98.8793 233.775 99.5131 233.43 99.9896C233.43 99.9896 232.943 101.146 232.966 101.828C232.989 102.508 233.087 102.283 233.189 102.403C232.874 102.418 231.163 103.15 231.278 103.415C231.278 103.415 231.37 104.551 232.828 104.12C232.828 104.12 232.111 104.71 231.117 104.028C231.117 104.028 230.701 104.551 230.446 105.615C230.446 105.615 230.377 105.843 229.636 105.887C229.636 105.887 230.308 104.21 229.914 101.531C229.914 101.531 229.268 101.054 229.084 100.464C229.084 100.464 228.992 99.6717 229.084 98.8999C229.176 98.1282 229.107 97.0851 229.107 97.0851C227.951 97.1286 227.535 98.7178 225.502 98.1282C225.502 98.1282 226.657 98.036 227.121 97.4923C227.121 97.4923 226.194 97.4466 225.548 97.8545C224.9 98.264 224.299 98.7618 223.051 98.3539L222.727 98.2182C222.727 98.2182 222.081 98.3081 221.664 98.1259C221.664 98.1259 222.727 98.036 223.097 97.4464C223.097 97.4464 221.295 98.2617 220.416 98.3081C219.538 98.3516 220.232 98.3516 220.232 98.3516C220.232 98.3516 219.18 98.9419 219.379 99.5563C219.266 99.3135 219.14 98.8747 219.354 98.398C219.354 98.398 218.607 99.4877 217.915 99.5313C217.915 99.5313 218.007 99.9621 217.869 100.552C217.729 101.142 217.637 102.005 217.821 102.595C218.005 103.185 217.988 103.728 217.848 104.274C217.848 104.274 217.821 103.275 217.405 103.026L217.081 103.003C217.081 103.003 217.152 102.867 217.198 102.639C217.244 102.413 217.221 101.891 217.129 101.528C217.035 101.165 216.805 100.485 216.782 99.6441C216.782 99.6441 216.227 99.4856 216.043 98.7825C216.043 98.7825 216.735 99.4856 217.43 99.0105C217.43 99.0105 216.349 98.7825 216.162 98.0109C216.162 98.0109 215.669 97.8058 215.414 97.1935C215.884 97.6871 216.758 97.7416 217.447 97.5801C218.088 97.4318 218.609 97.0783 218.983 96.5494C219.496 95.8212 220.148 95.0518 221.146 95.2635C221.07 95.0768 220.891 94.8909 220.709 94.7655C221.132 94.7573 221.598 94.9181 221.853 95.2546C221.912 94.7233 222.497 93.9288 223.107 93.9982C222.823 94.0188 222.573 94.4245 222.646 94.7631C223.149 94.462 223.878 94.4496 224.304 94.8907C224.308 94.5978 224.232 94.2946 224.069 94.0563C224.457 94.2761 224.795 94.4827 224.902 94.9386C225.023 94.493 225.678 93.9936 226.136 94.006C225.912 94.1462 225.705 94.349 225.69 94.6183C226.552 94.087 227.281 94.1816 228.133 94.633C228.076 94.1188 227.65 93.7484 227.131 93.7234C227.942 93.7072 229.298 94.5326 228.8 95.4926C229.08 95.4069 229.436 95.2381 229.745 95.2772C229.473 95.3989 229.132 95.5722 229.02 95.8527C229.571 95.7707 230.201 95.5073 230.764 95.7707C230.343 95.733 229.769 95.9611 229.541 96.3064C230.314 96.0556 231.124 96.1685 231.801 96.6288C232.202 96.9004 232.608 97.6551 233.047 97.793C233.53 97.9457 233.867 97.3858 233.911 96.9653C233.955 97.1386 233.984 97.3142 233.984 97.4713C233.984 98.1741 233.66 98.8793 233.66 98.8793Z" fill="#400010"/>
<path fill-rule="evenodd" clip-rule="evenodd" d="M220.742 110.644C220.742 110.644 221.451 110.638 221.719 110.592C221.719 110.592 221.278 111.079 220.742 110.644Z" fill="#FF947B"/>
<path fill-rule="evenodd" clip-rule="evenodd" d="M220.34 109.087L220.476 109.86C220.476 109.86 221.105 109.998 221.252 110C221.398 110 222.232 109.712 222.232 109.712L222.726 109.436C222.726 109.436 223.169 109.083 223.199 109.03C223.226 108.978 223.381 108.717 223.422 108.667C223.467 108.614 223.636 108.447 223.636 108.447L223.533 108.392L223.063 108.585C223.063 108.585 221.938 108.863 221.879 108.863L220.34 109.087Z" fill="#EA003B"/>
<path fill-rule="evenodd" clip-rule="evenodd" d="M223.48 108.391C223.424 108.417 222.736 108.659 222.736 108.659C222.736 108.659 222.044 108.758 221.769 108.796C221.495 108.834 220.811 108.959 220.696 108.971C220.628 108.977 220.541 109.017 220.485 109.049C220.446 109.034 220.408 109.024 220.389 109.034C220.345 109.062 220.266 109.471 220.31 109.565C220.351 109.657 220.378 109.846 220.423 109.86L220.644 109.634L220.615 109.325C220.718 109.291 221.034 109.206 221.666 109.188C221.666 109.188 222.541 109.005 222.984 108.969C222.713 109.278 222.018 109.684 222.018 109.684L222.876 109.438C222.919 109.398 223.118 109.162 223.204 109.03C223.212 109.015 223.222 108.999 223.231 108.984C223.399 109.034 223.499 108.626 223.499 108.626L223.538 108.392C223.538 108.391 223.538 108.366 223.48 108.391Z" fill="#005143"/>
<path fill-rule="evenodd" clip-rule="evenodd" d="M220.457 109.14C220.457 109.14 220.528 109.406 220.538 109.592C220.538 109.592 221.385 109.799 221.971 109.643C222.552 109.488 223.284 108.885 223.439 108.691C223.594 108.496 223.301 109.017 223.274 109.057C223.244 109.097 222.699 109.569 222.657 109.609C222.613 109.649 222.015 110.019 221.825 110.031C221.634 110.042 221.003 110.079 220.841 110.092C220.681 110.102 220.388 110.034 220.315 109.994C220.241 109.952 220.185 109.751 220.172 109.696C220.158 109.643 220.116 109.508 220.089 109.402C220.061 109.295 220.081 109.032 220.082 108.992C220.082 108.952 220.082 108.952 220.082 108.952L220.457 109.14Z" fill="#FF7760"/>
<path fill-rule="evenodd" clip-rule="evenodd" d="M220.24 109.099C220.24 109.099 220.368 109.418 220.275 109.711C220.275 109.711 220.984 109.812 221.606 109.774C222.41 109.726 223.074 109.213 223.552 108.484L223.622 108.366L223.918 108.214L224.019 108.164C224.019 108.164 223.672 108.746 223.147 109.333C222.758 109.77 222.44 110.174 221.828 110.341C221.422 110.452 220.428 110.51 220.075 110.249C219.684 109.959 219.901 109.778 219.924 109.458C219.932 109.325 219.906 109.193 219.845 109.072C219.801 108.979 219.564 108.618 219.438 108.632L219.772 108.597L220.188 108.731L220.24 109.099Z" fill="#FF7760"/>
<path fill-rule="evenodd" clip-rule="evenodd" d="M220.062 109.952C220.062 109.952 219.999 109.77 220.42 109.82C220.842 109.872 221.357 109.887 221.777 109.856C222.197 109.822 222.187 110.04 221.871 110.207C221.553 110.374 220.184 110.5 220.062 109.952Z" fill="#FF8B72"/>
<path fill-rule="evenodd" clip-rule="evenodd" d="M220.188 108.731L219.772 108.597L219.438 108.632C219.564 108.618 219.801 108.98 219.845 109.072C219.893 109.165 219.92 109.268 219.924 109.373C219.964 109.335 220.045 109.275 220.15 109.323C220.16 109.329 220.173 109.333 220.184 109.34C220.188 109.438 220.19 109.616 220.159 109.709L220.276 109.712C220.368 109.419 220.24 109.099 220.24 109.099L220.188 108.731ZM223.919 108.214L223.622 108.366L223.553 108.484C223.187 109.042 222.712 109.473 222.149 109.666L222.147 109.671C222.147 109.671 222.714 109.584 223.082 109.128C223.107 109.132 223.139 109.14 223.17 109.151C223.003 109.415 222.639 109.835 222.484 110.009C222.726 109.821 222.926 109.582 223.147 109.333C223.672 108.746 224.019 108.164 224.019 108.164L223.919 108.214Z" fill="#FF7760"/>
<path fill-rule="evenodd" clip-rule="evenodd" d="M219.75 108.726C219.75 108.726 219.863 109.117 220.12 109.124C220.356 109.18 220.919 109.277 222.04 109.1C223.153 108.925 223.704 108.356 223.704 108.356C223.704 108.356 222.529 108.605 222.297 108.603C222.067 108.601 221.099 108.632 221.028 108.632C220.954 108.632 220.172 108.639 220.172 108.639L219.75 108.726Z" fill="white"/>
<path fill-rule="evenodd" clip-rule="evenodd" d="M223.708 108.356C223.708 108.356 222.533 108.605 222.301 108.603C222.152 108.603 221.702 108.616 221.378 108.624L221.145 108.816C221.145 108.816 222.069 108.984 223.032 108.747C222.706 108.917 222.202 109.049 221.859 109.126C221.92 109.117 221.98 109.109 222.044 109.1C223.157 108.925 223.708 108.356 223.708 108.356Z" fill="white"/>
<path fill-rule="evenodd" clip-rule="evenodd" d="M224.159 108.024C224.118 108.062 224.09 108.113 224.048 108.151C223.825 108.356 223.425 108.509 223.124 108.609C222.779 108.724 222.405 108.814 222.031 108.822C221.493 108.833 220.958 108.789 220.422 108.785C220.132 108.783 219.814 108.779 219.525 108.684C219.18 108.578 219.057 108.45 218.973 108.193C218.973 108.193 219.138 108.398 219.415 108.436C219.747 108.49 220.094 108.494 220.353 108.574C220.353 108.574 220.773 108.461 221.566 108.519C222.172 108.563 222.763 108.49 223.365 108.365C223.965 108.241 224.159 108.024 224.159 108.024Z" fill="#FF7760"/>
<path fill-rule="evenodd" clip-rule="evenodd" d="M218.974 108.193C219.035 108.388 219.121 108.48 219.221 108.553C219.339 108.637 219.477 108.699 219.705 108.752C219.951 108.808 220.211 108.81 220.466 108.812C220.777 108.816 221.086 108.833 221.396 108.842C221.677 108.85 221.961 108.862 222.239 108.829C222.925 108.751 223.661 108.498 224.19 108.049C224.228 108.015 224.161 107.965 224.127 108.005C223.744 108.453 222.906 108.706 222.273 108.787C221.998 108.816 221.716 108.8 221.44 108.791C221.17 108.781 220.903 108.768 220.635 108.76C220.377 108.754 220.118 108.762 219.861 108.735C219.618 108.71 219.384 108.631 219.196 108.488C219.054 108.39 218.96 108.164 218.974 108.193Z" fill="#C03A49"/>
<path fill-rule="evenodd" clip-rule="evenodd" d="M220.539 109.592C220.485 109.579 220.424 109.565 220.359 109.546C220.829 109.78 221.758 109.813 222.289 109.556C222.405 109.502 222.507 109.435 222.599 109.357C222.392 109.483 222.172 109.59 221.971 109.642C221.386 109.799 220.539 109.592 220.539 109.592Z" fill="#C03A49"/>
<path fill-rule="evenodd" clip-rule="evenodd" d="M220.596 109.605C220.581 109.584 220.581 109.492 220.604 109.496C221.104 109.588 221.667 109.639 222.322 109.509C222.202 109.568 222.085 109.614 221.972 109.643C221.476 109.777 220.795 109.647 220.596 109.605Z" fill="white"/>
<path fill-rule="evenodd" clip-rule="evenodd" d="M224.933 112.713C229.331 111.351 228.606 110.724 230.105 108.482C230.109 110.34 230.13 111.523 230.406 112.466C229.779 112.819 229.172 113.133 228.583 113.409C225.68 114.771 223.254 115.187 221.305 114.66C221.648 114.271 221.891 113.869 221.978 113.463C221.999 113.365 222.02 113.267 222.039 113.167C222.936 113.192 223.963 113.014 224.933 112.713Z" fill="#EC9A7D"/>
<path fill-rule="evenodd" clip-rule="evenodd" d="M229.639 135.984C230.387 135.984 230.998 135.599 230.998 135.127C230.998 134.654 230.387 134.268 229.639 134.268C228.89 134.268 228.281 134.654 228.281 135.127C228.281 135.599 228.89 135.984 229.639 135.984Z" fill="#D1AED6"/>
<path fill-rule="evenodd" clip-rule="evenodd" d="M390.789 189.086H360.085C359.488 189.086 359 188.6 359 188V166.065C359 165.467 359.485 164.979 360.085 164.979H372.566C372.853 164.979 373.129 165.095 373.334 165.297L375.362 167.326C375.565 167.531 375.841 167.644 376.13 167.644H390.789C391.39 167.644 391.875 168.131 391.875 168.729V188C391.875 188.6 391.39 189.086 390.789 189.086Z" fill="#10957D"/>
<path fill-rule="evenodd" clip-rule="evenodd" d="M388.003 152.12V179.729H361.938V148H383.883L388.003 152.12Z" fill="#10957D"/>
<path fill-rule="evenodd" clip-rule="evenodd" d="M383.887 152.12V148L388.006 152.12H383.887Z" fill="#10957D"/>
<path fill-rule="evenodd" clip-rule="evenodd" d="M389.62 153.565V181.174H363.555V149.445H385.501L389.62 153.565Z" fill="white"/>
<path fill-rule="evenodd" clip-rule="evenodd" d="M391.941 189.085H361.238C360.639 189.085 360.152 188.6 360.152 187.999V169.18C360.152 168.582 360.639 168.095 361.238 168.095H373.718C374.006 168.095 374.282 168.21 374.485 168.413L376.514 170.442C376.717 170.644 376.993 170.76 377.281 170.76H391.941C392.542 170.76 393.027 171.244 393.027 171.845V187.999C393.026 188.6 392.54 189.085 391.941 189.085Z" fill="#CEFFF6"/>
<path fill-rule="evenodd" clip-rule="evenodd" d="M385.504 153.565V149.445L389.623 153.565H385.504Z" fill="#CEFFF6"/>
<path d="M384.405 151.257H364.668V152.327H384.405V151.257Z" fill="#10957D"/>
<path d="M388.441 155.296H364.734V155.972H388.441V155.296Z" fill="#10957D"/>
<path d="M388.441 157.213H364.734V157.887H388.441V157.213Z" fill="#10957D"/>
<path d="M384.219 159.128H364.734V159.802H384.219V159.128Z" fill="#10957D"/>
<path d="M384.219 161.042H364.734V161.717H384.219V161.042Z" fill="#10957D"/>
<path d="M377.91 162.958H364.734V163.63H377.91V162.958Z" fill="#10957D"/>
<path d="M377.91 164.87H364.734V165.546H377.91V164.87Z" fill="#10957D"/>
<path fill-rule="evenodd" clip-rule="evenodd" d="M164.58 40.107C161.749 40.107 159.457 37.8148 159.457 34.9835C159.457 32.1521 161.749 29.8599 164.58 29.8599C167.414 29.8577 169.704 32.1521 169.704 34.9835C169.706 37.815 167.414 40.107 164.58 40.107ZM177.132 32.7207H174.679C174.24 32.7207 173.845 32.4425 173.709 32.0243C173.552 31.5389 173.357 31.0704 173.128 30.6234C172.929 30.2303 173.01 29.7552 173.322 29.4438L175.055 27.7078C175.459 27.3065 175.459 26.6565 175.055 26.2522L173.311 24.5081C172.91 24.1046 172.257 24.1046 171.856 24.5081L170.122 26.2417C169.811 26.5538 169.334 26.6372 168.941 26.4365C168.493 26.2063 168.025 26.0115 167.539 25.8551C167.122 25.7193 166.843 25.3239 166.843 24.885V22.4319C166.843 21.8632 166.383 21.4028 165.814 21.4028H163.347C162.778 21.4028 162.318 21.8632 162.318 22.4319V24.885C162.318 25.324 162.039 25.7209 161.621 25.8551C161.136 26.0115 160.668 26.2063 160.22 26.4365C159.827 26.6372 159.353 26.5538 159.039 26.2417L157.306 24.5081C156.903 24.1046 156.254 24.1046 155.85 24.5081L154.106 26.2522C153.702 26.6542 153.702 27.3065 154.106 27.7078L155.839 29.4438C156.151 29.7552 156.234 30.2303 156.033 30.6234C155.805 31.0704 155.609 31.5389 155.452 32.0243C155.316 32.4427 154.923 32.7207 154.482 32.7207H152.029C151.46 32.7207 151 33.181 151 33.7498V36.2177C151 36.7864 151.46 37.246 152.029 37.246H154.482C154.923 37.246 155.316 37.5242 155.452 37.9424C155.609 38.4278 155.805 38.8963 156.033 39.3433C156.234 39.7365 156.151 40.2116 155.839 40.523L154.106 42.2589C153.702 42.6602 153.702 43.3123 154.106 43.7146L155.85 45.4587C156.253 45.8623 156.903 45.8623 157.306 45.4587L159.039 43.7249C159.353 43.4135 159.827 43.3317 160.22 43.5301C160.668 43.7602 161.136 43.955 161.621 44.1114C162.04 44.2479 162.318 44.6427 162.318 45.0822V47.5353C162.318 48.1041 162.778 48.5637 163.347 48.5637H165.814C166.383 48.5637 166.843 48.1041 166.843 47.5353V45.0822C166.843 44.6425 167.122 44.2479 167.539 44.1114C168.024 43.955 168.493 43.7602 168.941 43.5301C169.334 43.3315 169.811 43.4135 170.12 43.7249L171.856 45.4587C172.257 45.8623 172.91 45.8623 173.311 45.4587L175.055 43.7146C175.459 43.3125 175.459 42.6602 175.055 42.2589L173.322 40.523C173.01 40.2116 172.929 39.7365 173.128 39.3433C173.357 38.8963 173.552 38.4278 173.709 37.9424C173.845 37.524 174.24 37.246 174.679 37.246H177.132C177.701 37.246 178.161 36.7864 178.161 36.2177V33.7498C178.162 33.1812 177.701 32.7207 177.132 32.7207Z" fill="white"/>
<path fill-rule="evenodd" clip-rule="evenodd" d="M186.711 48.5203C184.929 48.5203 183.485 47.0773 183.485 45.2957C183.485 43.5117 184.928 42.0687 186.711 42.0687C188.495 42.0687 189.938 43.5117 189.938 45.2957C189.938 47.0773 188.495 48.5226 186.711 48.5203ZM194.614 43.8697H193.071C192.793 43.8697 192.543 43.6955 192.458 43.4323C192.36 43.1268 192.238 42.8324 192.094 42.55C191.969 42.3028 192.019 42.004 192.215 41.8078L193.307 40.7136C193.56 40.4629 193.56 40.0503 193.307 39.7974L192.209 38.6997C191.956 38.4466 191.544 38.4466 191.291 38.6997L190.2 39.7915C190.005 39.9878 189.704 40.0402 189.457 39.9126C189.175 39.7688 188.88 39.647 188.574 39.5466C188.311 39.4633 188.135 39.2146 188.135 38.9365L188.138 37.3932C188.138 37.0354 187.847 36.7446 187.489 36.7446H185.935C185.575 36.7446 185.287 37.0352 185.287 37.3932V38.9365C185.287 39.2146 185.111 39.4633 184.848 39.5466C184.542 39.6469 184.247 39.7709 183.966 39.9126C183.718 40.0402 183.42 39.9878 183.223 39.7915L182.131 38.6997C181.878 38.4466 181.468 38.4466 181.215 38.6997L180.115 39.7974C179.864 40.0505 179.862 40.4607 180.115 40.7136L181.207 41.8078C181.403 42.0019 181.456 42.3028 181.33 42.55C181.186 42.8326 181.062 43.1248 180.964 43.4323C180.879 43.6957 180.629 43.8697 180.353 43.8697H178.808C178.451 43.8697 178.16 44.1603 178.16 44.5174V46.0711C178.16 46.4289 178.451 46.7197 178.808 46.7197H180.353C180.629 46.7197 180.879 46.8953 180.964 47.1587C181.062 47.4642 181.186 47.7593 181.33 48.0419C181.456 48.2882 181.403 48.587 181.207 48.7841L180.115 49.8759C179.862 50.129 179.862 50.5384 180.115 50.7938L181.215 51.8915C181.468 52.1446 181.879 52.1446 182.131 51.8915L183.223 50.8003C183.42 50.6034 183.718 50.551 183.966 50.6764C184.247 50.8211 184.542 50.9443 184.848 51.0424C185.111 51.1288 185.287 51.3773 185.287 51.6533V53.1989C185.287 53.5567 185.575 53.8474 185.935 53.8474H187.489C187.847 53.8474 188.135 53.5568 188.135 53.1989L188.137 51.6533C188.137 51.3774 188.311 51.1288 188.574 51.0424C188.882 50.9443 189.175 50.8211 189.456 50.6764C189.704 50.551 190.002 50.6034 190.199 50.8003L191.29 51.8915C191.543 52.1446 191.956 52.1446 192.209 51.8915L193.307 50.7914C193.56 50.5383 193.56 50.1288 193.307 49.8759L192.215 48.7841C192.019 48.5872 191.966 48.2884 192.094 48.0419C192.238 47.7593 192.359 47.4642 192.458 47.1587C192.543 46.8953 192.793 46.7197 193.071 46.7197H194.614C194.973 46.7197 195.262 46.4312 195.262 46.0711V44.5174C195.262 44.1603 194.971 43.8697 194.614 43.8697Z" fill="white"/>
<path fill-rule="evenodd" clip-rule="evenodd" d="M174.767 19.2737C173.665 19.2737 172.774 18.3832 172.774 17.2811C172.774 16.1811 173.665 15.2876 174.767 15.2876C175.869 15.2876 176.76 16.1811 176.76 17.2811C176.76 18.3832 175.869 19.2737 174.767 19.2737ZM179.648 16.4002H178.694C178.523 16.4002 178.368 16.2939 178.316 16.1309C178.255 15.9429 178.18 15.7605 178.09 15.5849C178.012 15.4344 178.046 15.2485 178.165 15.1267L178.841 14.4531C178.997 14.2967 178.997 14.0436 178.841 13.8865L178.161 13.207C178.006 13.052 177.751 13.052 177.596 13.207L176.921 13.8827C176.799 14.0038 176.616 14.0347 176.463 13.9579C176.287 13.868 176.105 13.7926 175.917 13.7315C175.756 13.6798 175.647 13.525 175.647 13.3552V12.3999C175.647 12.18 175.468 12 175.246 12H174.286C174.065 12 173.887 12.18 173.887 12.3999V13.3531C173.887 13.525 173.778 13.68 173.614 13.7315C173.426 13.7926 173.244 13.868 173.071 13.9579C172.918 14.0347 172.732 14.0036 172.613 13.8827L171.937 13.207C171.78 13.052 171.527 13.052 171.371 13.207L170.693 13.8865C170.536 14.0436 170.536 14.2967 170.693 14.4531L171.369 15.1267C171.487 15.2485 171.519 15.4344 171.442 15.5849C171.354 15.7605 171.279 15.9427 171.216 16.1309C171.163 16.2939 171.011 16.4023 170.84 16.4023L169.886 16.4002C169.664 16.4002 169.484 16.5803 169.484 16.8022V17.762C169.484 17.9833 169.664 18.1612 169.886 18.1612H170.84C171.011 18.1612 171.163 18.2703 171.216 18.4335C171.279 18.6215 171.354 18.8032 171.442 18.9772C171.519 19.1299 171.487 19.3158 171.366 19.4368L170.693 20.1104C170.536 20.2676 170.536 20.5207 170.693 20.6771L171.371 21.3551C171.527 21.5115 171.78 21.5115 171.937 21.3551L172.613 20.6815C172.732 20.5605 172.918 20.5288 173.071 20.6063C173.244 20.6941 173.426 20.7716 173.614 20.832C173.777 20.8845 173.887 21.0393 173.887 21.2083V22.1622C173.887 22.3835 174.064 22.5635 174.286 22.5635H175.246C175.468 22.5635 175.647 22.3835 175.647 22.1622V21.2083C175.647 21.0393 175.754 20.8845 175.917 20.832C176.105 20.7693 176.287 20.6941 176.461 20.6063C176.616 20.5288 176.799 20.5606 176.921 20.6815L177.596 21.3551C177.751 21.5115 178.006 21.5115 178.161 21.3551L178.841 20.6771C178.997 20.5207 178.997 20.2676 178.841 20.1104L178.165 19.4368C178.046 19.3158 178.012 19.1299 178.09 18.9772C178.18 18.803 178.255 18.6215 178.316 18.4335C178.368 18.2705 178.523 18.1612 178.694 18.1612H179.648C179.87 18.1612 180.047 17.9835 180.047 17.762V16.8022C180.047 16.5803 179.87 16.4023 179.648 16.4002Z" fill="white"/>
<path fill-rule="evenodd" clip-rule="evenodd" d="M76.8763 211.148V176.293H44.0898V219.814H69.0863L76.8763 211.148Z" fill="#EFE5F0"/>
<path fill-rule="evenodd" clip-rule="evenodd" d="M76.8801 211.148H77.173V176H43.8008V220.107H69.2222L77.173 211.261V211.148H76.8801L76.6624 210.954L68.9604 219.521H44.3866V176.586H76.5872V211.148H76.8801L76.6624 210.954L76.8801 211.148Z" fill="#00856E"/>
<path fill-rule="evenodd" clip-rule="evenodd" d="M74.3557 180.051H47.3672V179.321H74.3555V180.051H74.3557ZM74.3557 191.584H47.3672V190.857H74.3555V191.584H74.3557ZM74.3557 189.278H47.3672V188.55H74.3555V189.278H74.3557ZM74.3557 186.971H47.3672V186.243H74.3555V186.971H74.3557ZM74.3557 184.664H47.3672V183.937H74.3555V184.664H74.3557ZM74.3557 182.358H47.3672V181.63H74.3555V182.358H74.3557Z" fill="#3CB097"/>
<path d="M74.2779 196.039H59.4883V196.765H74.2779V196.039Z" fill="#C8C9C9"/>
<path d="M74.2779 198.346H59.4883V199.071H74.2779V198.346Z" fill="#C8C9C9"/>
<path d="M74.2779 200.652H59.4883V201.381H74.2779V200.652Z" fill="#C8C9C9"/>
<path d="M74.2779 202.959H59.4883V203.687H74.2779V202.959Z" fill="#C8C9C9"/>
<path d="M58.5389 194.561H47.3672V204.615H58.5389V194.561Z" fill="#3CB097"/>
<path d="M71.6235 206.993H59.5273V207.72H71.6235V206.993Z" fill="#C8C9C9"/>
<path d="M71.6235 209.299H59.5273V210.027H71.6235V209.299Z" fill="#C8C9C9"/>
<path d="M71.6235 211.606H59.5273V212.333H71.6235V211.606Z" fill="#C8C9C9"/>
<path d="M71.6235 213.913H59.5273V214.641H71.6235V213.913Z" fill="#C8C9C9"/>
<path d="M71.6235 216.219H59.5273V216.947H71.6235V216.219Z" fill="#C8C9C9"/>
<path d="M58.5757 206.993H47.4062V217.045H58.5757V206.993Z" fill="#05B1C4"/>
<path fill-rule="evenodd" clip-rule="evenodd" d="M69.0898 219.815L76.8798 211.149C76.8798 211.149 75.726 206.864 69.0898 205.885C69.0898 205.885 73.1888 213.062 69.0898 219.815Z" fill="#959696"/>
<path fill-rule="evenodd" clip-rule="evenodd" d="M84.2862 215.112V180.254H51.5V223.776H76.4964L84.2862 215.112Z" fill="white"/>
<path fill-rule="evenodd" clip-rule="evenodd" d="M84.2862 215.111H84.5791V179.961H51.207V224.068H76.6284L84.5791 215.222V215.111H84.2862L84.0693 214.914L76.3671 223.482H51.7929V180.547H83.9941V215.111H84.2862L84.0693 214.914L84.2862 215.111Z" fill="#10957D"/>
<path fill-rule="evenodd" clip-rule="evenodd" d="M81.6864 198.419H66.8945V197.691H81.6864V198.419ZM81.6864 207.645H66.8945V206.92H81.6864V207.645ZM81.6864 205.339H66.8945V204.611H81.6864V205.339ZM81.6864 203.032H66.8945V202.305H81.6864V203.032ZM81.6864 200.725H66.8945V200H81.6864V200.725Z" fill="#00856E"/>
<path d="M65.9484 198.521H54.7773V208.576H65.9484V198.521Z" fill="#4BC4AE"/>
<path fill-rule="evenodd" clip-rule="evenodd" d="M79.0358 211.679H66.9375V210.954H79.0358V211.679ZM79.0358 220.908H66.9375V220.18H79.0358V220.908ZM79.0358 218.601H66.9375V217.873H79.0358V218.601ZM79.0358 216.294H66.9375V215.567H79.0358V216.294ZM79.0358 213.986H66.9375V213.26H79.0358V213.986Z" fill="#00856E"/>
<path d="M65.9882 210.952H54.8164V221.006H65.9882V210.952Z" fill="#4BC4AE"/>
<path fill-rule="evenodd" clip-rule="evenodd" d="M76.4961 223.775L84.2859 215.111C84.2859 215.111 83.132 210.822 76.4961 209.843C76.4961 209.843 80.595 217.02 76.4961 223.775Z" fill="#10957D"/>
<path fill-rule="evenodd" clip-rule="evenodd" d="M62.3592 226.954L28 226.86L31.1893 200.692L65.5485 200.788L62.3592 226.954Z" fill="#00856E"/>
<path fill-rule="evenodd" clip-rule="evenodd" d="M60.8445 226.95L29.6406 226.864L29.7115 201.572L60.9131 201.658L60.8445 226.95Z" fill="white"/>
<path fill-rule="evenodd" clip-rule="evenodd" d="M40.6982 203.443L40.704 200.719L28.073 200.684L28.0649 203.408L28.0604 205.232L28 226.86L62.3592 226.953L62.4241 203.505L40.6982 203.443Z" fill="#4BC4AE"/>
<path fill-rule="evenodd" clip-rule="evenodd" d="M54.0208 222.412C51.9655 222.412 49.9182 222.14 47.9396 221.575C44.0001 220.452 40.3777 218.135 37.9062 214.873C43.3206 213.794 48.4774 211.533 52.4214 207.549C53.5966 206.362 54.7137 204.986 55.6919 203.486L62.4238 203.505L62.3759 220.931C59.6972 221.897 56.8547 222.412 54.0208 222.412Z" fill="#3CB097"/>
<path fill-rule="evenodd" clip-rule="evenodd" d="M40.6953 203.212L40.6998 201.604L40.6953 203.212Z" fill="#DBDCDC"/>
<path fill-rule="evenodd" clip-rule="evenodd" d="M40.6977 203.212C40.6911 203.13 40.685 203.051 40.6785 202.969C40.6349 202.212 40.6408 201.464 40.6829 200.719H40.7035L40.7021 201.604L40.6977 203.212Z" fill="#DEE6F4"/>
<path fill-rule="evenodd" clip-rule="evenodd" d="M62.3594 226.954L62.3763 220.932L62.3594 226.954Z" fill="#8D6A26"/>
<path fill-rule="evenodd" clip-rule="evenodd" d="M28.0312 215.625L28.0734 200.684L28.0652 203.408L28.0608 205.232L28.0312 215.625Z" fill="#0B9B9B"/>
<path fill-rule="evenodd" clip-rule="evenodd" d="M29.7901 215.667C29.2029 215.667 28.6171 215.653 28.0312 215.625L28.0608 205.232L28.0652 203.408L28.0734 200.684L33.8729 200.7C33.864 200.863 33.8537 201.027 33.8478 201.191C33.6863 205.083 34.6069 209.002 36.3843 212.459C36.8233 213.312 37.3338 214.117 37.907 214.873C36.7922 215.094 35.6695 215.266 34.5421 215.391C32.9631 215.569 31.3732 215.667 29.7901 215.667Z" fill="#10957D"/>
<path fill-rule="evenodd" clip-rule="evenodd" d="M28.0039 224.39L28.029 215.625L28.0039 224.39Z" fill="#0B9797"/>
<path fill-rule="evenodd" clip-rule="evenodd" d="M62.3592 226.954L28 226.86L28.0059 224.39L28.0309 215.625C28.6167 215.653 29.2026 215.668 29.7898 215.668C31.3731 215.668 32.9629 215.569 34.5416 215.392C35.6688 215.266 36.7917 215.094 37.9065 214.873C40.3779 218.135 44.0003 220.453 47.9398 221.575C49.9186 222.14 51.9657 222.412 54.0211 222.412C56.8547 222.412 59.6972 221.897 62.3761 220.931L62.3592 226.954Z" fill="#00856E"/>
<path fill-rule="evenodd" clip-rule="evenodd" d="M74.276 194.46H59.4865V193.732H74.276V194.46ZM81.7649 195.545H54.7773V194.817H81.7649V195.545ZM81.7649 193.236H54.7773V192.511H81.7649V193.236ZM81.7649 190.93H54.7773V190.202H81.7649V190.93ZM81.7649 188.623H54.7773V187.895H81.7649V188.623ZM81.7649 186.317H54.7773V185.588H81.7649V186.317ZM81.7649 184.01H54.7773V183.284H81.7649V184.01Z" fill="#00856E"/>
<defs>
<linearGradient id="paint0_linear_4179_5725" x1="206.376" y1="181.5" x2="206.376" y2="74.5181" gradientUnits="userSpaceOnUse">
<stop stop-color="#12957D"/>
<stop offset="1" stop-color="#00B898"/>
</linearGradient>
<linearGradient id="paint1_linear_4179_5725" x1="206.372" y1="202.074" x2="206.372" y2="68.1123" gradientUnits="userSpaceOnUse">
<stop stop-color="#CCD1EC"/>
<stop offset="1" stop-color="white"/>
</linearGradient>
<linearGradient id="paint2_linear_4179_5725" x1="206.374" y1="233.557" x2="206.374" y2="226.031" gradientUnits="userSpaceOnUse">
<stop stop-color="#0A4138"/>
<stop offset="1" stop-color="#0B8772"/>
</linearGradient>
</defs>
</svg>
