<svg width="335" height="339" viewBox="0 0 335 339" fill="none" xmlns="http://www.w3.org/2000/svg">
<g clip-path="url(#clip0_4179_6514)">
<path style="mix-blend-mode:overlay" opacity="0.42" d="M84.9292 338.35H128.429V102.62H154.659L106.679 39.3696L58.6992 102.62H84.9292V338.35Z" fill="url(#paint0_linear_4179_6514)"/>
<path style="mix-blend-mode:overlay" opacity="0.42" d="M264.129 338.35H297.289V189.78H317.289L280.709 141.57L244.129 189.78H264.129V338.35Z" fill="url(#paint1_linear_4179_6514)"/>
<path style="mix-blend-mode:overlay" opacity="0.42" d="M227.419 338.35H264.549V74.3196H286.939L245.979 20.3496L205.039 74.3196H227.419V338.35Z" fill="url(#paint2_linear_4179_6514)"/>
<path style="mix-blend-mode:overlay" opacity="0.42" d="M64.7012 338.35H101.481V198.13H123.661L83.0912 144.66L42.5312 198.13H64.7012V338.35Z" fill="url(#paint3_linear_4179_6514)"/>
<path style="mix-blend-mode:overlay" opacity="0.42" d="M14.67 338.35H38.99V245.61H53.66L26.83 210.25L0 245.61H14.67V338.35Z" fill="url(#paint4_linear_4179_6514)"/>
<path style="mix-blend-mode:overlay" opacity="0.42" d="M298.301 338.35H320.741V252.82H334.271L309.521 220.2L284.781 252.82H298.301V338.35Z" fill="url(#paint5_linear_4179_6514)"/>
<path d="M273.25 338.35C210.36 314.23 197.78 269.26 195.27 253.06H162.39C159.88 269.27 147.29 314.23 84.4102 338.35H273.26H273.25Z" fill="white" fill-opacity="0.2"/>
<path d="M229.451 338.35C195.681 314.23 188.921 269.26 187.571 253.06H169.911C168.561 269.27 161.801 314.23 128.031 338.35H229.451Z" fill="url(#paint6_linear_4179_6514)"/>
<path d="M178.849 96.1195C205.392 96.1195 226.909 74.6023 226.909 48.0595C226.909 21.5167 205.392 -0.000488281 178.849 -0.000488281C152.306 -0.000488281 130.789 21.5167 130.789 48.0595C130.789 74.6023 152.306 96.1195 178.849 96.1195Z" fill="url(#paint7_linear_4179_6514)"/>
<path d="M205.996 75.203C220.988 60.2107 220.988 35.9035 205.996 20.9113C191.004 5.91907 166.697 5.91907 151.704 20.9113C136.712 35.9035 136.712 60.2107 151.704 75.203C166.697 90.1952 191.004 90.1952 205.996 75.203Z" fill="#005143"/>
<path d="M202.249 64.0854C211.256 51.1225 208.048 33.3132 195.085 24.3072C182.122 15.3011 164.313 18.5087 155.307 31.4716C146.301 44.4344 149.508 62.2437 162.471 71.2498C175.434 80.2558 193.243 77.0482 202.249 64.0854Z" fill="url(#paint8_linear_4179_6514)"/>
<path d="M185.939 65.2641C195.448 61.3503 199.985 50.4685 196.071 40.9588C192.157 31.4492 181.275 26.9128 171.766 30.8266C162.256 34.7403 157.72 45.6222 161.633 55.1318C165.547 64.6415 176.429 69.1779 185.939 65.2641Z" fill="#005143"/>
<path d="M178.851 56.7199C174.071 56.7199 170.191 52.8299 170.191 48.0599C170.191 43.2899 174.081 39.3999 178.851 39.3999C183.621 39.3999 187.511 43.2899 187.511 48.0599C187.511 52.8299 183.621 56.7199 178.851 56.7199Z" fill="url(#paint9_linear_4179_6514)"/>
<path d="M151.552 192.759C151.552 192.759 125.672 201.629 119.022 214.929C113.782 225.409 116.802 273.999 118.312 294.159C118.452 295.989 121.002 296.299 121.582 294.569C126.992 278.309 140.962 243.509 163.102 236.919L151.552 192.769V192.759Z" fill="url(#paint10_linear_4179_6514)"/>
<path d="M205.902 192.759C205.902 192.759 231.782 201.629 238.432 214.929C243.672 225.409 240.652 273.999 239.142 294.159C239.002 295.989 236.452 296.299 235.872 294.569C230.462 278.309 216.492 243.509 194.352 236.919L205.902 192.769V192.759Z" fill="url(#paint11_linear_4179_6514)"/>
<path d="M178.72 47.3394C178.72 47.3394 151.94 68.8394 141.57 99.5394H215.88C205.51 68.8394 178.73 47.3394 178.73 47.3394H178.72Z" fill="url(#paint12_linear_4179_6514)"/>
<path d="M141.571 99.5293C139.081 106.899 137.531 114.809 137.531 123.069C137.531 146.489 143.091 210.789 151.861 244.189C152.841 247.899 156.171 250.499 160.011 250.499H197.441C201.251 250.499 204.601 247.939 205.571 244.259C214.361 210.879 219.921 146.509 219.921 123.069C219.921 114.799 218.371 106.899 215.881 99.5293H141.571Z" fill="#F9F9FA"/>
<g style="mix-blend-mode:multiply" opacity="0.77">
<path d="M215.88 99.5293H188.26C190.75 106.899 192.3 114.809 192.3 123.069C192.3 146.509 186.74 210.879 177.95 244.259C176.98 247.949 173.63 250.499 169.82 250.499H197.44C201.25 250.499 204.6 247.939 205.57 244.259C214.36 210.879 219.92 146.509 219.92 123.069C219.92 114.799 218.37 106.899 215.88 99.5293Z" fill="#E6E6EF"/>
</g>
<path d="M161 250.5H196.96V254.39C196.96 257.52 194.42 260.06 191.29 260.06H166.67C163.54 260.06 161 257.52 161 254.39V250.5Z" fill="url(#paint13_linear_4179_6514)"/>
<path d="M161 250.5H196.96V254.39C196.96 257.52 194.42 260.06 191.29 260.06H166.67C163.54 260.06 161 257.52 161 254.39V250.5Z" fill="url(#paint14_linear_4179_6514)"/>
<path style="mix-blend-mode:overlay" d="M189.27 124.189L165.51 147.949C163.23 145.099 161.85 141.479 161.82 137.539L178.86 120.489C182.8 120.519 186.4 121.889 189.27 124.179V124.189Z" fill="url(#paint15_linear_4179_6514)"/>
<path style="mix-blend-mode:overlay" d="M195.57 135.999L177.32 154.249C173.98 153.979 170.92 152.739 168.41 150.809L192.12 127.099C194.05 129.599 195.29 132.659 195.56 136.009L195.57 135.999Z" fill="url(#paint16_linear_4179_6514)"/>
<path style="mix-blend-mode:multiply" d="M209.106 146.974C212.408 132.818 203.609 118.666 189.453 115.363C175.297 112.061 161.144 120.86 157.842 135.017C154.54 149.173 163.339 163.325 177.495 166.627C191.651 169.929 205.804 161.13 209.106 146.974Z" fill="url(#paint17_radial_4179_6514)"/>
<path d="M178.722 162.039C192.33 162.039 203.362 151.008 203.362 137.399C203.362 123.791 192.33 112.759 178.722 112.759C165.114 112.759 154.082 123.791 154.082 137.399C154.082 151.008 165.114 162.039 178.722 162.039Z" fill="#F9F9FA"/>
<path d="M195.63 137.4C195.63 146.74 188.06 154.31 178.73 154.31C178.25 154.31 177.78 154.29 177.33 154.25C173.99 153.98 170.93 152.74 168.42 150.81C167.34 149.98 166.36 149.01 165.51 147.96C163.23 145.11 161.85 141.49 161.82 137.55C161.82 137.5 161.82 137.45 161.82 137.4C161.82 128.06 169.39 120.5 178.73 120.5H178.87C182.81 120.53 186.41 121.9 189.28 124.19C190.35 125.04 191.3 126.01 192.13 127.1C194.06 129.6 195.3 132.66 195.57 136.01C195.61 136.47 195.63 136.94 195.63 137.41V137.4Z" fill="url(#paint18_linear_4179_6514)"/>
<g style="mix-blend-mode:multiply" opacity="0.19">
<path d="M178.723 47.3394C178.723 47.3394 187.533 81.0494 188.253 99.5394H215.873C205.503 68.8394 178.723 47.3394 178.723 47.3394Z" fill="#251B63"/>
</g>
<g style="mix-blend-mode:multiply" opacity="0.77">
<path d="M173.05 197.159L147.32 222.889C148.71 230.749 150.23 238.009 151.85 244.199C152.83 247.909 156.16 250.509 160 250.509H180.66L173.04 197.159H173.05Z" fill="#E6E6EF"/>
</g>
<path d="M184.751 197.16C184.751 193.929 182.132 191.31 178.901 191.31C175.67 191.31 173.051 193.929 173.051 197.16V262.58C173.051 265.81 175.67 268.43 178.901 268.43C182.132 268.43 184.751 265.81 184.751 262.58V197.16Z" fill="url(#paint19_linear_4179_6514)"/>
<path d="M219.172 170.03L216.552 172.65L211.802 167.9C211.082 167.18 211.082 166 211.802 165.28C212.522 164.56 213.702 164.56 214.422 165.28L219.172 170.03Z" fill="#4AC4AE"/>
<path d="M241.941 170.03L244.561 172.65L249.311 167.9C250.031 167.18 250.031 166 249.311 165.28C248.591 164.56 247.411 164.56 246.691 165.28L241.941 170.03Z" fill="#4BC4AE"/>
<path d="M233.794 159.15H227.344V166.72H233.794V159.15Z" fill="#4BC4AE"/>
<path d="M237.562 156.25H223.552C222.742 156.25 222.082 156.91 222.082 157.72C222.082 158.53 222.742 159.19 223.552 159.19H237.562C238.372 159.19 239.032 158.53 239.032 157.72C239.032 156.91 238.372 156.25 237.562 156.25Z" fill="#4BC4AE"/>
<path d="M230.562 218.35C245.286 218.35 257.222 206.414 257.222 191.69C257.222 176.966 245.286 165.03 230.562 165.03C215.838 165.03 203.902 176.966 203.902 191.69C203.902 206.414 215.838 218.35 230.562 218.35Z" fill="#3CB097"/>
<path d="M230.564 211.07C241.267 211.07 249.944 202.393 249.944 191.69C249.944 180.987 241.267 172.31 230.564 172.31C219.86 172.31 211.184 180.987 211.184 191.69C211.184 202.393 219.86 211.07 230.564 211.07Z" fill="white"/>
<path d="M241.973 191.72V191.7C241.973 185.4 236.863 180.29 230.563 180.29C230.493 180.29 230.433 180.29 230.363 180.3V191.73H241.973V191.72Z" fill="#00856E"/>
<path d="M118.892 138.18H62.412C57.8115 138.18 54.082 141.909 54.082 146.51V172.85C54.082 177.45 57.8115 181.18 62.412 181.18H118.892C123.493 181.18 127.222 177.45 127.222 172.85V146.51C127.222 141.909 123.493 138.18 118.892 138.18Z" fill="white"/>
<path d="M66.4427 150.12C65.6327 150.12 64.9727 149.46 64.9727 148.65C64.9727 147.84 65.6327 147.18 66.4427 147.18H117.453C118.263 147.18 118.923 147.84 118.923 148.65C118.923 149.46 118.263 150.12 117.453 150.12H66.4427Z" fill="#3CB097"/>
<path d="M66.4427 161.89C65.6327 161.89 64.9727 161.23 64.9727 160.42C64.9727 159.61 65.6327 158.95 66.4427 158.95H117.453C118.263 158.95 118.923 159.61 118.923 160.42C118.923 161.23 118.263 161.89 117.453 161.89H66.4427Z" fill="#3CB097"/>
<path d="M66.4427 173.1C65.6327 173.1 64.9727 172.44 64.9727 171.63C64.9727 170.82 65.6327 170.16 66.4427 170.16H89.7427C90.5527 170.16 91.2127 170.82 91.2127 171.63C91.2127 172.44 90.5527 173.1 89.7427 173.1H66.4427Z" fill="#3CB097"/>
<path d="M286.931 88.4199H238.591C234.653 88.4199 231.461 91.6121 231.461 95.5499V118.1C231.461 122.038 234.653 125.23 238.591 125.23H286.931C290.869 125.23 294.061 122.038 294.061 118.1V95.5499C294.061 91.6121 290.869 88.4199 286.931 88.4199Z" fill="white"/>
<path d="M247.949 101.19H241.199V119.11H247.949V101.19Z" fill="#3CB097"/>
<path d="M260.277 107.22H253.527V119.11H260.277V107.22Z" fill="#3CB097"/>
<path d="M272.508 97.1001H265.758V119.11H272.508V97.1001Z" fill="#3CB097"/>
<path d="M285.898 105.29H279.148V119.11H285.898V105.29Z" fill="#3CB097"/>
<path d="M299.149 276.48L294.349 275.62C293.819 275.52 293.399 275.13 293.239 274.62C292.849 273.37 292.329 272.17 291.709 271.03C291.439 270.55 291.459 269.96 291.769 269.51L294.589 265.47C294.989 264.9 294.919 264.13 294.429 263.64L291.069 260.28C290.579 259.79 289.809 259.72 289.239 260.12L285.099 263C284.649 263.31 284.079 263.33 283.599 263.08C282.499 262.5 281.339 262.02 280.129 261.66C279.609 261.5 279.209 261.08 279.109 260.54L278.219 255.56C278.099 254.88 277.509 254.38 276.809 254.38H272.059C271.369 254.38 270.779 254.88 270.649 255.56L269.759 260.54C269.659 261.08 269.259 261.5 268.739 261.66C267.529 262.02 266.369 262.5 265.269 263.08C264.789 263.33 264.209 263.31 263.769 263L259.629 260.12C259.059 259.72 258.289 259.79 257.799 260.28L254.439 263.64C253.949 264.13 253.879 264.9 254.279 265.47L257.099 269.51C257.419 269.96 257.429 270.55 257.159 271.03C256.539 272.16 256.019 273.36 255.629 274.62C255.469 275.14 255.049 275.53 254.519 275.62L249.719 276.48C249.039 276.6 248.539 277.19 248.539 277.89V282.64C248.539 283.33 249.039 283.92 249.719 284.05L254.369 284.88C254.909 284.98 255.339 285.39 255.489 285.92C255.869 287.25 256.389 288.53 257.019 289.73C257.269 290.21 257.259 290.79 256.949 291.23L254.279 295.06C253.879 295.63 253.949 296.4 254.439 296.89L257.799 300.25C258.289 300.74 259.059 300.81 259.629 300.41L263.369 297.81C263.819 297.49 264.409 297.48 264.889 297.75C266.129 298.43 267.439 298.99 268.819 299.4C269.339 299.56 269.749 299.98 269.839 300.52L270.639 304.98C270.759 305.66 271.349 306.16 272.049 306.16H276.799C277.489 306.16 278.079 305.66 278.209 304.98L279.009 300.52C279.109 299.98 279.509 299.56 280.029 299.4C281.409 298.99 282.729 298.44 283.959 297.75C284.439 297.48 285.029 297.49 285.479 297.81L289.219 300.41C289.789 300.81 290.559 300.74 291.049 300.25L294.409 296.89C294.899 296.4 294.969 295.63 294.569 295.06L291.899 291.23C291.589 290.78 291.569 290.21 291.829 289.73C292.469 288.53 292.979 287.25 293.359 285.92C293.509 285.39 293.939 284.98 294.479 284.88L299.129 284.05C299.809 283.93 300.309 283.34 300.309 282.64V277.89C300.309 277.2 299.809 276.61 299.129 276.48H299.149ZM274.449 291.32C268.339 291.32 263.389 286.37 263.389 280.26C263.389 274.15 268.339 269.2 274.449 269.2C280.559 269.2 285.509 274.15 285.509 280.26C285.509 286.37 280.559 291.32 274.449 291.32Z" fill="white"/>
<path d="M274.451 285.57C271.521 285.57 269.141 283.19 269.141 280.26C269.141 277.33 271.521 274.95 274.451 274.95C277.381 274.95 279.761 277.33 279.761 280.26C279.761 283.19 277.381 285.57 274.451 285.57Z" fill="white"/>
<path d="M269.85 58.3097L266.94 57.7897C266.62 57.7297 266.36 57.4897 266.27 57.1797C266.03 56.4197 265.72 55.6897 265.34 54.9997C265.18 54.7097 265.19 54.3497 265.38 54.0797L267.09 51.6297C267.33 51.2897 267.29 50.8197 266.99 50.5197L264.95 48.4797C264.65 48.1797 264.19 48.1397 263.84 48.3797L261.33 50.1297C261.06 50.3197 260.71 50.3297 260.42 50.1797C259.75 49.8297 259.05 49.5397 258.32 49.3197C258 49.2197 257.76 48.9697 257.7 48.6397L257.16 45.6197C257.09 45.2097 256.73 44.9097 256.31 44.9097H253.43C253.01 44.9097 252.65 45.2097 252.58 45.6197L252.04 48.6397C251.98 48.9697 251.74 49.2197 251.42 49.3197C250.69 49.5397 249.98 49.8297 249.32 50.1797C249.03 50.3297 248.68 50.3197 248.41 50.1297L245.9 48.3797C245.56 48.1397 245.09 48.1797 244.79 48.4797L242.75 50.5197C242.45 50.8197 242.41 51.2797 242.65 51.6297L244.36 54.0797C244.55 54.3497 244.56 54.7097 244.4 54.9997C244.02 55.6897 243.71 56.4197 243.47 57.1797C243.37 57.4897 243.12 57.7297 242.8 57.7897L239.89 58.3097C239.48 58.3797 239.18 58.7397 239.18 59.1597V62.0397C239.18 62.4597 239.48 62.8197 239.89 62.8897L242.71 63.3997C243.04 63.4597 243.3 63.7097 243.39 64.0297C243.62 64.8397 243.93 65.6097 244.32 66.3397C244.47 66.6297 244.46 66.9797 244.28 67.2497L242.66 69.5797C242.42 69.9197 242.46 70.3897 242.76 70.6897L244.8 72.7297C245.1 73.0297 245.56 73.0697 245.91 72.8297L248.18 71.2497C248.46 71.0597 248.81 71.0497 249.1 71.2097C249.85 71.6297 250.65 71.9597 251.49 72.2097C251.81 72.2997 252.05 72.5597 252.11 72.8897L252.59 75.5997C252.66 76.0097 253.02 76.3097 253.44 76.3097H256.32C256.74 76.3097 257.1 76.0097 257.17 75.5997L257.65 72.8897C257.71 72.5597 257.95 72.3097 258.27 72.2097C259.11 71.9597 259.91 71.6297 260.66 71.2097C260.95 71.0497 261.31 71.0597 261.58 71.2497L263.85 72.8297C264.19 73.0697 264.66 73.0297 264.96 72.7297L267 70.6897C267.3 70.3897 267.34 69.9297 267.1 69.5797L265.48 67.2497C265.29 66.9797 265.28 66.6297 265.44 66.3397C265.83 65.6097 266.14 64.8397 266.37 64.0297C266.46 63.7097 266.72 63.4597 267.05 63.3997L269.87 62.8897C270.28 62.8197 270.58 62.4597 270.58 62.0397V59.1597C270.58 58.7397 270.28 58.3797 269.87 58.3097H269.85ZM254.86 67.3197C251.15 67.3197 248.15 64.3197 248.15 60.6097C248.15 56.8997 251.15 53.8997 254.86 53.8997C258.57 53.8997 261.57 56.9097 261.57 60.6097C261.57 64.3097 258.57 67.3197 254.86 67.3197Z" fill="white"/>
<path d="M254.861 57.1196C252.931 57.1196 251.371 58.6796 251.371 60.6096C251.371 62.5396 252.931 64.0996 254.861 64.0996C256.791 64.0996 258.351 62.5396 258.351 60.6096C258.351 58.6796 256.791 57.1196 254.861 57.1196Z" fill="white"/>
<path d="M94.6505 224.7L88.8905 223.67C88.2505 223.56 87.7505 223.09 87.5605 222.47C87.0905 220.97 86.4705 219.53 85.7305 218.17C85.4105 217.59 85.4305 216.89 85.8105 216.34L89.1905 211.49C89.6605 210.81 89.5805 209.89 89.0005 209.3L84.9705 205.27C84.3805 204.68 83.4605 204.6 82.7805 205.08L77.8105 208.54C77.2805 208.91 76.5905 208.93 76.0105 208.63C74.6905 207.94 73.3005 207.36 71.8505 206.92C71.2205 206.73 70.7405 206.22 70.6305 205.58L69.5605 199.6C69.4105 198.78 68.7005 198.19 67.8705 198.19H62.1705C61.3405 198.19 60.6305 198.78 60.4805 199.6L59.4105 205.58C59.2905 206.22 58.8205 206.73 58.1905 206.92C56.7405 207.36 55.3505 207.93 54.0305 208.63C53.4505 208.93 52.7605 208.91 52.2305 208.54L47.2605 205.08C46.5805 204.61 45.6605 204.69 45.0705 205.27L41.0405 209.3C40.4505 209.89 40.3705 210.81 40.8505 211.49L44.2305 216.34C44.6105 216.88 44.6205 217.59 44.3105 218.17C43.5605 219.53 42.9505 220.97 42.4805 222.47C42.2905 223.09 41.7805 223.56 41.1505 223.67L35.3905 224.7C34.5705 224.85 33.9805 225.56 33.9805 226.39V232.09C33.9805 232.92 34.5705 233.63 35.3905 233.78L40.9705 234.78C41.6205 234.9 42.1305 235.39 42.3205 236.03C42.7805 237.63 43.3905 239.16 44.1605 240.6C44.4705 241.18 44.4405 241.87 44.0705 242.4L40.8705 247C40.4005 247.68 40.4805 248.6 41.0605 249.19L45.0905 253.22C45.6805 253.81 46.6005 253.89 47.2805 253.41L51.7705 250.29C52.3105 249.91 53.0205 249.9 53.6005 250.22C55.0805 251.04 56.6605 251.71 58.3205 252.2C58.9505 252.39 59.4305 252.89 59.5505 253.54L60.5105 258.89C60.6605 259.71 61.3705 260.3 62.2005 260.3H67.9005C68.7305 260.3 69.4405 259.71 69.5905 258.89L70.5505 253.54C70.6705 252.89 71.1505 252.39 71.7805 252.2C73.4305 251.71 75.0105 251.04 76.5005 250.22C77.0805 249.9 77.7805 249.91 78.3305 250.29L82.8205 253.41C83.5005 253.88 84.4205 253.8 85.0105 253.22L89.0405 249.19C89.6305 248.6 89.7105 247.68 89.2305 247L86.0305 242.4C85.6605 241.87 85.6405 241.18 85.9405 240.6C86.7005 239.16 87.3205 237.63 87.7805 236.03C87.9605 235.39 88.4705 234.9 89.1305 234.78L94.7105 233.78C95.5305 233.63 96.1205 232.92 96.1205 232.09V226.39C96.1205 225.56 95.5305 224.85 94.7105 224.7H94.6505ZM65.0205 245.92C55.8005 245.92 48.3305 238.45 48.3305 229.23C48.3305 220.01 55.8005 212.54 65.0205 212.54C74.2405 212.54 81.7105 220.01 81.7105 229.23C81.7105 238.45 74.2405 245.92 65.0205 245.92Z" fill="white"/>
<path d="M54.4023 233.12H59.8523V242.62C57.7523 241.81 55.8923 240.51 54.4023 238.88V233.12Z" fill="url(#paint20_linear_4179_6514)"/>
<path d="M62.3008 223.4H67.7508V243.33C66.8708 243.5 65.9608 243.59 65.0308 243.59C64.1008 243.59 63.1908 243.5 62.3108 243.33V223.4H62.3008Z" fill="url(#paint21_linear_4179_6514)"/>
<path d="M75.6392 231.96V238.87C74.1492 240.51 72.2992 241.8 70.1992 242.61V231.96H75.6392Z" fill="url(#paint22_linear_4179_6514)"/>
<path d="M59.8406 233.12V242.62C57.7406 241.81 55.8806 240.51 54.3906 238.88V233.12H59.8406Z" fill="white"/>
<path d="M67.7408 223.4V243.33C66.8608 243.5 65.9508 243.59 65.0208 243.59C64.0908 243.59 63.1808 243.5 62.3008 243.33V223.4H67.7508H67.7408Z" fill="white"/>
<path d="M75.6392 231.96V238.87C74.1492 240.51 72.2992 241.8 70.1992 242.61V231.96H75.6392Z" fill="white"/>
</g>
<defs>
<linearGradient id="paint0_linear_4179_6514" x1="106.679" y1="320.97" x2="106.679" y2="48.4396" gradientUnits="userSpaceOnUse">
<stop stop-color="white" stop-opacity="0"/>
<stop offset="1" stop-color="white"/>
</linearGradient>
<linearGradient id="paint1_linear_4179_6514" x1="280.709" y1="334.63" x2="280.709" y2="180" gradientUnits="userSpaceOnUse">
<stop stop-color="white" stop-opacity="0"/>
<stop offset="1" stop-color="white"/>
</linearGradient>
<linearGradient id="paint2_linear_4179_6514" x1="245.989" y1="305.32" x2="245.989" y2="31.8096" gradientUnits="userSpaceOnUse">
<stop stop-color="white" stop-opacity="0"/>
<stop offset="1" stop-color="white"/>
</linearGradient>
<linearGradient id="paint3_linear_4179_6514" x1="83.0913" y1="363.98" x2="83.0913" y2="184.12" gradientUnits="userSpaceOnUse">
<stop stop-color="white" stop-opacity="0"/>
<stop offset="1" stop-color="white"/>
</linearGradient>
<linearGradient id="paint4_linear_4179_6514" x1="26.83" y1="355.3" x2="26.83" y2="236.35" gradientUnits="userSpaceOnUse">
<stop stop-color="white" stop-opacity="0"/>
<stop offset="1" stop-color="white"/>
</linearGradient>
<linearGradient id="paint5_linear_4179_6514" x1="309.521" y1="353.98" x2="309.521" y2="244.27" gradientUnits="userSpaceOnUse">
<stop stop-color="white" stop-opacity="0"/>
<stop offset="1" stop-color="white"/>
</linearGradient>
<linearGradient id="paint6_linear_4179_6514" x1="178.741" y1="375.15" x2="178.741" y2="181.38" gradientUnits="userSpaceOnUse">
<stop stop-color="white" stop-opacity="0"/>
<stop offset="0.447115" stop-color="#3CB097"/>
</linearGradient>
<linearGradient id="paint7_linear_4179_6514" x1="217.699" y1="86.9095" x2="140.049" y2="9.2595" gradientUnits="userSpaceOnUse">
<stop stop-color="#327A6D"/>
<stop offset="0.851056" stop-color="#44DCBB"/>
</linearGradient>
<linearGradient id="paint8_linear_4179_6514" x1="201.888" y1="70.8818" x2="155.698" y2="24.7018" gradientUnits="userSpaceOnUse">
<stop stop-color="#327A6D"/>
<stop offset="0.84" stop-color="#44DCBB"/>
</linearGradient>
<linearGradient id="paint9_linear_4179_6514" x1="201.961" y1="71.1599" x2="155.771" y2="24.9799" gradientUnits="userSpaceOnUse">
<stop stop-color="#327A6D"/>
<stop offset="0.84" stop-color="#44DCBB"/>
</linearGradient>
<linearGradient id="paint10_linear_4179_6514" x1="110.802" y1="265.589" x2="152.812" y2="216.099" gradientUnits="userSpaceOnUse">
<stop offset="0.16" stop-color="#3CB097"/>
<stop offset="1" stop-color="#005143"/>
</linearGradient>
<linearGradient id="paint11_linear_4179_6514" x1="244.302" y1="259.829" x2="201.142" y2="222.999" gradientUnits="userSpaceOnUse">
<stop offset="0.16" stop-color="#3CB097"/>
<stop offset="1" stop-color="#005143"/>
</linearGradient>
<linearGradient id="paint12_linear_4179_6514" x1="141.57" y1="73.4394" x2="215.88" y2="73.4394" gradientUnits="userSpaceOnUse">
<stop offset="0.16" stop-color="#3CB097"/>
<stop offset="1" stop-color="#327A6D"/>
</linearGradient>
<linearGradient id="paint13_linear_4179_6514" x1="178.98" y1="259.79" x2="178.98" y2="252.11" gradientUnits="userSpaceOnUse">
<stop offset="0.16" stop-color="#02B495"/>
<stop offset="1" stop-color="#109880"/>
</linearGradient>
<linearGradient id="paint14_linear_4179_6514" x1="178.98" y1="259.79" x2="178.98" y2="252.11" gradientUnits="userSpaceOnUse">
<stop offset="0.16" stop-color="#02B495"/>
<stop offset="1" stop-color="#109880"/>
</linearGradient>
<linearGradient id="paint15_linear_4179_6514" x1="162.06" y1="144.349" x2="200.64" y2="105.769" gradientUnits="userSpaceOnUse">
<stop stop-color="#F9F9FA" stop-opacity="0"/>
<stop offset="1" stop-color="#F9F9FA"/>
</linearGradient>
<linearGradient id="paint16_linear_4179_6514" x1="171.55" y1="153.839" x2="210.13" y2="115.269" gradientUnits="userSpaceOnUse">
<stop stop-color="#F9F9FA" stop-opacity="0"/>
<stop offset="1" stop-color="#F9F9FA"/>
</linearGradient>
<radialGradient id="paint17_radial_4179_6514" cx="0" cy="0" r="1" gradientUnits="userSpaceOnUse" gradientTransform="translate(183.466 141) scale(26.32 26.32)">
<stop/>
<stop offset="1" stop-color="#F9F9FA"/>
</radialGradient>
<linearGradient id="paint18_linear_4179_6514" x1="193.45" y1="152.12" x2="168.55" y2="127.23" gradientUnits="userSpaceOnUse">
<stop stop-color="#327A6D"/>
<stop offset="1" stop-color="#44DCBB"/>
</linearGradient>
<linearGradient id="paint19_linear_4179_6514" x1="199.001" y1="249.96" x2="141.431" y2="192.39" gradientUnits="userSpaceOnUse">
<stop offset="0.16" stop-color="#44DCBB"/>
<stop offset="1" stop-color="#327A6D"/>
</linearGradient>
<linearGradient id="paint20_linear_4179_6514" x1="54.4023" y1="237.87" x2="59.8423" y2="237.87" gradientUnits="userSpaceOnUse">
<stop stop-color="#077AE2"/>
<stop offset="0.14" stop-color="#0880E3"/>
<stop offset="0.35" stop-color="#0E94E8"/>
<stop offset="0.6" stop-color="#17B3EF"/>
<stop offset="0.87" stop-color="#23DFF9"/>
<stop offset="1" stop-color="#2AF6FF"/>
</linearGradient>
<linearGradient id="paint21_linear_4179_6514" x1="62.3008" y1="233.49" x2="67.7408" y2="233.49" gradientUnits="userSpaceOnUse">
<stop stop-color="#077AE2"/>
<stop offset="0.14" stop-color="#0880E3"/>
<stop offset="0.35" stop-color="#0E94E8"/>
<stop offset="0.6" stop-color="#17B3EF"/>
<stop offset="0.87" stop-color="#23DFF9"/>
<stop offset="1" stop-color="#2AF6FF"/>
</linearGradient>
<linearGradient id="paint22_linear_4179_6514" x1="70.1992" y1="237.29" x2="75.6392" y2="237.29" gradientUnits="userSpaceOnUse">
<stop stop-color="#077AE2"/>
<stop offset="0.14" stop-color="#0880E3"/>
<stop offset="0.35" stop-color="#0E94E8"/>
<stop offset="0.6" stop-color="#17B3EF"/>
<stop offset="0.87" stop-color="#23DFF9"/>
<stop offset="1" stop-color="#2AF6FF"/>
</linearGradient>
<clipPath id="clip0_4179_6514">
<rect width="334.27" height="338.35" fill="white"/>
</clipPath>
</defs>
</svg>
