<svg width="21" height="21" viewBox="0 0 21 21" fill="none" xmlns="http://www.w3.org/2000/svg">
<g clip-path="url(#clip0_4435_1517)">
<rect x="5.02515" y="1.04859" width="11.2195" height="19.0244" rx="0.731707" stroke="#95A1B1" stroke-width="0.487805"/>
<rect x="6.85633" y="4.82947" width="1.70732" height="1.70732" rx="0.853658" stroke="#95A1B1" stroke-width="0.243902"/>
<rect x="9.78211" y="4.82947" width="1.70732" height="1.70732" rx="0.853658" stroke="#95A1B1" stroke-width="0.243902"/>
<rect x="12.7079" y="4.82947" width="1.70732" height="1.70732" rx="0.853658" stroke="#95A1B1" stroke-width="0.243902"/>
<rect x="6.85633" y="7.75623" width="1.70732" height="1.70732" rx="0.853658" stroke="#95A1B1" stroke-width="0.243902"/>
<rect x="9.78211" y="7.75623" width="1.70732" height="1.70732" rx="0.853658" stroke="#95A1B1" stroke-width="0.243902"/>
<rect x="12.7079" y="7.75623" width="1.70732" height="1.70732" rx="0.853658" stroke="#95A1B1" stroke-width="0.243902"/>
<rect x="6.85633" y="10.683" width="1.70732" height="1.70732" rx="0.853658" stroke="#95A1B1" stroke-width="0.243902"/>
<rect x="9.78211" y="10.683" width="1.70732" height="1.70732" rx="0.853658" stroke="#95A1B1" stroke-width="0.243902"/>
<rect x="12.7079" y="10.683" width="1.70732" height="1.70732" rx="0.853658" stroke="#95A1B1" stroke-width="0.243902"/>
<rect x="9.78211" y="13.6097" width="1.70732" height="1.70732" rx="0.853658" stroke="#95A1B1" stroke-width="0.243902"/>
</g>
<defs>
<clipPath id="clip0_4435_1517">
<rect width="19.5122" height="19.5122" fill="white" transform="translate(0.878906 0.804688)"/>
</clipPath>
</defs>
</svg>
