<svg width="20" height="20" viewBox="0 0 20 20" fill="none" xmlns="http://www.w3.org/2000/svg">
<path fill-rule="evenodd" clip-rule="evenodd" d="M10.0013 1.04199C9.49714 1.04199 9.03297 1.16699 8.52547 1.37699C8.03464 1.58033 7.46463 1.87949 6.75547 2.25199L5.03214 3.15616C4.1613 3.61283 3.46547 3.97866 2.9263 4.33783C2.36964 4.71033 1.93964 5.10199 1.62714 5.63283C1.31547 6.16199 1.17547 6.73533 1.10797 7.41783C1.04297 8.08033 1.04297 8.89449 1.04297 9.91949V10.0812C1.04297 11.1062 1.04297 11.9203 1.10797 12.5828C1.17547 13.2662 1.3163 13.8387 1.62714 14.3678C1.93964 14.8987 2.3688 15.2903 2.92714 15.6628C3.46464 16.022 4.1613 16.3878 5.03214 16.8445L6.75547 17.7487C7.46463 18.1212 8.03464 18.4203 8.52547 18.6237C9.0338 18.8337 9.49714 18.9587 10.0013 18.9587C10.5055 18.9587 10.9696 18.8337 11.4771 18.6237C11.968 18.4203 12.538 18.1212 13.2471 17.7487L14.9705 16.8453C15.8413 16.3878 16.5371 16.022 17.0755 15.6628C17.6338 15.2903 18.063 14.8987 18.3755 14.3678C18.6871 13.8387 18.8271 13.2653 18.8946 12.5828C18.9596 11.9203 18.9596 11.1062 18.9596 10.082V9.91866C18.9596 8.89449 18.9596 8.08033 18.8946 7.41783C18.8271 6.73449 18.6863 6.16199 18.3755 5.63283C18.063 5.10199 17.6338 4.71033 17.0755 4.33783C16.538 3.97866 15.8413 3.61283 14.9705 3.15616L13.2471 2.25199C12.538 1.87949 11.968 1.58033 11.4771 1.37699C10.9688 1.16699 10.5055 1.04199 10.0013 1.04199ZM7.30964 3.37199C8.0513 2.98283 8.5713 2.71116 9.00297 2.53283C9.42297 2.35866 9.7188 2.29199 10.0013 2.29199C10.2846 2.29199 10.5796 2.35866 10.9996 2.53283C11.4313 2.71116 11.9505 2.98283 12.6921 3.37199L14.3588 4.24699C15.2671 4.72283 15.9046 5.05866 16.3821 5.37699C16.6171 5.53449 16.8013 5.68033 16.9513 5.82699L14.1755 7.21449L7.09213 3.48616L7.30964 3.37199ZM5.7888 4.17033L5.6438 4.24699C4.73547 4.72283 4.09797 5.05866 3.6213 5.37699C3.41806 5.50906 3.22752 5.6597 3.05214 5.82699L10.0013 9.30199L12.7988 7.90199L5.96047 4.30366C5.89634 4.2689 5.83834 4.22386 5.7888 4.17033ZM2.44964 6.92283C2.40797 7.10116 2.37547 7.30366 2.35214 7.53949C2.2938 8.13449 2.29297 8.88699 2.29297 9.95116V10.0487C2.29297 11.1137 2.29297 11.8662 2.35214 12.4603C2.40964 13.0412 2.5188 13.417 2.70464 13.7337C2.88964 14.0478 3.15714 14.3137 3.6213 14.6237C4.09797 14.942 4.73547 15.2778 5.6438 15.7537L7.31047 16.6287C8.05213 17.0178 8.5713 17.2895 9.00297 17.4678C9.13852 17.5239 9.26297 17.5698 9.3763 17.6053V10.3862L2.44964 6.92283ZM10.6263 17.6045C10.7396 17.5695 10.8641 17.5239 10.9996 17.4678C11.4313 17.2895 11.9505 17.0178 12.6921 16.6287L14.3588 15.7537C15.2671 15.277 15.9046 14.942 16.3821 14.6237C16.8455 14.3137 17.113 14.0478 17.2988 13.7337C17.4846 13.417 17.593 13.042 17.6505 12.4603C17.7088 11.8662 17.7096 11.1137 17.7096 10.0495V9.95199C17.7096 8.88699 17.7096 8.13449 17.6505 7.54033C17.6308 7.33294 17.5983 7.12698 17.553 6.92366L14.793 8.30283V10.8337C14.793 10.9994 14.7271 11.1584 14.6099 11.2756C14.4927 11.3928 14.3337 11.4587 14.168 11.4587C14.0022 11.4587 13.8432 11.3928 13.726 11.2756C13.6088 11.1584 13.543 10.9994 13.543 10.8337V8.92866L10.6263 10.387V17.6045Z" fill="white"/>
</svg>
