<svg width="20" height="20" viewBox="0 0 20 20" fill="none" xmlns="http://www.w3.org/2000/svg">
<path d="M10.0013 14.167C10.2374 14.167 10.4355 14.087 10.5955 13.927C10.7555 13.767 10.8352 13.5692 10.8346 13.3337V10.0003C10.8346 9.76421 10.7546 9.56644 10.5946 9.40699C10.4346 9.24755 10.2369 9.16755 10.0013 9.16699C9.76575 9.16644 9.56797 9.24644 9.40797 9.40699C9.24797 9.56755 9.16797 9.76533 9.16797 10.0003V13.3337C9.16797 13.5698 9.24797 13.7678 9.40797 13.9278C9.56797 14.0878 9.76575 14.1675 10.0013 14.167ZM10.0013 7.50033C10.2374 7.50033 10.4355 7.42033 10.5955 7.26033C10.7555 7.10033 10.8352 6.90255 10.8346 6.66699C10.8341 6.43144 10.7541 6.23366 10.5946 6.07366C10.4352 5.91366 10.2374 5.83366 10.0013 5.83366C9.76519 5.83366 9.56741 5.91366 9.40797 6.07366C9.24853 6.23366 9.16852 6.43144 9.16797 6.66699C9.16741 6.90255 9.24741 7.1006 9.40797 7.26116C9.56852 7.42171 9.7663 7.50144 10.0013 7.50033ZM10.0013 18.3337C8.84853 18.3337 7.76519 18.1148 6.7513 17.677C5.73741 17.2392 4.85547 16.6456 4.10547 15.8962C3.35547 15.1467 2.76186 14.2648 2.32464 13.2503C1.88741 12.2359 1.66853 11.1525 1.66797 10.0003C1.66741 8.8481 1.8863 7.76477 2.32464 6.75033C2.76297 5.73588 3.35658 4.85394 4.10547 4.10449C4.85436 3.35505 5.7363 2.76144 6.7513 2.32366C7.7663 1.88588 8.84964 1.66699 10.0013 1.66699C11.153 1.66699 12.2363 1.88588 13.2513 2.32366C14.2663 2.76144 15.1482 3.35505 15.8971 4.10449C16.646 4.85394 17.2399 5.73588 17.6788 6.75033C18.1177 7.76477 18.3363 8.8481 18.3346 10.0003C18.333 11.1525 18.1141 12.2359 17.678 13.2503C17.2419 14.2648 16.6482 15.1467 15.8971 15.8962C15.146 16.6456 14.2641 17.2395 13.2513 17.6778C12.2385 18.1162 11.1552 18.3348 10.0013 18.3337ZM10.0013 16.667C11.8624 16.667 13.4388 16.0212 14.7305 14.7295C16.0221 13.4378 16.668 11.8614 16.668 10.0003C16.668 8.13921 16.0221 6.56283 14.7305 5.27116C13.4388 3.97949 11.8624 3.33366 10.0013 3.33366C8.14019 3.33366 6.5638 3.97949 5.27214 5.27116C3.98047 6.56283 3.33464 8.13921 3.33464 10.0003C3.33464 11.8614 3.98047 13.4378 5.27214 14.7295C6.5638 16.0212 8.14019 16.667 10.0013 16.667Z" fill="white"/>
</svg>
