<svg width="20" height="20" viewBox="0 0 20 20" fill="none" xmlns="http://www.w3.org/2000/svg">
<path d="M10.0013 1.66699C14.6038 1.66699 18.3346 5.39783 18.3346 10.0003C18.3346 14.6028 14.6038 18.3337 10.0013 18.3337C5.3988 18.3337 1.66797 14.6028 1.66797 10.0003C1.66797 5.39783 5.3988 1.66699 10.0013 1.66699ZM10.0013 3.33366C8.23319 3.33366 6.5375 4.03604 5.28726 5.28628C4.03701 6.53652 3.33464 8.23222 3.33464 10.0003C3.33464 11.7684 4.03701 13.4641 5.28726 14.7144C6.5375 15.9646 8.23319 16.667 10.0013 16.667C11.7694 16.667 13.4651 15.9646 14.7153 14.7144C15.9656 13.4641 16.668 11.7684 16.668 10.0003C16.668 8.23222 15.9656 6.53652 14.7153 5.28628C13.4651 4.03604 11.7694 3.33366 10.0013 3.33366ZM10.0013 13.3337C10.2223 13.3337 10.4343 13.4215 10.5906 13.5777C10.7468 13.734 10.8346 13.946 10.8346 14.167C10.8346 14.388 10.7468 14.6 10.5906 14.7562C10.4343 14.9125 10.2223 15.0003 10.0013 15.0003C9.78029 15.0003 9.56833 14.9125 9.41205 14.7562C9.25577 14.6 9.16797 14.388 9.16797 14.167C9.16797 13.946 9.25577 13.734 9.41205 13.5777C9.56833 13.4215 9.78029 13.3337 10.0013 13.3337ZM10.0013 5.41699C10.7032 5.41701 11.3832 5.66145 11.9245 6.10833C12.4657 6.5552 12.8345 7.17661 12.9674 7.86581C13.1003 8.55501 12.9891 9.26898 12.6528 9.88508C12.3165 10.5012 11.7762 10.981 11.1246 11.242C11.0281 11.2775 10.9411 11.3348 10.8705 11.4095C10.8338 11.4512 10.828 11.5045 10.8288 11.5595L10.8346 11.667C10.8344 11.8794 10.7531 12.0837 10.6073 12.2381C10.4615 12.3926 10.2622 12.4855 10.0501 12.498C9.83811 12.5104 9.62932 12.4414 9.46644 12.3051C9.30356 12.1688 9.19889 11.9754 9.1738 11.7645L9.16797 11.667V11.4587C9.16797 10.4978 9.94297 9.92116 10.5046 9.69532C10.7332 9.60404 10.9326 9.45221 11.0815 9.25615C11.2303 9.06008 11.3229 8.82718 11.3493 8.58246C11.3757 8.33773 11.335 8.09043 11.2315 7.86711C11.128 7.64379 10.9656 7.45288 10.7618 7.31489C10.5579 7.1769 10.3204 7.09704 10.0746 7.08388C9.82876 7.07073 9.58403 7.12477 9.36663 7.24022C9.14923 7.35566 8.96739 7.52814 8.84063 7.73914C8.71387 7.95014 8.64698 8.19168 8.64714 8.43783C8.64714 8.65884 8.55934 8.8708 8.40306 9.02708C8.24678 9.18336 8.03482 9.27116 7.8138 9.27116C7.59279 9.27116 7.38083 9.18336 7.22455 9.02708C7.06827 8.8708 6.98047 8.65884 6.98047 8.43783C6.98047 7.63665 7.29873 6.86829 7.86525 6.30177C8.43177 5.73526 9.20013 5.41699 10.0013 5.41699Z" fill="white"/>
</svg>
