<svg width="18" height="18" viewBox="0 0 18 18" fill="none" xmlns="http://www.w3.org/2000/svg">
<path fill-rule="evenodd" clip-rule="evenodd" d="M3.02214 8.16699H5.8388C5.93964 8.16699 6.10547 8.16699 6.25713 8.18033C6.44463 8.19699 6.76464 8.24366 7.10297 8.43283C7.43832 8.62059 7.7152 8.89747 7.90297 9.23283C8.0913 9.57033 8.13797 9.89033 8.15464 10.0778C8.1688 10.2303 8.16797 10.3953 8.16797 10.4962V15.0045C8.16797 15.1053 8.16797 15.2712 8.15464 15.4228C8.13797 15.6103 8.09213 15.9303 7.90213 16.2687C7.71437 16.604 7.43749 16.8809 7.10214 17.0687C6.84165 17.2119 6.55353 17.2977 6.25713 17.3203C6.10464 17.3337 5.93964 17.3337 5.8388 17.3337H2.99714C2.89714 17.3337 2.73047 17.3337 2.5788 17.3203C2.28234 17.2974 1.99422 17.2113 1.7338 17.0678C1.39845 16.8801 1.12157 16.6032 0.933802 16.2678C0.790299 16.0074 0.704204 15.7193 0.681302 15.4228C0.667969 15.2703 0.667969 15.1053 0.667969 15.0045V10.4962C0.667969 10.3962 0.667969 10.2295 0.681302 10.0778C0.697969 9.89033 0.744635 9.57033 0.933802 9.23283C1.12157 8.89747 1.39845 8.62059 1.7338 8.43283C1.99422 8.28932 2.28234 8.20323 2.5788 8.18033C2.7313 8.16699 2.8963 8.16699 2.99714 8.16699H3.02214ZM2.38797 10.047C2.33464 10.142 2.33464 10.267 2.33464 10.522V14.9803C2.33464 15.2328 2.33464 15.3595 2.38797 15.4537C2.42552 15.5207 2.4809 15.5761 2.54797 15.6137C2.64297 15.667 2.7688 15.667 3.02214 15.667H5.8138C6.06714 15.667 6.1938 15.667 6.2888 15.6137C6.35557 15.576 6.41064 15.5206 6.44797 15.4537C6.5013 15.3595 6.5013 15.2337 6.5013 14.9795V10.5212C6.5013 10.2678 6.5013 10.142 6.44797 10.0462C6.41029 9.97939 6.35493 9.92432 6.28797 9.88699C6.1938 9.83366 6.06797 9.83366 5.8138 9.83366H3.02214C2.7688 9.83366 2.64297 9.83366 2.54714 9.88699C2.48037 9.92467 2.4253 9.98003 2.38797 10.047ZM3.02214 0.666992H5.8388C5.93964 0.666992 6.10547 0.666992 6.25713 0.680326C6.44463 0.696992 6.76464 0.743659 7.10297 0.932826C7.43832 1.12059 7.7152 1.39747 7.90297 1.73283C8.0913 2.07033 8.13797 2.39033 8.15464 2.57783C8.1688 2.73033 8.16797 2.89533 8.16797 2.99616V5.00449C8.16797 5.10533 8.16797 5.27116 8.15464 5.42283C8.13797 5.61033 8.09213 5.93033 7.90213 6.26866C7.71437 6.60401 7.43749 6.88089 7.10214 7.06866C6.84165 7.21187 6.55353 7.29768 6.25713 7.32033C6.10464 7.33449 5.93964 7.33366 5.8388 7.33366H2.99714C2.89714 7.33366 2.73047 7.33366 2.5788 7.32033C2.28234 7.29742 1.99422 7.21133 1.7338 7.06783C1.39845 6.88006 1.12157 6.60318 0.933802 6.26783C0.790299 6.0074 0.704204 5.71928 0.681302 5.42283C0.667969 5.27033 0.667969 5.10533 0.667969 5.00449V2.99616C0.667969 2.89616 0.667969 2.72949 0.681302 2.57783C0.697969 2.39033 0.744635 2.07033 0.933802 1.73283C1.12157 1.39747 1.39845 1.12059 1.7338 0.932826C1.99422 0.789322 2.28234 0.703227 2.5788 0.680326C2.7313 0.666992 2.8963 0.666992 2.99714 0.666992H3.02214ZM2.38797 2.54699C2.33464 2.64199 2.33464 2.76699 2.33464 3.02116V4.97949C2.33464 5.23283 2.33464 5.35949 2.38797 5.45449C2.42564 5.52126 2.48101 5.57633 2.54797 5.61366C2.64297 5.66699 2.76797 5.66699 3.02214 5.66699H5.8138C6.06714 5.66699 6.1938 5.66699 6.2888 5.61366C6.35557 5.57598 6.41064 5.52062 6.44797 5.45366C6.5013 5.35949 6.5013 5.23366 6.5013 4.97949V3.02116C6.5013 2.76783 6.5013 2.64199 6.44797 2.54616C6.41029 2.47939 6.35493 2.42432 6.28797 2.38699C6.1938 2.33366 6.06797 2.33366 5.8138 2.33366H3.02214C2.7688 2.33366 2.64297 2.33366 2.54714 2.38699C2.48037 2.42467 2.4253 2.48003 2.38797 2.54699ZM12.1888 9.83366H15.0055C15.1063 9.83366 15.2721 9.83366 15.4238 9.82033C15.6113 9.80366 15.9313 9.75782 16.2696 9.56783C16.605 9.38006 16.8819 9.10318 17.0696 8.76783C17.2588 8.43033 17.3046 8.11033 17.3213 7.92283C17.3346 7.77033 17.3346 7.60533 17.3346 7.50449V2.99616C17.3346 2.89616 17.3346 2.72949 17.3213 2.57783C17.2984 2.28137 17.2123 1.99325 17.0688 1.73283C16.881 1.39747 16.6042 1.12059 16.2688 0.932826C16.0084 0.789322 15.7203 0.703227 15.4238 0.680326C15.2713 0.666992 15.1063 0.666992 15.0055 0.666992H12.1638C12.0638 0.666992 11.8971 0.666992 11.7455 0.680326C11.558 0.696992 11.238 0.743659 10.9005 0.932826C10.5651 1.12059 10.2882 1.39747 10.1005 1.73283C9.95697 1.99325 9.87087 2.28137 9.84797 2.57783C9.83463 2.73033 9.83463 2.89533 9.83463 2.99616V7.50449C9.83463 7.60533 9.83463 7.77116 9.84797 7.92283C9.86464 8.11033 9.9113 8.43033 10.1005 8.76866C10.2882 9.10401 10.5651 9.38089 10.9005 9.56866C11.238 9.75699 11.558 9.80366 11.7455 9.82033C11.898 9.83449 12.063 9.83366 12.1638 9.83366H12.1888ZM11.5546 7.95366C11.5013 7.85866 11.5013 7.73366 11.5013 7.47949V3.02116C11.5013 2.76783 11.5013 2.64199 11.5546 2.54616C11.5923 2.47939 11.6477 2.42432 11.7146 2.38699C11.8096 2.33366 11.9346 2.33366 12.1896 2.33366H14.9813C15.2338 2.33366 15.3605 2.33366 15.4546 2.38699C15.5217 2.42455 15.5771 2.47992 15.6146 2.54699C15.668 2.64199 15.668 2.76783 15.668 3.02116V7.47949C15.668 7.73283 15.668 7.85866 15.6146 7.95449C15.577 8.02126 15.5216 8.07633 15.4546 8.11366C15.3605 8.16699 15.2338 8.16699 14.9805 8.16699H12.1888C11.9355 8.16699 11.8096 8.16699 11.7138 8.11366C11.647 8.07598 11.592 8.02062 11.5546 7.95366ZM12.1888 17.3337H15.0055C15.1063 17.3337 15.2721 17.3337 15.4238 17.3203C15.6113 17.3037 15.9313 17.257 16.2696 17.0678C16.605 16.8801 16.8819 16.6032 17.0696 16.2678C17.2588 15.9303 17.3046 15.6103 17.3213 15.4228C17.3346 15.2703 17.3346 15.1053 17.3346 15.0045V12.9962C17.3346 12.8962 17.3346 12.7295 17.3213 12.5778C17.2984 12.2814 17.2123 11.9932 17.0688 11.7328C16.881 11.3975 16.6042 11.1206 16.2688 10.9328C16.0084 10.7893 15.7203 10.7032 15.4238 10.6803C15.2713 10.667 15.1063 10.667 15.0055 10.667H12.1638C12.0638 10.667 11.8971 10.667 11.7455 10.6803C11.558 10.697 11.238 10.7437 10.9005 10.9328C10.5651 11.1206 10.2882 11.3975 10.1005 11.7328C9.95697 11.9932 9.87087 12.2814 9.84797 12.5778C9.83463 12.7303 9.83463 12.8953 9.83463 12.9962V15.0045C9.83463 15.1053 9.83463 15.2712 9.84797 15.4228C9.86464 15.6103 9.9113 15.9303 10.1005 16.2687C10.2882 16.604 10.5651 16.8809 10.9005 17.0687C11.238 17.2578 11.558 17.3037 11.7455 17.3203C11.898 17.3337 12.063 17.3337 12.1638 17.3337H12.1888ZM11.5546 15.4537C11.5013 15.3595 11.5013 15.2337 11.5013 14.9795V13.0212C11.5013 12.7678 11.5013 12.642 11.5546 12.5462C11.5923 12.4794 11.6477 12.4243 11.7146 12.387C11.8096 12.3337 11.9355 12.3337 12.1896 12.3337H14.9813C15.2338 12.3337 15.3605 12.3337 15.4546 12.387C15.5213 12.4245 15.5771 12.4795 15.6146 12.547C15.668 12.642 15.668 12.7678 15.668 13.022V14.9803C15.668 15.2328 15.668 15.3595 15.6146 15.4537C15.5771 15.5207 15.5217 15.5761 15.4546 15.6137C15.3605 15.667 15.2338 15.667 14.9805 15.667H12.1888C11.9355 15.667 11.8096 15.667 11.7138 15.6137C11.647 15.576 11.592 15.5206 11.5546 15.4537Z" fill="white"/>
</svg>
