<svg width="20" height="20" viewBox="0 0 20 20" fill="none" xmlns="http://www.w3.org/2000/svg">
<g clip-path="url(#clip0_5389_23223)">
<path d="M9.1738 17.5007H8.00547C5.01797 17.5007 3.52464 17.5007 2.5963 16.5548C1.66797 15.609 1.66797 14.0865 1.66797 11.0423C1.66797 7.99815 1.66797 6.47565 2.5963 5.52982C3.52464 4.58398 5.01797 4.58398 8.00547 4.58398H11.1746C14.1621 4.58398 15.6563 4.58398 16.5846 5.52982C17.2988 6.25732 17.463 7.32648 17.5013 9.16732" stroke="white" stroke-width="1.5" stroke-linecap="round" stroke-linejoin="round"/>
<path d="M16.6834 16.6862L18.3359 18.3337M13.3359 4.58366L13.2526 4.32533C12.8401 3.04199 12.6343 2.40033 12.1434 2.03366C11.6518 1.66699 11.0001 1.66699 9.69427 1.66699H9.4751C8.17094 1.66699 7.51844 1.66699 7.0276 2.03366C6.53594 2.40033 6.3301 3.04199 5.9176 4.32533L5.83594 4.58366M17.5468 14.6053C17.5533 14.2152 17.4822 13.8277 17.3374 13.4654C17.1927 13.1031 16.9773 12.7733 16.7037 12.4951C16.4302 12.2169 16.104 11.996 15.7442 11.8452C15.3844 11.6943 14.9982 11.6167 14.608 11.6167C14.2179 11.6167 13.8316 11.6943 13.4718 11.8452C13.112 11.996 12.7858 12.2169 12.5123 12.4951C12.2388 12.7733 12.0233 13.1031 11.8786 13.4654C11.7339 13.8277 11.6627 14.2152 11.6693 14.6053C11.6823 15.3762 11.9976 16.111 12.5473 16.6516C13.097 17.1921 13.8371 17.495 14.608 17.495C15.379 17.495 16.119 17.1921 16.6688 16.6516C17.2185 16.111 17.5338 15.3762 17.5468 14.6053Z" stroke="white" stroke-width="1.5" stroke-linecap="round" stroke-linejoin="round"/>
</g>
<defs>
<clipPath id="clip0_5389_23223">
<rect width="20" height="20" fill="white"/>
</clipPath>
</defs>
</svg>
