<svg width="20" height="20" viewBox="0 0 20 20" fill="none" xmlns="http://www.w3.org/2000/svg">
<g clip-path="url(#clip0_5389_23215)">
<path d="M16.8088 5.62528H15.2579L11.4529 9.42862C11.584 9.76261 11.596 10.1315 11.4871 10.4734C11.3781 10.8152 11.1547 11.1091 10.8546 11.3056C10.5544 11.5021 10.1957 11.5893 9.8388 11.5525C9.48192 11.5156 9.1486 11.357 8.8949 11.1033C8.64121 10.8496 8.4826 10.5163 8.44576 10.1594C8.40892 9.80252 8.49608 9.44383 8.6926 9.14366C8.88912 8.84348 9.18301 8.62013 9.52484 8.51115C9.86667 8.40218 10.2356 8.41423 10.5696 8.54528L14.3738 4.74111V3.19028C14.3738 2.98276 14.4563 2.78376 14.6029 2.63695L16.0446 1.19528C16.0713 1.16843 16.1048 1.14935 16.1415 1.1401C16.1782 1.13086 16.2167 1.13178 16.2529 1.14278C16.3271 1.16445 16.3821 1.22611 16.3971 1.30195L16.7804 3.21945L18.6971 3.60278C18.7721 3.61778 18.8338 3.67278 18.8554 3.74695C18.8664 3.78298 18.8673 3.8213 18.8582 3.85783C18.8492 3.89437 18.8303 3.92776 18.8038 3.95445L17.3613 5.39611C17.2147 5.54258 17.016 5.62498 16.8088 5.62528Z" fill="white"/>
<path d="M2.1875 10C2.1875 12.072 3.0106 14.0591 4.47573 15.5243C5.94086 16.9894 7.928 17.8125 10 17.8125C11.026 17.8125 12.0419 17.6104 12.9897 17.2178C13.9376 16.8252 14.7988 16.2497 15.5243 15.5243C16.2497 14.7988 16.8252 13.9376 17.2178 12.9897C17.6104 12.0419 17.8125 11.026 17.8125 10C17.8125 9.25167 17.7075 8.52834 17.5117 7.84417C17.4727 7.68708 17.4963 7.52101 17.5773 7.38092C17.6583 7.24082 17.7905 7.13762 17.9461 7.09303C18.1017 7.04844 18.2685 7.06594 18.4114 7.14185C18.5544 7.21775 18.6623 7.34614 18.7125 7.5C18.9408 8.295 19.0625 9.13334 19.0625 10C19.0625 15.005 15.005 19.0625 10 19.0625C4.995 19.0625 0.9375 15.005 0.9375 10C0.9375 4.995 4.995 0.937504 10 0.937504C10.8458 0.936671 11.6867 1.05417 12.5 1.28667C12.5793 1.30892 12.6534 1.34662 12.7181 1.3976C12.7828 1.44859 12.8368 1.51186 12.8769 1.58378C12.9171 1.65569 12.9426 1.73483 12.9521 1.81665C12.9615 1.89847 12.9547 1.98135 12.932 2.06053C12.9094 2.13971 12.8713 2.21363 12.8199 2.27803C12.7686 2.34243 12.705 2.39606 12.6329 2.43581C12.5607 2.47557 12.4815 2.50067 12.3996 2.50969C12.3177 2.5187 12.2349 2.51145 12.1558 2.48834C11.4547 2.28822 10.7291 2.18696 10 2.1875C7.928 2.1875 5.94086 3.0106 4.47573 4.47573C3.0106 5.94086 2.1875 7.928 2.1875 10Z" fill="white"/>
<path d="M5.93647 9.99983C5.9388 10.5518 6.05359 11.0974 6.27384 11.6035C6.4941 12.1096 6.81519 12.5655 7.21751 12.9434C7.61983 13.3212 8.09495 13.6131 8.61385 13.8012C9.13274 13.9893 9.68454 14.0697 10.2355 14.0374C10.7865 14.0052 11.3252 13.8609 11.8186 13.6136C12.312 13.3662 12.7498 13.0208 13.1052 12.5986C13.4607 12.1764 13.7264 11.6861 13.8861 11.1578C14.0458 10.6294 14.0961 10.0741 14.034 9.52566C14.0165 9.41459 14.0293 9.30085 14.0712 9.1965C14.1131 9.09214 14.1824 9.00106 14.2719 8.9329C14.3613 8.86474 14.4675 8.82204 14.5792 8.80932C14.6909 8.7966 14.804 8.81434 14.9065 8.86066C15.1156 8.95399 15.2565 9.15316 15.2748 9.38149C15.4042 10.4775 15.1889 11.5867 14.6589 12.5547C14.1288 13.5227 13.3104 14.3016 12.3173 14.783C11.3242 15.2645 10.2057 15.4245 9.11746 15.241C8.02918 15.0575 7.0251 14.5395 6.2448 13.759C5.46472 12.9793 4.94658 11.9763 4.76224 10.8889C4.57791 9.80151 4.73652 8.68371 5.21607 7.69053C5.69563 6.69735 6.47236 5.87801 7.43854 5.34615C8.40472 4.81429 9.51247 4.59627 10.6081 4.72233C10.691 4.73001 10.7714 4.75415 10.8448 4.79334C10.9182 4.83252 10.983 4.88596 11.0355 4.95052C11.0879 5.01508 11.127 5.08946 11.1503 5.16931C11.1736 5.24915 11.1808 5.33285 11.1714 5.4155C11.1619 5.49815 11.1361 5.57809 11.0954 5.65062C11.0547 5.72316 10.9999 5.78683 10.9342 5.83792C10.8686 5.889 10.7934 5.92647 10.7131 5.94812C10.6327 5.96976 10.5489 5.97516 10.4665 5.96399C9.89733 5.89819 9.3207 5.9535 8.77444 6.12627C8.22818 6.29905 7.72463 6.5854 7.29684 6.96652C6.86906 7.34764 6.52671 7.81492 6.29225 8.33768C6.0578 8.86045 5.93656 9.42689 5.93647 9.99983Z" fill="white"/>
</g>
<defs>
<clipPath id="clip0_5389_23215">
<rect width="20" height="20" fill="white"/>
</clipPath>
</defs>
</svg>
