<svg width="20" height="20" viewBox="0 0 20 20" fill="none" xmlns="http://www.w3.org/2000/svg">
<path d="M3.33203 16.6662V13.3329H6.15286L9.58203 9.90372V7.49288C9.1037 7.36566 8.70648 7.11705 8.39036 6.74705C8.0737 6.37705 7.91536 5.94427 7.91536 5.44872C7.91536 4.87149 8.11814 4.37983 8.5237 3.97372C8.92925 3.5676 9.42092 3.3651 9.9987 3.36622C10.5765 3.36733 11.0681 3.5701 11.4737 3.97455C11.8793 4.37899 12.082 4.87066 12.082 5.44955C12.082 5.9451 11.9237 6.37788 11.607 6.74788C11.2915 7.11844 10.8943 7.36705 10.4154 7.49372V9.90455L13.8454 13.3329H16.6654V16.6662H13.332V14.0287L9.9987 10.6954L6.66536 14.0287V16.6662H3.33203Z" fill="white"/>
</svg>
