<svg width="20" height="20" viewBox="0 0 20 20" fill="none" xmlns="http://www.w3.org/2000/svg">
<path d="M4.02266 10.0205L7.25182 13.2497C7.4046 13.4025 7.48099 13.5969 7.48099 13.833C7.48099 14.0691 7.4046 14.2636 7.25182 14.4163C7.09904 14.5691 6.9046 14.6455 6.66849 14.6455C6.43238 14.6455 6.23793 14.5691 6.08516 14.4163L2.25182 10.583C2.16849 10.4997 2.10932 10.4094 2.07432 10.3122C2.03932 10.215 2.02238 10.1108 2.02349 9.99967C2.0246 9.88856 2.0421 9.7844 2.07599 9.68717C2.10988 9.58995 2.16877 9.49967 2.25266 9.41634L6.08599 5.58301C6.25266 5.41634 6.45071 5.33301 6.68016 5.33301C6.9096 5.33301 7.10738 5.41634 7.27349 5.58301C7.4396 5.74967 7.52293 5.94773 7.52349 6.17717C7.52404 6.40662 7.44071 6.6044 7.27349 6.77051L4.02266 10.0205ZM15.981 9.97884L12.7518 6.74967C12.599 6.5969 12.5227 6.40245 12.5227 6.16634C12.5227 5.93023 12.599 5.73579 12.7518 5.58301C12.9046 5.43023 13.099 5.35384 13.3352 5.35384C13.5713 5.35384 13.7657 5.43023 13.9185 5.58301L17.7518 9.41634C17.8352 9.49967 17.8943 9.58995 17.9293 9.68717C17.9643 9.7844 17.9815 9.88856 17.981 9.99967C17.9804 10.1108 17.9632 10.215 17.9293 10.3122C17.8954 10.4094 17.8363 10.4997 17.7518 10.583L13.9185 14.4163C13.7518 14.583 13.5574 14.663 13.3352 14.6563C13.1129 14.6497 12.9185 14.5627 12.7518 14.3955C12.5852 14.2283 12.5018 14.0305 12.5018 13.8022C12.5018 13.5738 12.5852 13.3758 12.7518 13.208L15.981 9.97884Z" fill="white"/>
</svg>
