<svg width="20" height="20" viewBox="0 0 20 20" fill="none" xmlns="http://www.w3.org/2000/svg">
<path d="M9.9987 18.3337C8.06814 17.8475 6.47425 16.7398 5.21703 15.0103C3.95981 13.2809 3.33148 11.3609 3.33203 9.25033V4.16699L9.9987 1.66699L16.6654 4.16699V9.25033C16.6654 11.3614 16.037 13.2817 14.7804 15.0112C13.5237 16.7406 11.9298 17.8481 9.9987 18.3337ZM9.9987 16.5837C11.4431 16.1253 12.6376 15.2087 13.582 13.8337C14.5265 12.4587 14.9987 10.9309 14.9987 9.25033V5.31283L9.9987 3.43783L4.9987 5.31283V9.25033C4.9987 10.9309 5.47092 12.4587 6.41536 13.8337C7.35981 15.2087 8.55425 16.1253 9.9987 16.5837Z" fill="white"/>
</svg>
