<svg width="20" height="20" viewBox="0 0 20 20" fill="none" xmlns="http://www.w3.org/2000/svg">
<path d="M9.9993 6.25028C9.25762 6.25028 8.5326 6.47021 7.91592 6.88227C7.29923 7.29432 6.81858 7.87999 6.53476 8.56522C6.25093 9.25044 6.17666 10.0044 6.32136 10.7319C6.46605 11.4593 6.82321 12.1275 7.34765 12.6519C7.8721 13.1764 8.54029 13.5335 9.26772 13.6782C9.99514 13.8229 10.7491 13.7487 11.4344 13.4648C12.1196 13.181 12.7053 12.7004 13.1173 12.0837C13.5294 11.467 13.7493 10.742 13.7493 10.0003C13.7483 9.00604 13.3529 8.05281 12.6498 7.34977C11.9468 6.64673 10.9935 6.25131 9.9993 6.25028ZM9.9993 12.5003C9.50485 12.5003 9.0215 12.3537 8.61038 12.079C8.19926 11.8043 7.87882 11.4138 7.6896 10.957C7.50039 10.5002 7.45088 9.99751 7.54734 9.51256C7.6438 9.0276 7.88191 8.58214 8.23154 8.23251C8.58117 7.88288 9.02663 7.64478 9.51158 7.54832C9.99653 7.45185 10.4992 7.50136 10.956 7.69058C11.4128 7.8798 11.8033 8.20023 12.078 8.61136C12.3527 9.02248 12.4993 9.50583 12.4993 10.0003C12.4993 10.6633 12.2359 11.2992 11.7671 11.768C11.2982 12.2369 10.6623 12.5003 9.9993 12.5003ZM16.8743 10.169C16.8774 10.0565 16.8774 9.94403 16.8743 9.83153L18.0399 8.37528C18.101 8.29882 18.1434 8.20907 18.1634 8.11327C18.1835 8.01747 18.1808 7.91829 18.1556 7.82372C17.9645 7.10543 17.6786 6.41578 17.3056 5.77294C17.2567 5.68881 17.1889 5.61725 17.1075 5.56394C17.0261 5.51064 16.9334 5.47707 16.8368 5.46591L14.9837 5.25966C14.9066 5.17841 14.8285 5.10028 14.7493 5.02528L14.5306 3.16747C14.5193 3.07076 14.4856 2.97802 14.4322 2.89663C14.3787 2.81525 14.307 2.74748 14.2227 2.69872C13.5796 2.32632 12.8901 2.04077 12.172 1.8495C12.0773 1.82434 11.9781 1.82177 11.8823 1.84199C11.7865 1.86221 11.6968 1.90465 11.6204 1.9659L10.1681 3.12528H9.83055L8.3743 1.962C8.29784 1.90088 8.2081 1.85858 8.11229 1.83849C8.01649 1.81841 7.91731 1.82111 7.82274 1.84637C7.10458 2.0378 6.41497 2.32363 5.77196 2.69637C5.68783 2.74522 5.61627 2.81303 5.56297 2.89441C5.50967 2.97579 5.47609 3.06849 5.46493 3.16512L5.25868 5.02137C5.17743 5.09898 5.0993 5.1771 5.0243 5.25575L3.16649 5.46903C3.06978 5.48028 2.97704 5.51397 2.89566 5.56741C2.81427 5.62085 2.7465 5.69257 2.69774 5.77684C2.32535 6.41994 2.03979 7.10953 1.84852 7.82762C1.82336 7.92225 1.82079 8.02147 1.84101 8.11727C1.86123 8.21308 1.90368 8.30279 1.96493 8.37919L3.1243 9.83153V10.169L1.96102 11.6253C1.8999 11.7017 1.8576 11.7915 1.83752 11.8873C1.81743 11.9831 1.82013 12.0823 1.8454 12.1768C2.03647 12.8951 2.32232 13.5848 2.6954 14.2276C2.74425 14.3118 2.81206 14.3833 2.89344 14.4366C2.97481 14.4899 3.06751 14.5235 3.16415 14.5347L5.01727 14.7409C5.09488 14.8222 5.173 14.9003 5.25165 14.9753L5.46805 16.8331C5.47931 16.9298 5.51299 17.0225 5.56644 17.1039C5.61988 17.1853 5.69159 17.2531 5.77587 17.3018C6.41896 17.6742 7.10855 17.9598 7.82665 18.1511C7.92128 18.1762 8.02049 18.1788 8.1163 18.1586C8.2121 18.1384 8.30182 18.0959 8.37821 18.0347L9.83055 16.8753C9.94305 16.8784 10.0556 16.8784 10.1681 16.8753L11.6243 18.0409C11.7008 18.102 11.7905 18.1443 11.8863 18.1644C11.9821 18.1845 12.0813 18.1818 12.1759 18.1565C12.8941 17.9655 13.5838 17.6796 14.2266 17.3065C14.3108 17.2577 14.3823 17.1899 14.4356 17.1085C14.4889 17.0271 14.5225 16.9344 14.5337 16.8378L14.7399 14.9847C14.8212 14.9076 14.8993 14.8294 14.9743 14.7503L16.8321 14.5315C16.9288 14.5203 17.0216 14.4866 17.103 14.4331C17.1843 14.3797 17.2521 14.308 17.3009 14.2237C17.6733 13.5806 17.9588 12.891 18.1501 12.1729C18.1752 12.0783 18.1778 11.9791 18.1576 11.8833C18.1374 11.7875 18.0949 11.6978 18.0337 11.6214L16.8743 10.169ZM15.6165 9.66122C15.6298 9.88707 15.6298 10.1135 15.6165 10.3393C15.6072 10.494 15.6556 10.6465 15.7524 10.7675L16.861 12.1526C16.7338 12.5569 16.5709 12.9491 16.3743 13.3245L14.6087 13.5245C14.4549 13.5416 14.313 13.6151 14.2102 13.7308C14.0599 13.8999 13.8997 14.0601 13.7306 14.2104C13.6149 14.3131 13.5414 14.4551 13.5243 14.6089L13.3282 16.3729C12.9528 16.5697 12.5606 16.7326 12.1563 16.8597L10.7704 15.7511C10.6595 15.6625 10.5217 15.6142 10.3798 15.6143H10.3423C10.1164 15.6276 9.88999 15.6276 9.66415 15.6143C9.50952 15.605 9.35695 15.6535 9.23602 15.7503L7.84696 16.8597C7.44269 16.7324 7.05053 16.5696 6.67508 16.3729L6.47508 14.6097C6.45802 14.4559 6.38453 14.3139 6.26884 14.2112C6.09969 14.0608 5.93952 13.9007 5.78915 13.7315C5.68644 13.6158 5.54447 13.5423 5.39071 13.5253L3.62665 13.3284C3.42991 12.953 3.26703 12.5608 3.13993 12.1565L4.24852 10.7706C4.34532 10.6497 4.39377 10.4971 4.38446 10.3425C4.37119 10.1166 4.37119 9.89019 4.38446 9.66434C4.39377 9.50972 4.34532 9.35715 4.24852 9.23622L3.13993 7.84794C3.26715 7.44367 3.43003 7.0515 3.62665 6.67606L5.38993 6.47606C5.54369 6.45899 5.68566 6.3855 5.78837 6.26981C5.93874 6.10066 6.09891 5.94049 6.26805 5.79012C6.38421 5.68735 6.458 5.54506 6.47508 5.39091L6.67118 3.62762C7.04657 3.43089 7.43875 3.26801 7.84305 3.1409L9.22899 4.2495C9.34992 4.3463 9.50249 4.39474 9.65712 4.38544C9.88296 4.37217 10.1094 4.37217 10.3352 4.38544C10.4899 4.39474 10.6424 4.3463 10.7634 4.2495L12.1516 3.1409C12.5559 3.26812 12.9481 3.431 13.3235 3.62762L13.5235 5.39091C13.5406 5.54467 13.6141 5.68663 13.7298 5.78934C13.8989 5.93971 14.0591 6.09988 14.2095 6.26903C14.3122 6.38472 14.4541 6.45821 14.6079 6.47528L16.372 6.67137C16.5687 7.04676 16.7316 7.43894 16.8587 7.84325L15.7501 9.22919C15.6524 9.35114 15.6039 9.50528 15.6141 9.66122H15.6165Z" fill="white"/>
</svg>
