<svg width="20" height="20" viewBox="0 0 20 20" fill="none" xmlns="http://www.w3.org/2000/svg">
<path d="M15.6263 16.6663H4.3763C3.68452 16.6664 3.01894 16.4017 2.51611 15.9266C2.01327 15.4515 1.7113 14.802 1.67214 14.1113L1.66797 13.958V5.20801C1.66791 4.7329 1.84821 4.27549 2.17244 3.92821C2.49667 3.58094 2.94064 3.36969 3.41464 3.33717L3.54297 3.33301H13.9596C14.4347 3.33295 14.8922 3.51325 15.2394 3.83748C15.5867 4.16171 15.798 4.60568 15.8305 5.07967L15.8346 5.20801V5.83301H16.4596C16.9347 5.83295 17.3922 6.01325 17.7394 6.33748C18.0867 6.66171 18.298 7.10568 18.3305 7.57967L18.3346 7.70801V13.958C18.3347 14.6498 18.07 15.3154 17.5949 15.8182C17.1198 16.321 16.4703 16.623 15.7796 16.6622L15.6263 16.6663ZM4.3763 15.4163H15.6263C15.9924 15.4163 16.3451 15.2786 16.6144 15.0305C16.8836 14.7824 17.0497 14.4421 17.0796 14.0772L17.0846 13.958V7.70801C17.0846 7.55698 17.0299 7.41106 16.9307 7.29723C16.8314 7.18341 16.6943 7.10938 16.5446 7.08884L16.4596 7.08301H15.8346V13.5413C15.8346 13.6924 15.7799 13.8383 15.6807 13.9521C15.5814 14.0659 15.4443 14.14 15.2946 14.1605L15.2096 14.1663C15.0586 14.1663 14.9127 14.1116 14.7989 14.0124C14.685 13.9131 14.611 13.776 14.5905 13.6263L14.5846 13.5413V5.20801C14.5846 5.05698 14.5299 4.91106 14.4307 4.79723C14.3314 4.68341 14.1943 4.60938 14.0446 4.58884L13.9596 4.58301H3.54297C3.39194 4.58301 3.24602 4.63771 3.13219 4.73698C3.01837 4.83625 2.94434 4.97338 2.9238 5.12301L2.91797 5.20801V13.958C2.91798 14.324 3.05561 14.6766 3.30354 14.9458C3.55146 15.2151 3.89155 15.3812 4.2563 15.4113L4.3763 15.4163ZM10.2063 12.083H12.7113C12.8697 12.0831 13.0221 12.1432 13.1378 12.2513C13.2535 12.3594 13.3239 12.5074 13.3347 12.6654C13.3455 12.8234 13.2959 12.9796 13.1959 13.1024C13.096 13.2253 12.9532 13.3056 12.7963 13.3272L12.7113 13.333H10.2063C10.0479 13.333 9.89552 13.2728 9.77981 13.1647C9.6641 13.0566 9.59374 12.9086 9.58295 12.7506C9.57215 12.5926 9.62173 12.4364 9.72166 12.3136C9.82159 12.1908 9.96443 12.1104 10.1213 12.0888L10.2063 12.083ZM7.7038 9.17051C7.86956 9.17051 8.02853 9.23636 8.14574 9.35357C8.26295 9.47078 8.3288 9.62975 8.3288 9.79551V12.708C8.3288 12.8738 8.26295 13.0327 8.14574 13.1499C8.02853 13.2672 7.86956 13.333 7.7038 13.333H4.7913C4.62554 13.333 4.46657 13.2672 4.34936 13.1499C4.23215 13.0327 4.1663 12.8738 4.1663 12.708V9.79551C4.1663 9.62975 4.23215 9.47078 4.34936 9.35357C4.46657 9.23636 4.62554 9.17051 4.7913 9.17051H7.7038ZM7.0788 10.4205H5.4163V12.083H7.0788V10.4205ZM10.2063 9.17051H12.7113C12.8697 9.17056 13.0221 9.23071 13.1378 9.33882C13.2535 9.44693 13.3239 9.59492 13.3347 9.75291C13.3455 9.91089 13.2959 10.0671 13.1959 10.1899C13.096 10.3128 12.9532 10.3931 12.7963 10.4147L12.7113 10.4205H10.2063C10.0468 10.4221 9.89275 10.3627 9.77565 10.2544C9.65854 10.1462 9.58726 9.99723 9.5764 9.83811C9.56553 9.67899 9.61591 9.52174 9.71721 9.39856C9.81852 9.27537 9.96308 9.19558 10.1213 9.17551L10.2063 9.17051ZM4.7913 6.25134H12.7113C12.8708 6.24972 13.0248 6.30913 13.142 6.4174C13.2591 6.52567 13.3303 6.67462 13.3412 6.83374C13.3521 6.99286 13.3017 7.15011 13.2004 7.27329C13.0991 7.39648 12.9545 7.47627 12.7963 7.49634L12.7113 7.50134H4.7913C4.63295 7.50129 4.48052 7.44114 4.36481 7.33303C4.2491 7.22492 4.17874 7.07693 4.16795 6.91894C4.15715 6.76096 4.20673 6.60476 4.30666 6.48193C4.40659 6.35909 4.54943 6.27876 4.7063 6.25717L4.7913 6.25134Z" fill="white"/>
</svg>
