<svg width="162" height="61" viewBox="0 0 162 61" fill="none" xmlns="http://www.w3.org/2000/svg">
<path d="M4.9209 1.02295H156.657C159.262 1.02295 161.374 3.13425 161.374 5.73877V55.3452C161.374 57.9497 159.262 60.061 156.657 60.061H4.9209C2.31646 60.0609 0.20521 57.9497 0.205078 55.3452V5.73877C0.205235 3.13435 2.31648 1.0231 4.9209 1.02295Z" fill="white" fill-opacity="0.75"/>
<path d="M4.9209 1.02295H156.657C159.262 1.02295 161.374 3.13425 161.374 5.73877V55.3452C161.374 57.9497 159.262 60.061 156.657 60.061H4.9209C2.31646 60.0609 0.20521 57.9497 0.205078 55.3452V5.73877C0.205235 3.13435 2.31648 1.0231 4.9209 1.02295Z" stroke="white" stroke-width="0.410099"/>
<path d="M6.5625 10.6602C6.5625 8.84825 8.03136 7.37939 9.84329 7.37939H18.0453C19.8572 7.37939 21.326 8.84825 21.326 10.6602V18.8622C21.326 20.6741 19.8572 22.1429 18.0453 22.1429H9.84329C8.03136 22.1429 6.5625 20.6741 6.5625 18.8622V10.6602Z" fill="#00261F"/>
<path d="M12.1093 12.4398V9.83984H10.2539V14.9833C10.2539 13.7978 11.0353 12.7847 12.1093 12.4398Z" fill="white"/>
<path d="M14.9368 12.3135H12.9149C12.633 12.3135 12.3645 12.3593 12.1094 12.4401V14.9835C12.1094 14.539 12.4719 14.1752 12.9149 14.1752H14.9368C15.3798 14.1752 15.7423 14.539 15.7423 14.9835V19.5557C16.8136 19.2109 17.5977 18.2005 17.5977 17.0123V14.9835C17.5977 13.5151 16.4001 12.3135 14.9368 12.3135Z" fill="#10957D"/>
<path d="M14.9367 17.8209H12.1093V12.4404C11.0353 12.7853 10.2539 13.7984 10.2539 14.9838V19.6827H12.1093H12.9148H14.9367C15.2186 19.6827 15.4871 19.6369 15.7422 19.5561V17.0126C15.7422 17.4572 15.3797 17.8209 14.9367 17.8209Z" fill="white"/>
<g clip-path="url(#clip0_7002_1470)">
<path d="M31.1712 14.2171C31.3609 13.8381 31.6195 13.5476 31.9454 13.344C32.2712 13.1403 32.635 13.0376 33.0385 13.0376C33.3902 13.0376 33.6971 13.1102 33.9609 13.2554C34.2247 13.4007 34.4368 13.5848 34.5954 13.8062V13.1155H35.7954V17.9592H34.5954V17.2508C34.442 17.4775 34.2316 17.667 33.9609 17.814C33.6919 17.9628 33.3816 18.0371 33.0299 18.0371C32.6333 18.0371 32.2712 17.9327 31.9454 17.7219C31.6195 17.5129 31.3609 17.2172 31.1712 16.8346C30.9815 16.4521 30.8867 16.0147 30.8867 15.5188C30.8867 15.0229 30.9815 14.5961 31.1712 14.2153V14.2171ZM34.4264 14.7732C34.3126 14.5607 34.1592 14.3977 33.9661 14.2844C33.773 14.171 33.5661 14.1144 33.3437 14.1144C33.1212 14.1144 32.9178 14.1693 32.7316 14.2808C32.5436 14.3906 32.3919 14.5536 32.2764 14.7661C32.1609 14.9786 32.1023 15.2319 32.1023 15.5223C32.1023 15.8128 32.1609 16.0696 32.2764 16.2874C32.3919 16.5052 32.5454 16.6735 32.7368 16.7904C32.9281 16.9072 33.1299 16.9657 33.3454 16.9657C33.5609 16.9657 33.773 16.909 33.9678 16.7957C34.1609 16.6823 34.3144 16.5194 34.4282 16.3069C34.542 16.0944 34.5989 15.8393 34.5989 15.5418C34.5989 15.2443 34.542 14.9892 34.4282 14.7767L34.4264 14.7732Z" fill="#005143"/>
<path d="M38.758 13.264C39.0045 13.1188 39.2873 13.0444 39.6045 13.0444V14.3302H39.289C38.9149 14.3302 38.6321 14.4205 38.4425 14.6011C38.2528 14.7818 38.1562 15.097 38.1562 15.5451V17.9572H36.9648V13.1153H38.1562V13.8662C38.3097 13.6094 38.5097 13.4093 38.7563 13.264H38.758Z" fill="#005143"/>
<path d="M42.1955 13.264C42.442 13.1188 42.7248 13.0444 43.042 13.0444V14.3302H42.7265C42.3524 14.3302 42.0696 14.4205 41.88 14.6011C41.6903 14.7818 41.5937 15.097 41.5937 15.5451V17.9572H40.4023V13.1153H41.5937V13.8662C41.7472 13.6094 41.9472 13.4093 42.1938 13.264H42.1955Z" fill="#005143"/>
<path d="M45.0312 13.1157V17.9594H43.8398V13.1157H45.0312Z" fill="#005143"/>
<path d="M46.1989 14.2224C46.3972 13.8469 46.673 13.5547 47.0248 13.3475C47.3765 13.1403 47.78 13.0376 48.2334 13.0376C48.8179 13.0376 49.3007 13.1881 49.6852 13.4874C50.0679 13.7885 50.3248 14.2082 50.4559 14.7502H49.1714C49.1041 14.5394 48.9886 14.3765 48.8265 14.256C48.6645 14.1356 48.4645 14.0772 48.2265 14.0772C47.8869 14.0772 47.6162 14.2047 47.4179 14.4579C47.2196 14.7112 47.1196 15.0707 47.1196 15.5383C47.1196 16.0058 47.2196 16.3565 47.4179 16.6097C47.6162 16.863 47.8851 16.9905 48.2265 16.9905C48.7093 16.9905 49.0231 16.7691 49.1714 16.3264H50.4559C50.3248 16.8506 50.0679 17.2668 49.6817 17.5767C49.2955 17.8848 48.8127 18.0407 48.2351 18.0407C47.7817 18.0407 47.3782 17.938 47.0265 17.7308C46.6748 17.5236 46.3989 17.2331 46.2006 16.8559C46.0023 16.4804 45.9023 16.0412 45.9023 15.54C45.9023 15.0388 46.0006 14.6014 46.2006 14.2242L46.1989 14.2224Z" fill="#005143"/>
<path d="M51.3079 14.2171C51.4976 13.8381 51.7562 13.5476 52.0821 13.344C52.4079 13.1403 52.7717 13.0376 53.1752 13.0376C53.5269 13.0376 53.8338 13.1102 54.0976 13.2554C54.3614 13.4007 54.5735 13.5848 54.7321 13.8062V13.1155H55.9321V17.9592H54.7321V17.2508C54.5787 17.4775 54.3683 17.667 54.0976 17.814C53.8287 17.9628 53.5183 18.0371 53.1666 18.0371C52.77 18.0371 52.4079 17.9327 52.0821 17.7219C51.7562 17.5129 51.4976 17.2172 51.3079 16.8346C51.1183 16.4521 51.0234 16.0147 51.0234 15.5188C51.0234 15.0229 51.1183 14.5961 51.3079 14.2153V14.2171ZM54.5632 14.7732C54.4494 14.5607 54.2959 14.3977 54.1028 14.2844C53.9097 14.171 53.7028 14.1144 53.4804 14.1144C53.258 14.1144 53.0545 14.1693 52.8683 14.2808C52.6804 14.3906 52.5286 14.5536 52.4131 14.7661C52.2976 14.9786 52.239 15.2319 52.239 15.5223C52.239 15.8128 52.2976 16.0696 52.4131 16.2874C52.5286 16.5052 52.6821 16.6735 52.8735 16.7904C53.0649 16.9072 53.2666 16.9657 53.4821 16.9657C53.6976 16.9657 53.9097 16.909 54.1045 16.7957C54.2976 16.6823 54.4511 16.5194 54.5649 16.3069C54.6787 16.0944 54.7356 15.8393 54.7356 15.5418C54.7356 15.2443 54.6787 14.9892 54.5649 14.7767L54.5632 14.7732Z" fill="#005143"/>
<path d="M57.0796 14.2171C57.2693 13.8381 57.5296 13.5477 57.859 13.344C58.1883 13.1403 58.5538 13.0376 58.9573 13.0376C59.2642 13.0376 59.5555 13.1067 59.8349 13.243C60.1125 13.3794 60.3331 13.5618 60.4987 13.7903V11.4897H61.7073V17.9592H60.4987V17.242C60.3504 17.4811 60.1435 17.6723 59.878 17.8193C59.6107 17.9645 59.3021 18.0372 58.9504 18.0372C58.5538 18.0372 58.19 17.9327 57.8607 17.7219C57.5314 17.5129 57.2727 17.2172 57.0814 16.8346C56.89 16.4521 56.7969 16.0147 56.7969 15.5188C56.7969 15.0229 56.8917 14.5961 57.0814 14.2153L57.0796 14.2171ZM60.3349 14.7732C60.2211 14.5607 60.0676 14.3977 59.8745 14.2844C59.6814 14.171 59.4745 14.1144 59.2521 14.1144C59.0297 14.1144 58.8262 14.1693 58.64 14.2809C58.4521 14.3907 58.3003 14.5536 58.1848 14.7661C58.0693 14.9786 58.0107 15.2319 58.0107 15.5223C58.0107 15.8128 58.0693 16.0696 58.1848 16.2874C58.3003 16.5052 58.4538 16.6735 58.6452 16.7904C58.8366 16.9073 59.0383 16.9657 59.2538 16.9657C59.4693 16.9657 59.6814 16.909 59.8762 16.7957C60.0693 16.6823 60.2228 16.5194 60.3366 16.3069C60.4504 16.0944 60.5073 15.8393 60.5073 15.5418C60.5073 15.2443 60.4504 14.9893 60.3366 14.7767L60.3349 14.7732Z" fill="#005143"/>
<path d="M67.2178 15.9049H63.7711C63.7987 16.2537 63.9194 16.5282 64.128 16.7266C64.3367 16.925 64.597 17.0241 64.9022 17.0241C65.3453 17.0241 65.6591 16.8293 65.847 16.4379H67.1315C66.9953 16.9037 66.735 17.288 66.3488 17.5873C65.9626 17.8866 65.4884 18.0371 64.9281 18.0371C64.4746 18.0371 64.0677 17.9344 63.7073 17.7272C63.347 17.52 63.066 17.2278 62.8642 16.8488C62.6625 16.4698 62.5625 16.0324 62.5625 15.5365C62.5625 15.0406 62.6608 14.5961 62.8608 14.2171C63.0591 13.8381 63.3367 13.5476 63.6953 13.344C64.0522 13.1403 64.4643 13.0376 64.9298 13.0376C65.3953 13.0376 65.7798 13.1368 66.135 13.3351C66.4884 13.5335 66.7643 13.8151 66.9609 14.1781C67.1557 14.543 67.254 14.9609 67.254 15.432C67.254 15.6073 67.2419 15.7632 67.2195 15.9049H67.2178ZM66.0177 15.0831C66.0126 14.7679 65.9022 14.5164 65.685 14.3269C65.4694 14.1374 65.2056 14.0435 64.8936 14.0435C64.5987 14.0435 64.3505 14.1356 64.1487 14.318C63.947 14.5022 63.8246 14.7572 63.778 15.0831H66.016H66.0177Z" fill="#005143"/>
<path d="M45.0334 12.0866C45.0334 12.4248 44.7662 12.6976 44.4386 12.6976C44.1093 12.6976 43.8438 12.4231 43.8438 12.0866C43.8438 11.7483 44.111 11.4756 44.4386 11.4756C44.7679 11.4756 45.0334 11.7501 45.0334 12.0866Z" fill="#005143"/>
<path d="M26.6172 13.1988V11.4897H25.4258V14.8706C25.4258 14.0914 25.9275 13.4255 26.6172 13.1988Z" fill="#005143"/>
<path d="M28.4288 13.1157H27.1305C26.9495 13.1157 26.7771 13.1458 26.6133 13.199V14.8708C26.6133 14.5786 26.846 14.3395 27.1305 14.3395H28.4288C28.7133 14.3395 28.9461 14.5786 28.9461 14.8708V17.8762C29.634 17.6495 30.1375 16.9854 30.1375 16.2044V14.8708C30.1375 13.9056 29.3685 13.1157 28.4288 13.1157Z" fill="#005143"/>
<path d="M28.4327 16.7286H26.6172V13.1919C25.9275 13.4186 25.4258 14.0845 25.4258 14.8637V17.9524H26.6172H27.1344H28.4327C28.6138 17.9524 28.7862 17.9223 28.95 17.8691V16.1973C28.95 16.4895 28.7172 16.7286 28.4327 16.7286Z" fill="#005143"/>
</g>
<path d="M9.43319 28.4163V29.0651H7.76245V30.0928H9.04278V30.7301H7.76245V32.4238H6.95866V28.4163H9.43319ZM10.8069 29.7369C10.9103 29.5684 11.0443 29.4364 11.2088 29.3407C11.3773 29.245 11.5686 29.1972 11.783 29.1972V30.0412H11.5706C11.3179 30.0412 11.1266 30.1005 10.9964 30.2191C10.8701 30.3378 10.8069 30.5445 10.8069 30.8392V32.4238H10.0032V29.2431H10.8069V29.7369ZM13.7368 32.4755C13.4306 32.4755 13.155 32.4085 12.91 32.2746C12.665 32.1368 12.4717 31.9435 12.3301 31.6947C12.1923 31.4459 12.1234 31.1588 12.1234 30.8335C12.1234 30.5081 12.1942 30.2211 12.3359 29.9723C12.4813 29.7235 12.6784 29.5321 12.9272 29.3981C13.176 29.2603 13.4535 29.1914 13.7597 29.1914C14.0659 29.1914 14.3434 29.2603 14.5922 29.3981C14.841 29.5321 15.0362 29.7235 15.1778 29.9723C15.3233 30.2211 15.396 30.5081 15.396 30.8335C15.396 31.1588 15.3214 31.4459 15.1721 31.6947C15.0267 31.9435 14.8276 32.1368 14.575 32.2746C14.3262 32.4085 14.0468 32.4755 13.7368 32.4755ZM13.7368 31.7751C13.8822 31.7751 14.0181 31.7406 14.1444 31.6717C14.2745 31.599 14.3779 31.4918 14.4544 31.3502C14.531 31.2086 14.5693 31.0363 14.5693 30.8335C14.5693 30.5311 14.4889 30.2995 14.3281 30.1388C14.1712 29.9742 13.9779 29.8919 13.7482 29.8919C13.5186 29.8919 13.3253 29.9742 13.1684 30.1388C13.0153 30.2995 12.9387 30.5311 12.9387 30.8335C12.9387 31.1358 13.0133 31.3693 13.1626 31.5339C13.3157 31.6947 13.5071 31.7751 13.7368 31.7751ZM17.7482 29.1972C18.1272 29.1972 18.4334 29.3177 18.6669 29.5589C18.9003 29.7962 19.0171 30.1292 19.0171 30.5579V32.4238H18.2133V30.667C18.2133 30.4143 18.1501 30.2211 18.0238 30.0871C17.8975 29.9493 17.7253 29.8804 17.5071 29.8804C17.2851 29.8804 17.109 29.9493 16.9789 30.0871C16.8526 30.2211 16.7894 30.4143 16.7894 30.667V32.4238H15.9856V29.2431H16.7894V29.6393C16.8966 29.5015 17.0325 29.3943 17.1971 29.3177C17.3655 29.2374 17.5492 29.1972 17.7482 29.1972ZM20.7173 29.9034V31.4421C20.7173 31.5492 20.7422 31.6277 20.7919 31.6774C20.8455 31.7234 20.9335 31.7463 21.056 31.7463H21.4292V32.4238H20.924C20.2465 32.4238 19.9078 32.0947 19.9078 31.4363V29.9034H19.5288V29.2431H19.9078V28.4565H20.7173V29.2431H21.4292V29.9034H20.7173ZM24.7763 28.4163C25.1973 28.4163 25.5667 28.4986 25.8844 28.6632C26.2059 28.8278 26.4528 29.0632 26.625 29.3694C26.8011 29.6718 26.8891 30.0239 26.8891 30.4258C26.8891 30.8277 26.8011 31.1799 26.625 31.4822C26.4528 31.7808 26.2059 32.0124 25.8844 32.1769C25.5667 32.3415 25.1973 32.4238 24.7763 32.4238H23.3754V28.4163H24.7763ZM24.7476 31.7406C25.1686 31.7406 25.494 31.6258 25.7236 31.3961C25.9533 31.1665 26.0681 30.843 26.0681 30.4258C26.0681 30.0086 25.9533 29.6833 25.7236 29.4498C25.494 29.2125 25.1686 29.0938 24.7476 29.0938H24.1792V31.7406H24.7476ZM28.9032 32.4755C28.597 32.4755 28.3214 32.4085 28.0764 32.2746C27.8315 32.1368 27.6382 31.9435 27.4966 31.6947C27.3588 31.4459 27.2899 31.1588 27.2899 30.8335C27.2899 30.5081 27.3607 30.2211 27.5023 29.9723C27.6477 29.7235 27.8449 29.5321 28.0937 29.3981C28.3425 29.2603 28.62 29.1914 28.9262 29.1914C29.2324 29.1914 29.5099 29.2603 29.7587 29.3981C30.0075 29.5321 30.2027 29.7235 30.3443 29.9723C30.4897 30.2211 30.5625 30.5081 30.5625 30.8335C30.5625 31.1588 30.4878 31.4459 30.3385 31.6947C30.1931 31.9435 29.9941 32.1368 29.7414 32.2746C29.4926 32.4085 29.2132 32.4755 28.9032 32.4755ZM28.9032 31.7751C29.0486 31.7751 29.1845 31.7406 29.3108 31.6717C29.441 31.599 29.5443 31.4918 29.6209 31.3502C29.6974 31.2086 29.7357 31.0363 29.7357 30.8335C29.7357 30.5311 29.6553 30.2995 29.4946 30.1388C29.3376 29.9742 29.1443 29.8919 28.9147 29.8919C28.685 29.8919 28.4917 29.9742 28.3348 30.1388C28.1817 30.2995 28.1051 30.5311 28.1051 30.8335C28.1051 31.1358 28.1798 31.3693 28.3291 31.5339C28.4822 31.6947 28.6735 31.7751 28.9032 31.7751ZM32.5644 32.4755C32.2582 32.4755 31.9827 32.4085 31.7377 32.2746C31.4927 32.1368 31.2994 31.9435 31.1578 31.6947C31.02 31.4459 30.9511 31.1588 30.9511 30.8335C30.9511 30.5081 31.0219 30.2211 31.1635 29.9723C31.309 29.7235 31.5061 29.5321 31.7549 29.3981C32.0037 29.2603 32.2812 29.1914 32.5874 29.1914C32.8936 29.1914 33.1711 29.2603 33.4199 29.3981C33.6687 29.5321 33.8639 29.7235 34.0055 29.9723C34.151 30.2211 34.2237 30.5081 34.2237 30.8335C34.2237 31.1588 34.1491 31.4459 33.9998 31.6947C33.8543 31.9435 33.6553 32.1368 33.4027 32.2746C33.1539 32.4085 32.8745 32.4755 32.5644 32.4755ZM32.5644 31.7751C32.7099 31.7751 32.8458 31.7406 32.9721 31.6717C33.1022 31.599 33.2056 31.4918 33.2821 31.3502C33.3587 31.2086 33.3969 31.0363 33.3969 30.8335C33.3969 30.5311 33.3166 30.2995 33.1558 30.1388C32.9989 29.9742 32.8056 29.8919 32.5759 29.8919C32.3463 29.8919 32.153 29.9742 31.996 30.1388C31.8429 30.2995 31.7664 30.5311 31.7664 30.8335C31.7664 31.1358 31.841 31.3693 31.9903 31.5339C32.1434 31.6947 32.3348 31.7751 32.5644 31.7751ZM35.6171 29.7369C35.7205 29.5684 35.8544 29.4364 36.019 29.3407C36.1874 29.245 36.3788 29.1972 36.5931 29.1972V30.0412H36.3807C36.1281 30.0412 35.9367 30.1005 35.8066 30.2191C35.6803 30.3378 35.6171 30.5445 35.6171 30.8392V32.4238H34.8133V29.2431H35.6171V29.7369ZM39.3064 31.7865H40.6269V32.4238H38.5026V28.4163H39.3064V31.7865ZM44.0946 30.7646C44.0946 30.8794 44.087 30.9827 44.0717 31.0746H41.7464C41.7655 31.3043 41.8459 31.4842 41.9875 31.6143C42.1291 31.7444 42.3033 31.8095 42.51 31.8095C42.8085 31.8095 43.021 31.6813 43.1473 31.4248H44.0142C43.9224 31.731 43.7463 31.9837 43.486 32.1827C43.2258 32.3779 42.9061 32.4755 42.5272 32.4755C42.221 32.4755 41.9454 32.4085 41.7005 32.2746C41.4593 32.1368 41.2699 31.9435 41.1321 31.6947C40.9981 31.4459 40.9311 31.1588 40.9311 30.8335C40.9311 30.5043 40.9981 30.2153 41.1321 29.9665C41.266 29.7177 41.4536 29.5263 41.6947 29.3924C41.9359 29.2584 42.2134 29.1914 42.5272 29.1914C42.8296 29.1914 43.0994 29.2565 43.3368 29.3866C43.5779 29.5168 43.7635 29.7024 43.8937 29.9436C44.0276 30.1809 44.0946 30.4545 44.0946 30.7646ZM43.2621 30.5349C43.2583 30.3282 43.1836 30.1636 43.0382 30.0412C42.8928 29.9148 42.7148 29.8517 42.5043 29.8517C42.3052 29.8517 42.1368 29.9129 41.999 30.0354C41.865 30.1541 41.7828 30.3206 41.7521 30.5349H43.2621ZM46.1396 29.9034H45.5827V32.4238H44.7674V29.9034H44.4057V29.2431H44.7674V29.0823C44.7674 28.6919 44.8784 28.4049 45.1004 28.2211C45.3224 28.0374 45.6573 27.9513 46.1052 27.9628V28.6403C45.91 28.6364 45.7741 28.669 45.6975 28.7379C45.621 28.8068 45.5827 28.9312 45.5827 29.1111V29.2431H46.1396V29.9034ZM47.5964 29.9034V31.4421C47.5964 31.5492 47.6212 31.6277 47.671 31.6774C47.7246 31.7234 47.8126 31.7463 47.9351 31.7463H48.3083V32.4238H47.8031C47.1256 32.4238 46.7868 32.0947 46.7868 31.4363V29.9034H46.4079V29.2431H46.7868V28.4565H47.5964V29.2431H48.3083V29.9034H47.5964ZM52.1147 32.464C51.7396 32.464 51.3951 32.376 51.0812 32.1999C50.7674 32.0238 50.5186 31.7808 50.3349 31.4708C50.1511 31.1569 50.0593 30.8028 50.0593 30.4086C50.0593 30.0182 50.1511 29.668 50.3349 29.3579C50.5186 29.0441 50.7674 28.7991 51.0812 28.623C51.3951 28.447 51.7396 28.3589 52.1147 28.3589C52.4936 28.3589 52.8381 28.447 53.1481 28.623C53.462 28.7991 53.7089 29.0441 53.8888 29.3579C54.0725 29.668 54.1644 30.0182 54.1644 30.4086C54.1644 30.8028 54.0725 31.1569 53.8888 31.4708C53.7089 31.7808 53.462 32.0238 53.1481 32.1999C52.8343 32.376 52.4898 32.464 52.1147 32.464ZM52.1147 31.7463C52.3558 31.7463 52.5683 31.6928 52.752 31.5856C52.9357 31.4746 53.0792 31.3177 53.1826 31.1148C53.2859 30.9119 53.3376 30.6765 53.3376 30.4086C53.3376 30.1407 53.2859 29.9072 53.1826 29.7082C53.0792 29.5053 52.9357 29.3503 52.752 29.2431C52.5683 29.1359 52.3558 29.0823 52.1147 29.0823C51.8736 29.0823 51.6592 29.1359 51.4717 29.2431C51.2879 29.3503 51.1444 29.5053 51.0411 29.7082C50.9377 29.9072 50.886 30.1407 50.886 30.4086C50.886 30.6765 50.9377 30.9119 51.0411 31.1148C51.1444 31.3177 51.2879 31.4746 51.4717 31.5856C51.6592 31.6928 51.8736 31.7463 52.1147 31.7463ZM55.5662 29.7024C55.6695 29.557 55.8111 29.4364 55.991 29.3407C56.1747 29.2412 56.3834 29.1914 56.6168 29.1914C56.8886 29.1914 57.1336 29.2584 57.3517 29.3924C57.5737 29.5263 57.7479 29.7177 57.8742 29.9665C58.0043 30.2115 58.0694 30.4966 58.0694 30.822C58.0694 31.1473 58.0043 31.4363 57.8742 31.6889C57.7479 31.9377 57.5737 32.131 57.3517 32.2688C57.1336 32.4066 56.8886 32.4755 56.6168 32.4755C56.3834 32.4755 56.1767 32.4277 55.9968 32.332C55.8207 32.2363 55.6772 32.1157 55.5662 31.9703V33.9396H54.7624V29.2431H55.5662V29.7024ZM57.2484 30.822C57.2484 30.6306 57.2082 30.466 57.1278 30.3282C57.0513 30.1866 56.9479 30.0794 56.8178 30.0067C56.6915 29.934 56.5537 29.8976 56.4044 29.8976C56.259 29.8976 56.1212 29.9359 55.991 30.0124C55.8647 30.0852 55.7614 30.1923 55.681 30.334C55.6044 30.4756 55.5662 30.6421 55.5662 30.8335C55.5662 31.0248 55.6044 31.1913 55.681 31.333C55.7614 31.4746 55.8647 31.5837 55.991 31.6602C56.1212 31.7329 56.259 31.7693 56.4044 31.7693C56.5537 31.7693 56.6915 31.731 56.8178 31.6545C56.9479 31.5779 57.0513 31.4688 57.1278 31.3272C57.2082 31.1856 57.2484 31.0172 57.2484 30.822ZM61.6103 30.7646C61.6103 30.8794 61.6027 30.9827 61.5873 31.0746H59.2621C59.2812 31.3043 59.3616 31.4842 59.5032 31.6143C59.6448 31.7444 59.819 31.8095 60.0257 31.8095C60.3242 31.8095 60.5367 31.6813 60.663 31.4248H61.5299C61.4381 31.731 61.262 31.9837 61.0017 32.1827C60.7414 32.3779 60.4218 32.4755 60.0429 32.4755C59.7367 32.4755 59.4611 32.4085 59.2162 32.2746C58.975 32.1368 58.7856 31.9435 58.6478 31.6947C58.5138 31.4459 58.4468 31.1588 58.4468 30.8335C58.4468 30.5043 58.5138 30.2153 58.6478 29.9665C58.7817 29.7177 58.9693 29.5263 59.2104 29.3924C59.4516 29.2584 59.7291 29.1914 60.0429 29.1914C60.3453 29.1914 60.6151 29.2565 60.8524 29.3866C61.0936 29.5168 61.2792 29.7024 61.4094 29.9436C61.5433 30.1809 61.6103 30.4545 61.6103 30.7646ZM60.7778 30.5349C60.774 30.3282 60.6993 30.1636 60.5539 30.0412C60.4084 29.9148 60.2305 29.8517 60.0199 29.8517C59.8209 29.8517 59.6525 29.9129 59.5147 30.0354C59.3807 30.1541 59.2984 30.3206 59.2678 30.5349H60.7778ZM63.9596 29.1972C64.3385 29.1972 64.6448 29.3177 64.8782 29.5589C65.1117 29.7962 65.2285 30.1292 65.2285 30.5579V32.4238H64.4247V30.667C64.4247 30.4143 64.3615 30.2211 64.2352 30.0871C64.1089 29.9493 63.9366 29.8804 63.7185 29.8804C63.4965 29.8804 63.3204 29.9493 63.1903 30.0871C63.064 30.2211 63.0008 30.4143 63.0008 30.667V32.4238H62.197V29.2431H63.0008V29.6393C63.108 29.5015 63.2439 29.3943 63.4084 29.3177C63.5769 29.2374 63.7606 29.1972 63.9596 29.1972Z" fill="#122D46"/>
<path d="M8.21028 43.7046V42.2291L6.68881 39.6856H7.09071L8.38826 41.8559L9.68007 39.6856H10.0762L8.55476 42.2176V43.7046H8.21028ZM11.5858 43.7792C10.6671 43.7792 10.0241 43.1362 10.0241 42.2176C10.0241 41.3047 10.6671 40.6617 11.5858 40.6617C12.4986 40.6617 13.1417 41.3047 13.1417 42.2176C13.1417 43.1362 12.4986 43.7792 11.5858 43.7792ZM10.3571 42.2176C10.3571 42.9525 10.8566 43.4577 11.5858 43.4577C12.3092 43.4577 12.8087 42.9525 12.8087 42.2176C12.8087 41.4884 12.3092 40.9832 11.5858 40.9832C10.8566 40.9832 10.3571 41.4884 10.3571 42.2176ZM15.2383 43.7792C14.4747 43.7792 14.0039 43.2338 14.0039 42.3783V40.7363H14.3369V42.3496C14.3369 43.0271 14.6986 43.4577 15.2842 43.4577C15.8986 43.4577 16.3234 42.9754 16.3234 42.2692V40.7363H16.6564V43.7046H16.3808L16.3464 43.1247C16.1167 43.5553 15.7034 43.7792 15.2383 43.7792ZM17.8405 43.7046V40.7363H18.1218L18.1562 41.4023C18.3572 40.9545 18.6959 40.7363 19.2471 40.7363H19.494V41.0463H19.2356C18.5983 41.0463 18.1735 41.4367 18.1735 42.3381V43.7046H17.8405ZM21.8336 40.3918C21.8336 39.7143 22.1666 39.3813 22.8269 39.3813H23.2919V39.6971H22.8556C22.3733 39.6971 22.1666 39.9095 22.1666 40.4148V40.7363H23.2632V41.0406H22.1666V43.7046H21.8336V41.0406H21.1561V40.7363H21.8336V40.3918ZM23.9407 43.7046V40.7363H24.222L24.2564 41.4023C24.4574 40.9545 24.7961 40.7363 25.3473 40.7363H25.5942V41.0463H25.3358C24.6985 41.0463 24.2737 41.4367 24.2737 42.3381V43.7046H23.9407ZM27.5035 43.7792C26.5849 43.7792 25.9419 43.1362 25.9419 42.2176C25.9419 41.3047 26.5849 40.6617 27.5035 40.6617C28.4164 40.6617 29.0594 41.3047 29.0594 42.2176C29.0594 43.1362 28.4164 43.7792 27.5035 43.7792ZM26.2749 42.2176C26.2749 42.9525 26.7744 43.4577 27.5035 43.4577C28.2269 43.4577 28.7264 42.9525 28.7264 42.2176C28.7264 41.4884 28.2269 40.9832 27.5035 40.9832C26.7744 40.9832 26.2749 41.4884 26.2749 42.2176ZM29.9848 43.7046V40.7363H30.2661L30.2949 41.3104C30.5302 40.8856 30.9436 40.6617 31.4202 40.6617C32.1952 40.6617 32.6718 41.2071 32.6718 42.0626V43.7046H32.3388V42.0913C32.3388 41.408 31.9713 40.9832 31.38 40.9832C30.7542 40.9832 30.3178 41.4597 30.3178 42.1659V43.7046H29.9848ZM34.9022 43.7046C34.2707 43.7046 33.9319 43.3486 33.9319 42.6769V41.0406H33.2832V40.7363H33.6621C33.886 40.7363 33.9492 40.6789 33.9721 40.4607L34.0008 40.0071H34.2649V40.7363H35.2926V41.0406H34.2649V42.6654C34.2649 43.1534 34.4659 43.3831 34.9137 43.3831H35.3328V43.7046H34.9022ZM38.89 43.7792C37.9944 43.7792 37.3685 43.119 37.3685 42.2176C37.3685 41.3162 37.9944 40.6617 38.89 40.6617C39.4354 40.6617 39.8775 40.9028 40.1416 41.2875V39.456H40.4746V43.7046H40.199L40.1589 43.119C39.9005 43.5266 39.4469 43.7792 38.89 43.7792ZM37.7015 42.2176C37.7015 42.9467 38.201 43.4577 38.9302 43.4577C39.6536 43.4577 40.1531 42.9467 40.1531 42.2176C40.1531 41.4942 39.6536 40.9832 38.9302 40.9832C38.201 40.9832 37.7015 41.4942 37.7015 42.2176ZM42.9615 43.7792C42.0429 43.7792 41.3998 43.1362 41.3998 42.2176C41.3998 41.3047 42.0429 40.6617 42.9615 40.6617C43.8744 40.6617 44.5174 41.3047 44.5174 42.2176C44.5174 43.1362 43.8744 43.7792 42.9615 43.7792ZM41.7328 42.2176C41.7328 42.9525 42.2323 43.4577 42.9615 43.4577C43.6849 43.4577 44.1844 42.9525 44.1844 42.2176C44.1844 41.4884 43.6849 40.9832 42.9615 40.9832C42.2323 40.9832 41.7328 41.4884 41.7328 42.2176ZM46.7461 43.7792C45.8275 43.7792 45.1844 43.1362 45.1844 42.2176C45.1844 41.3047 45.8275 40.6617 46.7461 40.6617C47.659 40.6617 48.302 41.3047 48.302 42.2176C48.302 43.1362 47.659 43.7792 46.7461 43.7792ZM45.5174 42.2176C45.5174 42.9525 46.0169 43.4577 46.7461 43.4577C47.4695 43.4577 47.969 42.9525 47.969 42.2176C47.969 41.4884 47.4695 40.9832 46.7461 40.9832C46.0169 40.9832 45.5174 41.4884 45.5174 42.2176ZM49.2274 43.7046V40.7363H49.5087L49.5432 41.4023C49.7441 40.9545 50.0829 40.7363 50.634 40.7363H50.8809V41.0463H50.6226C49.9853 41.0463 49.5604 41.4367 49.5604 42.3381V43.7046H49.2274ZM53.1578 43.7046V39.456H53.4908V41.276C53.7262 40.8683 54.1396 40.6617 54.6046 40.6617C55.374 40.6617 55.8448 41.1956 55.8448 42.0511V43.7046H55.5118V42.0798C55.5118 41.3966 55.15 40.9832 54.5587 40.9832C53.9329 40.9832 53.4908 41.4482 53.4908 42.1602V43.7046H53.1578ZM57.8949 43.7505C57.206 43.7505 56.7754 43.4118 56.7754 42.8663C56.7754 42.3381 57.1772 42.0051 57.7858 42.0051H59.0949V41.7927C59.0949 41.299 58.7332 40.9717 58.182 40.9717C57.7342 40.9717 57.3839 41.2013 57.2634 41.5573H56.9246C57.0682 41.0061 57.5447 40.6617 58.1762 40.6617C58.9169 40.6617 59.4279 41.1152 59.4279 41.7755V43.7046H59.1523L59.1178 43.1936C58.8595 43.5496 58.4231 43.7505 57.8949 43.7505ZM57.1084 42.8606C57.1084 43.2223 57.4126 43.452 57.9064 43.452C58.5954 43.452 59.1006 43.0214 59.1006 42.4243V42.298H57.7973C57.3897 42.298 57.1084 42.5219 57.1084 42.8606ZM61.5695 43.7792C60.8174 43.7792 60.3409 43.4003 60.3179 42.8089H60.6452C60.6796 43.2281 61.0069 43.4749 61.5753 43.4749C62.0977 43.4749 62.4135 43.274 62.4135 42.9467C62.4135 42.6367 62.1322 42.4472 61.5006 42.3381C60.7256 42.2061 60.3753 41.9305 60.3753 41.4769C60.3753 40.9717 60.8059 40.6617 61.5006 40.6617C62.2011 40.6617 62.6432 40.9947 62.6891 41.5631H62.3561C62.3217 41.1726 62.0174 40.9602 61.5006 40.9602C61.0069 40.9602 60.7083 41.1612 60.7083 41.4827C60.7083 41.7755 60.9552 41.9362 61.6155 42.0626C62.3676 42.2061 62.7408 42.5046 62.7408 42.9525C62.7408 43.452 62.2872 43.7792 61.5695 43.7792ZM66.7017 43.7792C66.1448 43.7792 65.6913 43.5209 65.4329 43.1132L65.3985 43.7046H65.1171V39.456H65.4501V41.299C65.7142 40.9028 66.1563 40.6617 66.7017 40.6617C67.6031 40.6617 68.2232 41.3162 68.2232 42.2176C68.2232 43.119 67.6031 43.7792 66.7017 43.7792ZM65.4386 42.2176C65.4386 42.9467 65.9381 43.4577 66.6673 43.4577C67.3965 43.4577 67.8902 42.9467 67.8902 42.2176C67.8902 41.4942 67.3965 40.9832 66.6673 40.9832C65.9381 40.9832 65.4386 41.4942 65.4386 42.2176ZM70.4058 43.7792C69.5044 43.7792 68.8901 43.1419 68.8901 42.2176C68.8901 41.299 69.5101 40.6617 70.4115 40.6617C71.3474 40.6617 71.9502 41.3506 71.9273 42.3554H69.2288C69.2862 43.0271 69.7455 43.4635 70.4058 43.4635C70.8881 43.4635 71.2727 43.2395 71.4679 42.8549L71.8411 42.8606C71.6115 43.429 71.0718 43.7792 70.4058 43.7792ZM69.2288 42.0626H71.6C71.5196 41.3908 71.0603 40.9774 70.4115 40.9774C69.7513 40.9774 69.2862 41.408 69.2288 42.0626ZM74.0951 43.7792C73.1937 43.7792 72.5794 43.1419 72.5794 42.2176C72.5794 41.299 73.1994 40.6617 74.1008 40.6617C75.0367 40.6617 75.6395 41.3506 75.6165 42.3554H72.9181C72.9755 43.0271 73.4348 43.4635 74.0951 43.4635C74.5774 43.4635 74.962 43.2395 75.1572 42.8549L75.5304 42.8606C75.3008 43.429 74.7611 43.7792 74.0951 43.7792ZM72.9181 42.0626H75.2893C75.2089 41.3908 74.7496 40.9774 74.1008 40.9774C73.4406 40.9774 72.9755 41.408 72.9181 42.0626ZM76.527 43.7046V40.7363H76.8083L76.837 41.3104C77.0724 40.8856 77.4858 40.6617 77.9623 40.6617C78.7374 40.6617 79.214 41.2071 79.214 42.0626V43.7046H78.881V42.0913C78.881 41.408 78.5135 40.9832 77.9222 40.9832C77.2963 40.9832 76.86 41.4597 76.86 42.1659V43.7046H76.527ZM83.039 43.7792C82.1204 43.7792 81.4774 43.1362 81.4774 42.2176C81.4774 41.3047 82.1204 40.6617 83.039 40.6617C83.9519 40.6617 84.5949 41.3047 84.5949 42.2176C84.5949 43.1362 83.9519 43.7792 83.039 43.7792ZM81.8104 42.2176C81.8104 42.9525 82.3099 43.4577 83.039 43.4577C83.7624 43.4577 84.2619 42.9525 84.2619 42.2176C84.2619 41.4884 83.7624 40.9832 83.039 40.9832C82.3099 40.9832 81.8104 41.4884 81.8104 42.2176ZM87.105 43.7792C86.5595 43.7792 86.1174 43.5323 85.8533 43.1419V44.8529H85.5203V40.7363H85.8017L85.8361 41.3277C86.0945 40.9143 86.548 40.6617 87.105 40.6617C88.0063 40.6617 88.6264 41.3162 88.6264 42.2176C88.6264 43.119 88.0063 43.7792 87.105 43.7792ZM85.8418 42.2176C85.8418 42.9467 86.3413 43.4577 87.0705 43.4577C87.7997 43.4577 88.2934 42.9467 88.2934 42.2176C88.2934 41.4942 87.7997 40.9832 87.0705 40.9832C86.3413 40.9832 85.8418 41.4942 85.8418 42.2176ZM90.809 43.7792C89.9076 43.7792 89.2933 43.1419 89.2933 42.2176C89.2933 41.299 89.9133 40.6617 90.8147 40.6617C91.7506 40.6617 92.3534 41.3506 92.3305 42.3554H89.632C89.6894 43.0271 90.1487 43.4635 90.809 43.4635C91.2913 43.4635 91.6759 43.2395 91.8712 42.8549L92.2443 42.8606C92.0147 43.429 91.475 43.7792 90.809 43.7792ZM89.632 42.0626H92.0032C91.9228 41.3908 91.4635 40.9774 90.8147 40.9774C90.1545 40.9774 89.6894 41.408 89.632 42.0626ZM93.2409 43.7046V40.7363H93.5222L93.551 41.3104C93.7864 40.8856 94.1997 40.6617 94.6763 40.6617C95.4514 40.6617 95.9279 41.2071 95.9279 42.0626V43.7046H95.5949V42.0913C95.5949 41.408 95.2274 40.9832 94.6361 40.9832C94.0103 40.9832 93.5739 41.4597 93.5739 42.1659V43.7046H93.2409ZM98.647 40.3918C98.647 39.7143 98.98 39.3813 99.6403 39.3813H100.105V39.6971H99.669C99.1867 39.6971 98.98 39.9095 98.98 40.4148V40.7363H100.077V41.0406H98.98V43.7046H98.647V41.0406H97.9695V40.7363H98.647V40.3918ZM101.962 43.7792C101.043 43.7792 100.4 43.1362 100.4 42.2176C100.4 41.3047 101.043 40.6617 101.962 40.6617C102.875 40.6617 103.518 41.3047 103.518 42.2176C103.518 43.1362 102.875 43.7792 101.962 43.7792ZM100.733 42.2176C100.733 42.9525 101.233 43.4577 101.962 43.4577C102.685 43.4577 103.185 42.9525 103.185 42.2176C103.185 41.4884 102.685 40.9832 101.962 40.9832C101.233 40.9832 100.733 41.4884 100.733 42.2176ZM104.443 43.7046V40.7363H104.725L104.759 41.4023C104.96 40.9545 105.299 40.7363 105.85 40.7363H106.097V41.0463H105.838C105.201 41.0463 104.776 41.4367 104.776 42.3381V43.7046H104.443ZM109.542 43.7792C108.624 43.7792 107.981 43.1362 107.981 42.2176C107.981 41.3047 108.624 40.6617 109.542 40.6617C110.455 40.6617 111.098 41.3047 111.098 42.2176C111.098 43.1362 110.455 43.7792 109.542 43.7792ZM108.314 42.2176C108.314 42.9525 108.813 43.4577 109.542 43.4577C110.266 43.4577 110.765 42.9525 110.765 42.2176C110.765 41.4884 110.266 40.9832 109.542 40.9832C108.813 40.9832 108.314 41.4884 108.314 42.2176ZM112.761 43.7046L111.435 40.7363H111.797L112.314 41.8846L112.928 43.2682L113.536 41.8846L114.059 40.7363H114.415L113.089 43.7046H112.761ZM116.27 43.7792C115.368 43.7792 114.754 43.1419 114.754 42.2176C114.754 41.299 115.374 40.6617 116.275 40.6617C117.211 40.6617 117.814 41.3506 117.791 42.3554H115.093C115.15 43.0271 115.609 43.4635 116.27 43.4635C116.752 43.4635 117.136 43.2395 117.332 42.8549L117.705 42.8606C117.475 43.429 116.936 43.7792 116.27 43.7792ZM115.093 42.0626H117.464C117.383 41.3908 116.924 40.9774 116.275 40.9774C115.615 40.9774 115.15 41.408 115.093 42.0626ZM118.701 43.7046V40.7363H118.983L119.017 41.4023C119.218 40.9545 119.557 40.7363 120.108 40.7363H120.355V41.0463H120.097C119.459 41.0463 119.034 41.4367 119.034 42.3381V43.7046H118.701ZM123.757 43.7792C122.988 43.7792 122.471 43.3199 122.431 42.608H122.77C122.81 43.119 123.195 43.4405 123.757 43.4405C124.354 43.4405 124.75 43.0673 124.75 42.5104C124.75 41.9477 124.354 41.586 123.757 41.586H122.557L122.712 39.6856H124.894V40.0129H123.028L122.919 41.2645H123.757C124.555 41.2645 125.095 41.7697 125.095 42.5161C125.095 43.2682 124.555 43.7792 123.757 43.7792ZM127.577 43.7046V40.7363H127.858L127.887 41.2186C128.094 40.8569 128.455 40.6617 128.915 40.6617C129.432 40.6617 129.828 40.92 130 41.3736C130.201 40.92 130.609 40.6617 131.131 40.6617C131.877 40.6617 132.36 41.1726 132.36 41.9994V43.7046H132.027V42.0511C132.027 41.3908 131.659 40.9832 131.091 40.9832C130.511 40.9832 130.132 41.4023 130.132 42.074V43.7046H129.799V42.0511C129.799 41.3908 129.437 40.9832 128.869 40.9832C128.289 40.9832 127.91 41.4023 127.91 42.074V43.7046H127.577ZM133.475 43.7046V40.7363H133.808V43.7046H133.475ZM133.338 39.8923C133.338 39.7258 133.458 39.5938 133.642 39.5938C133.826 39.5938 133.946 39.7258 133.946 39.8923C133.946 40.0646 133.826 40.1966 133.642 40.1966C133.458 40.1966 133.338 40.0646 133.338 39.8923ZM134.989 43.7046V40.7363H135.271L135.299 41.3104C135.535 40.8856 135.948 40.6617 136.425 40.6617C137.2 40.6617 137.676 41.2071 137.676 42.0626V43.7046H137.343V42.0913C137.343 41.408 136.976 40.9832 136.384 40.9832C135.759 40.9832 135.322 41.4597 135.322 42.1659V43.7046H134.989ZM139.968 43.7792C139.204 43.7792 138.733 43.2338 138.733 42.3783V40.7363H139.066V42.3496C139.066 43.0271 139.428 43.4577 140.013 43.4577C140.628 43.4577 141.053 42.9754 141.053 42.2692V40.7363H141.386V43.7046H141.11L141.076 43.1247C140.846 43.5553 140.433 43.7792 139.968 43.7792ZM143.775 43.7046C143.144 43.7046 142.805 43.3486 142.805 42.6769V41.0406H142.156V40.7363H142.535C142.759 40.7363 142.822 40.6789 142.845 40.4607L142.874 40.0071H143.138V40.7363H144.166V41.0406H143.138V42.6654C143.138 43.1534 143.339 43.3831 143.787 43.3831H144.206V43.7046H143.775ZM146.21 43.7792C145.309 43.7792 144.694 43.1419 144.694 42.2176C144.694 41.299 145.314 40.6617 146.216 40.6617C147.152 40.6617 147.754 41.3506 147.731 42.3554H145.033C145.09 43.0271 145.55 43.4635 146.21 43.4635C146.692 43.4635 147.077 43.2395 147.272 42.8549L147.645 42.8606C147.416 43.429 146.876 43.7792 146.21 43.7792ZM145.033 42.0626H147.404C147.324 41.3908 146.864 40.9774 146.216 40.9774C145.555 40.9774 145.09 41.408 145.033 42.0626ZM149.664 43.7792C148.912 43.7792 148.435 43.4003 148.412 42.8089H148.739C148.774 43.2281 149.101 43.4749 149.67 43.4749C150.192 43.4749 150.508 43.274 150.508 42.9467C150.508 42.6367 150.226 42.4472 149.595 42.3381C148.82 42.2061 148.47 41.9305 148.47 41.4769C148.47 40.9717 148.9 40.6617 149.595 40.6617C150.295 40.6617 150.737 40.9947 150.783 41.5631H150.45C150.416 41.1726 150.112 40.9602 149.595 40.9602C149.101 40.9602 148.803 41.1612 148.803 41.4827C148.803 41.7755 149.05 41.9362 149.71 42.0626C150.462 42.2061 150.835 42.5046 150.835 42.9525C150.835 43.452 150.382 43.7792 149.664 43.7792ZM151.795 43.739C151.612 43.739 151.491 43.6127 151.491 43.4405C151.491 43.2682 151.612 43.1419 151.795 43.1419C151.979 43.1419 152.1 43.2682 152.1 43.4405C152.1 43.6127 151.979 43.739 151.795 43.739ZM7.21128 51.7046V47.6856H8.48012C9.76045 47.6856 10.57 48.4837 10.57 49.6951C10.57 50.9065 9.76045 51.7046 8.48012 51.7046H7.21128ZM7.5615 51.3716H8.48012C9.54802 51.3716 10.214 50.7171 10.214 49.6951C10.214 48.6731 9.54228 48.0186 8.46864 48.0186H7.5615V51.3716ZM12.7912 51.7792C11.8726 51.7792 11.2296 51.1362 11.2296 50.2176C11.2296 49.3047 11.8726 48.6617 12.7912 48.6617C13.7041 48.6617 14.3471 49.3047 14.3471 50.2176C14.3471 51.1362 13.7041 51.7792 12.7912 51.7792ZM11.5626 50.2176C11.5626 50.9525 12.0621 51.4577 12.7912 51.4577C13.5146 51.4577 14.0141 50.9525 14.0141 50.2176C14.0141 49.4884 13.5146 48.9832 12.7912 48.9832C12.0621 48.9832 11.5626 49.4884 11.5626 50.2176ZM16.3559 52.8529V52.5371H16.6028C17.0219 52.5371 17.154 52.451 17.309 52.0778L17.4755 51.6587L16.0631 48.7363H16.4363L17.1368 50.2003L17.6478 51.2568L18.0726 50.2003L18.6755 48.7363H19.0257L17.6076 52.2041C17.4009 52.7208 17.1712 52.8529 16.6373 52.8529H16.3559ZM20.9267 51.7792C20.0081 51.7792 19.3651 51.1362 19.3651 50.2176C19.3651 49.3047 20.0081 48.6617 20.9267 48.6617C21.8396 48.6617 22.4826 49.3047 22.4826 50.2176C22.4826 51.1362 21.8396 51.7792 20.9267 51.7792ZM19.6981 50.2176C19.6981 50.9525 20.1976 51.4577 20.9267 51.4577C21.6501 51.4577 22.1496 50.9525 22.1496 50.2176C22.1496 49.4884 21.6501 48.9832 20.9267 48.9832C20.1976 48.9832 19.6981 49.4884 19.6981 50.2176ZM24.5793 51.7792C23.8157 51.7792 23.3449 51.2338 23.3449 50.3783V48.7363H23.6779V50.3496C23.6779 51.0271 24.0396 51.4577 24.6252 51.4577C25.2395 51.4577 25.6644 50.9754 25.6644 50.2692V48.7363H25.9974V51.7046H25.7218L25.6873 51.1247C25.4577 51.5553 25.0443 51.7792 24.5793 51.7792ZM29.186 51.7046L28.1181 48.7363H28.474L29.3525 51.2051L29.7716 50.1257L30.3055 48.7363H30.6156L31.1553 50.1257L31.5744 51.2051L32.4585 48.7363H32.8088L31.7351 51.7046H31.4136L30.9026 50.3783L30.4605 49.2243L29.5075 51.7046H29.186ZM34.3014 51.7505C33.6125 51.7505 33.1819 51.4118 33.1819 50.8663C33.1819 50.3381 33.5838 50.0051 34.1924 50.0051H35.5014V49.7927C35.5014 49.299 35.1397 48.9717 34.5885 48.9717C34.1407 48.9717 33.7905 49.2013 33.6699 49.5573H33.3311C33.4747 49.0061 33.9512 48.6617 34.5828 48.6617C35.3234 48.6617 35.8344 49.1152 35.8344 49.7755V51.7046H35.5588L35.5244 51.1936C35.266 51.5496 34.8296 51.7505 34.3014 51.7505ZM33.5149 50.8606C33.5149 51.2223 33.8192 51.452 34.3129 51.452C35.0019 51.452 35.5071 51.0214 35.5071 50.4243V50.298H34.2038C33.7962 50.298 33.5149 50.5219 33.5149 50.8606ZM36.9541 51.7046V48.7363H37.2354L37.2641 49.3104C37.4995 48.8856 37.9129 48.6617 38.3894 48.6617C39.1645 48.6617 39.6411 49.2071 39.6411 50.0626V51.7046H39.3081V50.0913C39.3081 49.408 38.9406 48.9832 38.3492 48.9832C37.7234 48.9832 37.2871 49.4597 37.2871 50.1659V51.7046H36.9541ZM41.8715 51.7046C41.2399 51.7046 40.9012 51.3486 40.9012 50.6769V49.0406H40.2524V48.7363H40.6314C40.8553 48.7363 40.9184 48.6789 40.9414 48.4607L40.9701 48.0071H41.2342V48.7363H42.2619V49.0406H41.2342V50.6654C41.2342 51.1534 41.4351 51.3831 41.883 51.3831H42.3021V51.7046H41.8715ZM45.7682 51.7046C45.1367 51.7046 44.7979 51.3486 44.7979 50.6769V49.0406H44.1492V48.7363H44.5281C44.752 48.7363 44.8152 48.6789 44.8381 48.4607L44.8668 48.0071H45.1309V48.7363H46.1586V49.0406H45.1309V50.6654C45.1309 51.1534 45.3319 51.3831 45.7797 51.3831H46.1988V51.7046H45.7682ZM48.2487 51.7792C47.3301 51.7792 46.6871 51.1362 46.6871 50.2176C46.6871 49.3047 47.3301 48.6617 48.2487 48.6617C49.1616 48.6617 49.8046 49.3047 49.8046 50.2176C49.8046 51.1362 49.1616 51.7792 48.2487 51.7792ZM47.0201 50.2176C47.0201 50.9525 47.5196 51.4577 48.2487 51.4577C48.9721 51.4577 49.4716 50.9525 49.4716 50.2176C49.4716 49.4884 48.9721 48.9832 48.2487 48.9832C47.5196 48.9832 47.0201 49.4884 47.0201 50.2176ZM53.2545 51.7792C52.3646 51.7792 51.7388 51.1305 51.7388 50.2176C51.7388 49.3047 52.3646 48.6617 53.2545 48.6617C53.9607 48.6617 54.5406 49.0808 54.7129 49.7238H54.3741C54.1789 49.253 53.7655 48.9832 53.2545 48.9832C52.5541 48.9832 52.0718 49.4884 52.0718 50.2176C52.0718 50.9525 52.5541 51.4577 53.2545 51.4577C53.8 51.4577 54.2248 51.1534 54.3913 50.6654H54.7416C54.5406 51.3601 53.9837 51.7792 53.2545 51.7792ZM55.6472 51.7046V47.456H55.9802V51.7046H55.6472ZM58.4643 51.7792C57.5457 51.7792 56.9027 51.1362 56.9027 50.2176C56.9027 49.3047 57.5457 48.6617 58.4643 48.6617C59.3772 48.6617 60.0203 49.3047 60.0203 50.2176C60.0203 51.1362 59.3772 51.7792 58.4643 51.7792ZM57.2357 50.2176C57.2357 50.9525 57.7352 51.4577 58.4643 51.4577C59.1878 51.4577 59.6873 50.9525 59.6873 50.2176C59.6873 49.4884 59.1878 48.9832 58.4643 48.9832C57.7352 48.9832 57.2357 49.4884 57.2357 50.2176ZM61.9676 51.7792C61.2155 51.7792 60.739 51.4003 60.716 50.8089H61.0433C61.0777 51.2281 61.405 51.4749 61.9734 51.4749C62.4958 51.4749 62.8116 51.274 62.8116 50.9467C62.8116 50.6367 62.5303 50.4472 61.8987 50.3381C61.1236 50.2061 60.7734 49.9305 60.7734 49.4769C60.7734 48.9717 61.204 48.6617 61.8987 48.6617C62.5992 48.6617 63.0413 48.9947 63.0872 49.5631H62.7542C62.7197 49.1726 62.4154 48.9602 61.8987 48.9602C61.405 48.9602 61.1064 49.1612 61.1064 49.4827C61.1064 49.7755 61.3533 49.9362 62.0136 50.0626C62.7657 50.2061 63.1389 50.5046 63.1389 50.9525C63.1389 51.452 62.6853 51.7792 61.9676 51.7792ZM65.3597 51.7792C64.4583 51.7792 63.8439 51.1419 63.8439 50.2176C63.8439 49.299 64.464 48.6617 65.3654 48.6617C66.3012 48.6617 66.9041 49.3506 66.8811 50.3554H64.1827C64.2401 51.0271 64.6994 51.4635 65.3597 51.4635C65.8419 51.4635 66.2266 51.2395 66.4218 50.8549L66.795 50.8606C66.5653 51.429 66.0257 51.7792 65.3597 51.7792ZM64.1827 50.0626H66.5539C66.4735 49.3908 66.0142 48.9774 65.3654 48.9774C64.7051 48.9774 64.2401 49.408 64.1827 50.0626ZM69.1933 51.7046V48.7363H69.5263V51.7046H69.1933ZM69.0555 47.8923C69.0555 47.7258 69.1761 47.5938 69.3598 47.5938C69.5435 47.5938 69.6641 47.7258 69.6641 47.8923C69.6641 48.0646 69.5435 48.1966 69.3598 48.1966C69.1761 48.1966 69.0555 48.0646 69.0555 47.8923ZM71.9128 51.7046C71.2813 51.7046 70.9425 51.3486 70.9425 50.6769V49.0406H70.2937V48.7363H70.6727C70.8966 48.7363 70.9597 48.6789 70.9827 48.4607L71.0114 48.0071H71.2755V48.7363H72.3032V49.0406H71.2755V50.6654C71.2755 51.1534 71.4765 51.3831 71.9243 51.3831H72.3434V51.7046H71.9128ZM73.9732 50.453C73.9732 50.0568 74.134 49.8042 74.5646 49.5401C74.9895 49.2702 75.1387 49.0521 75.1387 48.7076C75.1387 48.2311 74.8057 47.944 74.2374 47.944C73.6747 47.944 73.3072 48.2368 73.2785 48.7306H72.9398C72.98 48.0358 73.468 47.611 74.2259 47.611C74.978 47.611 75.4775 48.0416 75.4775 48.6961C75.4775 49.1325 75.2593 49.4769 74.7483 49.7985C74.4039 50.0109 74.312 50.1659 74.312 50.4759V50.6022H73.9732V50.453ZM73.8355 51.4405C73.8355 51.2625 73.9618 51.1419 74.1455 51.1419C74.3235 51.1419 74.4498 51.2625 74.4498 51.4405C74.4498 51.6185 74.3235 51.739 74.1455 51.739C73.9618 51.739 73.8355 51.6185 73.8355 51.4405Z" fill="#122D46"/>
<defs>
<clipPath id="clip0_7002_1470">
<rect width="41.7715" height="6.57079" fill="white" transform="translate(25.4258 11.4756)"/>
</clipPath>
</defs>
</svg>
