<svg width="200" height="17" viewBox="0 0 200 17" fill="none" xmlns="http://www.w3.org/2000/svg">
<g filter="url(#filter0_f_3816_4213)">
<path d="M13.332 8.50154C13.332 8.78056 13.5513 9.01031 13.83 9.02329L99.1654 13L184.501 9.02329C184.779 9.01031 184.999 8.78056 184.999 8.50154C184.999 8.22135 184.778 7.99107 184.498 7.97966L99.1654 4.5L13.8331 7.97966C13.5531 7.99107 13.332 8.22135 13.332 8.50154Z" fill="url(#paint0_linear_3816_4213)"/>
</g>
<path d="M0 8.5C0 8.77775 0.222211 9.00444 0.4999 9.01L100 11L199.5 9.01C199.778 9.00444 200 8.77775 200 8.5C200 8.22225 199.778 7.99556 199.5 7.99L100 6L0.499898 7.99C0.222209 7.99556 0 8.22225 0 8.5Z" fill="url(#paint1_linear_3816_4213)"/>
<defs>
<filter id="filter0_f_3816_4213" x="9.33203" y="0.5" width="179.668" height="16.5" filterUnits="userSpaceOnUse" color-interpolation-filters="sRGB">
<feFlood flood-opacity="0" result="BackgroundImageFix"/>
<feBlend mode="normal" in="SourceGraphic" in2="BackgroundImageFix" result="shape"/>
<feGaussianBlur stdDeviation="2" result="effect1_foregroundBlur_3816_4213"/>
</filter>
<linearGradient id="paint0_linear_3816_4213" x1="184.999" y1="8.5" x2="13.332" y2="8.5" gradientUnits="userSpaceOnUse">
<stop stop-color="#B8FFF3" stop-opacity="0"/>
<stop offset="0.5" stop-color="#B8FFF3"/>
<stop offset="1" stop-color="#B8FFF3" stop-opacity="0"/>
</linearGradient>
<linearGradient id="paint1_linear_3816_4213" x1="200" y1="8.5" x2="0" y2="8.5" gradientUnits="userSpaceOnUse">
<stop stop-color="#00856E"/>
<stop offset="0.5" stop-color="white"/>
<stop offset="1" stop-color="#00856E"/>
</linearGradient>
</defs>
</svg>
