<svg width="1249" height="311" viewBox="0 0 1249 311" fill="none" xmlns="http://www.w3.org/2000/svg">
<path d="M848.68 101.93L788.298 256.988L727.46 101.93H679.989L764.548 302.342H807.695L892.284 101.931L848.68 101.93ZM609.651 101.93V207.73C609.651 245.74 591.107 267.778 558.742 267.778C526.377 267.778 507.83 245.74 507.83 207.73V101.93H465.537V209.467C465.537 269.088 501.346 306.642 558.744 306.642C616.142 306.642 651.948 269.088 651.948 209.467V101.93L609.651 101.93ZM333.933 97.1749C318.112 97.1388 302.491 100.715 288.258 107.631C271.018 116.062 256.515 129.209 246.428 145.548C236.34 161.887 231.08 180.751 231.257 199.958C231.257 251.379 279.154 310.971 320.14 310.971C325.24 310.93 330.247 309.602 334.698 307.108C339.148 304.615 342.897 301.036 345.599 296.706C362.437 271.223 379.699 256.562 405.127 245.314C428.878 234.951 435.331 224.587 435.331 198.251C435.334 141.221 390.907 97.1759 333.936 97.1759L333.933 97.1749ZM378.816 231.504C361.551 242.294 352.51 251.378 345.596 265.613C344.197 268.403 342.034 270.738 339.36 272.346C336.687 273.954 333.611 274.769 330.493 274.696C302.874 274.696 271.39 238.393 271.39 206.448C271.39 170.602 297.699 143.809 333.508 143.809C341.585 143.84 349.577 145.463 357.028 148.585C364.478 151.708 371.242 156.269 376.931 162.008C382.621 167.747 387.126 174.551 390.188 182.033C393.251 189.515 394.812 197.528 394.781 205.613C394.778 205.89 394.775 206.167 394.772 206.449C394.772 217.663 390.905 224.155 378.817 231.504H378.816ZM105.265 97.1749C81.5396 96.9191 58.6436 105.903 41.4119 122.23L40.9853 0.000488281L0 0.000488281L0 302.342H42.2961V282.04C59.5821 297.608 82.0136 306.219 105.266 306.212C162.233 306.212 205.381 260.856 205.381 201.692C205.381 142.527 162.233 97.1749 105.265 97.1749ZM101.824 267.353C67.2934 267.353 41.4119 239.28 41.4119 201.696C41.4119 164.113 67.2934 136.04 101.823 136.04C136.353 136.04 162.236 164.113 162.236 201.696C162.236 239.28 136.351 267.35 101.817 267.35L101.824 267.353ZM1249 101.93H1187.74L1187.28 0.000488281L1146.29 0.000488281V101.93H1118.13V138.629H1146.29V302.344H1188.16L1187.74 138.629H1249V101.93Z" fill="url(#paint0_linear_3963_2831)"/>
<path opacity="0.55" d="M1020.48 136.159C1016.22 134.839 1011.81 134 1007.36 133.659C1011.82 133.928 1016.23 134.768 1020.48 136.159Z" fill="url(#paint1_linear_3963_2831)"/>
<path d="M1100.77 215.237H946.086C949.21 234.687 956.933 250.851 974.48 260.702C983.742 265.683 994.113 268.231 1004.63 268.109C1022.86 268.362 1040.05 264.718 1054.76 253.122C1059.2 249.273 1063.43 245.194 1067.45 240.902L1095.73 268.524C1090.08 275.329 1083.54 281.341 1076.29 286.395C1052.95 302.721 1026.85 308.726 998.837 307.168C976.127 306.375 954.415 297.628 937.487 282.451C918.334 265.21 908.213 243.2 905.378 217.687C902.427 195.714 905.8 173.355 915.099 153.233C929.898 122.295 954.757 104.97 988.045 99.8365C1008.59 96.2095 1029.76 99.1388 1048.56 108.21C1074.9 121.221 1090.18 143.248 1097.49 171.368C1101.14 185.686 1102.25 200.534 1100.77 215.237ZM946.935 181.287H1057.68C1055.96 168.926 1050 157.548 1040.82 149.101C1031.64 140.653 1019.82 135.659 1007.37 134.973C975.161 133.123 952.428 150.543 946.934 181.287H946.935Z" fill="url(#paint2_linear_3963_2831)"/>
<defs>
<linearGradient id="paint0_linear_3963_2831" x1="657.573" y1="66.8871" x2="657.573" y2="255.5" gradientUnits="userSpaceOnUse">
<stop stop-color="#DBDBDB"/>
<stop offset="1" stop-color="white"/>
</linearGradient>
<linearGradient id="paint1_linear_3963_2831" x1="1014.27" y1="134.197" x2="1014.27" y2="135.713" gradientUnits="userSpaceOnUse">
<stop stop-color="#DBDBDB"/>
<stop offset="1" stop-color="white"/>
</linearGradient>
<linearGradient id="paint2_linear_3963_2831" x1="1008.09" y1="143.294" x2="1008.09" y2="270.109" gradientUnits="userSpaceOnUse">
<stop stop-color="#DBDBDB"/>
<stop offset="1" stop-color="white"/>
</linearGradient>
</defs>
</svg>
