<svg width="243" height="30" viewBox="0 0 243 30" fill="none" xmlns="http://www.w3.org/2000/svg">
<path d="M21.24 7.46H7.2V12.98H19.8V18.14H7.2V28.5H0.16V1.9H21.24V7.46ZM33.645 24.54C35.685 24.54 36.925 23.66 37.485 22.46H44.165C43.485 25.9 40.765 29.14 33.485 29.14C25.325 29.14 22.445 23.94 22.445 18.46C22.445 12.66 25.805 7.86 33.485 7.86C41.645 7.86 44.245 13.02 44.245 18.58C44.245 19.22 44.205 19.82 44.125 20.26H29.125C29.525 23.46 31.085 24.54 33.645 24.54ZM33.565 12.38C31.085 12.38 29.645 13.38 29.205 16.26H37.725C37.485 13.74 36.245 12.38 33.565 12.38ZM53.2694 29.02C49.2694 29.02 46.6294 26.74 46.6294 23.22C46.6294 20.02 47.9494 17.9 53.4694 16.98L57.9894 16.18C59.8294 15.86 60.3094 15.38 60.3094 14.34C60.3094 13.14 59.5894 12.42 57.3094 12.42C54.9094 12.42 53.7494 13.38 53.7094 15.14H47.0294C47.2294 10.9 50.9094 7.86 57.2294 7.86C63.5494 7.86 66.6694 10.46 66.6694 15.02V22.98C66.6694 25.1 66.7894 26.86 67.0294 28.5H61.1094C60.9094 27.34 60.7894 25.98 60.7894 24.34C59.7894 27.26 57.3094 29.02 53.2694 29.02ZM55.8694 24.54C58.4694 24.54 60.3094 22.7 60.3094 19.1V18.34C59.3494 19.06 58.4294 19.3 57.1894 19.62L56.0294 19.9C54.1094 20.38 53.3894 21.06 53.3894 22.42C53.3894 23.82 54.4694 24.54 55.8694 24.54ZM80.2316 28.5C74.1116 28.5 72.1916 25.78 72.1916 20.62V13.66H68.6716V10.46L72.7516 8.66L75.5916 3.66H79.0716V8.5H84.5116V13.66H79.0716V23.06H83.8716V28.5H80.2316ZM102.099 8.5H108.979V28.5H102.099V24.86C100.819 27.46 98.5391 29.14 95.0191 29.14C89.7791 29.14 87.4191 25.9 87.4191 20.66V8.5H94.2991V19.46C94.2991 22.14 95.3791 23.58 97.8191 23.58C100.499 23.58 102.099 21.74 102.099 17.9V8.5ZM125.291 8.18H126.971V14.86H124.531C121.211 14.86 119.811 16.46 119.811 20.5V28.5H112.931V8.5H119.611V12.58C120.411 9.74 122.051 8.18 125.291 8.18ZM139.504 24.54C141.544 24.54 142.784 23.66 143.344 22.46H150.024C149.344 25.9 146.624 29.14 139.344 29.14C131.184 29.14 128.304 23.94 128.304 18.46C128.304 12.66 131.664 7.86 139.344 7.86C147.504 7.86 150.104 13.02 150.104 18.58C150.104 19.22 150.064 19.82 149.984 20.26H134.984C135.384 23.46 136.944 24.54 139.504 24.54ZM139.424 12.38C136.944 12.38 135.504 13.38 135.064 16.26H143.584C143.344 13.74 142.104 12.38 139.424 12.38ZM168.604 0.499998H175.484V28.5H168.604V25.78C167.204 27.9 164.964 29.14 161.604 29.14C155.004 29.14 152.404 24.18 152.404 18.46C152.404 12.9 155.004 7.86 161.604 7.86C164.964 7.86 167.204 9.1 168.604 11.22V0.499998ZM163.884 23.78C167.404 23.78 168.604 22.06 168.604 18.5C168.604 14.94 167.404 13.22 163.884 13.22C160.484 13.22 159.324 14.78 159.324 18.5C159.324 22.22 160.484 23.78 163.884 23.78ZM203.607 29.14C193.127 29.14 189.327 22.34 189.327 15.22C189.327 8.22 193.127 1.22 203.607 1.22C214.167 1.22 217.927 8.26 217.927 15.22C217.927 22.3 214.167 29.14 203.607 29.14ZM196.687 15.22C196.687 20.42 198.127 23.42 203.607 23.42C209.167 23.42 210.567 20.42 210.567 15.22C210.567 9.94 209.167 6.98 203.607 6.98C198.127 6.98 196.687 9.94 196.687 15.22ZM235.292 7.86C240.532 7.86 242.812 11.1 242.812 16.34V28.5H235.932V17.5C235.932 14.86 234.852 13.42 232.452 13.42C229.692 13.42 228.092 15.18 228.092 19.1V28.5H221.212V8.5H228.092V12.22C229.412 9.58 231.732 7.86 235.292 7.86Z" fill="#122D46"/>
</svg>
