<svg width="391" height="348" viewBox="0 0 391 348" fill="none" xmlns="http://www.w3.org/2000/svg">
<path d="M89 133C56.0968 133.186 39 106.922 39 74L39 38L39 73L38 73L38 74C38 107.467 55.5517 134.2 89 134L156 134C156.931 134.12 157.03 134.013 158 134L174 134L178 134C187.705 133.947 195.484 140.715 197 150C196.84 151.024 197 151.923 197 153L197 219L198 219L198 153C198 142.212 207.218 133.934 218 134L232 134C232.984 134.013 234.056 134.12 235 134L307 134C340.448 134.2 358 107.467 358 74L358 73L357 73L357 74C357 106.922 339.903 133.186 307 133L239 133C246.977 130.22 253 122.952 253 114L253 73L252 73L252 114C252 123.923 244.559 131.79 235 133L218 133C208.481 132.827 200.446 139.261 198 148C195.567 139.261 187.519 132.84 178 133L174 133L156 133C146.441 131.79 139 123.923 139 114L139 73L138 73L138 114C138 122.952 143.01 130.22 151 133L89 133Z" fill="#00856E" stroke="#00856E"/>
<path d="M0 34.6667C0 15.5208 15.5208 0 34.6667 0C53.8126 0 69.3334 15.5208 69.3334 34.6667C69.3334 53.8126 53.8126 69.3334 34.6667 69.3334C15.5208 69.3334 0 53.8126 0 34.6667Z" fill="white"/>
<path fill-rule="evenodd" clip-rule="evenodd" d="M32.1436 19.3367L33.9636 20.4287C36.2719 21.7932 38.0453 23.9049 38.9902 26.4144C39.3109 25.6922 39.6922 24.9917 40.0461 24.2839L41.4631 25.7009C44.6438 28.8816 47.6641 33.6482 47.6641 38.2777C47.6641 44.4859 43.8363 48.422 37.7119 49.1023L35.7041 49.3248L36.1432 47.3531C36.4856 45.8105 36.5477 44.8022 36.4754 44.0959C36.3888 43.2076 35.967 42.5099 35.4412 41.8166C34.9386 41.1521 34.4402 40.4862 34.0416 39.751C32.4021 41.0467 31.7666 42.2167 31.5629 43.1801C31.3029 44.4137 31.6712 45.6747 32.3443 47.0209L33.5317 49.3956L30.8941 49.1023C27.1732 48.6892 23.5072 46.2033 22.0628 42.5763C20.5533 38.7818 21.6208 34.1899 26.4972 29.9635C29.7328 27.1598 31.4459 23.5241 32.1436 19.3367ZM34.0676 24.1033C32.9669 27.1944 30.8537 30.0111 28.388 32.1474C24.1832 35.7918 23.8062 39.1443 24.748 41.5075C25.4485 43.2697 26.9609 44.7185 28.7534 45.5403C28.544 44.567 28.5381 43.5608 28.7361 42.585C29.207 40.3519 30.8132 38.2589 33.8986 36.3306L35.4542 35.3585L36.0349 37.099C36.5433 38.6243 37.5978 39.7033 38.4226 41.0423C39.3297 42.5157 39.503 44.2057 39.3181 45.8928C43.1026 44.9467 44.7752 42.0766 44.7752 38.2777C44.7752 35.0681 42.8397 31.9192 40.9186 29.4579C40.127 31.2317 38.4587 31.8557 36.8308 32.6703V30.3332C36.8308 28.3558 36.0262 25.945 34.0676 24.1048V24.1033Z" fill="#005143"/>
<path d="M103 34.6667C103 15.5208 118.521 0 137.667 0C156.813 0 172.333 15.5208 172.333 34.6667C172.333 53.8126 156.813 69.3334 137.667 69.3334C118.521 69.3334 103 53.8126 103 34.6667Z" fill="white"/>
<path d="M150.546 31.1479C150.699 30.7975 150.707 30.4006 150.568 30.0442C150.429 29.6879 150.155 29.4011 149.805 29.247L130.919 20.9327C129.481 20.3001 127.712 21.0064 127.098 22.4378L123.906 29.8825C123.605 30.5867 123.596 31.3814 123.881 32.0921C124.166 32.8028 124.722 33.3713 125.425 33.6727L134.147 37.411L132.356 41.8887H126.112V37.5554H123.223V49.111H126.112V44.7776H132.356C133.545 44.7776 134.598 44.0641 135.037 42.9605L136.802 38.5492L144.32 41.7703C144.67 41.9205 145.066 41.9264 145.42 41.7865C145.774 41.6466 146.059 41.3724 146.212 41.0235L146.663 39.998L149.12 40.9802L152.009 33.758L149.79 32.8725L150.546 31.1479ZM144.141 38.5521L126.564 31.0193L129.753 23.5775L147.32 31.3111L144.141 38.5521Z" fill="#005143"/>
<path d="M218 34.6667C218 15.5208 233.521 0 252.667 0C271.813 0 287.333 15.5208 287.333 34.6667C287.333 53.8126 271.813 69.3334 252.667 69.3334C233.521 69.3334 218 53.8126 218 34.6667Z" fill="white"/>
<g clip-path="url(#clip0_6016_3478)">
<path d="M239.666 24.0182L252.673 20.2222L265.666 24.0182V31.8023C265.666 35.7915 264.41 39.6795 262.077 42.9156C259.744 46.1516 256.453 48.5718 252.668 49.8333C248.882 48.5723 245.589 46.152 243.256 42.9151C240.922 39.6782 239.666 35.7891 239.666 31.7987V24.0182Z" stroke="#005143" stroke-width="2.88889" stroke-linejoin="round"/>
<path d="M246.166 33.9444L251.222 38.9999L259.888 30.3333" stroke="#005143" stroke-width="2.88889" stroke-linecap="round" stroke-linejoin="round"/>
</g>
<path d="M321 34.6667C321 15.5208 336.521 0 355.667 0C374.813 0 390.333 15.5208 390.333 34.6667C390.333 53.8126 374.813 69.3334 355.667 69.3334C336.521 69.3334 321 53.8126 321 34.6667Z" fill="white"/>
<path d="M368.669 20.2222H360.002C359.619 20.2222 359.252 20.3744 358.981 20.6452C358.71 20.9161 358.558 21.2835 358.558 21.6666C358.558 22.0497 358.71 22.4171 358.981 22.688C359.252 22.9589 359.619 23.1111 360.002 23.1111H367.225V30.3333C367.225 30.7164 367.377 31.0838 367.648 31.3547C367.919 31.6255 368.286 31.7777 368.669 31.7777C369.052 31.7777 369.42 31.6255 369.69 31.3547C369.961 31.0838 370.114 30.7164 370.114 30.3333V21.6666C370.114 21.2835 369.961 20.9161 369.69 20.6452C369.42 20.3744 369.052 20.2222 368.669 20.2222ZM368.669 37.5555C368.286 37.5555 367.919 37.7077 367.648 37.9786C367.377 38.2495 367.225 38.6169 367.225 39V46.2222H360.002C359.619 46.2222 359.252 46.3744 358.981 46.6452C358.71 46.9161 358.558 47.2835 358.558 47.6666C358.558 48.0497 358.71 48.4171 358.981 48.688C359.252 48.9589 359.619 49.1111 360.002 49.1111H368.669C369.052 49.1111 369.42 48.9589 369.69 48.688C369.961 48.4171 370.114 48.0497 370.114 47.6666V39C370.114 38.6169 369.961 38.2495 369.69 37.9786C369.42 37.7077 369.052 37.5555 368.669 37.5555ZM355.669 25.9999C354.52 25.9999 353.418 26.4565 352.605 27.2692C351.792 28.0818 351.336 29.184 351.336 30.3333V31.7777C350.57 31.7777 349.835 32.0821 349.293 32.6239C348.751 33.1656 348.447 33.9004 348.447 34.6666V40.4444C348.447 41.2106 348.751 41.9454 349.293 42.4871C349.835 43.0289 350.57 43.3333 351.336 43.3333H360.002C360.769 43.3333 361.503 43.0289 362.045 42.4871C362.587 41.9454 362.891 41.2106 362.891 40.4444V34.6666C362.891 33.9004 362.587 33.1656 362.045 32.6239C361.503 32.0821 360.769 31.7777 360.002 31.7777V30.3333C360.002 29.184 359.546 28.0818 358.733 27.2692C357.921 26.4565 356.818 25.9999 355.669 25.9999ZM354.225 30.3333C354.225 29.9502 354.377 29.5828 354.648 29.3119C354.919 29.041 355.286 28.8888 355.669 28.8888C356.052 28.8888 356.42 29.041 356.69 29.3119C356.961 29.5828 357.114 29.9502 357.114 30.3333V31.7777H354.225V30.3333ZM360.002 40.4444H351.336V34.6666H360.002V40.4444ZM342.669 31.7777C343.052 31.7777 343.42 31.6255 343.69 31.3547C343.961 31.0838 344.113 30.7164 344.113 30.3333V23.1111H351.336C351.719 23.1111 352.086 22.9589 352.357 22.688C352.628 22.4171 352.78 22.0497 352.78 21.6666C352.78 21.2835 352.628 20.9161 352.357 20.6452C352.086 20.3744 351.719 20.2222 351.336 20.2222H342.669C342.286 20.2222 341.919 20.3744 341.648 20.6452C341.377 20.9161 341.225 21.2835 341.225 21.6666V30.3333C341.225 30.7164 341.377 31.0838 341.648 31.3547C341.919 31.6255 342.286 31.7777 342.669 31.7777ZM351.336 46.2222H344.113V39C344.113 38.6169 343.961 38.2495 343.69 37.9786C343.42 37.7077 343.052 37.5555 342.669 37.5555C342.286 37.5555 341.919 37.7077 341.648 37.9786C341.377 38.2495 341.225 38.6169 341.225 39V47.6666C341.225 48.0497 341.377 48.4171 341.648 48.688C341.919 48.9589 342.286 49.1111 342.669 49.1111H351.336C351.719 49.1111 352.086 48.9589 352.357 48.688C352.628 48.4171 352.78 48.0497 352.78 47.6666C352.78 47.2835 352.628 46.9161 352.357 46.6452C352.086 46.3744 351.719 46.2222 351.336 46.2222Z" fill="#005143"/>
<path d="M167.351 221.345V176H134.777V265.703C134.777 245.028 148.495 227.36 167.351 221.345Z" fill="#EFEFEF"/>
<path d="M216.66 219.098H181.398C176.481 219.098 171.798 219.9 167.35 221.315V265.841C167.35 258.058 173.671 251.691 181.398 251.691H216.66C224.386 251.691 230.708 258.058 230.708 265.841V345.885C249.392 339.847 263.066 322.159 263.066 301.358V265.841C263.066 240.134 242.181 219.098 216.66 219.098Z" fill="#10957D"/>
<path d="M216.873 315.425H167.305V218.596C148.476 224.61 134.777 245.282 134.777 265.953V347.889H167.305H181.427H216.873C221.816 347.889 226.523 347.09 230.995 345.681V301.33C230.995 309.082 224.64 315.425 216.873 315.425Z" fill="#EFEFEF"/>
<defs>
<clipPath id="clip0_6016_3478">
<rect width="34.6667" height="34.6667" fill="white" transform="translate(235.334 17.3333)"/>
</clipPath>
</defs>
</svg>
