<svg width="23" height="24" viewBox="0 0 23 24" fill="none" xmlns="http://www.w3.org/2000/svg">
<g clip-path="url(#clip0_3109_4175)">
<path d="M10.6062 11.4414L0.427734 21.9696C0.542037 22.3695 0.747443 22.7383 1.02825 23.0479C1.30906 23.3574 1.65783 23.5995 2.04791 23.7555C2.43799 23.9116 2.85904 23.9775 3.27889 23.9483C3.69874 23.9191 4.10626 23.7955 4.47031 23.5869L15.923 17.1473L10.6062 11.4414Z" fill="#EA4335"/>
<path d="M20.8983 9.65218L15.9458 6.85156L10.3711 11.6812L15.9684 17.1326L20.8832 14.362C21.3186 14.1369 21.6833 13.7984 21.9378 13.3833C22.1922 12.9682 22.3267 12.4922 22.3267 12.007C22.3267 11.5218 22.1922 11.0459 21.9378 10.6307C21.6833 10.2156 21.3186 9.87718 20.8832 9.6521L20.8983 9.65218Z" fill="#FBBC04"/>
<path d="M0.42897 1.9917C0.367483 2.21626 0.336858 2.44796 0.337917 2.68058V21.2807C0.338524 21.5133 0.369121 21.7448 0.42897 21.9697L10.9563 11.7111L0.42897 1.9917Z" fill="#4285F4"/>
<path d="M10.682 11.9808L15.9457 6.85154L4.50828 0.381885C4.07795 0.133083 3.58852 0.00131666 3.08983 5.20116e-06C1.85228 -0.00236936 0.764286 0.808542 0.427734 1.98437L10.682 11.9808Z" fill="#34A853"/>
</g>
<defs>
<clipPath id="clip0_3109_4175">
<rect width="22" height="24" fill="white" transform="translate(0.332031)"/>
</clipPath>
</defs>
</svg>
