<svg width="256" height="343" viewBox="0 0 256 343" fill="none" xmlns="http://www.w3.org/2000/svg">
<path d="M65 90.4845V0H0V179C0 137.743 27.3734 102.487 65 90.4845Z" fill="#EFEFEF"/>
<path d="M163.397 86H93.0333C83.2216 86 73.8772 87.6001 65 90.4237V179.275C65 163.745 77.615 151.038 93.0333 151.038H163.397C178.815 151.038 191.43 163.745 191.43 179.275V339C228.714 326.952 256 291.657 256 250.149V179.275C256 127.978 214.324 86 163.397 86Z" fill="#10957D"/>
<path d="M163.82 278.219H64.908V85C27.3346 97 0 138.25 0 179.5V343H64.908H93.0881H163.82C173.683 343 183.076 341.406 192 338.594V250.094C192 265.562 179.319 278.219 163.82 278.219Z" fill="#EFEFEF"/>
</svg>
