<svg width="1266" height="194" viewBox="0 0 1266 194" fill="none" xmlns="http://www.w3.org/2000/svg">
<g clip-path="url(#clip0_1_277)">
<path d="M173.977 81.0559C179.717 69.8505 187.544 61.2631 197.407 55.2416C207.269 49.22 218.28 46.183 230.49 46.183C241.135 46.183 250.424 48.3298 258.408 52.6235C266.392 56.9171 272.81 62.3627 277.611 68.908V48.4869H313.93V191.696H277.611V170.751C272.967 177.454 266.601 183.056 258.408 187.402C250.267 191.801 240.875 194 230.229 194C218.227 194 207.269 190.911 197.407 184.68C187.544 178.501 179.717 169.757 173.977 158.446C168.236 147.136 165.366 134.203 165.366 119.542C165.366 104.88 168.236 92.2613 173.977 81.0035V81.0559ZM272.497 97.4974C269.053 91.214 264.409 86.3968 258.564 83.0456C252.72 79.6945 246.458 78.0189 239.727 78.0189C232.995 78.0189 226.837 79.6421 221.202 82.9409C215.514 86.1873 210.922 91.0046 207.426 97.288C203.929 103.571 202.155 111.059 202.155 119.646C202.155 128.234 203.929 135.826 207.426 142.267C210.922 148.707 215.566 153.682 221.358 157.137C227.151 160.593 233.256 162.321 239.779 162.321C246.302 162.321 252.72 160.646 258.617 157.294C264.461 153.943 269.105 149.126 272.549 142.843C275.993 136.559 277.715 129.019 277.715 120.222C277.715 111.426 275.993 103.886 272.549 97.6021L272.497 97.4974Z" fill="#EFEFEF"/>
<path d="M403.475 52.8853C410.937 48.5917 419.495 46.3925 429.097 46.3925V84.407H419.547C408.224 84.407 399.666 87.0775 393.926 92.4184C388.186 97.7593 385.263 107.08 385.263 120.327V191.644H349.205V48.4869H385.263V70.6883C389.908 63.0958 395.961 57.179 403.423 52.8853H403.475Z" fill="#EFEFEF"/>
<path d="M507.527 52.8853C514.989 48.5917 523.547 46.3925 533.149 46.3925V84.407H523.599C512.276 84.407 503.718 87.0775 497.978 92.4184C492.238 97.7593 489.315 107.08 489.315 120.327V191.644H453.257V48.4869H489.315V70.6883C493.96 63.0958 500.013 57.179 507.475 52.8853H507.527Z" fill="#EFEFEF"/>
<path d="M593.472 48.4869V191.696H557.414V48.4869H593.472Z" fill="#EFEFEF"/>
<path d="M628.747 81.2129C634.748 70.1123 643.097 61.4726 653.743 55.3463C664.388 49.22 676.598 46.183 690.322 46.183C708.012 46.183 722.624 50.6337 734.26 59.4829C745.845 68.3843 753.62 80.7941 757.586 96.8167H718.71C716.675 90.5857 713.178 85.7684 708.273 82.2078C703.368 78.6472 697.315 76.9193 690.114 76.9193C679.834 76.9193 671.641 80.6893 665.64 88.1771C659.639 95.6648 656.613 106.294 656.613 120.118C656.613 133.941 659.639 144.309 665.64 151.796C671.641 159.284 679.782 163.054 690.114 163.054C704.725 163.054 714.222 156.509 718.71 143.419H757.586C753.62 158.918 745.845 171.223 734.156 180.386C722.467 189.497 707.856 194.105 690.375 194.105C676.651 194.105 664.44 191.068 653.795 184.941C643.15 178.815 634.8 170.228 628.799 159.075C622.798 147.974 619.772 134.988 619.772 120.17C619.772 105.352 622.746 92.4184 628.799 81.2653L628.747 81.2129Z" fill="#EFEFEF"/>
<path d="M783.416 81.0559C789.156 69.8505 796.983 61.2631 806.846 55.2416C816.708 49.22 827.719 46.183 839.93 46.183C850.575 46.183 859.863 48.3298 867.847 52.6235C875.831 56.9171 882.25 62.3627 887.051 68.908V48.4869H923.37V191.696H887.051V170.751C882.406 177.454 876.04 183.056 867.847 187.402C859.707 191.801 850.314 194 839.669 194C827.667 194 816.708 190.911 806.846 184.68C796.983 178.501 789.156 169.757 783.416 158.446C777.676 147.136 774.806 134.203 774.806 119.542C774.806 104.88 777.676 92.2613 783.416 81.0035V81.0559ZM881.937 97.4974C878.493 91.214 873.848 86.3968 868.004 83.0456C862.159 79.6945 855.898 78.0189 849.166 78.0189C842.434 78.0189 836.277 79.6421 830.641 82.9409C824.953 86.1873 820.361 91.0046 816.865 97.288C813.369 103.571 811.595 111.059 811.595 119.646C811.595 128.234 813.369 135.826 816.865 142.267C820.361 148.707 825.006 153.682 830.798 157.137C836.59 160.593 842.695 162.321 849.218 162.321C855.741 162.321 862.159 160.646 868.056 157.294C873.901 153.943 878.545 149.126 881.989 142.843C885.433 136.559 887.155 129.019 887.155 120.222C887.155 111.426 885.433 103.886 881.989 97.6021L881.937 97.4974Z" fill="#EFEFEF"/>
<path d="M958.071 81.0559C963.811 69.8505 971.691 61.2631 981.657 55.2416C991.624 49.22 1002.69 46.183 1014.9 46.183C1024.19 46.183 1033.01 48.2251 1041.46 52.2569C1049.86 56.2888 1056.54 61.682 1061.55 68.4367V0.418884H1098.13V191.696H1061.55V170.49C1057.06 177.558 1050.8 183.213 1042.76 187.559C1034.67 191.853 1025.33 194 1014.69 194C1002.69 194 991.677 190.911 981.71 184.68C971.743 178.501 963.915 169.757 958.123 158.446C952.331 147.136 949.513 134.203 949.513 119.542C949.513 104.88 952.383 92.2613 958.123 81.0035L958.071 81.0559ZM1056.59 97.4974C1053.15 91.214 1048.5 86.3967 1042.66 83.0456C1036.81 79.6945 1030.55 78.0189 1023.82 78.0189C1017.09 78.0189 1010.93 79.6421 1005.3 82.9409C999.608 86.1873 995.016 91.0046 991.52 97.288C988.024 103.571 986.25 111.059 986.25 119.646C986.25 128.234 988.024 135.826 991.52 142.267C995.016 148.707 999.66 153.681 1005.45 157.137C1011.24 160.593 1017.35 162.321 1023.87 162.321C1030.4 162.321 1036.81 160.646 1042.71 157.294C1048.56 153.943 1053.2 149.126 1056.64 142.843C1060.09 136.559 1061.81 129.019 1061.81 120.222C1061.81 111.426 1060.09 103.886 1056.64 97.6021L1056.59 97.4974Z" fill="#EFEFEF"/>
<path d="M1264.96 130.957H1160.64C1161.48 141.272 1165.13 149.388 1171.45 155.252C1177.76 161.117 1185.64 164.049 1194.88 164.049C1208.29 164.049 1217.78 158.289 1223.47 146.717H1262.35C1258.22 160.489 1250.35 171.851 1238.66 180.7C1226.97 189.549 1212.62 194 1195.66 194C1181.93 194 1169.62 190.963 1158.71 184.837C1147.81 178.71 1139.3 170.071 1133.2 158.865C1127.09 147.66 1124.06 134.727 1124.06 120.065C1124.06 105.404 1127.04 92.2613 1133.09 81.0559C1139.09 69.8505 1147.49 61.2631 1158.35 55.2416C1169.15 49.22 1181.62 46.183 1195.71 46.183C1209.8 46.183 1221.44 49.1152 1232.19 54.9797C1242.88 60.8443 1251.23 69.1698 1257.18 79.9039C1263.08 90.6904 1266.05 103.048 1266.05 116.976C1266.05 122.16 1265.69 126.768 1265.01 130.957H1264.96ZM1228.64 106.661C1228.48 97.3404 1225.14 89.905 1218.57 84.3023C1212.04 78.6996 1204.06 75.9244 1194.61 75.9244C1185.69 75.9244 1178.18 78.6472 1172.07 84.0405C1165.97 89.4861 1162.26 97.0262 1160.85 106.661H1228.59H1228.64Z" fill="#EFEFEF"/>
<path d="M593.472 18.0648C593.472 28.0659 585.383 36.1296 575.469 36.1296C565.502 36.1296 557.466 28.0135 557.466 18.0648C557.466 8.0637 565.554 0 575.469 0C585.436 0 593.472 8.11606 593.472 18.0648Z" fill="#10957D"/>
<path d="M36.0581 50.9479V0.418884H0V100.377C0 77.3382 15.1851 57.6502 36.0581 50.9479Z" fill="#EFEFEF"/>
<path d="M91.0063 48.4869H51.7129C46.2337 48.4869 41.0154 49.3771 36.0581 50.9479V100.377C36.0581 91.7377 43.1027 84.6688 51.7129 84.6688H91.0063C99.6164 84.6688 106.661 91.7377 106.661 100.377V189.235C127.482 182.533 142.719 162.897 142.719 139.806V100.377C142.719 71.8402 119.446 48.4869 91.0063 48.4869Z" fill="white"/>
<path d="M91.0063 155.514H36.0581V50.9479C15.1851 57.6502 0 77.3382 0 100.377V191.696H36.0581H51.7129H91.0063C96.4855 191.696 101.704 190.806 106.661 189.235V139.806C106.661 148.445 99.6164 155.514 91.0063 155.514Z" fill="#EFEFEF"/>
<path d="M36.0581 50.9479V0.418884H0V100.377C0 77.3382 15.1851 57.6502 36.0581 50.9479Z" fill="#EFEFEF"/>
<path d="M91.0063 48.4869H51.7129C46.2337 48.4869 41.0154 49.3771 36.0581 50.9479V100.377C36.0581 91.7377 43.1027 84.6688 51.7129 84.6688H91.0063C99.6164 84.6688 106.661 91.7377 106.661 100.377V189.235C127.482 182.533 142.719 162.897 142.719 139.806V100.377C142.719 71.8402 119.446 48.4869 91.0063 48.4869Z" fill="#10957D"/>
<path d="M91.0063 155.514H36.0581V50.9479C15.1851 57.6502 0 77.3382 0 100.377V191.696H36.0581H51.7129H91.0063C96.4855 191.696 101.704 190.806 106.661 189.235V139.806C106.661 148.445 99.6164 155.514 91.0063 155.514Z" fill="#EFEFEF"/>
</g>
<defs>
<clipPath id="clip0_1_277">
<rect width="1266" height="194" fill="white"/>
</clipPath>
</defs>
</svg>
