<svg width="322" height="338" viewBox="0 0 322 338" fill="none" xmlns="http://www.w3.org/2000/svg">
<path d="M52 64.5002C19.0968 64.314 2 90.5786 2 123.5L2 195.5H1L1 123.5C1 90.0332 18.5517 63.3007 52 63.5002L119 63.5002C119.931 63.3805 120.03 63.4869 121 63.5002H141C150.705 63.5534 158.484 56.7847 160 47.5002C159.84 46.4759 160 45.5776 160 44.5002L160 1L161 1L161 44.5002C161 55.2878 170.218 63.5667 181 63.5002L195 63.5002C195.984 63.4869 197.056 63.3805 198 63.5002H270C303.448 63.3007 321 90.0333 321 123.5V195.5H320V123.5C320 90.5786 302.903 64.314 270 64.5002H202C209.977 67.2802 216 74.5482 216 83.5002V195.5H215V83.5002C215 73.5772 207.559 65.7106 198 64.5002L181 64.5002C171.481 64.6731 163.446 58.2394 161 49.5002C158.567 58.2394 150.519 64.6598 141 64.5002H119C109.441 65.7106 102 73.5771 102 83.5002L102 195.5H101L101 83.5002C101 74.5482 107.01 67.2802 115 64.5002L52 64.5002Z" fill="#00856E"/>
<path d="M52 251.5C19.0968 251.686 2 225.422 2 192.5L2 156.5L2 191.5H1L1 192.5C1 225.967 18.5517 252.7 52 252.5L119 252.5C119.931 252.62 120.03 252.513 121 252.5H141C150.705 252.447 158.484 259.216 160 268.5C159.84 269.524 160 270.423 160 271.5L160 337.5H161L161 271.5C161 260.713 170.218 252.434 181 252.5H195C195.984 252.513 197.056 252.62 198 252.5H270C303.448 252.7 321 225.967 321 192.5V191.5H320V192.5C320 225.422 302.903 251.686 270 251.5H202C209.977 248.72 216 241.452 216 232.5V191.5H215V232.5C215 242.423 207.559 250.29 198 251.5H181C171.481 251.327 163.446 257.761 161 266.5C158.567 257.761 150.519 251.341 141 251.5H119C109.441 250.29 102 242.423 102 232.5L102 191.5H101L101 232.5C101 241.452 106.01 248.72 114 251.5L52 251.5Z" fill="#00856E"/>
<path d="M52 64.5002C19.0968 64.314 2 90.5786 2 123.5L2 195.5H1L1 123.5C1 90.0332 18.5517 63.3007 52 63.5002L119 63.5002C119.931 63.3805 120.03 63.4869 121 63.5002H141C150.705 63.5534 158.484 56.7847 160 47.5002C159.84 46.4759 160 45.5776 160 44.5002L160 1L161 1L161 44.5002C161 55.2878 170.218 63.5667 181 63.5002L195 63.5002C195.984 63.4869 197.056 63.3805 198 63.5002H270C303.448 63.3007 321 90.0333 321 123.5V195.5H320V123.5C320 90.5786 302.903 64.314 270 64.5002H202C209.977 67.2802 216 74.5482 216 83.5002V195.5H215V83.5002C215 73.5772 207.559 65.7106 198 64.5002L181 64.5002C171.481 64.6731 163.446 58.2394 161 49.5002C158.567 58.2394 150.519 64.6598 141 64.5002H119C109.441 65.7106 102 73.5771 102 83.5002L102 195.5H101L101 83.5002C101 74.5482 107.01 67.2802 115 64.5002L52 64.5002Z" stroke="#00856E"/>
<path d="M52 251.5C19.0968 251.686 2 225.422 2 192.5L2 156.5L2 191.5H1L1 192.5C1 225.967 18.5517 252.7 52 252.5L119 252.5C119.931 252.62 120.03 252.513 121 252.5H141C150.705 252.447 158.484 259.216 160 268.5C159.84 269.524 160 270.423 160 271.5L160 337.5H161L161 271.5C161 260.713 170.218 252.434 181 252.5H195C195.984 252.513 197.056 252.62 198 252.5H270C303.448 252.7 321 225.967 321 192.5V191.5H320V192.5C320 225.422 302.903 251.686 270 251.5H202C209.977 248.72 216 241.452 216 232.5V191.5H215V232.5C215 242.423 207.559 250.29 198 251.5H181C171.481 251.327 163.446 257.761 161 266.5C158.567 257.761 150.519 251.341 141 251.5H119C109.441 250.29 102 242.423 102 232.5L102 191.5H101L101 232.5C101 241.452 106.01 248.72 114 251.5L52 251.5Z" stroke="#00856E"/>
</svg>
