<svg width="419" height="399" viewBox="0 0 419 399" fill="none" xmlns="http://www.w3.org/2000/svg">
<path d="M193.156 67.761C193.156 67.761 136.69 70.247 106.777 129.289C76.8645 188.331 45.9795 169.902 27.7395 223.162C9.49949 276.421 46.2805 336.986 70.9355 343.548C95.5905 350.11 377.208 343.548 377.208 343.548C377.208 343.548 414.417 318.108 417.335 252.031C420.253 185.954 364.805 163.885 341.823 154.491C318.842 145.096 283.426 66.302 193.156 67.761Z" fill="#F3F5F4"/>
<path d="M274.067 229.234C339.113 185.469 351.726 162.997 383.831 158.818C462.029 148.641 404.734 350.776 225.666 393.97C140.587 414.492 35.1994 358.518 20.1274 315.029C5.55645 272.983 44.7864 257.211 102.713 279.762C160.642 302.313 240.926 251.533 274.067 229.234Z" stroke="#BBBFBD" stroke-miterlimit="10"/>
<path d="M350.401 186.001C354.093 181.966 353.815 175.701 349.779 172.009C345.744 168.317 339.479 168.595 335.787 172.631C332.095 176.667 332.373 182.931 336.409 186.623C340.444 190.316 346.709 190.037 350.401 186.001Z" fill="#D9D9D9"/>
<path d="M346.111 380.931C349.979 377.063 349.979 370.792 346.111 366.924C342.243 363.057 335.972 363.057 332.105 366.924C328.237 370.792 328.237 377.063 332.105 380.931C335.972 384.798 342.243 384.798 346.111 380.931Z" stroke="#BBBFBD" stroke-miterlimit="10"/>
<path d="M210.119 158.545C215.589 158.545 220.023 154.111 220.023 148.641C220.023 143.171 215.589 138.737 210.119 138.737C204.649 138.737 200.215 143.171 200.215 148.641C200.215 154.111 204.649 158.545 210.119 158.545Z" stroke="#BBBFBD" stroke-miterlimit="10"/>
<path d="M182.093 188.208L172.047 202.192H191.139L182.093 188.208Z" stroke="#BBBFBD" stroke-miterlimit="10" stroke-linecap="round" stroke-linejoin="round"/>
<path d="M134.881 365.849L128.566 378.008H147.657L134.881 365.849Z" fill="#D9D9D9"/>
<path d="M41.246 216.345C43.644 206.19 37.3555 196.014 27.2002 193.616C17.045 191.218 6.86868 197.506 4.47075 207.662C2.07282 217.817 8.36135 227.993 18.5166 230.391C28.6718 232.789 38.8481 226.501 41.246 216.345Z" stroke="#BBBFBD" stroke-miterlimit="10" stroke-linecap="round" stroke-linejoin="round"/>
<path d="M19.936 217.489C19.7698 216.622 19.6867 215.85 19.6867 215.173C19.6867 214.069 19.841 213.172 20.1497 212.484C20.4585 211.783 20.8503 211.213 21.3252 210.774C21.8002 210.323 22.287 209.913 22.7857 209.545C23.4506 209.058 24.0383 208.542 24.5489 207.996C25.0595 207.438 25.3147 206.636 25.3147 205.591C25.3147 204.57 25.012 203.798 24.4064 203.276C23.8009 202.753 23.0231 202.492 22.0733 202.492C20.9571 202.492 20.031 202.789 19.2949 203.383C18.5587 203.976 18.0363 204.57 17.7275 205.164L15.1985 201.709C15.804 200.961 16.7064 200.248 17.9056 199.571C19.1167 198.883 20.5416 198.538 22.1801 198.538C24.816 198.538 26.7692 199.114 28.0397 200.266C29.3102 201.418 29.9454 203.038 29.9454 205.128C29.9454 206.042 29.8029 206.808 29.518 207.426C29.2449 208.031 28.8827 208.56 28.4315 209.011C27.9803 209.45 27.4995 209.878 26.9889 210.293C26.4427 210.732 25.9143 211.207 25.4038 211.718C24.8932 212.229 24.4717 212.858 24.1393 213.606C23.8068 214.342 23.6406 215.28 23.6406 216.42V217.489H19.936ZM19.9004 226.216V220.908H23.9255V226.216H19.9004Z" fill="#99C6AB"/>
<path d="M230.787 87.2269C238.165 79.8484 238.165 67.8855 230.787 60.507C223.408 53.1285 211.445 53.1285 204.067 60.507C196.688 67.8855 196.688 79.8484 204.067 87.2269C211.445 94.6054 223.408 94.6054 230.787 87.2269Z" fill="#99C6AB"/>
<path d="M214.499 79.3665C214.332 78.4997 214.249 77.7279 214.249 77.0511C214.249 75.9469 214.404 75.0504 214.712 74.3618C215.021 73.6612 215.413 73.0913 215.888 72.652C216.363 72.2008 216.849 71.7911 217.348 71.4231C218.013 70.9362 218.601 70.4197 219.111 69.8736C219.622 69.3155 219.877 68.514 219.877 67.4692C219.877 66.4481 219.574 65.6763 218.969 65.1538C218.363 64.6314 217.586 64.3702 216.636 64.3702C215.52 64.3702 214.594 64.667 213.857 65.2607C213.121 65.8544 212.599 66.4481 212.29 67.0417L209.761 63.5865C210.367 62.8385 211.269 62.1261 212.468 61.4493C213.679 60.7606 215.104 60.4163 216.743 60.4163C219.379 60.4163 221.332 60.9922 222.602 62.1439C223.873 63.2956 224.508 64.9164 224.508 67.0061C224.508 67.9204 224.365 68.6862 224.08 69.3036C223.807 69.9092 223.445 70.4376 222.994 70.8888C222.543 71.3281 222.062 71.7555 221.551 72.1711C221.005 72.6104 220.477 73.0854 219.966 73.5959C219.456 74.1065 219.034 74.7358 218.702 75.4838C218.369 76.22 218.203 77.158 218.203 78.2978V79.3665H214.499ZM214.463 88.0935V82.786H218.488V88.0935H214.463Z" fill="white"/>
<path d="M81.2635 222.061C82.466 216.944 79.2932 211.822 74.1769 210.62C69.0607 209.417 63.9383 212.59 62.7359 217.706C61.5334 222.822 64.7061 227.945 69.8224 229.147C74.9387 230.35 80.061 227.177 81.2635 222.061Z" fill="#D9D9D9"/>
<path d="M409.093 49.823H323.938C319.077 49.823 315.137 53.763 315.137 58.624V109.875C315.137 114.736 319.077 118.676 323.938 118.676H341.271L337.834 127.557C336.839 130.129 339.817 132.407 342.039 130.774L358.499 118.675H409.094C413.955 118.675 417.895 114.735 417.895 109.874V58.623C417.894 53.763 413.953 49.823 409.093 49.823Z" fill="#AED6BE"/>
<path d="M325.184 64.1899H406.64" stroke="white" stroke-miterlimit="10" stroke-linecap="round" stroke-linejoin="round"/>
<path d="M325.184 71.5879H406.64" stroke="white" stroke-miterlimit="10" stroke-linecap="round" stroke-linejoin="round"/>
<path d="M325.184 78.9871H406.64" stroke="white" stroke-miterlimit="10" stroke-linecap="round" stroke-linejoin="round"/>
<path d="M325.184 86.386H406.64" stroke="white" stroke-miterlimit="10" stroke-linecap="round" stroke-linejoin="round"/>
<path d="M325.184 93.7849H406.64" stroke="white" stroke-miterlimit="10" stroke-linecap="round" stroke-linejoin="round"/>
<path d="M325.184 101.184H406.64" stroke="white" stroke-miterlimit="10" stroke-linecap="round" stroke-linejoin="round"/>
<path d="M142.835 212.745C142.835 212.745 141.968 205.466 140.842 201.999C139.715 198.533 134.949 191.947 134.949 191.947C134.949 191.947 133.043 196.02 135.816 199.399C135.816 199.399 135.643 204.772 135.903 206.678C135.903 206.678 126.894 198.983 125.161 198.203C124.062 197.326 122.721 196.257 121.084 194.952C115.105 190.186 111.119 191.659 111.638 192.006C111.996 192.244 118.834 197.774 123.067 201.202L122.513 201.995C121.227 200.969 119.179 199.334 116.144 196.915C110.165 192.149 106.178 193.622 106.698 193.969C107.133 194.259 117.142 202.366 120.406 205.011L119.443 206.391C118.177 205.381 116.071 203.7 112.85 201.133C106.871 196.367 102.885 197.84 103.404 198.187C103.849 198.484 114.336 206.98 117.335 209.41L116.314 210.873C115.201 209.862 112.109 207.116 109.124 205.033C105.398 202.433 102.711 203.646 102.711 203.646C102.711 203.646 102.711 203.646 104.357 205.119C106.003 206.592 114.582 213.352 114.582 213.352C114.582 213.352 127.68 225.051 130.967 226.177L134.172 229.235L145.965 216.47L142.835 212.745Z" fill="#FF996A"/>
<path d="M237.126 293.55C230.094 303.69 220.258 309.953 207.181 307.292C172.162 300.174 130.812 232.198 130.812 232.198L132.894 229.946L148.327 213.249L202.039 262.058L218.811 237.777L235.195 214.066L243.293 202.349C243.293 202.349 248.034 209.847 251.018 233.681C252.881 248.618 248.948 276.539 237.126 293.55Z" fill="#D3AA7D"/>
<path d="M237.126 293.55C230.094 303.69 220.258 309.953 207.181 307.292C172.162 300.174 130.812 232.198 130.812 232.198L132.894 229.946L134.177 229.233C134.177 229.233 183.451 297.019 204.215 286.936C217.054 280.702 219.117 255.851 218.812 237.776L235.197 214.065L237.126 293.55Z" fill="#C1966B"/>
<path d="M368.659 286.936L365.468 343.123H353.094L357.958 286.936H368.659Z" fill="#649176"/>
<path d="M292.923 286.936L289.732 343.123H277.359L282.223 286.936H292.923Z" fill="#649176"/>
<path d="M369.928 296.662H271.897C262.153 296.662 254.254 288.763 254.254 279.019V224.183C254.254 214.439 262.153 206.54 271.897 206.54H369.928C379.672 206.54 387.571 214.439 387.571 224.183V279.019C387.571 288.763 379.672 296.662 369.928 296.662Z" fill="#649176"/>
<path d="M361.658 296.662H263.627C253.883 296.662 245.984 288.763 245.984 279.019V224.183C245.984 214.439 253.883 206.54 263.627 206.54H361.658C371.402 206.54 379.301 214.439 379.301 224.183V279.019C379.3 288.763 371.401 296.662 361.658 296.662Z" fill="#7EAF92"/>
<path d="M287.769 181.242C287.769 181.242 307.103 178.137 333.114 205.046L339.114 343.123H230.406C230.406 343.123 218.536 249.971 232.372 216.844C246.209 183.716 271.06 179.761 287.769 181.242Z" fill="#FFD294"/>
<path d="M249.842 106.357L254.615 99.822L295.306 113.446L294.953 128.73H297.64C303.097 128.73 307.522 133.154 307.522 138.612C307.522 144.07 303.098 148.494 297.64 148.494H294.496L294.017 169.239V187.469L264.557 191.52L263.835 179.327L263.453 172.921L259.178 170.88C246.942 165.041 239.148 152.689 239.148 139.13C239.148 127.344 242.895 115.869 249.842 106.357Z" fill="#FF996A"/>
<path d="M263.453 172.92L263.835 179.326C264.918 179.197 266.052 179.029 267.229 178.815C285.424 175.498 292.547 159.052 291.808 150.579C291.808 150.579 285.674 170.957 263.453 172.92Z" fill="#D37A57"/>
<path d="M297.945 135.781C297.183 136.358 296.481 137.121 296.23 138.075C296.23 138.075 297.749 138.581 297.887 140.285C298.025 141.988 296.23 142.725 296.23 142.725C296.23 142.725 297.611 145.027 299.913 143.784C302.215 142.541 301.833 138.202 299.545 137.293C299.545 137.293 303.182 136.879 304.516 138.214C304.516 138.214 304.821 136.875 303.301 135.691C301.734 134.468 299.528 134.582 297.945 135.781Z" fill="#D37A57"/>
<path d="M249.841 106.357C249.841 106.357 255.351 115.841 262.471 118.91C269.591 121.979 277.201 117.512 284.321 121.587C291.441 125.662 286.899 133.299 288.495 136.969C290.091 140.638 291.861 141.129 291.861 141.129C291.861 141.129 292.818 130.695 294.953 128.731C294.953 128.731 301.346 128.677 303.336 130.54C303.336 130.54 306.908 123.33 307.522 117.683C308.136 112.036 301.875 110.195 301.875 110.195C301.875 110.195 300.402 96.692 283.83 91.659C267.258 86.626 254.615 94.605 247.986 91.659C241.357 88.713 235.342 93.133 234.974 99.823C234.606 106.512 239.148 108.968 239.148 108.968C239.148 108.968 236.079 111.555 237.307 115.54C238.535 119.525 242.387 120.445 242.387 120.445C242.387 120.445 246.921 110.34 249.841 106.357Z" fill="#3F2D1F"/>
<path d="M253.141 154.89L270.014 154.061C270.014 154.061 266.108 160.138 260.548 160.08C255.428 160.026 253.141 154.89 253.141 154.89Z" fill="white"/>
<path d="M272.537 127.409C272.325 127.409 272.111 127.338 271.934 127.192C268.373 124.258 264.871 126.75 264.835 126.777C264.411 127.088 263.816 126.994 263.507 126.57C263.198 126.146 263.29 125.552 263.714 125.242C265.334 124.059 269.391 122.635 273.142 125.725C273.547 126.059 273.605 126.658 273.271 127.063C273.084 127.291 272.812 127.409 272.537 127.409Z" fill="#3F2D1F"/>
<path d="M251.553 127.409C251.34 127.409 251.127 127.338 250.95 127.192C247.389 124.258 243.886 126.75 243.851 126.777C243.427 127.088 242.832 126.994 242.523 126.57C242.214 126.146 242.306 125.552 242.73 125.242C244.351 124.059 248.407 122.635 252.158 125.725C252.564 126.059 252.621 126.658 252.287 127.063C252.1 127.291 251.828 127.409 251.553 127.409Z" fill="#3F2D1F"/>
<path d="M299.421 182.683L294.081 175.737L272.872 183.211L269.438 189.17L267.115 183.817L263.894 180.3L260.551 186.746C260.551 186.746 260.652 193.21 268.833 194.927C277.013 196.644 294.889 189.978 299.421 182.683Z" fill="#9C897A"/>
<path d="M303.337 130.539C303.337 130.539 300.04 129.28 296.91 132.158C293.78 135.036 294.84 137.864 294.84 137.864C294.84 137.864 296.286 134.454 299.385 134.826C302.484 135.198 304.738 143.57 300.597 145.136C296.456 146.701 291.171 144.316 291.356 137.864C291.541 131.413 293.907 127.764 297.807 127.209C301.707 126.653 303.25 129.93 303.337 130.539Z" fill="#77A58A"/>
<path d="M274.057 162.967C273.657 162.967 273.301 162.684 273.222 162.277C273.134 161.815 273.436 161.369 273.898 161.28C289.939 158.195 295.373 143.089 295.426 142.937C295.58 142.494 296.063 142.259 296.509 142.413C296.953 142.567 297.188 143.051 297.034 143.495C296.977 143.657 291.245 159.677 274.218 162.951C274.165 162.962 274.111 162.967 274.057 162.967Z" fill="#77A58A"/>
<path d="M270.477 162.408C270.477 164.39 272.084 165.997 274.067 165.997C276.05 165.997 277.656 164.39 277.656 162.408C277.656 160.426 276.049 158.818 274.067 158.818C272.085 158.818 270.477 160.425 270.477 162.408Z" fill="#649176"/>
<path d="M298.978 136.373C298.978 136.373 298.524 140.338 299.395 142.46C300.266 144.581 301.63 143.483 301.895 140.907C302.159 138.331 299.584 134.718 298.978 136.373Z" fill="#649176"/>
<path d="M264.848 135.042C264.848 135.042 264.855 138.743 269.699 139.357C274.544 139.971 275.426 135.042 275.426 135.042C275.426 135.042 272.675 132.463 269.118 132.387C265.562 132.31 264.848 135.042 264.848 135.042Z" fill="white"/>
<path d="M242.715 135.042C242.715 135.042 242.721 138.743 247.462 139.357C252.202 139.971 252.837 135.046 252.837 135.046C252.837 135.046 250.373 132.463 246.893 132.387C243.413 132.31 242.715 135.042 242.715 135.042Z" fill="white"/>
<path d="M252.836 135.046C252.836 135.046 250.297 132.257 247.58 131.756C244.863 131.255 242.998 132.578 242.715 135.046C242.715 135.046 243.254 133.008 245.971 132.758C248.689 132.507 252.836 135.046 252.836 135.046Z" fill="#3F2D1F"/>
<path d="M275.426 135.042C275.426 135.042 272.773 132.127 269.933 131.604C267.093 131.081 265.144 132.463 264.848 135.042C264.848 135.042 265.411 132.912 268.251 132.65C271.091 132.389 275.426 135.042 275.426 135.042Z" fill="#3F2D1F"/>
<path d="M257.491 135.148L255.257 148.635C255.257 148.635 253.479 148.772 251.016 147.769C251.016 147.769 256.853 136.663 257.491 135.148Z" fill="#D37A57"/>
<path d="M191.009 343.123C191.009 343.123 190.646 332.353 202.774 328.979C214.903 325.604 229.677 335.471 232.048 343.123H191.009Z" fill="#649176"/>
<path d="M269.5 139.835C271.178 139.835 272.539 138.114 272.539 135.99C272.539 133.866 271.178 132.145 269.5 132.145C267.822 132.145 266.461 133.866 266.461 135.99C266.461 138.114 267.822 139.835 269.5 139.835Z" fill="#3F2D1F"/>
<path d="M251.229 136.11C251.229 138.167 249.902 139.835 248.265 139.835C246.628 139.835 245.301 138.167 245.301 136.11C245.301 134.053 246.628 132.385 248.265 132.385C249.902 132.385 251.229 134.052 251.229 136.11Z" fill="#3F2D1F"/>
<path d="M282.934 145.606C282.934 147.283 280.949 148.642 278.5 148.642C276.051 148.642 274.066 147.283 274.066 145.606C274.066 143.93 276.051 142.571 278.5 142.571C280.949 142.57 282.934 143.929 282.934 145.606Z" fill="#D37A57"/>
<path d="M246.727 144.151C246.727 145.827 244.742 147.186 242.293 147.186C239.844 147.186 237.859 145.827 237.859 144.151C237.859 142.474 239.844 141.115 242.293 141.115C244.742 141.115 246.727 142.474 246.727 144.151Z" fill="#D37A57"/>
<path d="M362.986 308.84C359.916 318.077 354.3 325.062 347.648 330.004C343.115 333.359 338.107 335.763 333.108 337.274C312.239 343.603 234.949 343.118 234.949 343.118L237.857 319.769L324.403 300.316C324.403 300.316 313.208 264.803 313.702 236.112C314.149 209.408 322.112 198.403 331.083 203.602C331.758 204.001 332.432 204.476 333.107 205.046C333.107 205.046 346.773 225.411 360.875 267.235C366.645 284.341 366.54 298.102 362.986 308.84Z" fill="#E5BC89"/>
<path d="M229.069 322.87L210.708 319.524C210.708 319.524 207.335 318.946 203.96 320.406C200.586 321.865 196.755 328.979 196.755 328.979C196.755 328.979 199.855 329.025 201.952 327.133C204.05 325.24 204.324 323.599 204.324 323.599L211.061 324.124L211.182 325.687C208.932 326.179 202.525 327.64 199.399 328.98C195.569 330.622 193.562 335.637 193.562 335.637C193.562 335.637 198.579 334.908 201.132 331.807L211.561 330.624L211.637 331.598C209.487 331.744 205.647 332.226 202.044 333.814C196.663 336.185 195.022 339.377 195.022 339.377C195.022 339.377 200.404 339.377 204.188 336.459L206.736 336.248C204.218 337.862 202.044 341.749 202.044 341.749C202.044 341.749 203.139 342.023 205.602 340.928C208.064 339.834 208.702 338.586 208.702 338.586L215.878 339.123C219.604 339.655 225.241 340.178 228.462 339.104L235.324 340.16L237.478 322.874H229.069V322.87Z" fill="#FF996A"/>
<path d="M381.92 354.422H36.6656C33.5456 354.422 31.0156 351.892 31.0156 348.772C31.0156 345.652 33.5456 343.122 36.6656 343.122H381.921C385.041 343.122 387.571 345.652 387.571 348.772C387.57 351.893 385.041 354.422 381.92 354.422Z" fill="#649176"/>
<path d="M249.572 354.422H34.4056C32.5336 354.422 31.0156 351.892 31.0156 348.772C31.0156 345.652 32.5336 343.122 34.4056 343.122H141.989H249.572C251.444 343.122 252.962 345.652 252.962 348.772C252.962 351.893 251.444 354.422 249.572 354.422Z" fill="#7EAF92"/>
<path d="M184.505 321.348H65.6053C61.5953 321.348 58.1243 318.558 57.2613 314.642L41.8923 244.842C41.1383 241.419 43.7453 238.176 47.2503 238.176H167.491C171.045 238.176 174.121 240.648 174.885 244.119L190.302 314.136C191.117 317.84 188.297 321.348 184.505 321.348Z" fill="#7EAF92"/>
<path d="M85.1051 309.525C84.1121 314.527 78.2751 317.583 72.0671 316.35C65.8591 315.118 61.6321 310.064 62.6251 305.062C63.6181 300.06 69.4551 297.005 75.6631 298.237C81.8711 299.47 86.0981 304.523 85.1051 309.525Z" fill="#99C6AB"/>
<path d="M190.305 314.136L174.887 244.118C174.123 240.647 171.047 238.175 167.493 238.175H160.562C164.116 238.175 167.192 240.647 167.956 244.118L183.374 314.136C184.19 317.84 181.369 321.348 177.576 321.348H184.507C188.3 321.348 191.121 317.84 190.305 314.136Z" fill="#649176"/>
<path d="M169.728 340.318C169.728 341.867 168.477 343.118 166.928 343.118H68.2255C66.6425 343.118 65.2035 342.471 64.1655 341.433C63.1185 340.395 62.4805 338.965 62.4805 337.373C62.4805 336.241 62.8205 335.134 63.4505 334.19L87.8795 297.589C88.5775 296.559 89.7355 295.938 90.9775 295.938H133.689C135.221 295.938 136.183 297.598 135.408 298.926L114.784 334.556C114.018 335.875 114.971 337.518 116.486 337.518H166.927C167.702 337.518 168.4 337.833 168.91 338.344C169.413 338.846 169.728 339.544 169.728 340.318Z" fill="#649176"/>
<path d="M140.422 279.275H79.8668C79.1618 279.275 78.5898 278.703 78.5898 277.998C78.5898 277.293 79.1618 276.721 79.8668 276.721H140.422C141.127 276.721 141.699 277.293 141.699 277.998C141.699 278.704 141.127 279.275 140.422 279.275Z" fill="#649176"/>
<path d="M143.341 286.936H82.7848C82.0798 286.936 81.5078 286.364 81.5078 285.659C81.5078 284.954 82.0798 284.382 82.7848 284.382H143.34C144.045 284.382 144.617 284.954 144.617 285.659C144.617 286.365 144.046 286.936 143.341 286.936Z" fill="#649176"/>
<path d="M43.1457 242.31H171.378C172.421 242.31 173.423 242.503 174.348 242.847C173.194 240.06 170.457 238.176 167.355 238.176H47.1137C44.4447 238.176 42.3017 240.057 41.7617 242.465C42.2037 242.365 42.6667 242.31 43.1457 242.31Z" fill="#99C6AB"/>
<path d="M174.882 309.525C173.889 314.527 168.052 317.583 161.844 316.35C155.636 315.118 151.409 310.064 152.402 305.062C153.395 300.06 159.232 297.005 165.44 298.237C171.647 299.47 175.874 304.523 174.882 309.525Z" fill="#99C6AB"/>
<path d="M169.718 340.522C169.612 342.013 168.27 343.119 166.775 343.119H110.603C108.335 343.119 106.496 341.28 106.496 339.013C106.496 338.237 106.716 337.477 107.13 336.821L132.937 295.939H133.686C135.218 295.939 136.18 297.599 135.405 298.927L114.781 334.557C114.015 335.876 114.968 337.519 116.483 337.519H166.924C167.699 337.519 168.397 337.834 168.907 338.345C169.454 338.889 169.778 339.667 169.718 340.522Z" fill="#527A62"/>
<path d="M333.108 337.274C312.239 343.603 234.949 343.118 234.949 343.118L334.81 316.546C345.252 313.767 351.902 303.549 350.204 292.878C345.815 265.291 337.32 215.791 331.083 203.601C331.758 204 332.432 204.475 333.107 205.045C333.107 205.045 346.773 225.41 360.875 267.234C374.979 309.068 353.987 330.954 333.108 337.274Z" fill="#D3AA7D"/>
<path d="M327.219 301.295C327.219 301.295 341.498 301.094 353.094 311.682" stroke="#9C897A" stroke-miterlimit="10" stroke-linecap="round" stroke-linejoin="round"/>
<path d="M297.34 185.175C297.34 185.175 316.129 191.564 325.382 202.518" stroke="#E5BC89" stroke-miterlimit="10" stroke-linecap="round" stroke-linejoin="round"/>
<path d="M203.812 265.25C203.812 265.25 214.189 278.69 215.517 294.167" stroke="#9C897A" stroke-miterlimit="10" stroke-linecap="round" stroke-linejoin="round"/>
<path d="M257.484 186.845C257.484 186.845 253.539 197.913 270.015 199.271C286.492 200.629 304.551 184.465 304.551 184.465" stroke="#E5BC89" stroke-miterlimit="10" stroke-linecap="round" stroke-linejoin="round"/>
<path d="M234.948 322.87L231.09 339.506L235.32 340.157L237.473 322.87H234.948Z" fill="#D37A57"/>
<path d="M268.829 194.927C268.829 194.927 263.944 208.847 260.547 244.847" stroke="#E5BC89" stroke-miterlimit="10" stroke-linecap="round" stroke-linejoin="round"/>
<path d="M300.383 110.348C300.383 110.348 292.687 108.527 285.723 111.205" stroke="#543E2F" stroke-miterlimit="10" stroke-linecap="round" stroke-linejoin="round"/>
<path d="M249.843 106.357C249.843 106.357 249.067 117.627 263.325 119.237" stroke="#543E2F" stroke-miterlimit="10" stroke-linecap="round" stroke-linejoin="round"/>
<path d="M301.652 102.919C301.652 102.919 303.311 107.398 301.875 110.194" stroke="#543E2F" stroke-miterlimit="10" stroke-linecap="round" stroke-linejoin="round"/>
<path d="M237.082 98.3481C237.082 98.3481 236.439 105.269 243.51 107.991" stroke="#543E2F" stroke-miterlimit="10" stroke-linecap="round" stroke-linejoin="round"/>
<path d="M239.653 111.205C239.653 111.205 238.34 116.385 243.228 118.616" stroke="#543E2F" stroke-miterlimit="10" stroke-linecap="round" stroke-linejoin="round"/>
<path d="M262.473 93.526C262.473 93.526 271.592 89.527 284.544 95.347C296.227 100.597 297.341 107.133 297.341 107.133" stroke="#543E2F" stroke-miterlimit="10" stroke-linecap="round" stroke-linejoin="round"/>
<path d="M301.652 113.133C301.652 113.133 304.223 114.347 304.223 117.99C304.223 121.633 302.46 125.347 302.46 125.347" stroke="#543E2F" stroke-miterlimit="10" stroke-linecap="round" stroke-linejoin="round"/>
<path d="M258.832 111.848C258.832 111.848 260.651 116.669 271.259 117.205C281.867 117.741 285.296 117.741 288.189 121.169C291.082 124.598 290.118 128.348 290.118 128.348" stroke="#543E2F" stroke-miterlimit="10" stroke-linecap="round" stroke-linejoin="round"/>
<path d="M254.854 0H158.31C152.719 0 148.188 4.533 148.188 10.124V26.654C148.188 32.245 152.719 36.777 158.31 36.777H171.097L168.122 47.051C167.568 48.964 169.676 50.545 171.357 49.478L191.377 36.777H254.854C260.445 36.777 264.977 32.245 264.977 26.654V10.124C264.978 4.533 260.445 0 254.854 0Z" fill="#D9D9D9"/>
<path d="M161.316 9.89502H252.411" stroke="white" stroke-miterlimit="10" stroke-linecap="round" stroke-linejoin="round"/>
<path d="M161.316 17.624H252.411" stroke="white" stroke-miterlimit="10" stroke-linecap="round" stroke-linejoin="round"/>
<path d="M161.316 25.353H252.411" stroke="white" stroke-miterlimit="10" stroke-linecap="round" stroke-linejoin="round"/>
<path d="M97.5691 182.432C142.966 182.432 179.767 145.631 179.767 100.234C179.767 54.8372 142.966 18.0359 97.5691 18.0359C52.1724 18.0359 15.3711 54.8372 15.3711 100.234C15.3711 145.631 52.1724 182.432 97.5691 182.432Z" stroke="#BBBFBD" stroke-miterlimit="10"/>
<path d="M174.552 100.227C174.552 128.955 158.815 154.006 135.494 167.234C132.881 168.716 130.172 170.057 127.388 171.225C118.217 175.083 108.144 177.212 97.5768 177.212C96.8738 177.212 96.1798 177.202 95.4858 177.183C95.0578 177.173 94.6308 177.154 94.2028 177.126C93.8988 177.126 93.6038 177.117 93.2998 177.088C92.8438 177.069 92.3878 177.04 91.9408 177.003C91.7508 176.993 91.5608 176.984 91.3708 176.955C90.8288 176.926 90.2968 176.87 89.7648 176.822C89.1468 176.756 88.5388 176.689 87.9308 176.613L106.966 149.082L56.3988 94.258L23.4038 120.915C23.0618 119.68 22.7478 118.444 22.4628 117.18C22.3588 116.705 22.2538 116.22 22.1588 115.745C22.0258 115.118 21.9018 114.481 21.7978 113.854C21.7218 113.436 21.6458 113.018 21.5888 112.6C21.4838 112.001 21.3988 111.393 21.3128 110.785C21.2648 110.443 21.2178 110.11 21.1798 109.768C21.1128 109.245 21.0468 108.713 20.9988 108.181L20.9698 107.867C20.9128 107.297 20.8558 106.727 20.8178 106.147C20.7698 105.51 20.7228 104.874 20.6938 104.227V104.189C20.6558 103.533 20.6268 102.878 20.6178 102.212C20.5988 101.556 20.5898 100.891 20.5898 100.226C20.5898 87.444 23.7068 75.394 29.2188 64.788C40.6708 42.742 62.4808 26.938 88.2058 23.812C91.2758 23.441 94.4018 23.251 97.5758 23.251C110.5 23.251 122.693 26.444 133.384 32.079L99.8568 59.154L122.237 127.016L165.638 64.257C171.33 74.987 174.552 87.236 174.552 100.227Z" fill="#99C6AB"/>
<path d="M29.0157 64.7219L56.1947 94.1909L23.1997 120.848C22.8577 119.613 22.5437 118.377 22.2587 117.113C22.1547 116.638 22.0497 116.153 21.9547 115.678C21.8217 115.051 21.6977 114.414 21.5937 113.787C21.5177 113.369 21.4417 112.951 21.3847 112.533C21.2807 111.934 21.1947 111.326 21.1087 110.718C21.0607 110.376 21.0137 110.043 20.9757 109.701C20.9087 109.178 20.8427 108.646 20.7947 108.114L20.7667 107.8C20.7097 107.23 20.6527 106.66 20.6147 106.08C20.5677 105.443 20.5197 104.807 20.4907 104.16V104.122C20.4527 103.466 20.4247 102.811 20.4147 102.145C20.3957 101.489 20.3867 100.824 20.3867 100.159C20.3867 87.3769 23.5037 75.3269 29.0157 64.7219Z" fill="#7EAF92"/>
<path d="M127.181 171.158C118.01 175.016 107.937 177.145 97.3687 177.145C96.6657 177.145 95.9717 177.135 95.2777 177.116C94.8497 177.106 94.4227 177.087 93.9947 177.059C93.6907 177.059 93.3957 177.049 93.0917 177.021C92.6357 177.002 92.1797 176.973 91.7327 176.936C91.5427 176.926 91.3527 176.917 91.1627 176.888C90.6207 176.86 90.0886 176.803 89.5566 176.755C88.9386 176.689 88.3307 176.622 87.7227 176.546L106.758 149.015L127.181 171.158Z" fill="#7EAF92"/>
<path d="M133.178 32.0118L99.651 59.0868L88 23.7448C91.07 23.3738 94.196 23.1838 97.37 23.1838C110.294 23.1828 122.486 26.3758 133.178 32.0118Z" fill="#7EAF92"/>
<path d="M174.346 100.159C174.346 128.887 158.609 153.938 135.288 167.166L122.031 126.949L165.432 64.1899C171.125 74.9189 174.346 87.1679 174.346 100.159Z" fill="#7EAF92"/>
<path d="M106.76 149.015L87.7252 176.546C87.2402 176.489 86.7562 176.423 86.2712 176.346C85.8722 176.289 85.4732 176.232 85.0742 176.166C84.6272 176.1 84.1902 176.023 83.7432 175.938C83.1542 175.834 82.5652 175.729 81.9752 175.605C81.4712 175.501 80.9682 175.396 80.4732 175.282C80.1592 175.215 79.8462 175.139 79.5322 175.063C79.1142 174.968 78.7052 174.863 78.2872 174.759C76.9282 174.417 75.5882 174.027 74.2582 173.609C73.7732 173.457 73.2892 173.305 72.8142 173.143C72.1682 172.924 71.5312 172.706 70.9042 172.468C70.3152 172.259 69.7262 172.031 69.1462 171.803C68.5572 171.575 67.9772 171.337 67.4072 171.09C66.8372 170.852 66.2672 170.605 65.7062 170.349C65.7062 170.349 65.6972 170.349 65.6872 170.339C65.1172 170.082 64.5562 169.816 63.9952 169.55C62.2842 168.733 60.6212 167.849 58.9872 166.908C58.4742 166.604 57.9612 166.3 57.4572 165.996C56.3932 165.359 55.3472 164.685 54.3302 163.991C53.8172 163.649 53.3132 163.297 52.8102 162.936C52.3062 162.584 51.8032 162.214 51.3082 161.843C51.2892 161.833 51.2702 161.814 51.2422 161.795C50.7762 161.443 50.3012 161.082 49.8452 160.721C49.4362 160.398 49.0372 160.084 48.6382 159.752C48.0492 159.277 47.4692 158.783 46.8992 158.288C46.4622 157.908 46.0342 157.528 45.6072 157.138C45.1792 156.748 44.7522 156.349 44.3242 155.95C44.2762 155.902 44.2292 155.864 44.1912 155.826C43.7732 155.417 43.3552 155.009 42.9372 154.591C42.5762 154.23 42.2152 153.859 41.8542 153.489C41.3602 152.976 40.8662 152.453 40.3902 151.921C39.9722 151.465 39.5632 150.999 39.1642 150.533C38.8412 150.172 38.5372 149.801 38.2332 149.431C38.0432 149.222 37.8722 149.013 37.7012 148.794C37.3972 148.423 37.1022 148.053 36.8082 147.682C36.4752 147.264 36.1522 146.846 35.8392 146.418C35.4112 145.857 34.9932 145.297 34.5942 144.717C34.2332 144.213 33.8812 143.71 33.5392 143.196C33.2922 142.835 33.0542 142.474 32.8172 142.103C32.6652 141.884 32.5222 141.656 32.3802 141.428C31.7342 140.421 31.1072 139.385 30.5082 138.339C30.2322 137.845 29.9572 137.351 29.6812 136.847C29.0542 135.697 28.4552 134.528 27.8942 133.34C27.6472 132.846 27.4192 132.342 27.1912 131.839C26.9532 131.307 26.7162 130.775 26.4882 130.243C26.4692 130.205 26.4602 130.157 26.4412 130.119C26.2032 129.558 25.9662 128.988 25.7382 128.418C25.7382 128.399 25.7282 128.38 25.7192 128.352C25.4912 127.782 25.2722 127.202 25.0632 126.623C24.8542 126.072 24.6542 125.511 24.4642 124.941C24.2932 124.437 24.1222 123.924 23.9602 123.411C23.8462 123.031 23.7222 122.641 23.6082 122.261C23.5992 122.232 23.5892 122.213 23.5892 122.185C23.4562 121.738 23.3232 121.292 23.1992 120.845L56.1942 94.188L106.76 149.015Z" fill="#649176"/>
<path d="M165.433 64.19L122.032 126.949L99.6523 59.087L133.179 32.012C146.912 39.234 158.183 50.476 165.433 64.19Z" fill="#649176"/>
<path d="M122.029 126.949L106.758 149.015L56.1914 94.1909L99.6494 59.0859L122.029 126.949Z" fill="#7EAF92"/>
<path d="M111.622 89.4508L111.864 85.3978L114.569 84.1068C122.311 80.4118 127.243 72.5968 127.243 64.0168C127.243 56.5598 124.873 49.2988 120.477 43.2798L117.457 39.1448L91.7098 47.7648L91.9338 57.4358H90.2338C86.7808 57.4358 83.9808 60.2348 83.9808 63.6888C83.9808 67.1418 86.7798 69.9418 90.2338 69.9418H92.2228L92.5258 83.0688V87.6768C92.5258 87.6768 87.8758 92.1568 79.0508 95.9578C79.0508 95.9578 88.8898 108.312 105.149 109.127C121.408 109.942 122.034 100.165 122.034 100.165C122.034 100.165 115.292 96.1288 111.426 92.7858L111.622 89.4508Z" fill="#FF996A"/>
<path d="M111.862 85.398L111.62 89.451C110.935 89.37 110.217 89.263 109.472 89.127C97.9594 87.028 93.4524 76.622 93.9194 71.261C93.9194 71.261 97.8024 84.156 111.862 85.398Z" fill="#D37A57"/>
<path d="M90.0371 61.8978C90.5191 62.2628 90.9631 62.7458 91.1221 63.3488C91.1221 63.3488 90.1611 63.6688 90.0731 64.7468C89.9861 65.8248 91.1221 66.2908 91.1221 66.2908C91.1221 66.2908 90.2481 67.7468 88.7921 66.9608C87.3361 66.1748 87.5771 63.4288 89.0251 62.8538C89.0251 62.8538 86.7241 62.5918 85.8791 63.4368C85.8791 63.4368 85.6861 62.5898 86.6481 61.8398C87.6401 61.0678 89.0351 61.1388 90.0371 61.8978Z" fill="#D37A57"/>
<path d="M111.309 54.281C111.175 54.285 111.041 54.334 110.931 54.429C108.733 56.351 106.472 54.839 106.449 54.823C106.175 54.635 105.801 54.705 105.613 54.979C105.425 55.253 105.495 55.627 105.768 55.815C106.815 56.533 109.407 57.359 111.722 55.335C111.972 55.117 111.998 54.737 111.779 54.487C111.657 54.345 111.482 54.276 111.309 54.281Z" fill="#3F2D1F"/>
<path d="M124.837 55.7589C124.719 55.6939 124.579 55.6679 124.437 55.6949C121.567 56.2319 120.388 53.7809 120.377 53.7559C120.237 53.4539 119.879 53.3249 119.578 53.4649C119.277 53.6049 119.147 53.9629 119.287 54.2639C119.824 55.4149 121.636 57.4429 124.658 56.8779C124.985 56.8169 125.2 56.5029 125.138 56.1759C125.103 55.9909 124.989 55.8429 124.837 55.7589Z" fill="#3F2D1F"/>
<path d="M110.979 61.43C110.979 61.43 110.975 63.772 107.909 64.16C104.843 64.548 104.285 61.43 104.285 61.43C104.285 61.43 106.026 59.798 108.277 59.75C110.527 59.702 110.979 61.43 110.979 61.43Z" fill="white"/>
<path d="M124.986 61.43C124.986 61.43 124.982 63.772 121.983 64.16C118.984 64.549 118.582 61.432 118.582 61.432C118.582 61.432 120.141 59.797 122.343 59.749C124.544 59.702 124.986 61.43 124.986 61.43Z" fill="white"/>
<path d="M118.582 61.4329C118.582 61.4329 120.188 59.6679 121.908 59.3509C123.627 59.0339 124.807 59.8709 124.987 61.4329C124.987 61.4329 124.646 60.1429 122.926 59.9849C121.207 59.8269 118.582 61.4329 118.582 61.4329Z" fill="#3F2D1F"/>
<path d="M104.285 61.4299C104.285 61.4299 105.964 59.5859 107.761 59.2549C109.558 58.9239 110.791 59.7989 110.978 61.4299C110.978 61.4299 110.622 60.0819 108.825 59.9169C107.028 59.7519 104.285 61.4299 104.285 61.4299Z" fill="#3F2D1F"/>
<path d="M115.637 61.4968L117.051 70.0308C117.051 70.0308 118.176 70.1178 119.734 69.4828C119.734 69.4828 116.041 62.4558 115.637 61.4968Z" fill="#D37A57"/>
<path d="M106.113 62.0299C106.113 63.3739 106.974 64.4629 108.036 64.4629C109.098 64.4629 109.959 63.3739 109.959 62.0299C109.959 60.6869 109.098 59.5969 108.036 59.5969C106.974 59.5969 106.113 60.6869 106.113 62.0299Z" fill="#3F2D1F"/>
<path d="M119.598 62.1058C119.598 63.4078 120.438 64.4628 121.474 64.4628C122.51 64.4628 123.349 63.4078 123.349 62.1058C123.349 60.8038 122.509 59.7488 121.474 59.7488C120.437 59.7488 119.598 60.8038 119.598 62.1058Z" fill="#3F2D1F"/>
<path d="M102.34 70.0358C103.889 70.0358 105.145 69.1758 105.145 68.1148C105.145 67.0539 103.889 66.1938 102.34 66.1938C100.791 66.1938 99.5352 67.0539 99.5352 68.1148C99.5352 69.1758 100.791 70.0358 102.34 70.0358Z" fill="#D37A57"/>
<path d="M125.251 69.115C126.801 69.115 128.057 68.2549 128.057 67.194C128.057 66.133 126.801 65.2729 125.251 65.2729C123.702 65.2729 122.445 66.133 122.445 67.194C122.445 68.2549 123.702 69.115 125.251 69.115Z" fill="#D37A57"/>
<path d="M116.653 73.3189C116.653 73.3189 112.122 73.4719 110.289 75.1519C108.456 76.8319 115.227 77.3409 116.653 76.6789C118.078 76.0179 118.712 73.1069 116.653 73.3189Z" fill="white"/>
<path d="M105.61 60.5119C105.61 60.5119 104.707 60.9399 103.723 60.3079C103.723 60.3079 103.815 61.2339 104.287 61.4299L105.61 60.5119Z" fill="#3F2D1F"/>
<path d="M123.945 59.8838C123.945 59.8838 125.011 60.7658 125.821 60.4948C126.119 60.3948 124.986 61.4328 124.986 61.4328C124.716 60.4488 123.945 59.8838 123.945 59.8838Z" fill="#3F2D1F"/>
<path d="M130.136 105.102C130.136 105.102 144.554 131.454 150.052 153.552L135.186 162.209C135.186 162.209 129.277 150.398 127.242 132.274C125.208 114.149 130.136 105.102 130.136 105.102Z" fill="#847062"/>
<path d="M122.03 45.5999C122.03 45.5999 107.624 59.2339 94.4555 57.7409C94.4555 57.7409 93.0295 67.3119 95.4055 70.9779C95.4055 70.9779 94.3875 71.9869 92.9615 68.1559C91.5355 64.3249 92.6615 59.0329 91.9285 57.4369C91.9285 57.4369 87.5345 56.3959 84.6475 60.8699C81.7605 65.3439 88.0795 70.8069 92.2175 69.9419L92.4075 78.1689C92.4075 78.1689 87.6665 79.9379 83.6615 76.5439C79.6565 73.1499 81.6255 69.6879 81.6255 69.6879C81.6255 69.6879 75.5845 63.7249 75.3125 55.4439C75.0405 47.1629 81.9305 41.9589 81.9305 41.9589C81.9305 41.9589 84.2045 29.7069 99.3415 29.5709C114.479 29.4349 118.891 33.9829 118.891 33.9829C118.891 33.9829 128.662 35.6459 131.415 46.0319C134.168 56.4179 127.239 61.9719 127.239 61.9719C127.239 61.9719 125.236 48.6649 122.03 45.5999Z" fill="#3F2D1F"/>
<path d="M84.4779 40.5329C84.4779 40.5329 83.7499 31.6349 75.3059 32.0109C66.8629 32.3869 65.2339 42.0599 68.8989 46.5399C72.5649 51.0199 77.3499 50.0019 80.9139 46.5399C84.4779 43.0789 84.4779 40.5329 84.4779 40.5329Z" fill="#3F2D1F"/>
<path d="M95.499 75.5458L90.177 86.6268C89.987 87.0258 89.483 87.1398 89.132 86.8738L88.913 86.7028L71.475 73.2268C71.209 73.0178 71.123 72.6468 71.285 72.3428L77.3 61.3288L77.443 61.0718C77.643 60.6918 78.146 60.5968 78.479 60.8718L95.319 74.7178C95.556 74.9188 95.632 75.2608 95.499 75.5458Z" fill="white"/>
<path d="M132.199 168.924C121.793 174.179 110.028 177.135 97.5686 177.135C87.3146 177.135 77.5266 175.13 68.5836 171.481L62.8906 106.279C62.8906 106.279 64.0596 101.784 71.0346 99.218C78.9606 96.291 79.0456 95.958 79.0456 95.958C109.257 111.163 122.029 100.158 122.029 100.158L128.681 103.541C129.337 103.874 129.85 104.425 130.135 105.1C131.703 108.854 136.901 121.873 137.424 130.844C137.834 137.992 134.451 157.197 132.199 168.924Z" fill="#9C897A"/>
<path d="M66.2256 101.856C66.2256 101.856 58.8586 104.781 56.1916 124.059C53.5236 143.337 56.3716 153.551 56.3716 153.551L71.0366 136.142C71.0366 136.142 76.0566 109.454 66.2256 101.856Z" fill="#9C897A"/>
<path d="M88.1243 73.6608C86.7183 74.4728 83.0583 77.0328 82.4043 78.1108C82.0903 78.6298 81.9593 79.2208 81.9053 79.6988L80.9853 79.2398C81.4493 77.2558 82.3063 75.2728 82.3063 75.2728C82.3063 75.2728 83.7653 74.4918 84.5803 73.3378C85.3953 72.1838 85.0893 71.2618 85.0893 71.2618C84.5333 71.5828 83.6383 72.1678 82.7053 72.8298C82.7183 72.8118 82.7343 72.7958 82.7473 72.7768C83.5613 71.6228 83.2563 70.7008 83.2563 70.7008C81.7963 71.5438 77.9963 74.2018 77.3173 75.3218C76.9513 75.9258 76.8253 76.6218 76.7833 77.1408L76.5263 77.0128C76.9623 74.9138 77.9283 72.6748 77.9283 72.6748C77.9283 72.6748 79.3873 71.8938 80.2023 70.7398C81.0163 69.5858 80.7113 68.6638 80.7113 68.6638C79.2513 69.5068 75.4513 72.1648 74.7723 73.2848C74.0933 74.4048 74.2293 75.8638 74.2293 75.8638L74.7723 85.4348L75.3073 95.9558C75.3073 95.9558 55.9693 140.214 56.1933 151.007C56.4173 161.8 62.8933 166.076 62.8933 166.076C62.8933 166.076 69.8173 165.261 74.2293 158.445C78.6413 151.629 82.7143 99.6888 82.7143 99.6888C82.7143 99.6888 85.0223 96.1588 85.4293 92.7828C85.8363 89.4068 84.2863 80.8858 84.2863 80.8858C84.7463 79.1388 85.4443 77.5208 85.4443 77.5208C85.4443 77.5208 86.8503 76.7688 87.6343 75.6578C88.4183 74.5478 88.1243 73.6608 88.1243 73.6608Z" fill="#FF996A"/>
<path d="M95.4998 75.5458L90.1778 86.6268C89.9878 87.0258 89.4838 87.1398 89.1328 86.8738L88.9138 86.7028L94.2928 75.1378L77.3008 61.3298L77.4438 61.0728C77.6438 60.6928 78.1468 60.5978 78.4798 60.8728L95.3198 74.7188C95.5568 74.9188 95.6328 75.2608 95.4998 75.5458Z" fill="#D9D9D9"/>
<path d="M77.3005 63.5449L76.5625 64.9959L80.2285 67.9479L81.0685 66.5479L77.3005 63.5449Z" fill="#D9D9D9"/>
<path d="M183.314 107.234L179.206 107.998L179.096 107.634C180.284 107.228 183.074 106.13 184.204 104.436C185.656 102.258 186.165 100.152 186.165 100.152C186.165 100.152 183.649 101.469 182.68 103.983L180.734 104.345C181.514 103.862 182.237 103.277 182.691 102.596C184.143 100.417 184.652 98.3118 184.652 98.3118C184.652 98.3118 182.134 99.6288 181.165 102.143L178.712 102.599C179.73 101.8 180.795 100.758 181.24 99.6308C182.202 97.1958 182.257 95.0298 182.257 95.0298C182.257 95.0298 180.073 96.8468 179.654 99.5078L176.956 100.635L165.148 104.323L165.238 102.618C165.238 102.618 165.683 102.351 166.93 101.371C168.177 100.391 169.732 96.3238 169.732 96.3238C169.732 96.3238 163.544 99.2328 162.036 102.439C160.528 105.645 159.091 113.572 159.091 113.572C159.091 113.572 144.9 147.721 142.38 157.129C142.38 157.129 137.507 159.014 135.188 162.207C135.188 162.207 140.142 171.303 144.079 172.253C144.079 172.253 155.483 170.081 160.913 156.776C166.343 143.471 168.531 116.598 168.531 116.598L179.93 110.364C179.93 110.364 183.374 109.384 184.561 107.603C185.749 105.822 186.165 104.1 186.165 104.1C186.165 104.1 184.106 105.179 183.314 107.234Z" fill="#FF996A"/>
<path d="M132.544 145.99C132.544 145.99 125.867 144.704 114.439 144.704C103.011 144.704 91.582 146.847 91.582 146.847" stroke="#847062" stroke-miterlimit="10" stroke-linecap="round" stroke-linejoin="round"/>
<path d="M120.508 37.562C120.508 37.562 122.347 40.952 122.189 43.276" stroke="#543E2F" stroke-miterlimit="10" stroke-linecap="round" stroke-linejoin="round"/>
<path d="M117.682 34.99C117.682 34.99 110.22 37.419 106.113 43.276" stroke="#543E2F" stroke-miterlimit="10" stroke-linecap="round" stroke-linejoin="round"/>
<path d="M83.0808 38.7759C83.0808 38.7759 81.8668 41.4899 81.7948 42.4899C81.7948 42.4899 77.8068 46.2039 77.3008 48.3469" stroke="#543E2F" stroke-miterlimit="10" stroke-linecap="round" stroke-linejoin="round"/>
<path d="M68.0781 48.8469C68.3641 49.0609 72.3081 52.0489 76.3541 49.5309" stroke="#543E2F" stroke-miterlimit="10" stroke-linecap="round" stroke-linejoin="round"/>
<path d="M88 37.562C88 37.562 97.257 29.026 112.579 33.526" stroke="#543E2F" stroke-miterlimit="10" stroke-linecap="round" stroke-linejoin="round"/>
<path d="M89.8633 55.1908C89.8633 55.1908 93.8393 56.7938 102.339 55.1908C110.839 53.5878 118.578 44.8828 118.578 44.8828" stroke="#543E2F" stroke-miterlimit="10" stroke-linecap="round" stroke-linejoin="round"/>
<path d="M86.4336 101.856C86.4336 101.856 98.0576 106.704 109.963 105.99C121.868 105.276 123.351 103.133 123.351 103.133" stroke="#847062" stroke-miterlimit="10" stroke-linecap="round" stroke-linejoin="round"/>
</svg>
