<svg width="391" height="478" viewBox="0 0 391 478" fill="none" xmlns="http://www.w3.org/2000/svg">
<path d="M89 76.0002C56.0968 75.814 39 102.079 39 135L39 171L39 207L38 207L38 135C38 101.533 55.5517 74.8006 89 75.0002L156 75.0002C156.931 74.8805 157.03 74.9869 158 75.0002L174 75.0002L178 75.0002C187.705 75.0534 195.484 68.2847 197 59.0002C196.84 57.9759 197 57.0776 197 56.0002L197 12.5L198 12.5L198 56.0002C198 66.7878 207.218 75.0667 218 75.0002L232 75.0002C232.984 74.9869 234.056 74.8805 235 75.0002L307 75.0002C340.448 74.8007 358 101.533 358 135L358 207L357 207L357 135C357 102.079 339.903 75.814 307 76.0002L239 76.0002C246.977 78.7802 253 86.0482 253 95.0002L253 207L252 207L252 95.0002C252 85.0772 244.559 77.2106 235 76.0002L218 76.0002C208.481 76.1731 200.446 69.7394 198 61.0002C195.567 69.7394 187.519 76.1598 178 76.0002L174 76.0002L156 76.0002C146.441 77.2106 139 85.0771 139 95.0002L139 207L138 207L138 95.0002C138 86.0482 144.01 78.7802 152 76.0002L89 76.0002Z" fill="#00856E" stroke="#00856E"/>
<path d="M89 263C56.0968 263.186 39 236.922 39 204L39 168L39 203L38 203L38 204C38 237.467 55.5517 264.2 89 264L156 264C156.931 264.12 157.03 264.013 158 264L174 264L178 264C187.705 263.947 195.484 270.715 197 280C196.84 281.024 197 281.923 197 283L197 349L198 349L198 283C198 272.212 207.218 263.934 218 264L232 264C232.984 264.013 234.056 264.12 235 264L307 264C340.448 264.2 358 237.467 358 204L358 203L357 203L357 204C357 236.922 339.903 263.186 307 263L239 263C246.977 260.22 253 252.952 253 244L253 203L252 203L252 244C252 253.923 244.559 261.79 235 263L218 263C208.481 262.827 200.446 269.261 198 278C195.567 269.261 187.519 262.84 178 263L174 263L156 263C146.441 261.79 139 253.923 139 244L139 203L138 203L138 244C138 252.952 143.01 260.22 151 263L89 263Z" fill="#00856E" stroke="#00856E"/>
<path d="M0 164.667C0 145.521 15.5208 130 34.6667 130C53.8126 130 69.3334 145.521 69.3334 164.667C69.3334 183.813 53.8126 199.333 34.6667 199.333C15.5208 199.333 0 183.813 0 164.667Z" fill="white"/>
<path fill-rule="evenodd" clip-rule="evenodd" d="M32.1436 149.337L33.9636 150.429C36.2719 151.793 38.0453 153.905 38.9902 156.414C39.3109 155.692 39.6922 154.992 40.0461 154.284L41.4631 155.701C44.6438 158.882 47.6641 163.648 47.6641 168.278C47.6641 174.486 43.8363 178.422 37.7119 179.102L35.7041 179.325L36.1432 177.353C36.4856 175.81 36.5477 174.802 36.4754 174.096C36.3888 173.208 35.967 172.51 35.4412 171.817C34.9386 171.152 34.4402 170.486 34.0416 169.751C32.4021 171.047 31.7666 172.217 31.5629 173.18C31.3029 174.414 31.6712 175.675 32.3443 177.021L33.5317 179.396L30.8941 179.102C27.1732 178.689 23.5072 176.203 22.0628 172.576C20.5533 168.782 21.6208 164.19 26.4972 159.963C29.7328 157.16 31.4459 153.524 32.1436 149.337ZM34.0676 154.103C32.9669 157.194 30.8537 160.011 28.388 162.147C24.1832 165.792 23.8062 169.144 24.748 171.507C25.4485 173.27 26.9609 174.718 28.7534 175.54C28.544 174.567 28.5381 173.561 28.7361 172.585C29.207 170.352 30.8132 168.259 33.8986 166.331L35.4542 165.358L36.0349 167.099C36.5433 168.624 37.5978 169.703 38.4226 171.042C39.3297 172.516 39.503 174.206 39.3181 175.893C43.1026 174.947 44.7752 172.077 44.7752 168.278C44.7752 165.068 42.8397 161.919 40.9186 159.458C40.127 161.232 38.4587 161.856 36.8308 162.67V160.333C36.8308 158.356 36.0262 155.945 34.0676 154.105V154.103Z" fill="#005143"/>
<path d="M103 164.667C103 145.521 118.521 130 137.667 130C156.813 130 172.333 145.521 172.333 164.667C172.333 183.813 156.813 199.333 137.667 199.333C118.521 199.333 103 183.813 103 164.667Z" fill="white"/>
<path d="M150.546 161.148C150.699 160.797 150.707 160.401 150.568 160.044C150.429 159.688 150.155 159.401 149.805 159.247L130.919 150.933C129.481 150.3 127.712 151.006 127.098 152.438L123.906 159.883C123.605 160.587 123.596 161.381 123.881 162.092C124.166 162.803 124.722 163.371 125.425 163.673L134.147 167.411L132.356 171.889H126.112V167.555H123.223V179.111H126.112V174.778H132.356C133.545 174.778 134.598 174.064 135.037 172.961L136.802 168.549L144.32 171.77C144.67 171.921 145.066 171.926 145.42 171.787C145.774 171.647 146.059 171.372 146.212 171.024L146.663 169.998L149.12 170.98L152.009 163.758L149.79 162.873L150.546 161.148ZM144.141 168.552L126.564 161.019L129.753 153.578L147.32 161.311L144.141 168.552Z" fill="#005143"/>
<path d="M218 164.667C218 145.521 233.521 130 252.667 130C271.813 130 287.333 145.521 287.333 164.667C287.333 183.813 271.813 199.333 252.667 199.333C233.521 199.333 218 183.813 218 164.667Z" fill="white"/>
<g clip-path="url(#clip0_3924_3323)">
<path d="M239.666 154.018L252.673 150.222L265.666 154.018V161.802C265.666 165.792 264.41 169.679 262.077 172.916C259.744 176.152 256.453 178.572 252.668 179.833C248.882 178.572 245.589 176.152 243.256 172.915C240.922 169.678 239.666 165.789 239.666 161.799V154.018Z" stroke="#005143" stroke-width="2.88889" stroke-linejoin="round"/>
<path d="M246.166 163.944L251.222 169L259.888 160.333" stroke="#005143" stroke-width="2.88889" stroke-linecap="round" stroke-linejoin="round"/>
</g>
<path d="M321 164.667C321 145.521 336.521 130 355.667 130C374.813 130 390.333 145.521 390.333 164.667C390.333 183.813 374.813 199.333 355.667 199.333C336.521 199.333 321 183.813 321 164.667Z" fill="white"/>
<path d="M368.669 150.222H360.002C359.619 150.222 359.252 150.374 358.981 150.645C358.71 150.916 358.558 151.284 358.558 151.667C358.558 152.05 358.71 152.417 358.981 152.688C359.252 152.959 359.619 153.111 360.002 153.111H367.225V160.333C367.225 160.716 367.377 161.084 367.648 161.355C367.919 161.626 368.286 161.778 368.669 161.778C369.052 161.778 369.42 161.626 369.69 161.355C369.961 161.084 370.114 160.716 370.114 160.333V151.667C370.114 151.284 369.961 150.916 369.69 150.645C369.42 150.374 369.052 150.222 368.669 150.222ZM368.669 167.556C368.286 167.556 367.919 167.708 367.648 167.979C367.377 168.249 367.225 168.617 367.225 169V176.222H360.002C359.619 176.222 359.252 176.374 358.981 176.645C358.71 176.916 358.558 177.284 358.558 177.667C358.558 178.05 358.71 178.417 358.981 178.688C359.252 178.959 359.619 179.111 360.002 179.111H368.669C369.052 179.111 369.42 178.959 369.69 178.688C369.961 178.417 370.114 178.05 370.114 177.667V169C370.114 168.617 369.961 168.249 369.69 167.979C369.42 167.708 369.052 167.556 368.669 167.556ZM355.669 156C354.52 156 353.418 156.456 352.605 157.269C351.792 158.082 351.336 159.184 351.336 160.333V161.778C350.57 161.778 349.835 162.082 349.293 162.624C348.751 163.166 348.447 163.9 348.447 164.667V170.444C348.447 171.211 348.751 171.945 349.293 172.487C349.835 173.029 350.57 173.333 351.336 173.333H360.002C360.769 173.333 361.503 173.029 362.045 172.487C362.587 171.945 362.891 171.211 362.891 170.444V164.667C362.891 163.9 362.587 163.166 362.045 162.624C361.503 162.082 360.769 161.778 360.002 161.778V160.333C360.002 159.184 359.546 158.082 358.733 157.269C357.921 156.456 356.818 156 355.669 156ZM354.225 160.333C354.225 159.95 354.377 159.583 354.648 159.312C354.919 159.041 355.286 158.889 355.669 158.889C356.052 158.889 356.42 159.041 356.69 159.312C356.961 159.583 357.114 159.95 357.114 160.333V161.778H354.225V160.333ZM360.002 170.444H351.336V164.667H360.002V170.444ZM342.669 161.778C343.052 161.778 343.42 161.626 343.69 161.355C343.961 161.084 344.113 160.716 344.113 160.333V153.111H351.336C351.719 153.111 352.086 152.959 352.357 152.688C352.628 152.417 352.78 152.05 352.78 151.667C352.78 151.284 352.628 150.916 352.357 150.645C352.086 150.374 351.719 150.222 351.336 150.222H342.669C342.286 150.222 341.919 150.374 341.648 150.645C341.377 150.916 341.225 151.284 341.225 151.667V160.333C341.225 160.716 341.377 161.084 341.648 161.355C341.919 161.626 342.286 161.778 342.669 161.778ZM351.336 176.222H344.113V169C344.113 168.617 343.961 168.249 343.69 167.979C343.42 167.708 343.052 167.556 342.669 167.556C342.286 167.556 341.919 167.708 341.648 167.979C341.377 168.249 341.225 168.617 341.225 169V177.667C341.225 178.05 341.377 178.417 341.648 178.688C341.919 178.959 342.286 179.111 342.669 179.111H351.336C351.719 179.111 352.086 178.959 352.357 178.688C352.628 178.417 352.78 178.05 352.78 177.667C352.78 177.284 352.628 176.916 352.357 176.645C352.086 176.374 351.719 176.222 351.336 176.222Z" fill="#005143"/>
<path d="M167.351 351.345V306H134.777V395.703C134.777 375.028 148.495 357.36 167.351 351.345Z" fill="#EFEFEF"/>
<path d="M216.66 349.098H181.398C176.481 349.098 171.798 349.9 167.35 351.315V395.841C167.35 388.058 173.671 381.691 181.398 381.691H216.66C224.386 381.691 230.708 388.058 230.708 395.841V475.885C249.392 469.847 263.066 452.159 263.066 431.358V395.841C263.066 370.134 242.181 349.098 216.66 349.098Z" fill="#10957D"/>
<path d="M216.873 445.425H167.305V348.596C148.476 354.61 134.777 375.282 134.777 395.953V477.889H167.305H181.427H216.873C221.816 477.889 226.523 477.09 230.995 475.681V431.33C230.995 439.082 224.64 445.425 216.873 445.425Z" fill="#EFEFEF"/>
<defs>
<clipPath id="clip0_3924_3323">
<rect width="34.6667" height="34.6667" fill="white" transform="translate(235.334 147.333)"/>
</clipPath>
</defs>
</svg>
