<svg width="328" height="399" viewBox="0 0 328 399" fill="none" xmlns="http://www.w3.org/2000/svg">
<path d="M311.249 398.271L14.577 396.888C6.48869 396.85 -0.037497 390.262 0.000162167 382.174L1.71436 14.5771C1.75202 6.4887 8.33958 -0.037497 16.4279 0.000162167L313.1 1.38378C321.189 1.42144 327.715 8.00902 327.677 16.0974L325.963 383.694C325.925 391.783 319.338 398.309 311.249 398.271Z" fill="#3CB097"/>
<path d="M310.516 18.8739L12.5859 17.4736L10.8434 388.23L308.774 389.63L310.516 18.8739Z" fill="#3CB097"/>
<path d="M310.538 14.4622L18.8633 13.0913L17.1207 383.848L308.795 385.218L310.538 14.4622Z" fill="white"/>
<path d="M279.34 125.447H238.199V84.3066H279.34V125.447ZM240.591 123.055H276.946V86.6987H240.591V123.055Z" fill="#D1DBDB"/>
<path d="M136.433 84.3057H50.9492V92.3145H136.433V84.3057Z" fill="#3CB097"/>
<path d="M214.357 100.873H50.9492V103.597H214.357V100.873Z" fill="#D1DBDB"/>
<path d="M214.357 111.798H50.9492V114.522H214.357V111.798Z" fill="#D1DBDB"/>
<path d="M214.357 122.724H50.9492V125.448H214.357V122.724Z" fill="#D1DBDB"/>
<path d="M279.34 206.258H238.199V165.118H279.34V206.258ZM240.591 203.866H276.946V167.51H240.591V203.866Z" fill="#D1DBDB"/>
<path d="M136.433 165.118H50.9492V173.127H136.433V165.118Z" fill="#3CB097"/>
<path d="M214.357 181.684H50.9492V184.408H214.357V181.684Z" fill="#D1DBDB"/>
<path d="M214.357 192.609H50.9492V195.333H214.357V192.609Z" fill="#D1DBDB"/>
<path d="M214.357 203.535H50.9492V206.259H214.357V203.535Z" fill="#D1DBDB"/>
<path d="M279.34 287.07H238.199V245.93H279.34V287.07ZM240.591 284.678H276.946V248.322H240.591V284.678Z" fill="#D1DBDB"/>
<path d="M136.433 245.93H50.9492V253.939H136.433V245.93Z" fill="#3CB097"/>
<path d="M214.357 262.495H50.9492V265.219H214.357V262.495Z" fill="#D1DBDB"/>
<path d="M214.357 273.42H50.9492V276.144H214.357V273.42Z" fill="#D1DBDB"/>
<path d="M214.357 284.346H50.9492V287.07H214.357V284.346Z" fill="#D1DBDB"/>
<path d="M236.734 94.1974C236.734 94.1974 250.182 102.157 257.928 117.542C257.928 117.542 275.971 88.7535 295.866 81.668L290.708 74.8057C290.708 74.8057 273.576 85.1215 258.84 110.809C258.84 110.809 252.946 96.1752 242.446 87.5163L236.734 94.1974Z" fill="#327A6D"/>
</svg>
