<svg width="550" height="496" viewBox="0 0 550 496" fill="none" xmlns="http://www.w3.org/2000/svg">
<g clip-path="url(#clip0_5920_8146)">
<path d="M55 137H148.212C159.257 137 168.212 145.954 168.212 157V171C168.212 182.046 177.166 191 188.212 191H323" stroke="#DFE5FF"/>
<rect x="106" y="87" width="103" height="30" rx="8" fill="white" fill-opacity="0.1"/>
<rect x="106.5" y="87.5" width="102" height="29" rx="7.5" stroke="white" stroke-opacity="0.2"/>
<path d="M119.254 106V97.2727H124.725V98.4062H120.57V101.065H124.44V102.195H120.57V104.866H124.776V106H119.254ZM127.656 102.114V106H126.382V99.4545H127.605V100.52H127.686C127.836 100.173 128.072 99.8949 128.393 99.6847C128.717 99.4744 129.125 99.3693 129.616 99.3693C130.062 99.3693 130.453 99.4631 130.788 99.6506C131.123 99.8352 131.383 100.111 131.568 100.477C131.753 100.844 131.845 101.297 131.845 101.837V106H130.571V101.99C130.571 101.516 130.447 101.145 130.2 100.878C129.953 100.608 129.613 100.473 129.182 100.473C128.886 100.473 128.623 100.537 128.393 100.665C128.166 100.793 127.986 100.98 127.852 101.227C127.721 101.472 127.656 101.767 127.656 102.114ZM136.004 106.128C135.476 106.128 135.004 105.993 134.589 105.723C134.177 105.45 133.854 105.062 133.618 104.56C133.385 104.054 133.268 103.447 133.268 102.74C133.268 102.033 133.386 101.428 133.622 100.925C133.861 100.422 134.187 100.037 134.602 99.7699C135.017 99.5028 135.487 99.3693 136.013 99.3693C136.419 99.3693 136.746 99.4375 136.993 99.5739C137.243 99.7074 137.436 99.8636 137.572 100.043C137.711 100.222 137.819 100.379 137.896 100.516H137.973V97.2727H139.247V106H138.003V104.982H137.896C137.819 105.121 137.709 105.28 137.564 105.459C137.422 105.638 137.226 105.794 136.976 105.928C136.726 106.061 136.402 106.128 136.004 106.128ZM136.285 105.041C136.652 105.041 136.961 104.945 137.214 104.751C137.47 104.555 137.663 104.284 137.794 103.938C137.927 103.591 137.994 103.187 137.994 102.727C137.994 102.273 137.929 101.875 137.798 101.534C137.667 101.193 137.476 100.928 137.223 100.737C136.97 100.547 136.657 100.452 136.285 100.452C135.902 100.452 135.582 100.551 135.327 100.75C135.071 100.949 134.878 101.22 134.747 101.564C134.619 101.908 134.555 102.295 134.555 102.727C134.555 103.165 134.621 103.558 134.751 103.908C134.882 104.257 135.075 104.534 135.331 104.739C135.589 104.94 135.907 105.041 136.285 105.041ZM149.956 97.2727H151.277V103.013C151.277 103.624 151.133 104.165 150.846 104.636C150.559 105.105 150.156 105.474 149.636 105.744C149.116 106.011 148.507 106.145 147.808 106.145C147.112 106.145 146.504 106.011 145.984 105.744C145.464 105.474 145.061 105.105 144.774 104.636C144.487 104.165 144.344 103.624 144.344 103.013V97.2727H145.66V102.906C145.66 103.301 145.747 103.652 145.92 103.959C146.096 104.266 146.345 104.507 146.666 104.683C146.987 104.857 147.368 104.943 147.808 104.943C148.251 104.943 148.633 104.857 148.954 104.683C149.278 104.507 149.525 104.266 149.696 103.959C149.869 103.652 149.956 103.301 149.956 102.906V97.2727ZM157.994 101.053L156.839 101.257C156.791 101.109 156.714 100.969 156.609 100.835C156.507 100.702 156.367 100.592 156.191 100.507C156.015 100.422 155.795 100.379 155.531 100.379C155.17 100.379 154.869 100.46 154.627 100.622C154.386 100.781 154.265 100.987 154.265 101.24C154.265 101.459 154.346 101.635 154.508 101.768C154.67 101.902 154.931 102.011 155.292 102.097L156.332 102.335C156.934 102.474 157.383 102.689 157.678 102.979C157.974 103.268 158.122 103.645 158.122 104.108C158.122 104.5 158.008 104.849 157.781 105.156C157.556 105.46 157.242 105.699 156.839 105.872C156.438 106.045 155.974 106.132 155.445 106.132C154.713 106.132 154.115 105.976 153.651 105.663C153.188 105.348 152.904 104.901 152.799 104.321L154.031 104.134C154.107 104.455 154.265 104.697 154.504 104.862C154.742 105.024 155.053 105.105 155.437 105.105C155.855 105.105 156.188 105.018 156.438 104.845C156.688 104.669 156.813 104.455 156.813 104.202C156.813 103.997 156.737 103.825 156.583 103.686C156.433 103.547 156.201 103.442 155.889 103.371L154.781 103.128C154.17 102.989 153.718 102.767 153.426 102.463C153.136 102.159 152.991 101.774 152.991 101.308C152.991 100.922 153.099 100.584 153.315 100.294C153.531 100.004 153.829 99.7784 154.21 99.6165C154.59 99.4517 155.026 99.3693 155.518 99.3693C156.225 99.3693 156.782 99.5227 157.188 99.8295C157.595 100.134 157.863 100.541 157.994 101.053ZM162.344 106.132C161.699 106.132 161.143 105.994 160.677 105.719C160.214 105.44 159.856 105.05 159.604 104.547C159.354 104.041 159.229 103.449 159.229 102.77C159.229 102.099 159.354 101.509 159.604 100.997C159.856 100.486 160.209 100.087 160.66 99.7997C161.115 99.5128 161.646 99.3693 162.254 99.3693C162.623 99.3693 162.981 99.4304 163.328 99.5526C163.675 99.6747 163.986 99.8665 164.261 100.128C164.537 100.389 164.754 100.729 164.913 101.146C165.072 101.561 165.152 102.065 165.152 102.659V103.111H159.949V102.156H163.903C163.903 101.821 163.835 101.524 163.699 101.266C163.562 101.004 163.371 100.798 163.123 100.648C162.879 100.497 162.592 100.422 162.263 100.422C161.905 100.422 161.592 100.51 161.325 100.686C161.061 100.859 160.856 101.087 160.711 101.368C160.569 101.646 160.498 101.949 160.498 102.276V103.021C160.498 103.459 160.575 103.831 160.729 104.138C160.885 104.445 161.102 104.679 161.381 104.841C161.659 105 161.984 105.08 162.356 105.08C162.598 105.08 162.818 105.045 163.017 104.977C163.216 104.906 163.388 104.801 163.532 104.662C163.677 104.523 163.788 104.351 163.865 104.146L165.071 104.364C164.974 104.719 164.801 105.03 164.551 105.297C164.304 105.561 163.993 105.767 163.618 105.915C163.246 106.06 162.821 106.132 162.344 106.132ZM166.566 106V99.4545H167.797V100.494H167.865C167.985 100.142 168.195 99.8651 168.496 99.6634C168.8 99.4588 169.144 99.3565 169.527 99.3565C169.607 99.3565 169.7 99.3594 169.808 99.3651C169.919 99.3707 170.006 99.3778 170.068 99.3864V100.605C170.017 100.591 169.926 100.575 169.796 100.558C169.665 100.538 169.534 100.528 169.404 100.528C169.102 100.528 168.834 100.592 168.598 100.72C168.365 100.845 168.181 101.02 168.044 101.244C167.908 101.466 167.84 101.719 167.84 102.003V106H166.566ZM175.186 106H173.789L176.929 97.2727H178.45L181.591 106H180.193L177.726 98.858H177.658L175.186 106ZM175.421 102.582H179.955V103.69H175.421V102.582ZM182.749 108.455V99.4545H183.993V100.516H184.1C184.174 100.379 184.28 100.222 184.42 100.043C184.559 99.8636 184.752 99.7074 184.999 99.5739C185.246 99.4375 185.573 99.3693 185.979 99.3693C186.508 99.3693 186.979 99.5028 187.394 99.7699C187.809 100.037 188.134 100.422 188.37 100.925C188.608 101.428 188.728 102.033 188.728 102.74C188.728 103.447 188.61 104.054 188.374 104.56C188.138 105.062 187.814 105.45 187.403 105.723C186.991 105.993 186.52 106.128 185.992 106.128C185.594 106.128 185.269 106.061 185.016 105.928C184.766 105.794 184.57 105.638 184.428 105.459C184.286 105.28 184.177 105.121 184.1 104.982H184.023V108.455H182.749ZM183.998 102.727C183.998 103.187 184.064 103.591 184.198 103.938C184.331 104.284 184.525 104.555 184.778 104.751C185.03 104.945 185.34 105.041 185.706 105.041C186.087 105.041 186.405 104.94 186.661 104.739C186.917 104.534 187.11 104.257 187.241 103.908C187.374 103.558 187.441 103.165 187.441 102.727C187.441 102.295 187.376 101.908 187.245 101.564C187.117 101.22 186.924 100.949 186.665 100.75C186.41 100.551 186.09 100.452 185.706 100.452C185.337 100.452 185.025 100.547 184.769 100.737C184.516 100.928 184.324 101.193 184.194 101.534C184.063 101.875 183.998 102.273 183.998 102.727ZM190.155 108.455V99.4545H191.4V100.516H191.506C191.58 100.379 191.687 100.222 191.826 100.043C191.965 99.8636 192.158 99.7074 192.405 99.5739C192.653 99.4375 192.979 99.3693 193.385 99.3693C193.914 99.3693 194.385 99.5028 194.8 99.7699C195.215 100.037 195.54 100.422 195.776 100.925C196.015 101.428 196.134 102.033 196.134 102.74C196.134 103.447 196.016 104.054 195.78 104.56C195.545 105.062 195.221 105.45 194.809 105.723C194.397 105.993 193.927 106.128 193.398 106.128C193.001 106.128 192.675 106.061 192.422 105.928C192.172 105.794 191.976 105.638 191.834 105.459C191.692 105.28 191.583 105.121 191.506 104.982H191.43V108.455H190.155ZM191.404 102.727C191.404 103.187 191.471 103.591 191.604 103.938C191.738 104.284 191.931 104.555 192.184 104.751C192.437 104.945 192.746 105.041 193.113 105.041C193.493 105.041 193.812 104.94 194.067 104.739C194.323 104.534 194.516 104.257 194.647 103.908C194.78 103.558 194.847 103.165 194.847 102.727C194.847 102.295 194.782 101.908 194.651 101.564C194.523 101.22 194.33 100.949 194.072 100.75C193.816 100.551 193.496 100.452 193.113 100.452C192.743 100.452 192.431 100.547 192.175 100.737C191.922 100.928 191.731 101.193 191.6 101.534C191.469 101.875 191.404 102.273 191.404 102.727Z" fill="white"/>
<rect x="349.5" y="87" width="98" height="30" rx="8" fill="white" fill-opacity="0.1"/>
<rect x="350" y="87.5" width="97" height="29" rx="7.5" stroke="white" stroke-opacity="0.2"/>
<path d="M370.237 101.636C370.237 102.568 370.067 103.369 369.726 104.04C369.385 104.707 368.917 105.222 368.324 105.582C367.733 105.94 367.061 106.119 366.308 106.119C365.552 106.119 364.878 105.94 364.284 105.582C363.693 105.222 363.227 104.706 362.886 104.036C362.545 103.365 362.375 102.565 362.375 101.636C362.375 100.705 362.545 99.9048 362.886 99.2372C363.227 98.5668 363.693 98.0526 364.284 97.6946C364.878 97.3338 365.552 97.1534 366.308 97.1534C367.061 97.1534 367.733 97.3338 368.324 97.6946C368.917 98.0526 369.385 98.5668 369.726 99.2372C370.067 99.9048 370.237 100.705 370.237 101.636ZM368.933 101.636C368.933 100.926 368.818 100.328 368.588 99.8423C368.361 99.3537 368.048 98.9844 367.65 98.7344C367.256 98.4815 366.808 98.3551 366.308 98.3551C365.805 98.3551 365.356 98.4815 364.961 98.7344C364.567 98.9844 364.254 99.3537 364.024 99.8423C363.797 100.328 363.683 100.926 363.683 101.636C363.683 102.347 363.797 102.946 364.024 103.435C364.254 103.92 364.567 104.29 364.961 104.543C365.356 104.793 365.805 104.918 366.308 104.918C366.808 104.918 367.256 104.793 367.65 104.543C368.048 104.29 368.361 103.92 368.588 103.435C368.818 102.946 368.933 102.347 368.933 101.636ZM373.051 102.114V106H371.776V99.4545H372.999V100.52H373.08C373.231 100.173 373.467 99.8949 373.788 99.6847C374.112 99.4744 374.519 99.3693 375.011 99.3693C375.457 99.3693 375.847 99.4631 376.183 99.6506C376.518 99.8352 376.778 100.111 376.963 100.477C377.147 100.844 377.24 101.297 377.24 101.837V106H375.965V101.99C375.965 101.516 375.842 101.145 375.595 100.878C375.347 100.608 375.008 100.473 374.576 100.473C374.281 100.473 374.018 100.537 373.788 100.665C373.561 100.793 373.38 100.98 373.247 101.227C373.116 101.472 373.051 101.767 373.051 102.114ZM382.805 101.76V102.864H378.936V101.76H382.805ZM389.365 99.5653C389.32 99.1619 389.132 98.8494 388.803 98.6278C388.473 98.4034 388.058 98.2912 387.558 98.2912C387.2 98.2912 386.891 98.348 386.629 98.4616C386.368 98.5724 386.165 98.7259 386.02 98.9219C385.878 99.1151 385.807 99.3352 385.807 99.5824C385.807 99.7898 385.855 99.9687 385.952 100.119C386.051 100.27 386.181 100.396 386.34 100.499C386.502 100.598 386.675 100.682 386.86 100.75C387.044 100.815 387.222 100.869 387.392 100.912L388.244 101.134C388.523 101.202 388.808 101.294 389.101 101.411C389.394 101.527 389.665 101.68 389.915 101.871C390.165 102.061 390.367 102.297 390.52 102.578C390.676 102.859 390.754 103.196 390.754 103.588C390.754 104.082 390.627 104.521 390.371 104.905C390.118 105.288 389.75 105.591 389.267 105.812C388.787 106.034 388.206 106.145 387.524 106.145C386.871 106.145 386.306 106.041 385.828 105.834C385.351 105.626 384.977 105.332 384.708 104.952C384.438 104.568 384.289 104.114 384.26 103.588H385.581C385.607 103.903 385.709 104.166 385.888 104.376C386.07 104.584 386.301 104.739 386.583 104.841C386.867 104.94 387.178 104.99 387.516 104.99C387.888 104.99 388.219 104.932 388.509 104.815C388.801 104.696 389.031 104.531 389.199 104.321C389.367 104.108 389.45 103.859 389.45 103.575C389.45 103.317 389.377 103.105 389.229 102.94C389.084 102.776 388.887 102.639 388.637 102.531C388.389 102.423 388.11 102.328 387.797 102.246L386.766 101.964C386.067 101.774 385.513 101.494 385.104 101.125C384.698 100.756 384.494 100.267 384.494 99.6591C384.494 99.1562 384.631 98.7173 384.904 98.3423C385.176 97.9673 385.546 97.6761 386.012 97.4688C386.477 97.2585 387.003 97.1534 387.588 97.1534C388.179 97.1534 388.7 97.2571 389.152 97.4645C389.607 97.6719 389.965 97.9574 390.226 98.321C390.487 98.6818 390.624 99.0966 390.635 99.5653H389.365ZM392.226 106V99.4545H393.5V106H392.226ZM392.869 98.4446C392.648 98.4446 392.457 98.3707 392.298 98.223C392.142 98.0724 392.064 97.8935 392.064 97.6861C392.064 97.4759 392.142 97.2969 392.298 97.1491C392.457 96.9986 392.648 96.9233 392.869 96.9233C393.091 96.9233 393.28 96.9986 393.436 97.1491C393.595 97.2969 393.675 97.4759 393.675 97.6861C393.675 97.8935 393.595 98.0724 393.436 98.223C393.28 98.3707 393.091 98.4446 392.869 98.4446ZM398.269 99.4545V100.477H394.694V99.4545H398.269ZM395.653 97.8864H396.927V104.078C396.927 104.325 396.964 104.511 397.038 104.636C397.112 104.759 397.207 104.842 397.323 104.888C397.443 104.93 397.572 104.952 397.711 104.952C397.813 104.952 397.903 104.945 397.98 104.93C398.056 104.916 398.116 104.905 398.159 104.896L398.389 105.949C398.315 105.977 398.21 106.006 398.073 106.034C397.937 106.065 397.767 106.082 397.562 106.085C397.227 106.091 396.914 106.031 396.624 105.906C396.335 105.781 396.1 105.588 395.921 105.327C395.742 105.065 395.653 104.737 395.653 104.342V97.8864ZM402.43 106.132C401.785 106.132 401.229 105.994 400.763 105.719C400.3 105.44 399.942 105.05 399.689 104.547C399.439 104.041 399.314 103.449 399.314 102.77C399.314 102.099 399.439 101.509 399.689 100.997C399.942 100.486 400.295 100.087 400.746 99.7997C401.201 99.5128 401.732 99.3693 402.34 99.3693C402.709 99.3693 403.067 99.4304 403.414 99.5526C403.76 99.6747 404.072 99.8665 404.347 100.128C404.623 100.389 404.84 100.729 404.999 101.146C405.158 101.561 405.238 102.065 405.238 102.659V103.111H400.035V102.156H403.989C403.989 101.821 403.921 101.524 403.785 101.266C403.648 101.004 403.456 100.798 403.209 100.648C402.965 100.497 402.678 100.422 402.349 100.422C401.991 100.422 401.678 100.51 401.411 100.686C401.147 100.859 400.942 101.087 400.797 101.368C400.655 101.646 400.584 101.949 400.584 102.276V103.021C400.584 103.459 400.661 103.831 400.814 104.138C400.971 104.445 401.188 104.679 401.466 104.841C401.745 105 402.07 105.08 402.442 105.08C402.684 105.08 402.904 105.045 403.103 104.977C403.302 104.906 403.474 104.801 403.618 104.662C403.763 104.523 403.874 104.351 403.951 104.146L405.157 104.364C405.06 104.719 404.887 105.03 404.637 105.297C404.39 105.561 404.079 105.767 403.704 105.915C403.331 106.06 402.907 106.132 402.43 106.132ZM410.667 106H409.269L412.41 97.2727H413.931L417.072 106H415.674L413.206 98.858H413.138L410.667 106ZM410.901 102.582H415.435V103.69H410.901V102.582ZM418.23 108.455V99.4545H419.474V100.516H419.58C419.654 100.379 419.761 100.222 419.9 100.043C420.039 99.8636 420.232 99.7074 420.48 99.5739C420.727 99.4375 421.053 99.3693 421.46 99.3693C421.988 99.3693 422.46 99.5028 422.874 99.7699C423.289 100.037 423.615 100.422 423.85 100.925C424.089 101.428 424.208 102.033 424.208 102.74C424.208 103.447 424.09 104.054 423.855 104.56C423.619 105.062 423.295 105.45 422.883 105.723C422.471 105.993 422.001 106.128 421.472 106.128C421.075 106.128 420.749 106.061 420.497 105.928C420.247 105.794 420.051 105.638 419.909 105.459C419.767 105.28 419.657 105.121 419.58 104.982H419.504V108.455H418.23ZM419.478 102.727C419.478 103.187 419.545 103.591 419.678 103.938C419.812 104.284 420.005 104.555 420.258 104.751C420.511 104.945 420.82 105.041 421.187 105.041C421.568 105.041 421.886 104.94 422.142 104.739C422.397 104.534 422.59 104.257 422.721 103.908C422.855 103.558 422.921 103.165 422.921 102.727C422.921 102.295 422.856 101.908 422.725 101.564C422.597 101.22 422.404 100.949 422.146 100.75C421.89 100.551 421.57 100.452 421.187 100.452C420.818 100.452 420.505 100.547 420.249 100.737C419.997 100.928 419.805 101.193 419.674 101.534C419.544 101.875 419.478 102.273 419.478 102.727ZM425.636 108.455V99.4545H426.88V100.516H426.987C427.061 100.379 427.167 100.222 427.306 100.043C427.445 99.8636 427.639 99.7074 427.886 99.5739C428.133 99.4375 428.46 99.3693 428.866 99.3693C429.394 99.3693 429.866 99.5028 430.281 99.7699C430.695 100.037 431.021 100.422 431.257 100.925C431.495 101.428 431.615 102.033 431.615 102.74C431.615 103.447 431.497 104.054 431.261 104.56C431.025 105.062 430.701 105.45 430.289 105.723C429.877 105.993 429.407 106.128 428.879 106.128C428.481 106.128 428.156 106.061 427.903 105.928C427.653 105.794 427.457 105.638 427.315 105.459C427.173 105.28 427.063 105.121 426.987 104.982H426.91V108.455H425.636ZM426.884 102.727C426.884 103.187 426.951 103.591 427.085 103.938C427.218 104.284 427.411 104.555 427.664 104.751C427.917 104.945 428.227 105.041 428.593 105.041C428.974 105.041 429.292 104.94 429.548 104.739C429.803 104.534 429.997 104.257 430.127 103.908C430.261 103.558 430.328 103.165 430.328 102.727C430.328 102.295 430.262 101.908 430.132 101.564C430.004 101.22 429.811 100.949 429.552 100.75C429.296 100.551 428.977 100.452 428.593 100.452C428.224 100.452 427.911 100.547 427.656 100.737C427.403 100.928 427.211 101.193 427.08 101.534C426.95 101.875 426.884 102.273 426.884 102.727Z" fill="white"/>
<rect x="106" y="309" width="91" height="30" rx="8" fill="white" fill-opacity="0.1"/>
<rect x="106.5" y="309.5" width="90" height="29" rx="7.5" stroke="white" stroke-opacity="0.2"/>
<path d="M119.324 328V319.273H122.52C123.139 319.273 123.652 319.375 124.058 319.58C124.465 319.781 124.769 320.055 124.97 320.402C125.172 320.746 125.273 321.134 125.273 321.565C125.273 321.929 125.206 322.236 125.073 322.486C124.939 322.733 124.76 322.932 124.536 323.082C124.314 323.23 124.07 323.338 123.803 323.406V323.491C124.093 323.506 124.375 323.599 124.651 323.773C124.929 323.943 125.159 324.186 125.341 324.501C125.523 324.817 125.614 325.2 125.614 325.652C125.614 326.098 125.509 326.499 125.298 326.854C125.091 327.206 124.77 327.486 124.335 327.693C123.901 327.898 123.345 328 122.669 328H119.324ZM120.641 326.871H122.541C123.172 326.871 123.624 326.749 123.896 326.504C124.169 326.26 124.306 325.955 124.306 325.588C124.306 325.312 124.236 325.06 124.097 324.83C123.958 324.599 123.759 324.416 123.5 324.28C123.244 324.143 122.941 324.075 122.588 324.075H120.641V326.871ZM120.641 323.048H122.405C122.7 323.048 122.966 322.991 123.202 322.878C123.441 322.764 123.629 322.605 123.769 322.401C123.911 322.193 123.982 321.949 123.982 321.668C123.982 321.307 123.855 321.004 123.602 320.76C123.35 320.516 122.962 320.393 122.439 320.393H120.641V323.048ZM128.978 328.145C128.563 328.145 128.188 328.068 127.853 327.915C127.518 327.759 127.252 327.533 127.056 327.237C126.863 326.942 126.767 326.58 126.767 326.151C126.767 325.781 126.838 325.477 126.98 325.239C127.122 325 127.313 324.811 127.555 324.672C127.796 324.533 128.066 324.428 128.365 324.357C128.663 324.286 128.967 324.232 129.276 324.195C129.669 324.149 129.987 324.112 130.231 324.084C130.475 324.053 130.653 324.003 130.764 323.935C130.874 323.866 130.93 323.756 130.93 323.602V323.572C130.93 323.2 130.825 322.912 130.615 322.707C130.407 322.503 130.097 322.401 129.686 322.401C129.257 322.401 128.919 322.496 128.671 322.686C128.427 322.874 128.258 323.082 128.164 323.312L126.967 323.04C127.109 322.642 127.316 322.321 127.589 322.077C127.865 321.83 128.181 321.651 128.539 321.54C128.897 321.426 129.274 321.369 129.669 321.369C129.93 321.369 130.207 321.401 130.499 321.463C130.795 321.523 131.07 321.634 131.326 321.795C131.585 321.957 131.796 322.189 131.961 322.49C132.126 322.788 132.208 323.176 132.208 323.653V328H130.964V327.105H130.913C130.83 327.27 130.707 327.432 130.542 327.591C130.377 327.75 130.166 327.882 129.907 327.987C129.649 328.092 129.339 328.145 128.978 328.145ZM129.255 327.122C129.607 327.122 129.909 327.053 130.159 326.913C130.411 326.774 130.603 326.592 130.734 326.368C130.867 326.141 130.934 325.898 130.934 325.639V324.795C130.889 324.841 130.801 324.884 130.67 324.923C130.542 324.96 130.396 324.993 130.231 325.021C130.066 325.047 129.906 325.071 129.749 325.094C129.593 325.114 129.463 325.131 129.357 325.145C129.11 325.176 128.884 325.229 128.68 325.303C128.478 325.376 128.316 325.483 128.194 325.622C128.075 325.759 128.015 325.94 128.015 326.168C128.015 326.483 128.132 326.722 128.365 326.884C128.597 327.043 128.894 327.122 129.255 327.122ZM136.662 328.132C136.029 328.132 135.483 327.989 135.026 327.702C134.572 327.412 134.222 327.013 133.978 326.504C133.733 325.996 133.611 325.413 133.611 324.757C133.611 324.092 133.736 323.506 133.986 322.997C134.236 322.486 134.589 322.087 135.043 321.8C135.498 321.513 136.033 321.369 136.65 321.369C137.147 321.369 137.59 321.462 137.979 321.646C138.368 321.828 138.682 322.084 138.921 322.413C139.162 322.743 139.306 323.128 139.351 323.568H138.111C138.043 323.261 137.887 322.997 137.643 322.776C137.401 322.554 137.077 322.443 136.671 322.443C136.316 322.443 136.005 322.537 135.738 322.724C135.474 322.909 135.268 323.173 135.12 323.517C134.972 323.858 134.898 324.261 134.898 324.727C134.898 325.205 134.971 325.616 135.116 325.963C135.26 326.31 135.465 326.578 135.729 326.768C135.996 326.959 136.31 327.054 136.671 327.054C136.912 327.054 137.131 327.01 137.327 326.922C137.526 326.831 137.692 326.702 137.826 326.534C137.962 326.366 138.057 326.165 138.111 325.929H139.351C139.306 326.352 139.168 326.73 138.938 327.062C138.708 327.395 138.4 327.656 138.013 327.847C137.63 328.037 137.18 328.132 136.662 328.132ZM141.886 325.78L141.877 324.224H142.099L144.707 321.455H146.232L143.258 324.608H143.058L141.886 325.78ZM140.714 328V319.273H141.988V328H140.714ZM144.847 328L142.504 324.889L143.382 323.999L146.411 328H144.847ZM158.253 323.636C158.253 324.568 158.082 325.369 157.741 326.04C157.4 326.707 156.933 327.222 156.339 327.582C155.748 327.94 155.077 328.119 154.324 328.119C153.568 328.119 152.893 327.94 152.3 327.582C151.709 327.222 151.243 326.706 150.902 326.036C150.561 325.365 150.39 324.565 150.39 323.636C150.39 322.705 150.561 321.905 150.902 321.237C151.243 320.567 151.709 320.053 152.3 319.695C152.893 319.334 153.568 319.153 154.324 319.153C155.077 319.153 155.748 319.334 156.339 319.695C156.933 320.053 157.4 320.567 157.741 321.237C158.082 321.905 158.253 322.705 158.253 323.636ZM156.949 323.636C156.949 322.926 156.834 322.328 156.604 321.842C156.376 321.354 156.064 320.984 155.666 320.734C155.271 320.482 154.824 320.355 154.324 320.355C153.821 320.355 153.372 320.482 152.977 320.734C152.582 320.984 152.27 321.354 152.04 321.842C151.812 322.328 151.699 322.926 151.699 323.636C151.699 324.347 151.812 324.946 152.04 325.435C152.27 325.92 152.582 326.29 152.977 326.543C153.372 326.793 153.821 326.918 154.324 326.918C154.824 326.918 155.271 326.793 155.666 326.543C156.064 326.29 156.376 325.92 156.604 325.435C156.834 324.946 156.949 324.347 156.949 323.636ZM162.907 321.455V322.477H159.208V321.455H162.907ZM160.222 328V320.696C160.222 320.287 160.312 319.947 160.491 319.678C160.67 319.405 160.907 319.202 161.203 319.068C161.498 318.932 161.819 318.864 162.166 318.864C162.421 318.864 162.64 318.885 162.822 318.928C163.004 318.967 163.139 319.004 163.227 319.038L162.928 320.07C162.869 320.053 162.792 320.033 162.698 320.01C162.605 319.984 162.491 319.972 162.357 319.972C162.048 319.972 161.826 320.048 161.693 320.202C161.562 320.355 161.497 320.577 161.497 320.866V328H160.222ZM167.337 321.455V322.477H163.638V321.455H167.337ZM164.652 328V320.696C164.652 320.287 164.742 319.947 164.921 319.678C165.1 319.405 165.337 319.202 165.632 319.068C165.928 318.932 166.249 318.864 166.595 318.864C166.851 318.864 167.07 318.885 167.252 318.928C167.433 318.967 167.568 319.004 167.656 319.038L167.358 320.07C167.298 320.053 167.222 320.033 167.128 320.01C167.034 319.984 166.921 319.972 166.787 319.972C166.477 319.972 166.256 320.048 166.122 320.202C165.992 320.355 165.926 320.577 165.926 320.866V328H164.652ZM168.651 328V321.455H169.926V328H168.651ZM169.295 320.445C169.073 320.445 168.883 320.371 168.724 320.223C168.568 320.072 168.49 319.893 168.49 319.686C168.49 319.476 168.568 319.297 168.724 319.149C168.883 318.999 169.073 318.923 169.295 318.923C169.517 318.923 169.705 318.999 169.862 319.149C170.021 319.297 170.1 319.476 170.1 319.686C170.1 319.893 170.021 320.072 169.862 320.223C169.705 320.371 169.517 320.445 169.295 320.445ZM174.397 328.132C173.763 328.132 173.218 327.989 172.76 327.702C172.306 327.412 171.956 327.013 171.712 326.504C171.468 325.996 171.346 325.413 171.346 324.757C171.346 324.092 171.471 323.506 171.721 322.997C171.971 322.486 172.323 322.087 172.778 321.8C173.232 321.513 173.768 321.369 174.384 321.369C174.881 321.369 175.324 321.462 175.714 321.646C176.103 321.828 176.417 322.084 176.655 322.413C176.897 322.743 177.04 323.128 177.086 323.568H175.846C175.778 323.261 175.621 322.997 175.377 322.776C175.135 322.554 174.812 322.443 174.405 322.443C174.05 322.443 173.739 322.537 173.472 322.724C173.208 322.909 173.002 323.173 172.854 323.517C172.706 323.858 172.633 324.261 172.633 324.727C172.633 325.205 172.705 325.616 172.85 325.963C172.995 326.31 173.199 326.578 173.464 326.768C173.731 326.959 174.045 327.054 174.405 327.054C174.647 327.054 174.866 327.01 175.062 326.922C175.26 326.831 175.427 326.702 175.56 326.534C175.697 326.366 175.792 326.165 175.846 325.929H177.086C177.04 326.352 176.903 326.73 176.672 327.062C176.442 327.395 176.134 327.656 175.748 327.847C175.364 328.037 174.914 328.132 174.397 328.132ZM181.269 328.132C180.624 328.132 180.069 327.994 179.603 327.719C179.14 327.44 178.782 327.05 178.529 326.547C178.279 326.041 178.154 325.449 178.154 324.77C178.154 324.099 178.279 323.509 178.529 322.997C178.782 322.486 179.134 322.087 179.586 321.8C180.041 321.513 180.572 321.369 181.18 321.369C181.549 321.369 181.907 321.43 182.254 321.553C182.6 321.675 182.911 321.866 183.187 322.128C183.463 322.389 183.68 322.729 183.839 323.146C183.998 323.561 184.078 324.065 184.078 324.659V325.111H178.874V324.156H182.829C182.829 323.821 182.761 323.524 182.624 323.266C182.488 323.004 182.296 322.798 182.049 322.648C181.805 322.497 181.518 322.422 181.188 322.422C180.83 322.422 180.518 322.51 180.251 322.686C179.987 322.859 179.782 323.087 179.637 323.368C179.495 323.646 179.424 323.949 179.424 324.276V325.021C179.424 325.459 179.501 325.831 179.654 326.138C179.811 326.445 180.028 326.679 180.306 326.841C180.585 327 180.91 327.08 181.282 327.08C181.524 327.08 181.744 327.045 181.943 326.977C182.142 326.906 182.313 326.801 182.458 326.662C182.603 326.523 182.714 326.351 182.791 326.146L183.997 326.364C183.9 326.719 183.727 327.03 183.477 327.297C183.23 327.561 182.919 327.767 182.544 327.915C182.171 328.06 181.747 328.132 181.269 328.132Z" fill="white"/>
<rect x="368" y="309" width="80" height="30" rx="8" fill="white" fill-opacity="0.1"/>
<rect x="368.5" y="309.5" width="79" height="29" rx="7.5" stroke="white" stroke-opacity="0.2"/>
<path d="M381.074 328V319.273H382.391V323.065H386.742V319.273H388.063V328H386.742V324.195H382.391V328H381.074ZM391.783 328.145C391.368 328.145 390.993 328.068 390.658 327.915C390.323 327.759 390.057 327.533 389.861 327.237C389.668 326.942 389.571 326.58 389.571 326.151C389.571 325.781 389.642 325.477 389.784 325.239C389.926 325 390.118 324.811 390.36 324.672C390.601 324.533 390.871 324.428 391.169 324.357C391.468 324.286 391.771 324.232 392.081 324.195C392.473 324.149 392.791 324.112 393.036 324.084C393.28 324.053 393.458 324.003 393.568 323.935C393.679 323.866 393.735 323.756 393.735 323.602V323.572C393.735 323.2 393.629 322.912 393.419 322.707C393.212 322.503 392.902 322.401 392.49 322.401C392.061 322.401 391.723 322.496 391.476 322.686C391.232 322.874 391.063 323.082 390.969 323.312L389.771 323.04C389.914 322.642 390.121 322.321 390.394 322.077C390.669 321.83 390.986 321.651 391.344 321.54C391.702 321.426 392.078 321.369 392.473 321.369C392.735 321.369 393.012 321.401 393.304 321.463C393.6 321.523 393.875 321.634 394.131 321.795C394.389 321.957 394.601 322.189 394.766 322.49C394.931 322.788 395.013 323.176 395.013 323.653V328H393.769V327.105H393.718C393.635 327.27 393.512 327.432 393.347 327.591C393.182 327.75 392.97 327.882 392.712 327.987C392.453 328.092 392.144 328.145 391.783 328.145ZM392.06 327.122C392.412 327.122 392.713 327.053 392.963 326.913C393.216 326.774 393.408 326.592 393.539 326.368C393.672 326.141 393.739 325.898 393.739 325.639V324.795C393.693 324.841 393.605 324.884 393.475 324.923C393.347 324.96 393.2 324.993 393.036 325.021C392.871 325.047 392.71 325.071 392.554 325.094C392.398 325.114 392.267 325.131 392.162 325.145C391.915 325.176 391.689 325.229 391.485 325.303C391.283 325.376 391.121 325.483 390.999 325.622C390.879 325.759 390.82 325.94 390.82 326.168C390.82 326.483 390.936 326.722 391.169 326.884C391.402 327.043 391.699 327.122 392.06 327.122ZM396.71 328V321.455H397.942V322.494H398.01C398.129 322.142 398.339 321.865 398.64 321.663C398.944 321.459 399.288 321.357 399.672 321.357C399.751 321.357 399.845 321.359 399.953 321.365C400.064 321.371 400.15 321.378 400.213 321.386V322.605C400.162 322.591 400.071 322.575 399.94 322.558C399.809 322.538 399.679 322.528 399.548 322.528C399.247 322.528 398.979 322.592 398.743 322.72C398.51 322.845 398.325 323.02 398.189 323.244C398.052 323.466 397.984 323.719 397.984 324.003V328H396.71ZM403.531 328.128C403.003 328.128 402.531 327.993 402.117 327.723C401.705 327.45 401.381 327.062 401.145 326.56C400.912 326.054 400.796 325.447 400.796 324.74C400.796 324.033 400.914 323.428 401.149 322.925C401.388 322.422 401.715 322.037 402.129 321.77C402.544 321.503 403.014 321.369 403.54 321.369C403.946 321.369 404.273 321.438 404.52 321.574C404.77 321.707 404.963 321.864 405.1 322.043C405.239 322.222 405.347 322.379 405.423 322.516H405.5V319.273H406.774V328H405.53V326.982H405.423C405.347 327.121 405.236 327.28 405.091 327.459C404.949 327.638 404.753 327.794 404.503 327.928C404.253 328.061 403.929 328.128 403.531 328.128ZM403.813 327.041C404.179 327.041 404.489 326.945 404.742 326.751C404.997 326.555 405.191 326.284 405.321 325.938C405.455 325.591 405.521 325.187 405.521 324.727C405.521 324.273 405.456 323.875 405.325 323.534C405.195 323.193 405.003 322.928 404.75 322.737C404.497 322.547 404.185 322.452 403.813 322.452C403.429 322.452 403.11 322.551 402.854 322.75C402.598 322.949 402.405 323.22 402.274 323.564C402.146 323.908 402.083 324.295 402.083 324.727C402.083 325.165 402.148 325.558 402.279 325.908C402.409 326.257 402.602 326.534 402.858 326.739C403.117 326.94 403.435 327.041 403.813 327.041ZM410.012 328L408.086 321.455H409.403L410.685 326.261H410.749L412.036 321.455H413.353L414.631 326.24H414.695L415.969 321.455H417.286L415.364 328H414.064L412.735 323.274H412.637L411.307 328H410.012ZM420.4 328.145C419.985 328.145 419.61 328.068 419.275 327.915C418.94 327.759 418.674 327.533 418.478 327.237C418.285 326.942 418.188 326.58 418.188 326.151C418.188 325.781 418.259 325.477 418.401 325.239C418.544 325 418.735 324.811 418.977 324.672C419.218 324.533 419.488 324.428 419.786 324.357C420.085 324.286 420.389 324.232 420.698 324.195C421.09 324.149 421.409 324.112 421.653 324.084C421.897 324.053 422.075 324.003 422.186 323.935C422.296 323.866 422.352 323.756 422.352 323.602V323.572C422.352 323.2 422.247 322.912 422.036 322.707C421.829 322.503 421.519 322.401 421.107 322.401C420.678 322.401 420.34 322.496 420.093 322.686C419.849 322.874 419.68 323.082 419.586 323.312L418.389 323.04C418.531 322.642 418.738 322.321 419.011 322.077C419.286 321.83 419.603 321.651 419.961 321.54C420.319 321.426 420.695 321.369 421.09 321.369C421.352 321.369 421.629 321.401 421.921 321.463C422.217 321.523 422.492 321.634 422.748 321.795C423.007 321.957 423.218 322.189 423.383 322.49C423.548 322.788 423.63 323.176 423.63 323.653V328H422.386V327.105H422.335C422.252 327.27 422.129 327.432 421.964 327.591C421.799 327.75 421.588 327.882 421.329 327.987C421.07 328.092 420.761 328.145 420.4 328.145ZM420.677 327.122C421.029 327.122 421.33 327.053 421.58 326.913C421.833 326.774 422.025 326.592 422.156 326.368C422.289 326.141 422.356 325.898 422.356 325.639V324.795C422.311 324.841 422.222 324.884 422.092 324.923C421.964 324.96 421.818 324.993 421.653 325.021C421.488 325.047 421.328 325.071 421.171 325.094C421.015 325.114 420.884 325.131 420.779 325.145C420.532 325.176 420.306 325.229 420.102 325.303C419.9 325.376 419.738 325.483 419.616 325.622C419.497 325.759 419.437 325.94 419.437 326.168C419.437 326.483 419.553 326.722 419.786 326.884C420.019 327.043 420.316 327.122 420.677 327.122ZM425.327 328V321.455H426.559V322.494H426.627C426.746 322.142 426.956 321.865 427.258 321.663C427.562 321.459 427.905 321.357 428.289 321.357C428.368 321.357 428.462 321.359 428.57 321.365C428.681 321.371 428.768 321.378 428.83 321.386V322.605C428.779 322.591 428.688 322.575 428.557 322.558C428.427 322.538 428.296 322.528 428.165 322.528C427.864 322.528 427.596 322.592 427.36 322.72C427.127 322.845 426.942 323.02 426.806 323.244C426.67 323.466 426.601 323.719 426.601 324.003V328H425.327ZM432.519 328.132C431.874 328.132 431.319 327.994 430.853 327.719C430.39 327.44 430.032 327.05 429.779 326.547C429.529 326.041 429.404 325.449 429.404 324.77C429.404 324.099 429.529 323.509 429.779 322.997C430.032 322.486 430.384 322.087 430.836 321.8C431.291 321.513 431.822 321.369 432.43 321.369C432.799 321.369 433.157 321.43 433.504 321.553C433.85 321.675 434.161 321.866 434.437 322.128C434.713 322.389 434.93 322.729 435.089 323.146C435.248 323.561 435.328 324.065 435.328 324.659V325.111H430.124V324.156H434.079C434.079 323.821 434.011 323.524 433.874 323.266C433.738 323.004 433.546 322.798 433.299 322.648C433.055 322.497 432.768 322.422 432.438 322.422C432.08 322.422 431.768 322.51 431.501 322.686C431.237 322.859 431.032 323.087 430.887 323.368C430.745 323.646 430.674 323.949 430.674 324.276V325.021C430.674 325.459 430.751 325.831 430.904 326.138C431.061 326.445 431.278 326.679 431.556 326.841C431.835 327 432.16 327.08 432.532 327.08C432.774 327.08 432.994 327.045 433.193 326.977C433.392 326.906 433.563 326.801 433.708 326.662C433.853 326.523 433.964 326.351 434.041 326.146L435.247 326.364C435.15 326.719 434.977 327.03 434.727 327.297C434.48 327.561 434.169 327.767 433.794 327.915C433.421 328.06 432.997 328.132 432.519 328.132Z" fill="white"/>
<path d="M492 137H398.788C387.743 137 378.788 145.954 378.788 157V171C378.788 182.046 369.834 191 358.788 191H224" stroke="#DFE5FF"/>
<path d="M492 288H398.788C387.743 288 378.788 279.046 378.788 268V262C378.788 250.954 369.834 242 358.788 242H224" stroke="#DFE5FF"/>
<circle cx="253" cy="313" r="4" fill="#C2FFF2"/>
<circle cx="265" cy="313" r="4" fill="#77F1D7"/>
<circle cx="277" cy="313" r="4" fill="#44CAAD"/>
<circle cx="289" cy="313" r="4" fill="#01C79C"/>
<circle cx="301" cy="313" r="4" fill="#00A581"/>
<path d="M55 288H148.212C159.257 288 168.212 279.046 168.212 268V262C168.212 250.954 177.166 242 188.212 242H323" stroke="#DFE5FF"/>
<g filter="url(#filter4_f_5920_8146)">
<circle cx="275" cy="230" r="51" fill="url(#paint0_linear_5920_8146)"/>
</g>
<circle cx="275" cy="216" r="71" fill="url(#paint1_linear_5920_8146)"/>
<g filter="url(#filter5_f_5920_8146)">
<circle cx="275.002" cy="228.348" r="32.9275" fill="#00E6B8"/>
</g>
<circle cx="275.002" cy="216" r="45.2754" fill="url(#paint2_linear_5920_8146)"/>
<circle cx="275.002" cy="216" r="44.7754" stroke="white" stroke-opacity="0.69"/>
<g clip-path="url(#clip1_5920_8146)">
<path d="M282.059 206.481H267.938C266.583 206.481 265.48 207.584 265.48 208.939V223.061C265.48 224.416 266.583 225.518 267.938 225.518H282.06C283.415 225.518 284.517 224.416 284.517 223.061V208.939C284.517 207.584 283.415 206.481 282.06 206.481H282.059Z" fill="#3CB097"/>
<path d="M298.535 210.797C299.344 210.797 300 210.141 300 209.332C300 208.523 299.344 207.867 298.535 207.867H293.724V204.128H298.535C299.344 204.128 300 203.473 300 202.663C300 201.854 299.344 201.199 298.535 201.199H293.52C293.012 199.404 291.596 197.988 289.802 197.48V192.465C289.802 191.656 289.146 191 288.337 191C287.528 191 286.872 191.656 286.872 192.465V197.276H283.133V192.465C283.133 191.656 282.478 191 281.668 191C280.859 191 280.204 191.656 280.204 192.465V197.276H276.465V192.465C276.465 191.656 275.809 191 275 191C274.191 191 273.536 191.656 273.536 192.465V197.276H269.797V192.465C269.797 191.656 269.141 191 268.332 191C267.523 191 266.867 191.656 266.867 192.465V197.276H263.128V192.465C263.128 191.656 262.473 191 261.663 191C260.854 191 260.199 191.656 260.199 192.465V197.48C258.404 197.988 256.988 199.404 256.48 201.199H251.465C250.656 201.199 250 201.854 250 202.663C250 203.473 250.656 204.128 251.465 204.128H256.276V207.867H251.465C250.656 207.867 250 208.523 250 209.331C250 210.141 250.656 210.796 251.465 210.796H256.276V214.535H251.465C250.656 214.535 250 215.191 250 216C250 216.809 250.656 217.465 251.465 217.465H256.276V221.203H251.465C250.656 221.203 250 221.859 250 222.668C250 223.477 250.656 224.133 251.465 224.133H256.276V227.872H251.465C250.656 227.872 250 228.527 250 229.337C250 230.146 250.656 230.801 251.465 230.801H256.48C256.988 232.596 258.404 234.012 260.199 234.52V239.535C260.199 240.344 260.854 241 261.663 241C262.473 241 263.128 240.344 263.128 239.535V234.724H266.867V239.535C266.867 240.344 267.523 241 268.332 241C269.141 241 269.797 240.344 269.797 239.535V234.724H273.535V239.535C273.535 240.344 274.191 241 275 241C275.809 241 276.465 240.344 276.465 239.535V234.724H280.204V239.535C280.204 240.344 280.859 241 281.668 241C282.477 241 283.133 240.344 283.133 239.535V234.724H286.872V239.535C286.872 240.344 287.527 241 288.337 241C289.146 241 289.801 240.344 289.801 239.535V234.52C291.596 234.012 293.012 232.596 293.52 230.801H298.535C299.344 230.801 300 230.146 300 229.337C300 228.527 299.344 227.872 298.535 227.872H293.724V224.133H298.535C299.344 224.133 300 223.477 300 222.669C300 221.859 299.344 221.204 298.535 221.204H293.724V217.465H298.535C299.344 217.465 300 216.809 300 216C300 215.191 299.344 214.535 298.535 214.535H293.724V210.797H298.535ZM287.448 223.061C287.448 226.031 285.032 228.448 282.061 228.448H267.939C264.969 228.448 262.552 226.031 262.552 223.061V208.939C262.552 205.969 264.969 203.552 267.939 203.552H282.061C285.032 203.552 287.448 205.969 287.448 208.939V223.061Z" fill="#3CB097"/>
</g>
<g filter="url(#filter6_d_5920_8146)">
<g clip-path="url(#clip2_5920_8146)">
<rect x="197" y="367" width="155" height="107.556" rx="8.61111" fill="white"/>
<g clip-path="url(#clip3_5920_8146)">
<path d="M207.953 383.023C207.953 382.859 208.018 382.702 208.134 382.586C208.25 382.47 208.408 382.405 208.572 382.405H209.81C209.974 382.405 210.131 382.47 210.248 382.586C210.364 382.702 210.429 382.859 210.429 383.023V384.88C210.429 385.044 210.364 385.202 210.248 385.318C210.131 385.434 209.974 385.499 209.81 385.499H208.572C208.408 385.499 208.25 385.434 208.134 385.318C208.018 385.202 207.953 385.044 207.953 384.88V383.023ZM211.048 380.548C211.048 380.384 211.113 380.226 211.229 380.11C211.345 379.994 211.503 379.929 211.667 379.929H212.905C213.069 379.929 213.226 379.994 213.342 380.11C213.458 380.226 213.523 380.384 213.523 380.548V384.88C213.523 385.044 213.458 385.202 213.342 385.318C213.226 385.434 213.069 385.499 212.905 385.499H211.667C211.503 385.499 211.345 385.434 211.229 385.318C211.113 385.202 211.048 385.044 211.048 384.88V380.548ZM214.142 377.453C214.142 377.289 214.208 377.132 214.324 377.016C214.44 376.899 214.597 376.834 214.761 376.834H215.999C216.163 376.834 216.321 376.899 216.437 377.016C216.553 377.132 216.618 377.289 216.618 377.453V384.88C216.618 385.044 216.553 385.202 216.437 385.318C216.321 385.434 216.163 385.499 215.999 385.499H214.761C214.597 385.499 214.44 385.434 214.324 385.318C214.208 385.202 214.142 385.044 214.142 384.88V377.453Z" fill="#3E4958"/>
</g>
<path d="M222.41 376.596H225.442C226.093 376.596 226.649 376.694 227.108 376.89C227.567 377.087 227.918 377.377 228.161 377.762C228.409 378.142 228.532 378.613 228.532 379.174C228.532 379.602 228.454 379.979 228.297 380.304C228.14 380.63 227.918 380.905 227.632 381.129C227.345 381.348 227.004 381.519 226.607 381.641L226.16 381.859H223.435L223.423 380.687H225.465C225.819 380.687 226.113 380.624 226.348 380.499C226.584 380.373 226.76 380.202 226.878 379.987C227 379.767 227.061 379.52 227.061 379.245C227.061 378.947 227.002 378.688 226.884 378.468C226.77 378.244 226.594 378.074 226.354 377.956C226.115 377.834 225.811 377.773 225.442 377.773H223.888V385.167H222.41V376.596ZM227.302 385.167L225.289 381.317L226.837 381.311L228.88 385.09V385.167H227.302ZM232.67 385.284C232.2 385.284 231.774 385.208 231.393 385.055C231.016 384.898 230.695 384.68 230.428 384.402C230.165 384.123 229.963 383.795 229.821 383.418C229.68 383.042 229.609 382.636 229.609 382.2V381.964C229.609 381.466 229.682 381.015 229.827 380.611C229.972 380.206 230.175 379.861 230.434 379.575C230.693 379.284 230.999 379.062 231.352 378.909C231.705 378.756 232.088 378.68 232.5 378.68C232.955 378.68 233.353 378.756 233.695 378.909C234.036 379.062 234.319 379.278 234.542 379.557C234.77 379.832 234.939 380.159 235.049 380.54C235.162 380.921 235.219 381.341 235.219 381.8V382.406H230.298V381.388H233.818V381.276C233.81 381.021 233.759 380.781 233.665 380.558C233.575 380.334 233.436 380.153 233.247 380.016C233.059 379.879 232.808 379.81 232.494 379.81C232.258 379.81 232.048 379.861 231.864 379.963C231.683 380.061 231.532 380.204 231.411 380.393C231.289 380.581 231.195 380.809 231.128 381.076C231.065 381.339 231.034 381.635 231.034 381.964V382.2C231.034 382.479 231.071 382.738 231.146 382.977C231.224 383.212 231.338 383.418 231.487 383.595C231.636 383.772 231.817 383.911 232.029 384.013C232.241 384.111 232.482 384.16 232.753 384.16C233.094 384.16 233.398 384.091 233.665 383.954C233.932 383.817 234.164 383.623 234.36 383.371L235.107 384.095C234.97 384.296 234.792 384.488 234.572 384.672C234.352 384.853 234.083 385 233.765 385.114C233.451 385.228 233.086 385.284 232.67 385.284ZM238.316 384.042L239.876 378.798H241.347L239.134 385.167H238.216L238.316 384.042ZM237.121 378.798L238.71 384.066L238.787 385.167H237.868L235.643 378.798H237.121ZM244.95 385.284C244.479 385.284 244.053 385.208 243.672 385.055C243.296 384.898 242.974 384.68 242.707 384.402C242.444 384.123 242.242 383.795 242.101 383.418C241.959 383.042 241.889 382.636 241.889 382.2V381.964C241.889 381.466 241.961 381.015 242.106 380.611C242.252 380.206 242.454 379.861 242.713 379.575C242.972 379.284 243.278 379.062 243.631 378.909C243.984 378.756 244.367 378.68 244.779 378.68C245.234 378.68 245.633 378.756 245.974 378.909C246.315 379.062 246.598 379.278 246.822 379.557C247.049 379.832 247.218 380.159 247.328 380.54C247.442 380.921 247.499 381.341 247.499 381.8V382.406H242.577V381.388H246.098V381.276C246.09 381.021 246.039 380.781 245.944 380.558C245.854 380.334 245.715 380.153 245.527 380.016C245.338 379.879 245.087 379.81 244.773 379.81C244.538 379.81 244.328 379.861 244.143 379.963C243.963 380.061 243.812 380.204 243.69 380.393C243.568 380.581 243.474 380.809 243.407 381.076C243.345 381.339 243.313 381.635 243.313 381.964V382.2C243.313 382.479 243.351 382.738 243.425 382.977C243.504 383.212 243.617 383.418 243.766 383.595C243.916 383.772 244.096 383.911 244.308 384.013C244.52 384.111 244.761 384.16 245.032 384.16C245.374 384.16 245.678 384.091 245.944 383.954C246.211 383.817 246.443 383.623 246.639 383.371L247.387 384.095C247.249 384.296 247.071 384.488 246.851 384.672C246.631 384.853 246.362 385 246.045 385.114C245.731 385.228 245.366 385.284 244.95 385.284ZM250.012 380.157V385.167H248.593V378.798H249.93L250.012 380.157ZM249.759 381.747L249.3 381.741C249.304 381.29 249.367 380.875 249.488 380.499C249.614 380.122 249.786 379.798 250.006 379.527C250.23 379.257 250.497 379.049 250.807 378.904C251.117 378.754 251.462 378.68 251.843 378.68C252.149 378.68 252.426 378.723 252.673 378.809C252.924 378.892 253.138 379.027 253.314 379.215C253.495 379.404 253.632 379.649 253.726 379.951C253.821 380.25 253.868 380.616 253.868 381.052V385.167H252.443V381.046C252.443 380.74 252.398 380.499 252.308 380.322C252.221 380.142 252.094 380.014 251.925 379.94C251.76 379.861 251.554 379.822 251.307 379.822C251.064 379.822 250.846 379.873 250.654 379.975C250.461 380.077 250.299 380.216 250.165 380.393C250.036 380.569 249.936 380.773 249.865 381.005C249.794 381.237 249.759 381.484 249.759 381.747ZM259.148 383.666V378.798H260.572V385.167H259.23L259.148 383.666ZM259.348 382.341L259.825 382.329C259.825 382.757 259.778 383.152 259.684 383.513C259.589 383.87 259.444 384.182 259.248 384.449C259.052 384.712 258.801 384.918 258.495 385.067C258.188 385.212 257.821 385.284 257.394 385.284C257.084 385.284 256.799 385.239 256.54 385.149C256.281 385.059 256.058 384.92 255.869 384.731C255.685 384.543 255.541 384.298 255.439 383.995C255.337 383.693 255.286 383.332 255.286 382.912V378.798H256.705V382.924C256.705 383.156 256.732 383.35 256.787 383.507C256.842 383.66 256.917 383.783 257.011 383.878C257.105 383.972 257.215 384.039 257.341 384.078C257.466 384.117 257.6 384.137 257.741 384.137C258.145 384.137 258.463 384.058 258.695 383.901C258.93 383.74 259.097 383.524 259.195 383.254C259.297 382.983 259.348 382.679 259.348 382.341ZM264.834 385.284C264.363 385.284 263.938 385.208 263.557 385.055C263.18 384.898 262.858 384.68 262.592 384.402C262.329 384.123 262.126 383.795 261.985 383.418C261.844 383.042 261.773 382.636 261.773 382.2V381.964C261.773 381.466 261.846 381.015 261.991 380.611C262.136 380.206 262.338 379.861 262.597 379.575C262.856 379.284 263.163 379.062 263.516 378.909C263.869 378.756 264.252 378.68 264.664 378.68C265.119 378.68 265.517 378.756 265.859 378.909C266.2 379.062 266.483 379.278 266.706 379.557C266.934 379.832 267.103 380.159 267.212 380.54C267.326 380.921 267.383 381.341 267.383 381.8V382.406H262.462V381.388H265.982V381.276C265.974 381.021 265.923 380.781 265.829 380.558C265.739 380.334 265.6 380.153 265.411 380.016C265.223 379.879 264.972 379.81 264.658 379.81C264.422 379.81 264.212 379.861 264.028 379.963C263.847 380.061 263.696 380.204 263.575 380.393C263.453 380.581 263.359 380.809 263.292 381.076C263.229 381.339 263.198 381.635 263.198 381.964V382.2C263.198 382.479 263.235 382.738 263.31 382.977C263.388 383.212 263.502 383.418 263.651 383.595C263.8 383.772 263.981 383.911 264.193 384.013C264.405 384.111 264.646 384.16 264.917 384.16C265.258 384.16 265.562 384.091 265.829 383.954C266.096 383.817 266.327 383.623 266.524 383.371L267.271 384.095C267.134 384.296 266.955 384.488 266.736 384.672C266.516 384.853 266.247 385 265.929 385.114C265.615 385.228 265.25 385.284 264.834 385.284ZM278.214 380.787V384.06C278.093 384.221 277.902 384.398 277.643 384.59C277.388 384.778 277.049 384.941 276.625 385.078C276.201 385.216 275.673 385.284 275.041 385.284C274.504 385.284 274.011 385.194 273.564 385.014C273.117 384.829 272.73 384.56 272.404 384.207C272.083 383.854 271.833 383.424 271.657 382.918C271.48 382.408 271.392 381.827 271.392 381.176V380.581C271.392 379.934 271.472 379.357 271.633 378.851C271.798 378.34 272.033 377.909 272.34 377.556C272.646 377.202 273.015 376.935 273.446 376.755C273.882 376.57 274.374 376.478 274.924 376.478C275.626 376.478 276.207 376.596 276.666 376.831C277.129 377.063 277.486 377.385 277.737 377.797C277.989 378.209 278.148 378.68 278.214 379.21H276.766C276.719 378.911 276.627 378.645 276.49 378.409C276.356 378.174 276.164 377.989 275.913 377.856C275.665 377.718 275.344 377.65 274.947 377.65C274.606 377.65 274.306 377.714 274.047 377.844C273.788 377.973 273.572 378.164 273.399 378.415C273.23 378.666 273.103 378.972 273.017 379.333C272.93 379.694 272.887 380.106 272.887 380.569V381.176C272.887 381.647 272.936 382.065 273.034 382.43C273.136 382.794 273.281 383.103 273.47 383.354C273.662 383.605 273.896 383.795 274.17 383.925C274.445 384.05 274.755 384.113 275.1 384.113C275.438 384.113 275.714 384.086 275.93 384.031C276.146 383.972 276.317 383.903 276.442 383.825C276.572 383.742 276.672 383.664 276.743 383.589V381.888H274.959V380.787H278.214ZM281.134 380.01V385.167H279.715V378.798H281.069L281.134 380.01ZM283.082 378.756L283.071 380.075C282.984 380.059 282.89 380.047 282.788 380.04C282.69 380.032 282.592 380.028 282.494 380.028C282.25 380.028 282.037 380.063 281.852 380.134C281.668 380.201 281.513 380.299 281.387 380.428C281.265 380.554 281.171 380.707 281.105 380.887C281.038 381.068 280.999 381.27 280.987 381.494L280.663 381.517C280.663 381.117 280.702 380.746 280.781 380.405C280.859 380.063 280.977 379.763 281.134 379.504C281.295 379.245 281.495 379.043 281.734 378.898C281.978 378.752 282.258 378.68 282.576 378.68C282.663 378.68 282.755 378.688 282.853 378.703C282.955 378.719 283.031 378.737 283.082 378.756ZM283.547 382.053V381.917C283.547 381.458 283.614 381.032 283.748 380.64C283.881 380.244 284.073 379.9 284.324 379.61C284.58 379.316 284.89 379.088 285.255 378.927C285.623 378.762 286.039 378.68 286.502 378.68C286.969 378.68 287.385 378.762 287.75 378.927C288.119 379.088 288.431 379.316 288.686 379.61C288.941 379.9 289.136 380.244 289.269 380.64C289.403 381.032 289.469 381.458 289.469 381.917V382.053C289.469 382.512 289.403 382.938 289.269 383.33C289.136 383.723 288.941 384.066 288.686 384.36C288.431 384.651 288.121 384.878 287.756 385.043C287.391 385.204 286.977 385.284 286.514 385.284C286.047 385.284 285.629 385.204 285.26 385.043C284.895 384.878 284.585 384.651 284.33 384.36C284.075 384.066 283.881 383.723 283.748 383.33C283.614 382.938 283.547 382.512 283.547 382.053ZM284.966 381.917V382.053C284.966 382.339 284.996 382.61 285.054 382.865C285.113 383.12 285.206 383.344 285.331 383.536C285.457 383.728 285.618 383.88 285.814 383.989C286.01 384.099 286.243 384.154 286.514 384.154C286.777 384.154 287.005 384.099 287.197 383.989C287.393 383.88 287.554 383.728 287.68 383.536C287.805 383.344 287.898 383.12 287.956 382.865C288.019 382.61 288.051 382.339 288.051 382.053V381.917C288.051 381.635 288.019 381.368 287.956 381.117C287.898 380.862 287.803 380.636 287.674 380.44C287.548 380.244 287.387 380.091 287.191 379.981C286.999 379.867 286.769 379.81 286.502 379.81C286.236 379.81 286.004 379.867 285.808 379.981C285.616 380.091 285.457 380.244 285.331 380.44C285.206 380.636 285.113 380.862 285.054 381.117C284.996 381.368 284.966 381.635 284.966 381.917ZM292.389 383.754L293.861 378.798H294.767L294.52 380.281L293.037 385.167H292.224L292.389 383.754ZM291.524 378.798L292.672 383.778L292.766 385.167H291.859L290.134 378.798H291.524ZM296.145 383.719L297.257 378.798H298.64L296.922 385.167H296.015L296.145 383.719ZM294.92 378.798L296.374 383.695L296.557 385.167H295.744L294.243 380.275L293.996 378.798H294.92ZM302.526 378.798V379.834H298.935V378.798H302.526ZM299.971 377.238H301.389V383.407C301.389 383.603 301.417 383.754 301.472 383.86C301.531 383.962 301.611 384.031 301.713 384.066C301.815 384.101 301.935 384.119 302.072 384.119C302.17 384.119 302.265 384.113 302.355 384.101C302.445 384.09 302.518 384.078 302.573 384.066L302.579 385.149C302.461 385.184 302.323 385.216 302.166 385.243C302.013 385.271 301.837 385.284 301.637 385.284C301.311 385.284 301.023 385.228 300.771 385.114C300.52 384.996 300.324 384.806 300.183 384.543C300.041 384.28 299.971 383.931 299.971 383.495V377.238ZM305.021 376.125V385.167H303.609V376.125H305.021ZM304.774 381.747L304.315 381.741C304.319 381.301 304.38 380.895 304.498 380.522C304.619 380.149 304.788 379.826 305.004 379.551C305.224 379.272 305.486 379.059 305.793 378.909C306.099 378.756 306.438 378.68 306.811 378.68C307.125 378.68 307.407 378.723 307.659 378.809C307.914 378.896 308.133 379.035 308.318 379.227C308.502 379.416 308.642 379.663 308.736 379.969C308.834 380.271 308.883 380.64 308.883 381.076V385.167H307.458V381.064C307.458 380.758 307.413 380.514 307.323 380.334C307.237 380.153 307.109 380.024 306.94 379.945C306.772 379.863 306.566 379.822 306.322 379.822C306.067 379.822 305.842 379.873 305.645 379.975C305.453 380.077 305.292 380.216 305.163 380.393C305.033 380.569 304.935 380.773 304.868 381.005C304.806 381.237 304.774 381.484 304.774 381.747Z" fill="#3E4958"/>
<g clip-path="url(#clip4_5920_8146)">
<rect x="207.332" y="400.5" width="13.3472" height="68.8889" rx="2.15278" fill="#F3F3F3"/>
<rect width="13.3472" height="19.1597" transform="translate(207.332 400.5)" fill="#E4FFF9"/>
<rect width="13.3472" height="19.1597" transform="translate(207.332 419.66)" fill="#10957D"/>
<rect width="13.3472" height="30.5694" transform="translate(207.332 438.819)" fill="#0C7563"/>
</g>
<g clip-path="url(#clip5_5920_8146)">
<rect x="223.691" y="400.5" width="13.3472" height="68.8889" rx="2.15278" fill="#F3F3F3"/>
<rect width="13.3472" height="15.0694" transform="translate(223.691 400.5)" fill="#E4FFF9"/>
<rect width="13.3472" height="32.7222" transform="translate(223.691 415.569)" fill="#10957D"/>
<rect width="13.3472" height="21.0972" transform="translate(223.691 448.292)" fill="#0C7563"/>
</g>
<g clip-path="url(#clip6_5920_8146)">
<rect x="240.055" y="412.986" width="13.3472" height="56.4028" rx="2.15278" fill="#F3F3F3"/>
<rect width="13.3472" height="15.5" transform="translate(240.055 412.986)" fill="#E4FFF9"/>
<rect width="13.3472" height="28.8472" transform="translate(240.055 428.486)" fill="#10957D"/>
<rect width="13.3472" height="12.0556" transform="translate(240.055 457.333)" fill="#0C7563"/>
</g>
<g clip-path="url(#clip7_5920_8146)">
<rect x="256.414" y="425.903" width="13.3472" height="43.4861" rx="2.15278" fill="#F3F3F3"/>
<rect width="13.3472" height="7.75" transform="translate(256.414 425.903)" fill="#E4FFF9"/>
<rect width="13.3472" height="14.6389" transform="translate(256.414 433.653)" fill="#10957D"/>
<rect width="13.3472" height="21.0972" transform="translate(256.414 448.292)" fill="#0C7563"/>
</g>
<g clip-path="url(#clip8_5920_8146)">
<rect x="272.777" y="436.667" width="13.3472" height="32.7222" rx="2.15278" fill="#F3F3F3"/>
<rect width="13.3472" height="15.9306" transform="translate(272.777 436.667)" fill="#E4FFF9"/>
<rect width="13.3472" height="7.75" transform="translate(272.777 452.597)" fill="#10957D"/>
<rect width="13.3472" height="9.04167" transform="translate(272.777 460.347)" fill="#0C7563"/>
</g>
<g clip-path="url(#clip9_5920_8146)">
<rect x="289.137" y="442.694" width="13.3472" height="26.6944" rx="2.15278" fill="#F3F3F3"/>
<rect width="13.3472" height="5.16667" transform="translate(289.137 442.694)" fill="#E4FFF9"/>
<rect width="13.3472" height="10.3333" transform="translate(289.137 447.861)" fill="#10957D"/>
<rect width="13.3472" height="11.1944" transform="translate(289.137 458.194)" fill="#0C7563"/>
</g>
<g clip-path="url(#clip10_5920_8146)">
<rect x="305.5" y="448.292" width="13.3472" height="21.0972" rx="2.15278" fill="#F3F3F3"/>
<rect width="13.3472" height="9.04167" transform="translate(305.5 448.292)" fill="#E4FFF9"/>
<rect width="13.3472" height="5.16667" transform="translate(305.5 457.333)" fill="#10957D"/>
<rect width="13.3472" height="6.88889" transform="translate(305.5 462.5)" fill="#0C7563"/>
</g>
<g clip-path="url(#clip11_5920_8146)">
<rect x="321.859" y="440.972" width="13.3472" height="28.4167" rx="2.15278" fill="#F3F3F3"/>
<rect width="13.3472" height="21.0972" transform="translate(321.859 440.972)" fill="#E4FFF9"/>
<rect width="13.3472" height="3.44444" transform="translate(321.859 462.069)" fill="#10957D"/>
<rect width="13.3472" height="3.875" transform="translate(321.859 465.514)" fill="#0C7563"/>
</g>
</g>
</g>
<path d="M41 137C41 123.745 51.7452 113 65 113C78.2548 113 89 123.745 89 137C89 150.255 78.2548 161 65 161C51.7452 161 41 150.255 41 137Z" fill="white"/>
<path d="M70 126H60C58.3431 126 57 127.343 57 129V145C57 146.657 58.3431 148 60 148H70C71.6569 148 73 146.657 73 145V129C73 127.343 71.6569 126 70 126Z" stroke="#005143" stroke-width="2" stroke-linecap="round" stroke-linejoin="round"/>
<path d="M63 144H67" stroke="#005143" stroke-width="2" stroke-linecap="round" stroke-linejoin="round"/>
<path d="M461 137C461 123.745 471.745 113 485 113C498.255 113 509 123.745 509 137C509 150.255 498.255 161 485 161C471.745 161 461 150.255 461 137Z" fill="white"/>
<path d="M490 126H480C478.343 126 477 127.343 477 129V145C477 146.657 478.343 148 480 148H490C491.657 148 493 146.657 493 145V129C493 127.343 491.657 126 490 126Z" stroke="#005143" stroke-width="2" stroke-linecap="round" stroke-linejoin="round"/>
<path d="M483 144H487" stroke="#005143" stroke-width="2" stroke-linecap="round" stroke-linejoin="round"/>
<path d="M41 288C41 274.745 51.7452 264 65 264C78.2548 264 89 274.745 89 288C89 301.255 78.2548 312 65 312C51.7452 312 41 301.255 41 288Z" fill="white"/>
<path d="M64 294H66V297H64V294ZM69 297V299H61V297H69ZM73 294H57C56.2046 293.999 55.442 293.683 54.8796 293.12C54.3171 292.558 54.0008 291.795 54 291V280C54.0008 279.205 54.3171 278.442 54.8796 277.88C55.442 277.317 56.2046 277.001 57 277H73C73.7954 277.001 74.558 277.317 75.1204 277.88C75.6829 278.442 75.9992 279.205 76 280V291C75.9992 291.795 75.6829 292.558 75.1204 293.12C74.558 293.683 73.7954 293.999 73 294ZM57 279C56.7348 279 56.4804 279.105 56.2929 279.293C56.1054 279.48 56 279.735 56 280V291C56 291.265 56.1054 291.52 56.2929 291.707C56.4804 291.895 56.7348 292 57 292H73C73.2652 292 73.5196 291.895 73.7071 291.707C73.8946 291.52 74 291.265 74 291V280C74 279.735 73.8946 279.48 73.7071 279.293C73.5196 279.105 73.2652 279 73 279H57Z" fill="#005143"/>
<path d="M69 291L67.086 284.62L66 289L64.691 286H64.36L63 290L61.843 285.933L61.309 287H58V286H60.691L62 283L63.068 286.713L63.64 285H65.309L65.796 285.973L67 280L69 288L69.64 286H72V287H70.36L69 291Z" fill="#005143"/>
<path d="M461 288C461 274.745 471.745 264 485 264C498.255 264 509 274.745 509 288C509 301.255 498.255 312 485 312C471.745 312 461 301.255 461 288Z" fill="white"/>
<path d="M476 284H478V289C478 291.206 479.794 293 482 293H484V298H486V293H488C490.206 293 492 291.206 492 289V284H494V282H476V284ZM480 284H490V289C490 290.103 489.103 291 488 291H482C480.897 291 480 290.103 480 289V284ZM480 278H482V281H480V278ZM488 278H490V281H488V278Z" fill="#005143"/>
<path d="M91.063 36.664H99.679V40H86.839V24.04H99.607V27.376H91.063V30.328H98.887V33.424H91.063V36.664ZM110.356 27.616C113.5 27.616 114.868 29.56 114.868 32.704V40H110.74V33.4C110.74 31.816 110.092 30.952 108.652 30.952C106.996 30.952 106.036 32.008 106.036 34.36V40H101.908V28H106.036V30.232C106.828 28.648 108.22 27.616 110.356 27.616ZM122.929 40C119.257 40 118.105 38.368 118.105 35.272V31.096H115.993V29.176L118.441 28.096L120.145 25.096H122.233V28H125.497V31.096H122.233V36.736H125.113V40H122.929ZM133.086 37.624C134.31 37.624 135.054 37.096 135.39 36.376H139.398C138.99 38.44 137.358 40.384 132.99 40.384C128.094 40.384 126.366 37.264 126.366 33.976C126.366 30.496 128.382 27.616 132.99 27.616C137.886 27.616 139.446 30.712 139.446 34.048C139.446 34.432 139.422 34.792 139.374 35.056H130.374C130.614 36.976 131.55 37.624 133.086 37.624ZM133.038 30.328C131.55 30.328 130.686 30.928 130.422 32.656H135.534C135.39 31.144 134.646 30.328 133.038 30.328ZM148.581 27.808H149.589V31.816H148.125C146.133 31.816 145.293 32.776 145.293 35.2V40H141.165V28H145.173V30.448C145.653 28.744 146.637 27.808 148.581 27.808ZM159.524 27.616C163.46 27.616 165.02 30.568 165.02 34.024C165.02 37.36 163.46 40.384 159.524 40.384C157.484 40.384 156.116 39.616 155.3 38.32V44.8H151.172V28H155.3V29.632C156.116 28.36 157.484 27.616 159.524 27.616ZM158.132 37.168C160.172 37.168 160.892 36.232 160.892 34C160.892 31.768 160.172 30.832 158.132 30.832C156.02 30.832 155.3 31.864 155.3 34C155.3 36.136 156.02 37.168 158.132 37.168ZM174.222 27.808H175.23V31.816H173.766C171.774 31.816 170.934 32.776 170.934 35.2V40H166.806V28H170.814V30.448C171.294 28.744 172.278 27.808 174.222 27.808ZM176.695 26.536V24.04H180.967V26.536H176.695ZM176.767 40V28H180.895V40H176.767ZM182.633 36.136H186.377C186.473 37.12 187.289 37.912 188.825 37.912C190.169 37.912 190.697 37.48 190.697 36.784C190.697 36.184 190.481 35.68 189.089 35.512L186.545 35.224C184.217 34.96 182.969 33.712 182.969 31.624C182.969 28.768 185.417 27.616 188.633 27.616C191.945 27.616 194.249 28.744 194.489 31.552H190.745C190.625 30.616 189.977 30.064 188.657 30.064C187.265 30.064 186.737 30.568 186.737 31.24C186.737 31.744 187.025 32.2 188.153 32.32L190.625 32.56C193.457 32.848 194.633 34 194.633 36.304C194.633 38.584 193.217 40.384 188.753 40.384C184.361 40.384 182.729 38.344 182.633 36.136ZM202.649 37.624C203.873 37.624 204.617 37.096 204.953 36.376H208.961C208.553 38.44 206.921 40.384 202.553 40.384C197.657 40.384 195.929 37.264 195.929 33.976C195.929 30.496 197.945 27.616 202.553 27.616C207.449 27.616 209.009 30.712 209.009 34.048C209.009 34.432 208.985 34.792 208.937 35.056H199.937C200.177 36.976 201.113 37.624 202.649 37.624ZM202.601 30.328C201.113 30.328 200.249 30.928 199.985 32.656H205.097C204.953 31.144 204.209 30.328 202.601 30.328ZM216.766 34.816H220.87C220.99 36.136 221.854 37.336 224.086 37.336C226.126 37.336 226.894 36.616 226.894 35.512C226.894 34.456 226.27 33.928 225.07 33.76L221.59 33.376C218.71 33.04 217.054 31.408 217.054 28.696C217.054 25.696 219.31 23.632 223.918 23.632C228.838 23.632 230.806 25.984 231.022 28.816H226.846C226.678 27.544 225.718 26.704 223.918 26.704C222.286 26.704 221.326 27.352 221.326 28.408C221.326 29.224 221.806 29.824 223.03 29.968L226.078 30.28C229.582 30.616 231.166 32.272 231.166 35.152C231.166 38.296 229.198 40.408 224.014 40.408C218.758 40.408 216.934 37.672 216.766 34.816ZM241.712 28H245.624L241.808 40.024C240.848 43.144 239.6 44.8 235.832 44.8H232.376V41.536H237.536L238.16 39.664H235.544L231.656 28H235.856L238.184 34.96L238.88 37.192L239.504 34.96L241.712 28ZM245.774 36.136H249.518C249.614 37.12 250.43 37.912 251.966 37.912C253.31 37.912 253.838 37.48 253.838 36.784C253.838 36.184 253.622 35.68 252.23 35.512L249.686 35.224C247.358 34.96 246.11 33.712 246.11 31.624C246.11 28.768 248.558 27.616 251.774 27.616C255.086 27.616 257.39 28.744 257.63 31.552H253.886C253.766 30.616 253.118 30.064 251.798 30.064C250.406 30.064 249.878 30.568 249.878 31.24C249.878 31.744 250.166 32.2 251.294 32.32L253.766 32.56C256.598 32.848 257.774 34 257.774 36.304C257.774 38.584 256.358 40.384 251.894 40.384C247.502 40.384 245.87 38.344 245.774 36.136ZM265.171 40C261.499 40 260.347 38.368 260.347 35.272V31.096H258.235V29.176L260.683 28.096L262.387 25.096H264.475V28H267.739V31.096H264.475V36.736H267.355V40H265.171ZM275.328 37.624C276.552 37.624 277.296 37.096 277.632 36.376H281.64C281.232 38.44 279.6 40.384 275.232 40.384C270.336 40.384 268.608 37.264 268.608 33.976C268.608 30.496 270.624 27.616 275.232 27.616C280.128 27.616 281.688 30.712 281.688 34.048C281.688 34.432 281.664 34.792 281.616 35.056H272.616C272.856 36.976 273.792 37.624 275.328 37.624ZM275.28 30.328C273.792 30.328 272.928 30.928 272.664 32.656H277.776C277.632 31.144 276.888 30.328 275.28 30.328ZM299.824 27.616C302.968 27.616 304.408 29.56 304.408 32.704V40H300.28V33.328C300.28 31.792 299.68 30.952 298.312 30.952C296.68 30.952 295.936 32.008 295.936 34.36V40H291.88V33.328C291.88 31.792 291.28 30.952 289.912 30.952C288.304 30.952 287.536 32.008 287.536 34.36V40H283.408V28H287.536V30.04C288.28 28.552 289.552 27.616 291.616 27.616C293.68 27.616 294.976 28.6 295.576 30.28C296.32 28.672 297.64 27.616 299.824 27.616ZM325.492 40L324.46 37H317.596L316.564 40H312.34L317.788 24.04H324.292L329.74 40H325.492ZM318.676 33.808H323.38L321.028 26.968L318.676 33.808ZM338.589 27.808H339.597V31.816H338.133C336.141 31.816 335.301 32.776 335.301 35.2V40H331.173V28H335.181V30.448C335.661 28.744 336.645 27.808 338.589 27.808ZM340.397 34C340.397 30.76 342.221 27.616 347.189 27.616C351.533 27.616 353.645 30.064 353.741 33.064H349.685C349.565 31.648 348.845 30.832 347.237 30.832C345.509 30.832 344.525 31.6 344.525 34C344.525 36.4 345.461 37.168 347.165 37.168C348.869 37.168 349.589 36.232 349.733 34.912H353.789C353.693 37.768 351.701 40.384 347.237 40.384C342.269 40.384 340.397 37.24 340.397 34ZM363.879 27.616C367.023 27.616 368.391 29.56 368.391 32.704V40H364.263V33.4C364.263 31.816 363.615 30.952 362.175 30.952C360.519 30.952 359.559 32.008 359.559 34.36V40H355.431V23.2H359.559V30.232C360.351 28.648 361.743 27.616 363.879 27.616ZM370.547 26.536V24.04H374.819V26.536H370.547ZM370.619 40V28H374.747V40H370.619ZM383.062 40C379.39 40 378.238 38.368 378.238 35.272V31.096H376.126V29.176L378.574 28.096L380.278 25.096H382.366V28H385.63V31.096H382.366V36.736H385.246V40H383.062ZM393.219 37.624C394.443 37.624 395.187 37.096 395.523 36.376H399.531C399.123 38.44 397.491 40.384 393.123 40.384C388.227 40.384 386.499 37.264 386.499 33.976C386.499 30.496 388.515 27.616 393.123 27.616C398.019 27.616 399.579 30.712 399.579 34.048C399.579 34.432 399.555 34.792 399.507 35.056H390.507C390.747 36.976 391.683 37.624 393.219 37.624ZM393.171 30.328C391.683 30.328 390.819 30.928 390.555 32.656H395.667C395.523 31.144 394.779 30.328 393.171 30.328ZM400.843 34C400.843 30.76 402.667 27.616 407.635 27.616C411.979 27.616 414.091 30.064 414.187 33.064H410.131C410.011 31.648 409.291 30.832 407.683 30.832C405.955 30.832 404.971 31.6 404.971 34C404.971 36.4 405.907 37.168 407.611 37.168C409.315 37.168 410.035 36.232 410.179 34.912H414.235C414.139 37.768 412.147 40.384 407.683 40.384C402.715 40.384 400.843 37.24 400.843 34ZM421.78 40C418.108 40 416.956 38.368 416.956 35.272V31.096H414.844V29.176L417.292 28.096L418.996 25.096H421.084V28H424.348V31.096H421.084V36.736H423.964V40H421.78ZM434.901 28H439.029V40H434.901V37.816C434.133 39.376 432.765 40.384 430.653 40.384C427.509 40.384 426.093 38.44 426.093 35.296V28H430.221V34.576C430.221 36.184 430.869 37.048 432.333 37.048C433.941 37.048 434.901 35.944 434.901 33.64V28ZM448.816 27.808H449.824V31.816H448.36C446.368 31.816 445.528 32.776 445.528 35.2V40H441.4V28H445.408V30.448C445.888 28.744 446.872 27.808 448.816 27.808ZM457.344 37.624C458.568 37.624 459.312 37.096 459.648 36.376H463.656C463.248 38.44 461.616 40.384 457.248 40.384C452.352 40.384 450.624 37.264 450.624 33.976C450.624 30.496 452.64 27.616 457.248 27.616C462.144 27.616 463.704 30.712 463.704 34.048C463.704 34.432 463.68 34.792 463.632 35.056H454.632C454.872 36.976 455.808 37.624 457.344 37.624ZM457.296 30.328C455.808 30.328 454.944 30.928 454.68 32.656H459.792C459.648 31.144 458.904 30.328 457.296 30.328Z" fill="#FBFBFB"/>
</g>
<defs>
<filter id="filter4_f_5920_8146" x="166" y="121" width="218" height="218" filterUnits="userSpaceOnUse" color-interpolation-filters="sRGB">
<feFlood flood-opacity="0" result="BackgroundImageFix"/>
<feBlend mode="normal" in="SourceGraphic" in2="BackgroundImageFix" result="shape"/>
<feGaussianBlur stdDeviation="29" result="effect1_foregroundBlur_5920_8146"/>
</filter>
<filter id="filter5_f_5920_8146" x="201.944" y="155.29" width="146.116" height="146.116" filterUnits="userSpaceOnUse" color-interpolation-filters="sRGB">
<feFlood flood-opacity="0" result="BackgroundImageFix"/>
<feBlend mode="normal" in="SourceGraphic" in2="BackgroundImageFix" result="shape"/>
<feGaussianBlur stdDeviation="20.0652" result="effect1_foregroundBlur_5920_8146"/>
</filter>
<filter id="filter6_d_5920_8146" x="182.2" y="352.2" width="184.6" height="137.156" filterUnits="userSpaceOnUse" color-interpolation-filters="sRGB">
<feFlood flood-opacity="0" result="BackgroundImageFix"/>
<feColorMatrix in="SourceAlpha" type="matrix" values="0 0 0 0 0 0 0 0 0 0 0 0 0 0 0 0 0 0 127 0" result="hardAlpha"/>
<feOffset/>
<feGaussianBlur stdDeviation="7.4"/>
<feComposite in2="hardAlpha" operator="out"/>
<feColorMatrix type="matrix" values="0 0 0 0 1 0 0 0 0 1 0 0 0 0 1 0 0 0 0.25 0"/>
<feBlend mode="normal" in2="BackgroundImageFix" result="effect1_dropShadow_5920_8146"/>
<feBlend mode="normal" in="SourceGraphic" in2="effect1_dropShadow_5920_8146" result="shape"/>
</filter>
<linearGradient id="paint0_linear_5920_8146" x1="203.528" y1="158.528" x2="322.728" y2="271.385" gradientUnits="userSpaceOnUse">
<stop stop-color="#10957D"/>
<stop offset="1" stop-color="#00D7B0"/>
</linearGradient>
<linearGradient id="paint1_linear_5920_8146" x1="175.5" y1="116.5" x2="341.445" y2="273.614" gradientUnits="userSpaceOnUse">
<stop stop-color="#10957D"/>
<stop offset="1" stop-color="#10957D"/>
</linearGradient>
<linearGradient id="paint2_linear_5920_8146" x1="248.002" y1="182.5" x2="305.002" y2="251" gradientUnits="userSpaceOnUse">
<stop stop-color="white" stop-opacity="0.95"/>
<stop offset="1" stop-color="white" stop-opacity="0.7"/>
</linearGradient>
<clipPath id="clip0_5920_8146">
<rect width="550" height="495" fill="white" transform="translate(0 0.5)"/>
</clipPath>
<clipPath id="clip1_5920_8146">
<rect width="50" height="50" fill="white" transform="translate(250 191)"/>
</clipPath>
<clipPath id="clip2_5920_8146">
<rect x="197" y="367" width="155" height="107.556" rx="8.61111" fill="white"/>
</clipPath>
<clipPath id="clip3_5920_8146">
<rect width="9.90278" height="9.90278" fill="white" transform="translate(207.332 376.215)"/>
</clipPath>
<clipPath id="clip4_5920_8146">
<rect x="207.332" y="400.5" width="13.3472" height="68.8889" rx="2.15278" fill="white"/>
</clipPath>
<clipPath id="clip5_5920_8146">
<rect x="223.691" y="400.5" width="13.3472" height="68.8889" rx="2.15278" fill="white"/>
</clipPath>
<clipPath id="clip6_5920_8146">
<rect x="240.055" y="412.986" width="13.3472" height="56.4028" rx="2.15278" fill="white"/>
</clipPath>
<clipPath id="clip7_5920_8146">
<rect x="256.414" y="425.903" width="13.3472" height="43.4861" rx="2.15278" fill="white"/>
</clipPath>
<clipPath id="clip8_5920_8146">
<rect x="272.777" y="436.667" width="13.3472" height="32.7222" rx="2.15278" fill="white"/>
</clipPath>
<clipPath id="clip9_5920_8146">
<rect x="289.137" y="442.694" width="13.3472" height="26.6944" rx="2.15278" fill="white"/>
</clipPath>
<clipPath id="clip10_5920_8146">
<rect x="305.5" y="448.292" width="13.3472" height="21.0972" rx="2.15278" fill="white"/>
</clipPath>
<clipPath id="clip11_5920_8146">
<rect x="321.859" y="440.972" width="13.3472" height="28.4167" rx="2.15278" fill="white"/>
</clipPath>
</defs>
</svg>
