<svg width="388" height="248" viewBox="0 0 388 248" fill="none" xmlns="http://www.w3.org/2000/svg">
<path d="M0.100438 124.382C0.100438 50.7805 38.2158 0.836264 98.0174 0.836264C157.49 0.836264 195.606 50.7805 195.606 124.382C195.606 198.313 159.133 247.272 98.0174 247.272C36.5729 247.272 0.100438 198.313 0.100438 124.382ZM31.9727 124.382C31.9727 182.87 56.2877 218.356 98.0174 218.356C139.747 218.356 163.733 182.87 163.733 124.382C163.733 65.238 139.747 29.7513 98.0174 29.7513C56.2877 29.7513 31.9727 65.238 31.9727 124.382ZM387.286 242.671L226.939 243V218.356L303.498 152.312C341.942 119.125 352.785 103.025 352.785 77.7241C352.785 47.8233 335.699 30.0799 307.113 30.0799C277.869 30.0799 258.811 51.4377 258.154 85.2814H225.953C226.939 34.3515 259.14 1.16484 307.441 1.16484C355.085 1.16484 385.643 30.0799 385.643 75.7526C385.643 109.596 368.886 133.583 326.827 170.055L277.54 212.771H387.286V242.671Z" fill="url(#paint0_linear_3897_6969)"/>
<defs>
<linearGradient id="paint0_linear_3897_6969" x1="-59.7371" y1="99.1013" x2="414.181" y2="99.1013" gradientUnits="userSpaceOnUse">
<stop offset="0.174427" stop-color="#005143"/>
<stop offset="1" stop-color="white"/>
</linearGradient>
</defs>
</svg>
