<svg width="395" height="248" viewBox="0 0 395 248" fill="none" xmlns="http://www.w3.org/2000/svg">
<path d="M0.100438 124.382C0.100438 50.7805 38.2158 0.836264 98.0174 0.836264C157.49 0.836264 195.606 50.7805 195.606 124.382C195.606 198.313 159.133 247.272 98.0174 247.272C36.5729 247.272 0.100438 198.313 0.100438 124.382ZM31.9727 124.382C31.9727 182.87 56.2877 218.356 98.0174 218.356C139.747 218.356 163.733 182.87 163.733 124.382C163.733 65.238 139.747 29.7513 98.0174 29.7513C56.2877 29.7513 31.9727 65.238 31.9727 124.382ZM307.77 246.943C259.14 246.943 227.596 216.056 227.596 168.741H259.468C259.468 199.299 278.197 218.028 308.427 218.028C340.628 218.028 361.328 196.67 361.328 164.469C361.328 133.911 341.942 111.239 308.755 111.239C288.712 111.239 270.312 120.768 259.468 134.24L232.196 127.34L261.111 5.43639H380.057V35.0086H284.441L268.669 98.0961C281.155 88.5672 296.927 83.6385 314.67 83.6385C362.971 83.6385 394.186 117.482 394.186 163.155C394.186 212.442 359.028 246.943 307.77 246.943Z" fill="url(#paint0_linear_5540_5315)"/>
<defs>
<linearGradient id="paint0_linear_5540_5315" x1="-60.2615" y1="99.9463" x2="419.339" y2="99.9463" gradientUnits="userSpaceOnUse">
<stop offset="0.174427" stop-color="#005143"/>
<stop offset="1" stop-color="white"/>
</linearGradient>
</defs>
</svg>
