<svg width="305" height="248" viewBox="0 0 305 248" fill="none" xmlns="http://www.w3.org/2000/svg">
<path d="M0.100438 124.382C0.100438 50.7805 38.2158 0.836264 98.0174 0.836264C157.49 0.836264 195.606 50.7805 195.606 124.382C195.606 198.313 159.133 247.272 98.0174 247.272C36.5729 247.272 0.100438 198.313 0.100438 124.382ZM31.9727 124.382C31.9727 182.87 56.2877 218.356 98.0174 218.356C139.747 218.356 163.733 182.87 163.733 124.382C163.733 65.238 139.747 29.7513 98.0174 29.7513C56.2877 29.7513 31.9727 65.238 31.9727 124.382ZM273.269 34.3515H223.325V5.43639H304.155V243H273.269V34.3515Z" fill="url(#paint0_linear_3897_6919)"/>
<defs>
<linearGradient id="paint0_linear_3897_6919" x1="-52.5" y1="99.1013" x2="343" y2="99.1013" gradientUnits="userSpaceOnUse">
<stop offset="0.174427" stop-color="#005143"/>
<stop offset="1" stop-color="white"/>
</linearGradient>
</defs>
</svg>
