<svg width="385" height="248" viewBox="0 0 385 248" fill="none" xmlns="http://www.w3.org/2000/svg">
<path d="M0.100438 124.382C0.100438 50.7805 38.2158 0.836264 98.0174 0.836264C157.49 0.836264 195.606 50.7805 195.606 124.382C195.606 198.313 159.133 247.272 98.0174 247.272C36.5729 247.272 0.100438 198.313 0.100438 124.382ZM31.9727 124.382C31.9727 182.87 56.2877 218.356 98.0174 218.356C139.747 218.356 163.733 182.87 163.733 124.382C163.733 65.238 139.747 29.7513 98.0174 29.7513C56.2877 29.7513 31.9727 65.238 31.9727 124.382ZM294.016 120.111H270.358V98.7532L337.717 34.0229H230.928V5.43639H378.461V31.3942L313.402 93.4959C353.817 98.4246 384.375 125.697 384.375 168.412C384.375 216.385 348.231 246.943 299.93 246.943C253.272 246.943 219.756 218.356 219.756 169.069H251.629C251.629 199.956 270.686 218.028 300.587 218.028C331.474 218.028 351.517 198.313 351.517 167.755C351.517 139.169 331.802 120.111 294.016 120.111Z" fill="url(#paint0_linear_3897_6979)"/>
<defs>
<linearGradient id="paint0_linear_3897_6979" x1="-59.3175" y1="99.1013" x2="410.055" y2="99.1013" gradientUnits="userSpaceOnUse">
<stop offset="0.174427" stop-color="#005143"/>
<stop offset="1" stop-color="white"/>
</linearGradient>
</defs>
</svg>
